# https://github.com/mikedh/trimesh
v -0.00700800 0.01858700 -0.01280000
v -0.00700800 0.01858700 -0.01280000
v -0.00700800 0.01858700 -0.01280000
v -0.00825000 0.01876500 0.01290000
v -0.00825000 0.01876500 0.01290000
v 0.00626600 0.01838800 0.01290000
v 0.00626600 0.01838800 0.01290000
v 0.00626600 0.01838800 0.01290000
v 0.00550000 0.01817900 -0.01280000
v -0.00550000 0.00619700 -0.01280000
v -0.00550000 0.00619700 -0.01280000
v -0.00550000 0.00619700 -0.01280000
v 0.00550000 0.00593300 -0.01280000
v 0.00550000 0.00593300 -0.01280000
v 0.00550000 0.00567000 0.01290000
v 0.00550000 0.00567000 0.01290000
v 0.00550000 0.00567000 0.01290000
v -0.00700000 0.00597000 0.01290000
v -0.00700000 0.00597000 0.01290000
v -0.00700000 0.00597000 0.01290000
f 19 16 7
f 15 18 11
f 12 20 4
f 17 14 9
f 10 3 9
f 9 2 4
f 7 5 19
f 11 13 15
f 4 1 12
f 9 8 17
f 9 13 10
f 4 6 9
f 12 1 4
f 4 20 12
f 2 9 6
f 6 4 2
f 14 17 8
f 8 9 14
f 11 18 15
f 15 13 11
f 3 10 13
f 13 9 3
f 5 7 16
f 16 19 5

