# https://github.com/mikedh/trimesh
v 0.00872100 0.01911700 -0.01280000
v 0.00872100 0.01911700 -0.01280000
v 0.00872100 0.01911700 -0.01280000
v 0.00883300 0.01925000 -0.01280000
v 0.00883300 0.01925000 -0.01280000
v 0.00883300 0.01925000 -0.01280000
v 0.00857100 0.01903000 -0.01280000
v 0.00857100 0.01903000 -0.01280000
v 0.00857100 0.01903000 -0.01280000
v 0.00857100 0.01903000 -0.01280000
v 0.00878300 0.03702500 -0.01280000
v 0.00878300 0.03702500 -0.01280000
v 0.00889200 0.01941300 -0.01280000
v 0.00889200 0.01941300 -0.01280000
v 0.00887000 0.03687400 -0.01280000
v 0.00887000 0.03687400 -0.01280000
v 0.00877600 0.03838700 0.01290000
v 0.00877600 0.03838700 0.01290000
v 0.00855000 0.01916700 0.01290000
v 0.00855000 0.01916700 0.01290000
v 0.00855000 0.01916700 0.01290000
v 0.00855000 0.01916700 0.01290000
v 0.00855000 0.01916700 0.01290000
v 0.00868300 0.01927900 0.01290000
v 0.00868300 0.01927900 0.01290000
v 0.00873300 0.01935000 0.01290000
v 0.00873300 0.01935000 0.01290000
v 0.00859900 0.03863600 0.01290000
v 0.00862100 0.01921700 0.01290000
v 0.00862100 0.01921700 0.01290000
v 0.00862100 0.01921700 0.01290000
v 0.00879200 0.01951300 0.01290000
v 0.00879200 0.01951300 0.01290000
v 0.01256100 0.01993400 0.00894300
v 0.01256100 0.01993400 0.00894300
v 0.01256100 0.01993400 0.00894300
v 0.01364200 0.02059000 0.00894300
v 0.01364200 0.02059000 0.00894300
v 0.01364200 0.02059000 0.00894300
v 0.01437800 0.02161900 0.00894300
v 0.01437800 0.02161900 0.00894300
v 0.01437800 0.04228000 0.00894400
v 0.01437800 0.04228000 0.00894400
v 0.01437800 0.04228000 0.00894400
v 0.01256100 0.04396600 0.00894400
v 0.01256100 0.04396600 0.00894400
v 0.01256100 0.04396600 0.00894400
v 0.01364200 0.02059100 -0.00774400
v 0.01364200 0.02059100 -0.00774400
v 0.01437800 0.02162000 -0.00774400
v 0.01437800 0.02162000 -0.00774400
v 0.01437800 0.04228000 -0.00774400
v 0.01437800 0.04228000 -0.00774400
v 0.01364200 0.04330900 -0.00774400
v 0.01364200 0.04330900 -0.00774400
v 0.01364200 0.04330900 -0.00774400
v 0.01256100 0.04396600 -0.00774400
v 0.01256100 0.04396600 -0.00774400
v 0.01345300 0.04161900 0.01047200
v 0.01293800 0.04245900 0.01047000
v 0.01292100 0.04244100 0.01048300
v 0.01279000 0.04259200 0.01046900
v 0.01261600 0.04268900 0.01048200
v 0.01419700 0.04219400 -0.00863800
v 0.01432700 0.04198000 -0.00857000
v 0.01433300 0.04198200 -0.00854800
v 0.01399700 0.04264800 -0.00854800
v 0.01399700 0.04264800 -0.00854800
v 0.01313700 0.04351300 -0.00852400
v 0.01313700 0.04351300 -0.00852400
v 0.01270000 0.04374900 -0.00852400
v 0.01333600 0.04336700 -0.00854700
v 0.01333600 0.04336700 -0.00854700
v 0.01431900 0.04197700 -0.00859100
v 0.01445300 0.04126000 -0.00861100
v 0.01437300 0.04173700 -0.00862000
v 0.01421600 0.04220300 -0.00861100
v 0.01425800 0.04198400 -0.00866100
v 0.01435200 0.04173200 -0.00864600
v 0.01408800 0.04236100 -0.00866100
v 0.01368000 0.04302200 -0.00860100
v 0.01331900 0.04334600 -0.00861000
v 0.01330200 0.04332300 -0.00864600
v 0.01364300 0.04298700 -0.00866100
v 0.01333200 0.04336200 -0.00856900
v 0.01333200 0.04336200 -0.00856900
v 0.01432300 0.04197900 -0.00858100
v 0.01442500 0.04125700 -0.00864600
v 0.01440100 0.04174500 -0.00855900
v 0.01447700 0.04126200 -0.00855800
v 0.01292000 0.04363400 -0.00855800
v 0.01369300 0.04303400 -0.00855800
v 0.01369300 0.04303400 -0.00855800
v 0.01369300 0.04303400 -0.00855800
v 0.01436400 0.04159600 -0.00866000
v 0.01444100 0.02230700 -0.00850400
v 0.01435100 0.02216700 -0.00864700
v 0.01435100 0.02216700 -0.00864700
v 0.01446400 0.02263800 -0.00859100
v 0.01438900 0.02215700 -0.00859200
v 0.01445300 0.02263900 -0.00861100
v 0.01438400 0.02215900 -0.00860200
v 0.01398100 0.02126200 -0.00860200
v 0.01400000 0.02125000 -0.00853700
v 0.01400000 0.02125000 -0.00853700
v 0.01399800 0.02125100 -0.00854800
v 0.01399800 0.02125100 -0.00854800
v 0.01399800 0.02125100 -0.00854800
v 0.01369500 0.02086300 -0.00854800
v 0.01369500 0.02086300 -0.00854800
v 0.01440100 0.02215400 -0.00856000
v 0.01432700 0.02191900 -0.00857100
v 0.01423400 0.02168900 -0.00857100
v 0.01399200 0.02125400 -0.00857000
v 0.01399200 0.02125400 -0.00857000
v 0.01398900 0.02125600 -0.00858100
v 0.01422600 0.02169200 -0.00859200
v 0.01369000 0.02086800 -0.00857000
v 0.01369000 0.02086800 -0.00857000
v 0.01333000 0.02053700 -0.00857000
v 0.01333000 0.02053700 -0.00857000
v 0.01447600 0.02263700 -0.00855900
v 0.01446900 0.02263800 -0.00858000
v 0.01436300 0.02229800 -0.00866100
v 0.01435200 0.04173100 0.00984600
v 0.01431900 0.04197700 0.00979100
v 0.01438500 0.04174000 0.00980100
v 0.01245800 0.04380800 0.00981100
v 0.01245800 0.04380800 0.00981100
v 0.01291100 0.04361800 0.00980100
v 0.01291100 0.04361800 0.00980100
v 0.01365500 0.04299800 0.00984600
v 0.01330200 0.04332300 0.00984600
v 0.01290200 0.04360100 0.00982900
v 0.01290200 0.04360100 0.00982900
v 0.01349500 0.04313500 0.00986000
v 0.01364300 0.04298700 0.00986100
v 0.01433300 0.04198200 0.00974800
v 0.01440400 0.04174500 0.00974800
v 0.01352400 0.04321000 0.00973600
v 0.01352400 0.04321000 0.00973600
v 0.01399700 0.04264800 0.00974800
v 0.01399700 0.04264800 0.00974800
v 0.01399700 0.04264800 0.00974800
v 0.01398900 0.04264300 0.00978100
v 0.01398900 0.04264300 0.00978100
v 0.01432300 0.04197800 0.00978100
v 0.01422600 0.04220700 0.00979100
v 0.01368400 0.04302500 0.00979100
v 0.01368400 0.04302500 0.00979100
v 0.01291400 0.04362300 0.00979000
v 0.01369300 0.04303300 0.00975800
v 0.01369300 0.04303300 0.00975800
v 0.01292000 0.04363400 0.00975800
v 0.01292000 0.04363400 0.00975800
v 0.01291600 0.04362700 0.00978000
v 0.01246600 0.04383200 0.00975700
v 0.01436400 0.04159500 0.00986000
v 0.01392400 0.02113200 0.00969800
v 0.01419700 0.02170400 0.00983800
v 0.01419700 0.02170400 0.00983800
v 0.01419000 0.02170700 0.00984600
v 0.01395200 0.02128000 0.00984600
v 0.01432700 0.02191800 0.00977000
v 0.01424000 0.02168600 0.00974800
v 0.01424000 0.02168600 0.00974800
v 0.01399800 0.02125000 0.00974800
v 0.01399800 0.02125000 0.00974800
v 0.01400000 0.02124900 0.00973600
v 0.01400000 0.02124900 0.00973600
v 0.01313500 0.02038500 0.00972400
v 0.01313500 0.02038500 0.00972400
v 0.01313500 0.02038500 0.00972400
v 0.01352300 0.02068800 0.00973600
v 0.01352300 0.02068800 0.00973600
v 0.01333400 0.02053100 0.00974700
v 0.01333400 0.02053100 0.00974700
v 0.01333400 0.02053100 0.00974700
v 0.01292000 0.02026200 0.00974700
v 0.01422600 0.02169200 0.00979100
v 0.01422600 0.02169200 0.00979100
v 0.01437800 0.02216000 0.00981100
v 0.01421000 0.02169900 0.00982000
v 0.01421000 0.02169900 0.00982000
v 0.01421600 0.02169600 0.00981100
v 0.01435100 0.02216700 0.00984600
v 0.01408300 0.02152900 0.00986000
v 0.01368000 0.02087700 0.00980100
v 0.01368000 0.02087700 0.00980100
v 0.01368000 0.02087700 0.00980100
v 0.01368000 0.02087700 0.00980100
v 0.01369000 0.02086700 0.00976900
v 0.01369000 0.02086700 0.00976900
v 0.01399200 0.02125400 0.00976900
v 0.01423400 0.02168800 0.00977000
v 0.01438900 0.02215700 0.00979100
v 0.01440100 0.02215400 0.00975900
v 0.01436300 0.02229800 0.00986000
v 0.01348000 0.04266400 0.01011300
v 0.01357400 0.04129700 0.01044300
v 0.00900000 0.04478400 -0.00950000
v 0.00900000 0.04478400 -0.00950000
v -0.00848200 0.04558400 -0.01280000
v -0.00848200 0.04558400 -0.01280000
v -0.00848200 0.04558400 -0.01280000
v -0.01260000 0.04549600 0.01290000
v -0.01260000 0.04549600 0.01290000
v -0.00570000 0.04519400 0.01290000
v -0.00570000 0.04519400 0.01290000
v -0.00570000 0.04519400 0.01290000
v -0.00570000 0.04519400 0.01290000
v -0.01260000 0.04576400 -0.01280000
v -0.01260000 0.04576400 -0.01280000
v -0.01260000 0.04576400 -0.01280000
v -0.01260000 0.02009800 0.01290000
v -0.01260000 0.01995100 -0.01280000
f 109 49 121
f 121 119 109
f 172 20 35
f 172 179 35
f 162 187 161
f 162 161 183
f 162 183 185
f 162 185 182
f 162 182 186
f 78 80 64
f 78 64 77
f 78 77 74
f 78 74 76
f 78 76 79
f 78 79 95
f 18 28 209
f 18 209 207
f 18 207 215
f 18 215 19
f 18 19 29
f 18 29 25
f 18 25 26
f 18 26 32
f 46 154 141
f 46 141 56
f 46 56 72
f 46 72 69
f 46 69 91
f 46 91 58
f 156 130 151
f 156 151 154
f 43 148 147
f 43 147 126
f 43 126 127
f 43 127 139
f 138 139 43
f 206 212 216
f 216 215 206
f 16 78 95
f 16 95 88
f 16 88 124
f 16 124 14
f 4 14 124
f 4 124 98
f 4 98 102
f 4 102 103
f 87 66 89
f 89 90 87
f 30 189 24
f 201 58 91
f 91 71 201
f 8 1 121
f 8 121 48
f 8 48 37
f 8 37 178
f 8 178 173
f 8 173 179
f 8 179 34
f 158 200 59
f 158 59 17
f 158 17 33
f 158 33 198
f 184 160 187
f 184 187 163
f 184 163 27
f 184 27 24
f 184 24 188
f 184 188 180
f 184 180 185
f 164 41 50
f 164 50 112
f 164 112 111
f 164 111 96
f 164 96 122
f 164 122 197
f 9 216 213
f 9 213 203
f 9 203 11
f 9 11 15
f 9 15 13
f 9 13 5
f 9 5 2
f 111 112 113
f 111 113 117
f 111 117 116
f 111 116 103
f 111 103 102
f 111 102 100
f 82 83 201
f 82 201 71
f 82 71 91
f 82 91 69
f 82 69 86
f 82 86 93
f 82 93 81
f 114 108 110
f 114 110 118
f 114 118 120
f 114 120 3
f 114 3 6
f 114 6 103
f 114 103 116
f 153 149 146
f 146 142 153
f 82 81 77
f 82 77 64
f 82 64 80
f 82 80 84
f 82 84 83
f 145 150 132
f 145 132 125
f 145 125 127
f 145 127 126
f 145 126 147
f 145 147 148
f 21 215 216
f 216 10 21
f 83 84 12
f 83 12 204
f 83 204 201
f 133 134 209
f 133 209 28
f 133 28 63
f 133 63 61
f 133 61 60
f 62 60 133
f 153 141 154
f 153 154 151
f 153 151 130
f 153 130 134
f 153 134 133
f 153 133 136
f 153 136 132
f 153 132 150
f 132 136 137
f 52 89 66
f 52 66 65
f 52 65 68
f 7 36 22
f 38 159 192
f 38 192 175
f 38 175 176
f 80 78 16
f 80 16 12
f 80 12 84
f 198 33 27
f 198 27 163
f 198 163 187
f 198 187 162
f 198 162 186
f 159 169 194
f 159 194 168
f 159 168 166
f 159 166 195
f 159 195 181
f 159 181 190
f 159 190 192
f 135 131 129
f 129 210 135
f 101 99 100
f 101 100 102
f 101 102 97
f 101 97 124
f 101 124 88
f 101 88 95
f 101 95 79
f 101 79 76
f 101 76 75
f 87 65 66
f 57 45 157
f 202 57 157
f 205 202 157
f 214 205 157
f 206 214 157
f 211 206 157
f 132 137 199
f 191 31 23
f 191 23 171
f 191 171 177
f 191 177 174
f 191 174 193
f 125 158 198
f 125 198 186
f 125 186 182
f 125 182 196
f 125 196 127
f 54 140 152
f 54 152 144
f 54 144 44
f 54 44 53
f 54 53 67
f 54 67 94
f 170 159 39
f 170 39 49
f 170 49 109
f 170 109 107
f 170 107 105
f 170 105 51
f 170 51 40
f 170 40 165
f 170 165 167
f 60 61 63
f 60 63 28
f 60 28 17
f 60 17 59
f 60 59 200
f 60 200 158
f 60 158 125
f 60 125 132
f 60 132 199
f 60 199 137
f 60 137 136
f 60 136 133
f 62 133 60
f 166 41 164
f 164 195 166
f 168 194 169
f 185 181 195
f 185 195 164
f 185 164 197
f 185 197 196
f 185 196 182
f 113 112 50
f 156 154 157
f 156 157 128
f 156 128 130
f 42 143 145
f 145 148 42
f 157 208 128
f 90 123 122
f 90 122 96
f 90 96 111
f 90 111 100
f 90 100 99
f 90 99 101
f 90 101 75
f 90 75 76
f 90 76 74
f 90 74 87
f 65 87 74
f 65 74 77
f 65 77 81
f 65 81 93
f 65 93 68
f 113 50 104
f 113 104 106
f 113 106 115
f 113 115 116
f 113 116 117
f 85 70 73
f 85 73 55
f 85 55 92
f 139 127 196
f 139 196 197
f 139 197 122
f 139 122 123
f 139 123 90
f 139 90 89
f 139 89 52
f 139 52 43
f 138 43 139
f 155 47 157
f 47 155 157
f 35 20 172
f 35 179 172
f 24 189 30
f 129 131 135
f 135 210 129
f 142 146 149
f 149 153 142
f 7 22 36

