# https://github.com/mikedh/trimesh
v 0.01911700 0.00872100 0.01280000
v 0.01911700 0.00872100 0.01280000
v 0.01911700 0.00872100 0.01280000
v 0.01925000 0.00883300 0.01280000
v 0.01925000 0.00883300 0.01280000
v 0.01903000 0.00857100 0.01280000
v 0.01903000 0.00857100 0.01280000
v 0.01903000 0.00857100 0.01280000
v 0.01906700 -0.01235000 0.01280000
v 0.01911700 -0.01242100 0.01280000
v 0.01911700 -0.01242100 0.01280000
v 0.01941300 0.00889200 0.01280000
v 0.01941300 0.00889200 0.01280000
v 0.03695300 0.00883300 0.01280000
v 0.03695300 0.00883300 0.01280000
v 0.01925000 -0.01253300 0.01280000
v 0.01925000 -0.01253300 0.01280000
v 0.01941300 -0.01259200 0.01280000
v 0.01941300 -0.01259200 0.01280000
v 0.01921700 -0.01242100 -0.01290000
v 0.01921700 -0.01242100 -0.01290000
v 0.01916700 -0.01235000 -0.01290000
v 0.01935000 -0.01253300 -0.01290000
v 0.01935000 -0.01253300 -0.01290000
v 0.03838700 0.00877600 -0.01290000
v 0.03838700 0.00877600 -0.01290000
v 0.01951300 -0.01259200 -0.01290000
v 0.01951300 -0.01259200 -0.01290000
v 0.01913000 0.00847100 -0.01290000
v 0.01913000 0.00847100 -0.01290000
v 0.01913000 0.00847100 -0.01290000
v 0.01916700 0.00855000 -0.01290000
v 0.01916700 0.00855000 -0.01290000
v 0.01916700 0.00855000 -0.01290000
v 0.01927900 0.00868300 -0.01290000
v 0.01927900 0.00868300 -0.01290000
v 0.01942900 0.00877000 -0.01290000
v 0.01942900 0.00877000 -0.01290000
v 0.03858500 0.00865700 -0.01290000
v 0.01921700 0.00862100 -0.01290000
v 0.01921700 0.00862100 -0.01290000
v 0.01993400 0.01256100 -0.00894300
v 0.01993400 0.01256100 -0.00894300
v 0.01993400 0.01256100 -0.00894300
v 0.02059000 0.01364200 -0.00894300
v 0.02161900 0.01437800 -0.00894300
v 0.04228000 0.01437800 -0.00894400
v 0.04228000 0.01437800 -0.00894400
v 0.04396600 0.01256100 -0.00894400
v 0.01993400 0.01256100 0.00774400
v 0.01993400 0.01256100 0.00774400
v 0.01993400 0.01256100 0.00774400
v 0.02059100 0.01364200 0.00774400
v 0.02162000 0.01437800 0.00774400
v 0.02162000 0.01437800 0.00774400
v 0.04228000 0.01437800 0.00774400
v 0.04228000 0.01437800 0.00774400
v 0.04330900 0.01364200 0.00774400
v 0.04330900 0.01364200 0.00774400
v 0.04396600 0.01256100 0.00774400
v 0.04396600 0.01256100 0.00774400
v 0.04161900 0.01345300 -0.01047200
v 0.04245900 0.01293800 -0.01047000
v 0.04259200 0.01279000 -0.01046900
v 0.04197400 0.01330200 0.00927100
v 0.04174400 0.01439800 0.00857000
v 0.04291800 0.01380700 0.00849800
v 0.04291800 0.01380700 0.00849800
v 0.04351300 0.01313700 0.00852400
v 0.04351300 0.01313700 0.00852400
v 0.04351300 0.01313700 0.00852400
v 0.04363800 0.01292200 0.00853600
v 0.04363800 0.01292200 0.00853600
v 0.04336700 0.01333600 0.00854700
v 0.04197700 0.01431900 0.00859100
v 0.04264300 0.01398900 0.00858100
v 0.04264300 0.01398900 0.00858100
v 0.04264300 0.01398900 0.00858100
v 0.04335500 0.01332600 0.00859000
v 0.04335500 0.01332600 0.00859000
v 0.04335500 0.01332600 0.00859000
v 0.04173900 0.01437900 0.00861100
v 0.04263400 0.01397600 0.00861100
v 0.04263400 0.01397600 0.00861100
v 0.04334100 0.01331500 0.00862000
v 0.04334100 0.01331500 0.00862000
v 0.04173200 0.01435200 0.00864600
v 0.04275400 0.01383600 0.00866100
v 0.04236100 0.01408800 0.00866100
v 0.04360100 0.01290200 0.00862900
v 0.04300900 0.01366600 0.00862900
v 0.04302200 0.01368000 0.00860100
v 0.04302200 0.01368000 0.00860100
v 0.04302200 0.01368000 0.00860100
v 0.04361800 0.01291100 0.00860100
v 0.04381500 0.01246000 0.00860100
v 0.04381500 0.01246000 0.00860100
v 0.04381500 0.01246000 0.00860100
v 0.04382900 0.01246500 0.00856900
v 0.04382900 0.01246500 0.00856900
v 0.04336200 0.01333200 0.00856900
v 0.04336200 0.01333200 0.00856900
v 0.04336200 0.01333200 0.00856900
v 0.04197900 0.01432300 0.00858100
v 0.04174200 0.01439000 0.00859100
v 0.04303400 0.01369300 0.00855800
v 0.04303400 0.01369300 0.00855800
v 0.04303400 0.01369300 0.00855800
v 0.04264700 0.01399500 0.00855900
v 0.04264700 0.01399500 0.00855900
v 0.04264700 0.01399500 0.00855900
v 0.04159600 0.01436400 0.00866000
v 0.02216700 0.01435100 0.00864700
v 0.02215700 0.01438900 0.00859200
v 0.02192200 0.01431800 0.00859200
v 0.02215900 0.01438400 0.00860200
v 0.02169600 0.01421600 0.00861200
v 0.02126200 0.01398100 0.00860200
v 0.02215400 0.01440300 0.00854900
v 0.02215300 0.01440500 0.00853800
v 0.02125000 0.01400000 0.00853700
v 0.02125000 0.01400000 0.00853700
v 0.02125100 0.01399800 0.00854800
v 0.02125100 0.01399800 0.00854800
v 0.02086300 0.01369500 0.00854800
v 0.02191900 0.01432700 0.00857100
v 0.02215500 0.01439700 0.00857100
v 0.02168700 0.01423700 0.00856000
v 0.02125400 0.01399200 0.00857000
v 0.02125400 0.01399200 0.00857000
v 0.02125600 0.01398900 0.00858100
v 0.02169200 0.01422600 0.00859200
v 0.02054000 0.01332800 0.00858000
v 0.02054000 0.01332800 0.00858000
v 0.02053200 0.01333400 0.00854800
v 0.02053200 0.01333400 0.00854800
v 0.02263700 0.01447600 0.00855900
v 0.02263800 0.01446900 0.00858000
v 0.02229800 0.01436300 0.00866100
v 0.04358700 0.01289400 -0.00984600
v 0.04376400 0.01244200 -0.00986100
v 0.04378000 0.01244800 -0.00984600
v 0.04173100 0.01435200 -0.00984600
v 0.04174100 0.01439000 -0.00979100
v 0.04173800 0.01437900 -0.00981100
v 0.04173700 0.01437300 -0.00982000
v 0.04392500 0.01198300 -0.00981000
v 0.04392500 0.01198300 -0.00981000
v 0.04380800 0.01245800 -0.00981100
v 0.04381400 0.01246000 -0.00980100
v 0.04361800 0.01291100 -0.00980100
v 0.04361800 0.01291100 -0.00980100
v 0.04299800 0.01365500 -0.00984600
v 0.04332300 0.01330200 -0.00984600
v 0.04360100 0.01290200 -0.00982900
v 0.04360100 0.01290200 -0.00982900
v 0.04321000 0.01352400 -0.00973600
v 0.04321000 0.01352400 -0.00973600
v 0.04321000 0.01352400 -0.00973600
v 0.04264700 0.01399500 -0.00975900
v 0.04264700 0.01399500 -0.00975900
v 0.04221300 0.01424000 -0.00974800
v 0.04221300 0.01424000 -0.00974800
v 0.04264300 0.01398900 -0.00978100
v 0.04264300 0.01398900 -0.00978100
v 0.04302500 0.01368400 -0.00979100
v 0.04302500 0.01368400 -0.00979100
v 0.04393700 0.01198500 -0.00978900
v 0.04363400 0.01292000 -0.00975800
v 0.04363400 0.01292000 -0.00975800
v 0.04382400 0.01246300 -0.00977900
v 0.04382400 0.01246300 -0.00977900
v 0.04383200 0.01246600 -0.00975700
v 0.04383200 0.01246600 -0.00975700
v 0.04159500 0.01436400 -0.00986000
v 0.02215500 0.01439700 -0.00977000
v 0.02170700 0.01419000 -0.00984600
v 0.02191600 0.01433200 -0.00974800
v 0.02125000 0.01399800 -0.00974800
v 0.02038500 0.01313500 -0.00972400
v 0.02025900 0.01292200 -0.00972400
v 0.02025900 0.01292200 -0.00972400
v 0.02053100 0.01333400 -0.00974700
v 0.02026200 0.01292000 -0.00974700
v 0.02026200 0.01292000 -0.00974700
v 0.02125600 0.01398900 -0.00978000
v 0.02054000 0.01332800 -0.00978000
v 0.02027200 0.01291500 -0.00977900
v 0.02027200 0.01291500 -0.00977900
v 0.02215800 0.01438400 -0.00980100
v 0.02089000 0.01366500 -0.00982900
v 0.02088500 0.01367100 -0.00982000
v 0.02169600 0.01421600 -0.00981100
v 0.02126500 0.01397600 -0.00981100
v 0.02216700 0.01435100 -0.00984600
v 0.02090000 0.01365400 -0.00984600
v 0.02152900 0.01408300 -0.00986000
v 0.02126100 0.01398100 -0.00980100
v 0.02087700 0.01368000 -0.00980100
v 0.02086700 0.01369000 -0.00976900
v 0.02215700 0.01438900 -0.00979100
v 0.02215300 0.01440300 -0.00974800
v 0.04129700 0.01357400 -0.01044300
v 0.02202400 0.01385000 -0.01017300
v 0.04210600 0.01325300 0.00925600
v 0.01726500 -0.00710000 -0.01290000
v 0.01726500 -0.00710000 -0.01290000
v 0.01708400 -0.00700000 0.01280000
v 0.01708400 -0.00700000 0.01280000
v 0.04441700 0.00900000 0.00950000
v 0.04441700 0.00900000 0.00950000
v 0.04476000 -0.00841400 0.01280000
v 0.04493000 -0.01260000 -0.01290000
v 0.04448000 0.00900000 -0.00950000
v 0.04448000 0.00900000 -0.00950000
v 0.04479000 -0.00570000 -0.01290000
v 0.04479000 -0.00570000 -0.01290000
v 0.04484500 -0.01260000 0.01280000
f 197 193 190
f 197 190 195
f 197 195 177
f 179 45 53
f 179 53 125
f 179 125 124
f 179 124 121
f 179 121 55
f 179 55 46
f 50 8 3
f 50 3 134
f 50 134 136
f 189 184 180
f 189 180 187
f 189 187 41
f 189 41 32
f 208 206 22
f 22 9 208
f 66 105 104
f 75 104 66
f 66 75 77
f 66 77 111
f 66 111 57
f 75 82 87
f 75 87 112
f 75 112 89
f 75 89 88
f 75 88 91
f 75 91 94
f 75 94 83
f 75 83 78
f 52 44 31
f 52 31 207
f 52 207 209
f 52 209 7
f 66 138 114
f 66 114 116
f 66 116 113
f 66 113 139
f 66 139 112
f 66 112 87
f 66 87 82
f 66 82 75
f 104 75 66
f 66 104 105
f 119 120 127
f 90 88 89
f 90 89 205
f 90 205 65
f 90 65 14
f 90 14 212
f 90 212 210
f 143 175 195
f 143 195 190
f 143 190 201
f 143 201 144
f 143 144 145
f 143 145 146
f 17 24 28
f 28 18 17
f 179 46 178
f 179 178 202
f 179 202 176
f 179 176 186
f 85 79 92
f 85 92 91
f 85 91 88
f 85 88 90
f 85 90 95
f 153 166 157
f 153 157 169
f 153 169 152
f 153 152 155
f 153 155 154
f 125 53 135
f 125 135 133
f 125 133 131
f 125 131 129
f 125 129 124
f 54 122 123
f 54 123 130
f 54 130 131
f 54 131 132
f 54 132 128
f 54 128 126
f 185 188 34
f 185 34 30
f 185 30 43
f 185 43 182
f 9 22 20
f 20 11 9
f 126 128 132
f 126 132 117
f 126 117 115
f 126 115 116
f 126 116 114
f 126 114 138
f 126 138 137
f 126 137 119
f 126 119 127
f 187 200 199
f 187 199 192
f 187 192 196
f 187 196 36
f 187 36 41
f 117 118 5
f 117 5 12
f 117 12 139
f 117 139 113
f 117 113 116
f 117 116 115
f 11 20 24
f 24 17 11
f 15 13 4
f 15 4 1
f 15 1 6
f 15 6 208
f 15 208 9
f 15 9 10
f 15 10 16
f 15 16 19
f 15 19 218
f 15 218 212
f 51 135 53
f 51 53 45
f 51 45 183
f 51 183 180
f 51 180 184
f 51 184 181
f 51 181 42
f 18 28 213
f 213 218 18
f 148 216 141
f 148 141 142
f 148 142 140
f 148 140 156
f 148 156 151
f 148 151 149
f 148 149 150
f 148 150 168
f 173 170 49
f 210 96 95
f 95 90 210
f 140 142 141
f 140 141 216
f 140 216 39
f 140 39 63
f 140 63 64
f 140 64 154
f 140 154 156
f 175 203 62
f 175 62 25
f 175 25 37
f 175 37 204
f 175 204 177
f 175 177 195
f 202 178 46
f 202 46 55
f 202 55 126
f 202 126 127
f 202 127 120
f 202 120 119
f 202 119 137
f 165 167 153
f 165 153 143
f 165 143 146
f 165 146 145
f 193 194 198
f 193 198 186
f 193 186 176
f 193 176 201
f 193 201 190
f 63 39 25
f 63 25 62
f 63 62 203
f 63 203 175
f 63 175 143
f 63 143 153
f 63 153 154
f 63 154 64
f 151 170 173
f 151 173 172
f 151 172 149
f 213 27 23
f 213 23 21
f 213 21 22
f 213 22 206
f 213 206 29
f 213 29 33
f 213 33 40
f 213 40 35
f 213 35 38
f 213 38 26
f 213 26 39
f 213 39 216
f 150 149 172
f 70 102 81
f 70 81 86
f 70 86 95
f 70 95 97
f 70 97 99
f 144 48 162
f 144 162 160
f 144 160 165
f 144 165 145
f 191 196 192
f 191 192 199
f 200 187 180
f 200 180 183
f 200 183 45
f 200 45 179
f 200 179 186
f 200 186 198
f 200 198 199
f 100 98 211
f 100 211 61
f 100 61 72
f 100 72 69
f 191 199 198
f 191 198 194
f 191 194 193
f 191 193 197
f 191 197 177
f 191 177 204
f 191 204 37
f 191 37 36
f 191 36 196
f 138 66 57
f 138 57 48
f 138 48 144
f 138 144 201
f 138 201 176
f 138 176 202
f 138 202 137
f 158 167 164
f 158 164 161
f 158 161 163
f 158 163 47
f 158 47 56
f 158 56 110
f 158 110 67
f 158 67 108
f 158 108 59
f 68 109 76
f 68 76 84
f 68 84 93
f 68 93 80
f 68 80 103
f 68 103 106
f 118 117 132
f 118 132 131
f 118 131 133
f 118 133 2
f 118 2 5
f 14 65 205
f 14 205 89
f 14 89 112
f 14 112 139
f 14 139 12
f 159 58 74
f 159 74 71
f 159 71 73
f 159 73 60
f 159 60 49
f 159 49 170
f 173 49 60
f 173 60 210
f 173 210 212
f 173 212 218
f 173 218 213
f 173 213 216
f 173 216 214
f 215 217 147
f 215 147 168
f 215 168 150
f 215 150 171
f 215 171 174
f 74 58 107
f 74 107 101
f 74 101 71

