# https://github.com/mikedh/trimesh
v 0.08046700 -0.01770100 -0.02826800
v 0.08212200 -0.01587900 -0.02833900
v 0.08228500 -0.01563700 -0.02822300
v 0.08137300 -0.01686300 -0.02826800
v 0.08043000 -0.01766500 -0.02853300
v 0.07940700 -0.01837000 -0.02847700
v 0.08136100 -0.01684700 -0.02840200
v 0.08174600 -0.01635600 -0.02851100
v 0.08211000 -0.01585800 -0.02847200
v 0.08176200 -0.01637800 -0.02837900
v 0.08111200 -0.01714800 0.02817800
v 0.08137300 -0.01686300 0.02826600
v 0.08040300 -0.01763700 0.02866000
v 0.08087600 -0.01723400 0.02866800
v 0.08131800 -0.01679700 0.02866200
v 0.08043000 -0.01766500 0.02853100
v 0.00304600 0.01859400 0.01236100
v 0.00304600 0.01652800 0.01935100
v 0.00000000 0.01500300 0.01675500
v 0.00000000 0.01500300 0.01675500
v 0.00000000 0.00800200 0.02251600
v 0.00000000 0.00800200 0.02251600
v 0.00304600 0.01013500 0.02456200
v 0.00304600 0.01532800 0.02121000
v 0.00000000 0.00936900 -0.02199400
v 0.00304600 0.01461700 -0.02199200
v 0.00304600 0.01789100 -0.01586700
v 0.00000000 0.01613000 -0.01385700
v 0.00000000 0.01613000 -0.01385700
v 0.00000000 -0.00659200 0.02318400
v 0.00000000 -0.00659200 0.02318400
v 0.00000000 -0.01246700 0.01940000
v 0.00000000 -0.01246700 0.01940000
v 0.00304600 -0.01414400 0.02075700
v 0.00304600 -0.01865700 -0.00608100
v 0.00304600 -0.01433600 -0.02050000
v 0.00304600 -0.01357600 -0.02144200
v 0.00000000 -0.01191400 -0.02007800
v 0.00000000 -0.01191400 -0.02007800
v 0.00000000 -0.00633100 -0.02324900
v 0.00000000 -0.00633100 -0.02324900
v 0.02467900 0.01943000 0.02177900
v 0.02459300 0.01931800 0.02226300
v 0.07138200 0.01586400 0.03910100
v 0.07125400 0.01449800 0.04140500
v 0.07007800 0.01488600 0.04150700
v 0.07003500 0.01443400 0.04193100
v 0.07122000 0.01414000 0.04172700
v 0.06986000 0.01256300 0.04298100
v 0.07121800 0.01411800 0.04174500
v 0.07131400 0.01409300 0.04171600
v 0.07144700 0.01477700 0.04096900
v 0.07143500 0.01478100 0.04097900
v 0.07138200 0.01479900 0.04101200
v 0.07143800 0.01508500 0.04059300
v 0.07146400 0.01507500 0.04057400
v 0.07146100 0.01593200 0.03880900
v 0.07152500 0.01660100 0.03486900
v 0.07152000 0.01590900 0.03877700
v 0.07158400 0.01657100 0.03484000
v 0.06986000 0.01256300 -0.04298300
v 0.07121800 0.01411800 -0.04174700
v 0.07003500 0.01443400 -0.04193300
v 0.07122000 0.01414000 -0.04172900
v 0.07007800 0.01488600 -0.04150900
v 0.07125400 0.01449800 -0.04140600
v 0.03385000 0.01410000 -0.03538300
v 0.03383600 0.01344200 -0.03596300
v 0.07134900 0.01446400 -0.04138500
v 0.07137700 0.01445600 -0.04137000
v 0.07137700 0.01445600 -0.04137000
v 0.07131400 0.01409300 -0.04171800
v 0.07158400 0.01657100 -0.03484100
v 0.07152000 0.01590900 -0.03877900
v 0.07152500 0.01660100 -0.03487100
v 0.07148600 0.01556000 -0.03971600
v 0.07146100 0.01593200 -0.03881100
v 0.07135400 0.01407900 -0.04169500
v 0.07135400 0.01407900 -0.04169500
v 0.07143600 0.01443200 -0.04132400
v 0.07143600 0.01443200 -0.04132400
v 0.06728400 -0.01430800 0.04162200
v 0.06918700 -0.01095600 0.04338200
v 0.06841100 -0.01387300 0.04187100
v 0.06691200 -0.01373000 0.04226300
v 0.07089500 -0.01215200 0.04258700
v 0.03695100 -0.01484700 0.03800400
v 0.03688800 -0.01461100 0.03822500
v 0.02745800 -0.01485300 0.03450800
v 0.02766200 -0.01534700 0.03400400
v 0.06921300 -0.01098500 -0.04337800
v 0.07040500 -0.01241900 -0.04257700
v 0.07027700 -0.01219400 -0.04276100
v 0.07061800 -0.01202800 -0.04276500
v 0.06816800 -0.01348100 -0.04229900
v 0.06704000 -0.01394000 -0.04206900
v 0.06804000 -0.01326200 -0.04248500
v 0.03246200 -0.01525800 -0.03613100
v 0.03234900 -0.01493300 -0.03649400
v 0.04629400 -0.01420700 -0.04041300
v 0.04634900 -0.01446500 -0.04022100
v 0.02996900 -0.01492400 -0.03558400
v 0.02979200 -0.01437600 -0.03604300
v 0.03120300 -0.02063800 -0.02239700
v 0.03121600 -0.02065000 -0.02235100
v 0.03127400 -0.02070200 -0.02211900
v 0.08549400 -0.00610000 -0.03800000
v 0.08459400 -0.00738500 0.03800000
v 0.08588700 -0.00525800 -0.03800000
v 0.08588700 -0.00525800 -0.03800000
v 0.08588700 -0.00525800 -0.03800000
v 0.08574000 -0.00557300 0.03800000
f 84 82 16
f 16 84 85
f 88 85 16
f 87 88 16
f 89 87 16
f 90 89 16
f 34 90 16
f 35 34 16
f 104 35 16
f 106 104 16
f 105 106 16
f 6 105 16
f 5 6 16
f 1 5 16
f 4 1 16
f 11 4 16
f 12 11 16
f 15 12 16
f 14 15 16
f 13 14 16
f 4 7 10
f 1 4 10
f 5 1 10
f 6 5 10
f 96 6 10
f 95 96 10
f 92 95 10
f 93 92 10
f 94 93 10
f 107 94 10
f 3 107 10
f 2 3 10
f 9 2 10
f 8 9 10
f 24 23 22
f 18 24 22
f 19 18 22
f 59 56 55
f 57 59 55
f 44 57 55
f 42 44 55
f 43 42 55
f 17 43 55
f 18 17 55
f 24 18 55
f 46 24 55
f 47 46 55
f 48 47 55
f 45 48 55
f 50 45 55
f 51 50 55
f 54 51 55
f 53 54 55
f 52 112 49
f 53 52 49
f 54 53 49
f 51 54 49
f 50 51 49
f 48 50 49
f 47 48 49
f 66 64 62
f 61 91 94
f 110 61 94
f 107 110 94
f 83 49 112
f 86 83 112
f 108 86 112
f 4 11 12
f 7 4 12
f 10 7 12
f 8 10 12
f 9 8 12
f 2 9 12
f 3 2 12
f 107 3 12
f 109 107 12
f 112 109 12
f 108 112 12
f 14 108 12
f 15 14 12
f 61 111 76
f 63 61 76
f 64 63 76
f 62 64 76
f 66 62 76
f 69 66 76
f 72 69 76
f 78 72 76
f 71 78 76
f 80 71 76
f 50 48 45
f 29 27 17
f 19 29 17
f 18 19 17
f 34 33 30
f 90 34 30
f 89 90 30
f 87 89 30
f 88 87 30
f 85 88 30
f 86 85 30
f 83 86 30
f 99 102 103
f 98 99 103
f 36 98 103
f 37 36 103
f 38 37 103
f 41 38 103
f 91 41 103
f 94 91 103
f 93 94 103
f 92 93 103
f 95 92 103
f 97 95 103
f 101 97 103
f 100 101 103
f 77 74 76
f 81 76 77
f 70 81 77
f 79 70 77
f 72 79 77
f 69 72 77
f 66 69 77
f 64 66 77
f 63 64 77
f 65 63 77
f 68 65 77
f 67 68 77
f 26 67 77
f 27 26 77
f 17 27 77
f 43 17 77
f 42 43 77
f 44 42 77
f 57 44 77
f 58 57 77
f 60 58 77
f 73 60 77
f 75 73 77
f 49 83 30
f 47 49 30
f 46 47 30
f 24 46 30
f 23 24 30
f 22 23 30
f 104 105 6
f 35 104 6
f 36 35 6
f 98 36 6
f 99 98 6
f 102 99 6
f 103 102 6
f 100 103 6
f 101 100 6
f 97 101 6
f 95 97 6
f 96 95 6
f 28 25 40
f 28 40 39
f 28 39 32
f 28 32 31
f 28 31 21
f 28 21 20
f 26 27 29
f 67 26 29
f 68 67 29
f 65 68 29
f 63 65 29
f 61 63 29
f 91 61 29
f 41 91 29
f 25 41 29
f 37 38 33
f 36 37 33
f 35 36 33
f 34 35 33
f 14 13 16
f 108 14 16
f 86 108 16
f 85 86 16
f 16 85 84
f 82 84 16
f 76 74 77
f 75 77 76
f 73 75 76
f 60 73 76
f 58 60 76
f 57 58 76
f 59 57 76
f 56 59 76
f 55 56 76
f 53 55 76
f 52 53 76
f 112 52 76
f 109 112 76
f 106 105 104

