# https://github.com/mikedh/trimesh
v -0.00095500 0.00541600 0.01280000
v -0.00095500 0.00541600 0.01280000
v -0.00275000 0.00476300 0.01280000
v -0.00275000 0.00476300 0.01280000
v -0.00421300 0.00353500 0.01280000
v -0.00421300 0.00353500 0.01280000
v -0.00476300 0.00275000 0.01280000
v -0.00476300 0.00275000 0.01280000
v -0.00541600 0.00095500 0.01280000
v -0.00541600 0.00095500 0.01280000
v -0.00541600 -0.00095500 0.01280000
v -0.00541600 -0.00095500 0.01280000
v -0.00476300 -0.00275000 0.01280000
v -0.00476300 -0.00275000 0.01280000
v -0.00353500 -0.00421300 0.01280000
v -0.00353500 -0.00421300 0.01280000
v -0.00275000 -0.00476300 0.01280000
v -0.00275000 -0.00476300 0.01280000
v -0.00095500 -0.00541600 0.01280000
v -0.00121600 -0.00689400 -0.01290000
v -0.00121600 -0.00689400 -0.01290000
v -0.00350000 -0.00606200 -0.01290000
v -0.00350000 -0.00606200 -0.01290000
v -0.00450000 -0.00536200 -0.01290000
v -0.00450000 -0.00536200 -0.01290000
v -0.00606200 -0.00350000 -0.01290000
v -0.00606200 -0.00350000 -0.01290000
v -0.00689400 -0.00121600 -0.01290000
v -0.00689400 -0.00121600 -0.01290000
v -0.00689400 0.00121600 -0.01290000
v -0.00689400 0.00121600 -0.01290000
v -0.00606200 0.00350000 -0.01290000
v -0.00606200 0.00350000 -0.01290000
v -0.00536200 0.00450000 -0.01290000
v -0.00536200 0.00450000 -0.01290000
v -0.00350000 0.00606200 -0.01290000
v -0.00350000 0.00606200 -0.01290000
v -0.00121600 0.00689400 -0.01290000
v 0.01804000 -0.00746800 -0.01290000
v 0.01804000 -0.00746800 -0.01290000
v 0.01804000 -0.00746800 -0.01290000
v 0.01818900 -0.00700000 0.01280000
v 0.01818900 -0.00700000 0.01280000
v 0.01818900 -0.00700000 0.01280000
v 0.01819400 0.00550000 0.01280000
v 0.01819400 0.00550000 0.01280000
v 0.01819400 0.00550000 0.01280000
v 0.01804500 0.00597200 -0.01290000
v 0.01804500 0.00597200 -0.01290000
f 47 49 38
f 38 2 47
f 45 43 39
f 39 48 45
f 25 15 13
f 13 27 25
f 30 9 7
f 7 32 30
f 44 19 20
f 20 41 44
f 20 19 17
f 17 23 20
f 34 5 3
f 3 37 34
f 32 7 5
f 5 34 32
f 28 27 13
f 13 11 28
f 25 23 17
f 17 15 25
f 9 30 28
f 28 11 9
f 24 26 29
f 24 29 31
f 24 31 33
f 24 33 35
f 24 35 36
f 24 36 38
f 24 38 49
f 24 49 40
f 24 40 21
f 24 21 22
f 4 6 8
f 4 8 10
f 4 10 12
f 4 12 14
f 4 14 16
f 4 16 18
f 4 18 19
f 4 19 42
f 4 42 46
f 4 46 1
f 2 38 37
f 37 3 2
f 39 43 45
f 45 48 39

