# https://github.com/mikedh/trimesh
v 0.04344700 -0.00348400 -0.01004700
v 0.04672800 -0.00301000 -0.00911300
v 0.04777800 -0.00284000 -0.00867300
v 0.04879000 -0.00266800 -0.00814300
v 0.04974100 -0.00249800 -0.00749500
v 0.05057600 -0.00234700 -0.00668200
v 0.05122100 -0.00223600 -0.00570000
v 0.05186000 -0.00219100 -0.00345000
v 0.04559000 -0.00243900 -0.00944300
v 0.05043600 -0.00189200 -0.00661800
v 0.04447900 -0.00178300 -0.00970600
v 0.04553300 -0.00170200 -0.00938200
v 0.04339300 -0.00105600 -0.00990300
v 0.04444500 -0.00100800 -0.00961700
v 0.05163500 -0.00148300 -0.00332500
v 0.04337700 -0.00025100 -0.00977500
v 0.04824400 0.00023000 -0.00752300
v 0.04913500 0.00008900 -0.00687800
v 0.04724000 0.00094500 -0.00781000
v 0.04815400 0.00077800 -0.00726800
v 0.04432800 0.00197800 -0.00870800
v 0.04624500 0.00170600 -0.00795100
v 0.04717000 0.00152000 -0.00748700
v 0.04430300 0.00264800 -0.00828500
v 0.04619200 0.00228800 -0.00753400
v 0.04965800 0.00109200 -0.00528500
v 0.05034600 0.00065900 -0.00448900
v 0.05088900 0.00015000 -0.00361700
v 0.04232400 0.00358000 -0.00833500
v 0.04427900 0.00323600 -0.00774900
v 0.04614200 0.00278600 -0.00702000
v 0.05082300 0.00034900 -0.00334800
v 0.05129400 -0.00026700 -0.00251400
v 0.04232400 0.00413900 -0.00768300
v 0.04425700 0.00371800 -0.00711800
v 0.04609700 0.00318800 -0.00642900
v 0.04950100 0.00163000 -0.00446800
v 0.04943600 0.00181800 -0.00401700
v 0.04327700 0.00493400 -0.00517300
v 0.04599100 0.00395500 -0.00446200
v 0.03707400 0.00666400 -0.00524300
v 0.03923800 0.00620200 -0.00499700
v 0.04327100 0.00512600 -0.00438200
v 0.04596600 0.00410900 -0.00377700
v 0.04928800 0.00218500 -0.00260900
v 0.02184900 0.00846200 -0.00494300
v 0.03707900 0.00684200 -0.00428800
v 0.04594600 0.00422900 -0.00308700
v 0.03708300 0.00696600 -0.00332700
v 0.03924500 0.00649300 -0.00317100
v 0.03924800 0.00662600 -0.00133200
v 0.04030400 0.00636500 -0.00129400
v 0.03924800 0.00665000 -0.00041100
v 0.04030400 0.00638900 -0.00039800
v 0.03924800 0.00665000 0.00051000
v 0.04030400 0.00638900 0.00049800
v 0.04030300 0.00636500 0.00139300
v 0.04132800 0.00609000 0.00135300
v 0.04132800 0.00604100 0.00222100
v 0.04325700 0.00545300 0.00207100
v 0.04326900 0.00512500 0.00448100
v 0.04508800 0.00448100 0.00409700
v 0.04327500 0.00493400 0.00527200
v 0.04510600 0.00431400 0.00482000
v 0.04598900 0.00395500 0.00456000
v 0.05008100 0.00138500 0.00311100
v 0.04605400 0.00350500 0.00589500
v 0.04779400 0.00274800 0.00511500
v 0.04609400 0.00318600 0.00652900
v 0.04785200 0.00249500 0.00567300
v 0.04950000 0.00162900 0.00456700
v 0.04427500 0.00323600 0.00784700
v 0.04613900 0.00278600 0.00711900
v 0.04791700 0.00217700 0.00619800
v 0.05082300 0.00034900 0.00344500
v 0.05129500 -0.00026700 0.00261200
v 0.04429800 0.00264700 0.00838300
v 0.04618800 0.00228600 0.00763400
v 0.04799000 0.00177400 0.00666700
v 0.04885500 0.00145800 0.00607700
v 0.04965700 0.00109100 0.00538500
v 0.05034600 0.00065800 0.00458900
v 0.05088900 0.00014900 0.00371700
v 0.04432200 0.00197600 0.00880600
v 0.04624100 0.00170600 0.00804900
v 0.04806800 0.00129700 0.00705400
v 0.04815000 0.00077600 0.00736600
v 0.04903300 0.00057500 0.00673400
v 0.04336900 -0.00025300 0.00987400
v 0.04338400 -0.00105700 0.01000200
v 0.04443700 -0.00101000 0.00971600
v 0.04447100 -0.00178400 0.00980500
v 0.04552600 -0.00170300 0.00948100
v 0.05043300 -0.00189200 0.00671900
v 0.04564100 -0.00317700 0.00957800
v 0.04672000 -0.00301200 0.00921300
v 0.04777100 -0.00284200 0.00877300
v 0.04973700 -0.00249900 0.00759600
v 0.05057300 -0.00234800 0.00678300
v 0.05122000 -0.00223700 0.00580000
v 0.05162900 -0.00218800 0.00469500
v 0.05186000 -0.00219200 0.00355000
v 0.01527700 0.00700000 -0.01310000
v -0.00095500 -0.00541600 -0.01310000
v -0.00275000 -0.00476300 -0.01310000
v -0.00421300 -0.00353500 -0.01310000
v -0.00476300 -0.00275000 -0.01310000
v -0.00541600 -0.00095500 -0.01310000
v -0.00541600 0.00095500 -0.01310000
v -0.00476300 0.00275000 -0.01310000
v -0.00353500 0.00421300 -0.01310000
v -0.00188100 0.00516800 -0.01310000
v 0.01909400 0.00699600 -0.01310000
v 0.01926400 0.00696500 -0.01310000
v 0.01942600 0.00690500 -0.01310000
v 0.01970700 0.00670700 -0.01310000
v 0.01909400 -0.00699600 -0.01310000
v 0.00000000 0.00700000 0.01290000
v -0.00239400 0.00657800 0.01290000
v -0.00450000 0.00536200 0.01290000
v -0.00606200 0.00350000 0.01290000
v -0.00689400 0.00121600 0.01290000
v -0.00689400 -0.00121600 0.01290000
v -0.00606200 -0.00350000 0.01290000
v -0.00536200 -0.00450000 0.01290000
v -0.00350000 -0.00606200 0.01290000
v -0.00121600 -0.00689400 0.01290000
v 0.01900000 -0.00700000 0.01290000
v 0.01926400 0.00696500 0.01290000
v 0.01909400 0.00699600 0.01290000
v 0.01909400 -0.00699600 0.01290000
v 0.01942600 0.00690500 0.01290000
v 0.01942600 -0.00690500 0.01290000
v 0.01926400 -0.00696500 0.01290000
v 0.01970700 0.00670700 0.01290000
v 0.05168500 -0.00282700 0.00450100
v 0.05120300 -0.00397400 0.00587600
v 0.05141500 -0.00393000 0.00540600
v 0.04648000 -0.00484900 0.00919500
v 0.02968700 -0.00665700 0.01190700
v 0.04733900 -0.00470000 0.00887600
v 0.04981200 -0.00424500 0.00750900
v 0.05060400 -0.00409200 0.00675800
v 0.05159000 -0.00389200 0.00488500
v 0.02826600 -0.00719500 0.01163800
v 0.04635300 -0.00534800 0.00878900
v 0.05035000 -0.00457400 0.00645200
v 0.05105900 -0.00441500 0.00530000
v 0.05056000 -0.00308700 -0.00671300
v 0.05051700 -0.00309600 -0.00676200
v 0.03782800 -0.00607300 -0.01087200
v 0.04381700 -0.00528100 -0.00982100
v 0.04503200 -0.00508900 -0.00952900
v 0.04857100 -0.00447700 -0.00820300
v 0.04783500 -0.00461200 -0.00856400
v 0.04911000 -0.00437700 -0.00789500
v 0.04919300 -0.00436200 -0.00784300
v 0.04972200 -0.00426100 -0.00747700
v 0.05054100 -0.00410400 -0.00673000
v 0.05118400 -0.00397700 -0.00581100
v 0.05171100 -0.00386400 -0.00427100
v 0.05182400 -0.00383500 -0.00352700
v 0.01007400 -0.00849200 -0.00381200
v 0.05136900 -0.00434000 -0.00413600
v 0.05027500 -0.00459000 -0.00643800
v 0.04501000 -0.00557600 -0.00909400
v 0.03552000 -0.00678700 -0.01077400
v 0.03084700 -0.00710200 -0.01130500
v 0.02844400 -0.00719000 -0.01152300
f 131 134 140
f 145 131 140
f 146 145 140
f 139 146 140
f 75 76 102
f 83 75 102
f 82 83 102
f 100 82 102
f 101 100 102
f 136 101 102
f 104 117 151
f 105 104 151
f 106 105 151
f 107 106 151
f 108 107 151
f 109 108 151
f 110 109 151
f 111 110 151
f 112 111 151
f 103 112 151
f 113 103 151
f 114 113 151
f 115 114 151
f 116 115 151
f 16 116 151
f 13 16 151
f 14 13 151
f 11 14 151
f 12 11 151
f 9 12 151
f 2 9 151
f 1 2 151
f 152 1 151
f 159 165 164
f 160 159 164
f 161 160 164
f 70 71 81
f 68 70 81
f 67 68 81
f 69 67 81
f 73 69 81
f 74 73 81
f 79 74 81
f 80 79 81
f 105 106 125
f 125 126 105
f 120 111 112
f 112 119 120
f 110 111 120
f 120 121 110
f 107 124 125
f 125 106 107
f 122 123 108
f 108 109 122
f 107 108 123
f 123 124 107
f 38 66 32
f 45 38 32
f 71 45 32
f 81 71 32
f 82 81 32
f 83 82 32
f 75 83 32
f 76 75 32
f 33 76 32
f 138 148 147
f 137 138 147
f 143 137 147
f 146 147 148
f 145 146 148
f 128 145 148
f 127 128 148
f 163 127 148
f 167 163 148
f 166 167 148
f 165 166 148
f 164 165 148
f 121 122 109
f 109 110 121
f 102 8 162
f 136 102 162
f 101 136 162
f 144 101 162
f 30 31 25
f 35 30 25
f 36 35 25
f 37 36 25
f 26 37 25
f 117 169 168
f 161 164 148
f 162 161 148
f 144 162 148
f 138 144 148
f 134 133 140
f 100 137 143
f 94 100 143
f 99 94 143
f 98 99 143
f 142 98 143
f 33 8 102
f 102 76 33
f 114 115 24
f 34 114 24
f 29 34 24
f 30 29 24
f 31 30 24
f 25 31 24
f 22 25 24
f 21 22 24
f 42 41 47
f 113 42 47
f 103 113 47
f 46 103 47
f 103 46 118
f 112 103 118
f 119 112 118
f 69 129 130
f 67 69 130
f 65 67 130
f 64 65 130
f 62 64 130
f 61 62 130
f 63 61 130
f 101 144 138
f 100 101 138
f 137 100 138
f 73 74 79
f 72 73 79
f 77 72 79
f 78 77 79
f 85 78 79
f 86 85 79
f 87 86 79
f 88 87 79
f 80 88 79
f 68 67 65
f 70 68 65
f 71 70 65
f 45 71 65
f 44 45 65
f 48 44 65
f 60 48 65
f 61 60 65
f 62 61 65
f 64 62 65
f 128 131 145
f 44 48 60
f 40 44 60
f 39 40 60
f 43 39 60
f 42 43 60
f 41 42 60
f 47 41 60
f 49 47 60
f 50 49 60
f 51 50 60
f 52 51 60
f 54 52 60
f 53 54 60
f 55 53 60
f 56 55 60
f 57 56 60
f 58 57 60
f 59 58 60
f 73 72 129
f 129 69 73
f 154 157 156
f 15 8 33
f 7 15 33
f 27 7 33
f 28 27 33
f 32 28 33
f 141 96 97
f 142 141 97
f 98 142 97
f 15 7 160
f 8 15 160
f 162 8 160
f 161 162 160
f 166 153 152
f 167 166 152
f 168 167 152
f 117 168 152
f 151 117 152
f 19 23 22
f 20 19 22
f 17 20 22
f 18 17 22
f 5 18 22
f 4 5 22
f 42 113 114
f 43 42 114
f 39 43 114
f 40 39 114
f 36 40 114
f 35 36 114
f 30 35 114
f 29 30 114
f 34 29 114
f 60 61 63
f 59 60 63
f 58 59 63
f 57 58 63
f 56 57 63
f 55 56 63
f 53 55 63
f 54 53 63
f 52 54 63
f 51 52 63
f 50 51 63
f 49 50 63
f 47 49 63
f 46 47 63
f 118 46 63
f 130 118 63
f 117 104 163
f 169 117 163
f 168 169 163
f 167 168 163
f 27 26 25
f 7 27 25
f 10 7 25
f 6 10 25
f 5 6 25
f 18 5 25
f 17 18 25
f 20 17 25
f 19 20 25
f 23 19 25
f 22 23 25
f 159 160 7
f 150 159 7
f 149 150 7
f 6 149 7
f 10 6 7
f 12 9 2
f 11 12 2
f 14 11 2
f 13 14 2
f 16 13 2
f 116 16 2
f 115 116 2
f 24 115 2
f 21 24 2
f 22 21 2
f 4 22 2
f 3 4 2
f 44 40 36
f 45 44 36
f 38 45 36
f 37 38 36
f 81 82 100
f 80 81 100
f 88 80 100
f 98 88 100
f 99 98 100
f 94 99 100
f 84 132 129
f 85 84 129
f 78 85 129
f 77 78 129
f 72 77 129
f 139 140 133
f 141 139 133
f 96 141 133
f 95 96 133
f 93 95 133
f 92 93 133
f 91 92 133
f 90 91 133
f 89 90 133
f 135 89 133
f 132 135 133
f 129 132 133
f 130 129 133
f 118 130 133
f 119 118 133
f 120 119 133
f 121 120 133
f 122 121 133
f 123 122 133
f 124 123 133
f 125 124 133
f 126 125 133
f 127 126 133
f 128 127 133
f 131 128 133
f 134 131 133
f 37 26 27
f 38 37 27
f 66 38 27
f 32 66 27
f 28 32 27
f 126 127 163
f 105 126 163
f 104 105 163
f 143 147 146
f 142 143 146
f 141 142 146
f 139 141 146
f 3 155 154
f 4 3 154
f 5 4 154
f 6 5 154
f 149 6 154
f 150 149 154
f 159 150 154
f 158 159 154
f 157 158 154
f 156 157 154
f 166 165 159
f 153 166 159
f 155 153 159
f 154 155 159
f 157 154 159
f 158 157 159
f 89 135 132
f 90 89 132
f 91 90 132
f 92 91 132
f 93 92 132
f 95 93 132
f 96 95 132
f 97 96 132
f 84 97 132
f 97 84 85
f 98 97 85
f 88 98 85
f 87 88 85
f 86 87 85
f 152 153 155
f 1 152 155
f 2 1 155
f 3 2 155

