# https://github.com/mikedh/trimesh
v -0.00348400 0.04344700 0.01004700
v -0.00301000 0.04672800 0.00911300
v -0.00284000 0.04777800 0.00867300
v -0.00266800 0.04879000 0.00814300
v -0.00249800 0.04974100 0.00749500
v -0.00234700 0.05057600 0.00668200
v -0.00223600 0.05122100 0.00570000
v -0.00219100 0.05186000 0.00345000
v -0.00243900 0.04559000 0.00944300
v -0.00189200 0.05043600 0.00661800
v -0.00178300 0.04447900 0.00970600
v -0.00170200 0.04553300 0.00938200
v -0.00105600 0.04339300 0.00990300
v -0.00100800 0.04444500 0.00961700
v -0.00148300 0.05163500 0.00332500
v -0.00025100 0.04337700 0.00977500
v 0.00023000 0.04824400 0.00752300
v 0.00008900 0.04913500 0.00687800
v 0.00094500 0.04724000 0.00781000
v 0.00077800 0.04815400 0.00726800
v 0.00197800 0.04432800 0.00870800
v 0.00170600 0.04624500 0.00795100
v 0.00152000 0.04717000 0.00748700
v 0.00264800 0.04430300 0.00828500
v 0.00228800 0.04619200 0.00753400
v 0.00109200 0.04965800 0.00528500
v 0.00065900 0.05034600 0.00448900
v 0.00015000 0.05088900 0.00361700
v 0.00358000 0.04232400 0.00833500
v 0.00323600 0.04427900 0.00774900
v 0.00278600 0.04614200 0.00702000
v 0.00034900 0.05082300 0.00334800
v -0.00026700 0.05129400 0.00251400
v 0.00413900 0.04232400 0.00768300
v 0.00371800 0.04425700 0.00711800
v 0.00318800 0.04609700 0.00642900
v 0.00163000 0.04950100 0.00446800
v 0.00181800 0.04943600 0.00401700
v 0.00597000 0.03923200 0.00589600
v 0.00493400 0.04327700 0.00517300
v 0.00395500 0.04599100 0.00446200
v 0.00620200 0.03923800 0.00499700
v 0.00512600 0.04327100 0.00438200
v 0.00410900 0.04596600 0.00377700
v 0.00218500 0.04928800 0.00260900
v 0.00461100 0.04507500 0.00326700
v 0.00422900 0.04594600 0.00308700
v 0.00689600 0.03817200 -0.00052200
v 0.00638900 0.04030400 -0.00049800
v 0.00874700 0.02185700 -0.00171500
v 0.00808700 0.03067700 -0.00163700
v 0.00710100 0.03708600 -0.00149700
v 0.00687200 0.03817100 -0.00146500
v 0.00636500 0.04030300 -0.00139300
v 0.00609000 0.04132800 -0.00135300
v 0.00550000 0.04325500 -0.00126300
v 0.00481800 0.04504700 -0.00115800
v 0.00745100 0.03492900 -0.00255600
v 0.00705000 0.03708400 -0.00246200
v 0.00604100 0.04132800 -0.00222100
v 0.00545300 0.04325700 -0.00207100
v 0.00795400 0.03066700 -0.00375300
v 0.00736700 0.03492600 -0.00355700
v 0.00512500 0.04326900 -0.00448100
v 0.00448100 0.04508800 -0.00409700
v 0.00493400 0.04327500 -0.00527200
v 0.00431400 0.04510600 -0.00482000
v 0.00395500 0.04598900 -0.00456000
v 0.00138500 0.05008100 -0.00311100
v 0.00350500 0.04605400 -0.00589500
v 0.00274800 0.04779400 -0.00511500
v 0.00318600 0.04609400 -0.00652900
v 0.00249500 0.04785200 -0.00567300
v 0.00162900 0.04950000 -0.00456700
v 0.00323600 0.04427500 -0.00784700
v 0.00278600 0.04613900 -0.00711900
v 0.00217700 0.04791700 -0.00619800
v 0.00034900 0.05082300 -0.00344500
v -0.00026700 0.05129500 -0.00261200
v 0.00264700 0.04429800 -0.00838300
v 0.00228600 0.04618800 -0.00763400
v 0.00177400 0.04799000 -0.00666700
v 0.00145800 0.04885500 -0.00607700
v 0.00109100 0.04965700 -0.00538500
v 0.00065800 0.05034600 -0.00458900
v 0.00014900 0.05088900 -0.00371700
v 0.00197600 0.04432200 -0.00880600
v 0.00170600 0.04624100 -0.00804900
v 0.00129700 0.04806800 -0.00705400
v 0.00077600 0.04815000 -0.00736600
v 0.00057500 0.04903300 -0.00673400
v -0.00025300 0.04336900 -0.00987400
v -0.00105700 0.04338400 -0.01000200
v -0.00101000 0.04443700 -0.00971600
v -0.00178400 0.04447100 -0.00980500
v -0.00170300 0.04552600 -0.00948100
v -0.00189200 0.05043300 -0.00671900
v -0.00317700 0.04564100 -0.00957800
v -0.00301200 0.04672000 -0.00921300
v -0.00284200 0.04777100 -0.00877300
v -0.00249900 0.04973700 -0.00759600
v -0.00234800 0.05057300 -0.00678300
v -0.00223700 0.05122000 -0.00580000
v -0.00218800 0.05162900 -0.00469500
v -0.00219200 0.05186000 -0.00355000
v 0.00700000 0.01527700 0.01310000
v -0.00516800 -0.00188100 0.01310000
v -0.00421300 -0.00353500 0.01310000
v -0.00275000 -0.00476300 0.01310000
v -0.00095500 -0.00541600 0.01310000
v 0.00095500 -0.00541600 0.01310000
v 0.00275000 -0.00476300 0.01310000
v 0.00353500 -0.00421300 0.01310000
v 0.00476300 -0.00275000 0.01310000
v 0.00516800 -0.00188100 0.01310000
v 0.00699600 0.01909400 0.01310000
v 0.00696500 0.01926400 0.01310000
v 0.00690500 0.01942600 0.01310000
v 0.00670700 0.01970700 0.01310000
v -0.00699600 0.01909400 0.01310000
v 0.00700000 -0.00000000 -0.01290000
v 0.00657800 -0.00239400 -0.01290000
v 0.00606200 -0.00350000 -0.01290000
v 0.00450000 -0.00536200 -0.01290000
v 0.00350000 -0.00606200 -0.01290000
v 0.00121600 -0.00689400 -0.01290000
v -0.00121600 -0.00689400 -0.01290000
v -0.00350000 -0.00606200 -0.01290000
v -0.00536200 -0.00450000 -0.01290000
v -0.00657800 -0.00239400 -0.01290000
v -0.00689400 -0.00121600 -0.01290000
v -0.00700000 0.01900000 -0.01290000
v 0.00696500 0.01926400 -0.01290000
v 0.00699600 0.01909400 -0.01290000
v -0.00699600 0.01909400 -0.01290000
v 0.00690500 0.01942600 -0.01290000
v -0.00690500 0.01942600 -0.01290000
v -0.00696500 0.01926400 -0.01290000
v 0.00670700 0.01970700 -0.01290000
v -0.00282700 0.05168500 -0.00450100
v -0.00397400 0.05120300 -0.00587600
v -0.00393000 0.05141500 -0.00540600
v -0.00484900 0.04648000 -0.00919500
v -0.00665700 0.02968700 -0.01190700
v -0.00470000 0.04733900 -0.00887600
v -0.00424500 0.04981200 -0.00750900
v -0.00409200 0.05060400 -0.00675800
v -0.00389200 0.05159000 -0.00488500
v -0.00719500 0.02826600 -0.01163800
v -0.00534800 0.04635300 -0.00878900
v -0.00457400 0.05035000 -0.00645200
v -0.00441500 0.05105900 -0.00530000
v -0.00308700 0.05056000 0.00671300
v -0.00309600 0.05051700 0.00676200
v -0.00607300 0.03782800 0.01087200
v -0.00528100 0.04381700 0.00982100
v -0.00508900 0.04503200 0.00952900
v -0.00447700 0.04857100 0.00820300
v -0.00461200 0.04783500 0.00856400
v -0.00437700 0.04911000 0.00789500
v -0.00436200 0.04919300 0.00784300
v -0.00426100 0.04972200 0.00747700
v -0.00410400 0.05054100 0.00673000
v -0.00397700 0.05118400 0.00581100
v -0.00386400 0.05171100 0.00427100
v -0.00383500 0.05182400 0.00352700
v -0.00434000 0.05136900 0.00413600
v -0.00459000 0.05027500 0.00643800
v -0.00557600 0.04501000 0.00909400
v -0.00678700 0.03552000 0.01077400
v -0.00710200 0.03084700 0.01130500
v -0.00719000 0.02844400 0.01152300
f 144 138 135
f 149 135 144
f 150 149 144
f 143 150 144
f 78 79 105
f 86 78 105
f 85 86 105
f 103 85 105
f 104 103 105
f 140 104 105
f 163 168 167
f 164 163 167
f 165 164 167
f 83 82 77
f 84 83 77
f 74 84 77
f 73 74 77
f 71 73 77
f 70 71 77
f 72 70 77
f 76 72 77
f 105 8 166
f 140 105 166
f 104 140 166
f 148 104 166
f 172 120 171
f 66 134 121
f 64 66 121
f 61 64 121
f 60 61 121
f 55 60 121
f 54 55 121
f 49 54 121
f 48 49 121
f 53 48 121
f 52 53 121
f 59 52 121
f 58 59 121
f 63 58 121
f 62 63 121
f 51 62 121
f 50 51 121
f 44 41 36
f 45 44 36
f 38 45 36
f 37 38 36
f 132 135 149
f 169 168 163
f 157 169 163
f 159 157 163
f 158 159 163
f 161 158 163
f 162 161 163
f 165 166 8
f 164 165 8
f 7 164 8
f 8 7 15
f 113 124 125
f 125 112 113
f 27 26 25
f 7 27 25
f 10 7 25
f 6 10 25
f 5 6 25
f 18 5 25
f 17 18 25
f 20 17 25
f 19 20 25
f 23 19 25
f 22 23 25
f 125 126 111
f 111 112 125
f 108 129 130
f 130 107 108
f 142 152 151
f 141 142 151
f 147 141 151
f 115 122 123
f 123 114 115
f 115 106 50
f 122 115 50
f 121 122 50
f 97 103 141
f 102 97 141
f 101 102 141
f 146 101 141
f 147 146 141
f 110 111 126
f 126 127 110
f 150 151 152
f 149 150 152
f 132 149 152
f 131 132 152
f 170 131 152
f 169 170 152
f 168 169 152
f 167 168 152
f 72 133 134
f 70 72 134
f 68 70 134
f 67 68 134
f 65 67 134
f 64 65 134
f 66 64 134
f 76 77 82
f 75 76 82
f 80 75 82
f 81 80 82
f 88 81 82
f 89 88 82
f 90 89 82
f 91 90 82
f 83 91 82
f 160 161 158
f 116 39 42
f 106 116 42
f 50 106 42
f 51 50 42
f 62 51 42
f 63 62 42
f 58 63 42
f 59 58 42
f 52 59 42
f 53 52 42
f 48 53 42
f 49 48 42
f 54 49 42
f 55 54 42
f 60 55 42
f 61 60 42
f 56 61 42
f 57 56 42
f 46 57 42
f 47 46 42
f 44 47 42
f 41 44 42
f 40 41 42
f 43 40 42
f 34 117 118
f 29 34 118
f 30 29 118
f 31 30 118
f 25 31 118
f 22 25 118
f 21 22 118
f 24 21 118
f 114 123 124
f 124 113 114
f 128 129 108
f 108 109 128
f 87 136 133
f 88 87 133
f 81 88 133
f 80 81 133
f 75 80 133
f 163 164 7
f 154 163 7
f 153 154 7
f 6 153 7
f 10 6 7
f 109 110 127
f 127 128 109
f 104 148 142
f 103 104 142
f 141 103 142
f 37 26 27
f 38 37 27
f 69 38 27
f 32 69 27
f 28 32 27
f 138 137 144
f 30 31 25
f 35 30 25
f 36 35 25
f 37 36 25
f 26 37 25
f 18 17 20
f 5 18 20
f 4 5 20
f 22 4 20
f 23 22 20
f 19 23 20
f 85 103 97
f 84 85 97
f 83 84 97
f 91 83 97
f 101 91 97
f 102 101 97
f 107 120 155
f 108 107 155
f 109 108 155
f 110 109 155
f 111 110 155
f 112 111 155
f 113 112 155
f 114 113 155
f 115 114 155
f 106 115 155
f 116 106 155
f 117 116 155
f 118 117 155
f 119 118 155
f 16 119 155
f 13 16 155
f 14 13 155
f 11 14 155
f 12 11 155
f 9 12 155
f 2 9 155
f 1 2 155
f 156 1 155
f 8 15 7
f 27 7 8
f 28 27 8
f 32 28 8
f 33 32 8
f 76 75 133
f 133 72 76
f 169 157 156
f 170 169 156
f 171 170 156
f 120 171 156
f 155 120 156
f 38 69 32
f 45 38 32
f 74 45 32
f 84 74 32
f 85 84 32
f 86 85 32
f 78 86 32
f 79 78 32
f 33 79 32
f 39 116 117
f 42 39 117
f 43 42 117
f 40 43 117
f 41 40 117
f 36 41 117
f 35 36 117
f 30 35 117
f 29 30 117
f 34 29 117
f 147 151 150
f 146 147 150
f 145 146 150
f 143 145 150
f 74 73 71
f 45 74 71
f 44 45 71
f 47 44 71
f 46 47 71
f 57 46 71
f 56 57 71
f 61 56 71
f 64 61 71
f 65 64 71
f 67 65 71
f 68 67 71
f 70 68 71
f 3 159 158
f 4 3 158
f 5 4 158
f 6 5 158
f 153 6 158
f 154 153 158
f 163 154 158
f 162 163 158
f 161 162 158
f 158 161 160
f 131 170 171
f 130 131 171
f 107 130 171
f 120 107 171
f 171 120 172
f 165 167 152
f 166 165 152
f 148 166 152
f 142 148 152
f 145 143 144
f 99 145 144
f 98 99 144
f 96 98 144
f 95 96 144
f 94 95 144
f 93 94 144
f 92 93 144
f 139 92 144
f 136 139 144
f 133 136 144
f 134 133 144
f 121 134 144
f 122 121 144
f 123 122 144
f 124 123 144
f 125 124 144
f 126 125 144
f 127 126 144
f 128 127 144
f 129 128 144
f 130 129 144
f 131 130 144
f 132 131 144
f 135 132 144
f 144 135 138
f 137 138 144
f 101 146 145
f 100 101 145
f 99 100 145
f 139 136 87
f 92 139 87
f 93 92 87
f 94 93 87
f 95 94 87
f 96 95 87
f 98 96 87
f 99 98 87
f 100 99 87
f 79 33 8
f 8 105 79
f 156 157 159
f 1 156 159
f 2 1 159
f 3 2 159
f 12 9 2
f 11 12 2
f 14 11 2
f 13 14 2
f 16 13 2
f 119 16 2
f 118 119 2
f 24 118 2
f 21 24 2
f 22 21 2
f 4 22 2
f 3 4 2
f 100 87 88
f 101 100 88
f 91 101 88
f 90 91 88
f 89 90 88

