# https://github.com/mikedh/trimesh
v 0.03695300 0.00883300 0.01280000
v 0.03695300 0.00883300 0.01280000
v 0.01942900 -0.01257000 -0.01290000
v 0.03831200 0.00879400 -0.01290000
v 0.03831200 0.00879400 -0.01290000
v 0.01951300 -0.01259200 -0.01290000
v 0.01951300 -0.01259200 -0.01290000
v 0.03858500 0.00865700 -0.01290000
v 0.01951300 0.00879200 -0.01290000
v 0.01951300 0.00879200 -0.01290000
v 0.01951300 0.00879200 -0.01290000
v 0.01951300 0.00879200 -0.01290000
v 0.01951300 0.00879200 -0.01290000
v 0.01993400 0.01256100 -0.00894300
v 0.01993400 0.01256100 -0.00894300
v 0.01993400 0.01256100 -0.00894300
v 0.02059000 0.01364200 -0.00894300
v 0.02059000 0.01364200 -0.00894300
v 0.02161900 0.01437800 -0.00894300
v 0.02161900 0.01437800 -0.00894300
v 0.04228000 0.01437800 -0.00894400
v 0.04330900 0.01364200 -0.00894400
v 0.04396600 0.01256100 -0.00894400
v 0.04396600 0.01256100 -0.00894400
v 0.01993400 0.01256100 0.00774400
v 0.01993400 0.01256100 0.00774400
v 0.01993400 0.01256100 0.00774400
v 0.02059100 0.01364200 0.00774400
v 0.02059100 0.01364200 0.00774400
v 0.02162000 0.01437800 0.00774400
v 0.02162000 0.01437800 0.00774400
v 0.02162000 0.01437800 0.00774400
v 0.04228000 0.01437800 0.00774400
v 0.04228000 0.01437800 0.00774400
v 0.04330900 0.01364200 0.00774400
v 0.04396600 0.01256100 0.00774400
v 0.04245900 0.01293800 -0.01047000
v 0.04259200 0.01279000 -0.01046900
v 0.04197400 0.01330200 0.00927100
v 0.04174400 0.01439800 0.00857000
v 0.04198000 0.01432700 0.00857000
v 0.04198000 0.01432700 0.00857000
v 0.04198200 0.01433300 0.00854800
v 0.04264800 0.01399700 0.00854800
v 0.04264800 0.01399700 0.00854800
v 0.04264800 0.01399700 0.00854800
v 0.04351300 0.01313700 0.00852400
v 0.04390800 0.01223100 0.00852200
v 0.04390800 0.01223100 0.00852200
v 0.04363800 0.01292200 0.00853600
v 0.04336900 0.01333700 0.00853600
v 0.04336700 0.01333600 0.00854700
v 0.04220700 0.01422600 0.00859100
v 0.04264300 0.01398900 0.00858100
v 0.04264300 0.01398900 0.00858100
v 0.04264300 0.01398900 0.00858100
v 0.04173900 0.01437900 0.00861100
v 0.04263400 0.01397600 0.00861100
v 0.04263400 0.01397600 0.00861100
v 0.04173200 0.01435200 0.00864600
v 0.04275400 0.01383600 0.00866100
v 0.04236100 0.01408800 0.00866100
v 0.04360100 0.01290200 0.00862900
v 0.04300900 0.01366600 0.00862900
v 0.04302200 0.01368000 0.00860100
v 0.04302200 0.01368000 0.00860100
v 0.04361800 0.01291100 0.00860100
v 0.04358700 0.01289400 0.00864600
v 0.04332300 0.01330200 0.00864600
v 0.04342800 0.01312700 0.00866000
v 0.04342800 0.01312700 0.00866000
v 0.04298700 0.01364300 0.00866100
v 0.04313600 0.01349500 0.00866000
v 0.04363100 0.01291800 0.00856900
v 0.04363100 0.01291800 0.00856900
v 0.04336200 0.01333200 0.00856900
v 0.04221100 0.01423400 0.00857000
v 0.04197900 0.01432300 0.00858100
v 0.04174600 0.01440800 0.00852600
v 0.04174600 0.01440800 0.00852600
v 0.04174600 0.01440600 0.00853700
v 0.04174500 0.01440100 0.00855900
v 0.04383200 0.01246600 0.00855700
v 0.04383200 0.01246600 0.00855700
v 0.04303400 0.01369300 0.00855800
v 0.04303400 0.01369300 0.00855800
v 0.04159600 0.01436400 0.00866000
v 0.02216700 0.01435100 0.00864700
v 0.02215700 0.01438900 0.00859200
v 0.02215900 0.01438400 0.00860200
v 0.02126200 0.01398100 0.00860200
v 0.02087700 0.01368000 0.00860100
v 0.02087700 0.01368000 0.00860100
v 0.02215300 0.01440500 0.00853800
v 0.02215300 0.01440500 0.00853800
v 0.02068900 0.01352300 0.00853700
v 0.02068900 0.01352300 0.00853700
v 0.02125000 0.01400000 0.00853700
v 0.02125000 0.01400000 0.00853700
v 0.02125200 0.01399500 0.00855900
v 0.02215500 0.01439700 0.00857100
v 0.02215500 0.01439700 0.00857100
v 0.02168900 0.01423400 0.00857100
v 0.02168900 0.01423400 0.00857100
v 0.02125600 0.01398900 0.00858100
v 0.02169200 0.01422600 0.00859200
v 0.02087000 0.01368700 0.00858100
v 0.02087000 0.01368700 0.00858100
v 0.02038600 0.01313500 0.00852500
v 0.02038600 0.01313500 0.00852500
v 0.02038600 0.01313500 0.00852500
v 0.02263700 0.01447600 0.00855900
v 0.02263700 0.01447600 0.00855900
v 0.02263800 0.01446900 0.00858000
v 0.02263800 0.01446900 0.00858000
v 0.04358700 0.01289400 -0.00984600
v 0.04173100 0.01435200 -0.00984600
v 0.04174100 0.01439000 -0.00979100
v 0.04174200 0.01439400 -0.00978100
v 0.04263400 0.01397600 -0.00981100
v 0.04380800 0.01245800 -0.00981100
v 0.04380800 0.01245800 -0.00981100
v 0.04361800 0.01291100 -0.00980100
v 0.04361800 0.01291100 -0.00980100
v 0.04335000 0.01332300 -0.00980100
v 0.04302100 0.01368000 -0.00980100
v 0.04300800 0.01366600 -0.00982900
v 0.04332300 0.01330200 -0.00984600
v 0.04360100 0.01290200 -0.00982900
v 0.04360100 0.01290200 -0.00982900
v 0.04342800 0.01312700 -0.00986000
v 0.04174600 0.01440800 -0.00972600
v 0.04174500 0.01440400 -0.00974800
v 0.04321000 0.01352400 -0.00973600
v 0.04321000 0.01352400 -0.00973600
v 0.04174400 0.01440100 -0.00975900
v 0.04264300 0.01398900 -0.00978100
v 0.04220700 0.01422600 -0.00979100
v 0.04303100 0.01369000 -0.00976900
v 0.04303100 0.01369000 -0.00976900
v 0.04336200 0.01333200 -0.00976900
v 0.04336200 0.01333200 -0.00976900
v 0.04336700 0.01333600 -0.00974700
v 0.04350800 0.01314500 -0.00972300
v 0.04363400 0.01292000 -0.00975800
v 0.04363400 0.01292000 -0.00975800
v 0.04383200 0.01246600 -0.00975700
v 0.04383200 0.01246600 -0.00975700
v 0.02098800 0.01381200 -0.00969800
v 0.02098800 0.01381200 -0.00969800
v 0.02215500 0.01439700 -0.00977000
v 0.02191800 0.01432700 -0.00977000
v 0.02125000 0.01399800 -0.00974800
v 0.02038500 0.01313500 -0.00972400
v 0.02038500 0.01313500 -0.00972400
v 0.02015000 0.01269800 -0.00972400
v 0.02015000 0.01269800 -0.00972400
v 0.02192100 0.01431800 -0.00979100
v 0.02125600 0.01398900 -0.00978000
v 0.02216000 0.01437800 -0.00981100
v 0.02169600 0.01421600 -0.00981100
v 0.02169600 0.01421600 -0.00981100
v 0.02126500 0.01397600 -0.00981100
v 0.02216700 0.01435100 -0.00984600
v 0.02152900 0.01408300 -0.00986000
v 0.02126100 0.01398100 -0.00980100
v 0.02126100 0.01398100 -0.00980100
v 0.02087700 0.01368000 -0.00980100
v 0.02087700 0.01368000 -0.00980100
v 0.02086700 0.01369000 -0.00976900
v 0.02168800 0.01423400 -0.00977000
v 0.02215700 0.01438900 -0.00979100
v 0.04210600 0.01325300 0.00925600
v 0.01972800 0.00890000 0.01280000
v 0.01972800 0.00890000 0.01280000
v 0.01972800 0.00890000 0.01280000
v 0.01972800 0.00890000 0.01280000
v 0.01972800 0.00890000 0.01280000
v 0.01972800 0.00890000 0.01280000
v 0.01969300 -0.01260000 0.01280000
v 0.01969300 -0.01260000 0.01280000
v 0.01969300 -0.01260000 0.01280000
v 0.04438400 0.00900000 0.00950000
v 0.04438400 0.00900000 0.00950000
v 0.04438400 0.00900000 0.00950000
v 0.04491500 -0.00842700 0.01280000
v 0.04517000 -0.01260000 -0.01290000
v 0.04495300 -0.00570000 -0.01290000
v 0.04495300 -0.00570000 -0.01290000
v 0.04504600 -0.01260000 0.01280000
f 186 1 178
f 186 178 180
f 186 180 190
f 36 50 47
f 36 47 75
f 36 75 83
f 158 161 163
f 158 163 167
f 158 167 159
f 158 159 171
f 158 171 152
f 158 152 151
f 158 151 172
f 158 172 160
f 147 23 36
f 147 36 183
f 147 183 186
f 147 186 190
f 147 190 187
f 147 187 188
f 189 121 147
f 40 115 89
f 40 89 90
f 40 90 57
f 73 64 61
f 61 72 73
f 54 46 34
f 54 34 79
f 54 79 81
f 54 81 40
f 54 40 43
f 54 43 42
f 54 42 77
f 54 77 53
f 97 174 91
f 97 91 92
f 97 92 107
f 27 15 11
f 27 11 3
f 27 3 181
f 27 181 179
f 165 161 158
f 165 158 160
f 165 160 164
f 147 122 124
f 147 124 125
f 147 125 142
f 147 142 144
f 147 144 145
f 136 132 21
f 136 21 138
f 136 138 118
f 136 118 119
f 162 165 12
f 162 12 169
f 162 169 166
f 162 166 163
f 175 88 90
f 90 91 175
f 17 154 156
f 17 156 16
f 17 16 26
f 17 26 109
f 17 109 29
f 175 2 39
f 175 39 173
f 175 173 62
f 175 62 87
f 175 87 88
f 20 171 159
f 20 159 167
f 20 167 168
f 20 168 170
f 20 170 149
f 20 149 153
f 148 146 24
f 31 95 113
f 31 113 151
f 31 151 152
f 31 152 20
f 154 17 149
f 149 170 154
f 143 144 142
f 143 142 135
f 143 135 140
f 143 140 22
f 100 105 106
f 100 106 104
f 100 104 32
f 100 32 99
f 9 5 8
f 9 8 188
f 9 188 187
f 9 187 7
f 9 7 3
f 119 118 172
f 119 172 151
f 119 151 113
f 119 113 115
f 119 115 40
f 119 40 82
f 119 82 80
f 119 80 33
f 119 33 21
f 119 21 132
f 119 132 133
f 87 60 57
f 57 87 62
f 57 62 61
f 57 61 64
f 57 64 66
f 57 66 59
f 57 59 56
f 57 56 53
f 117 4 12
f 117 12 165
f 117 165 164
f 177 110 25
f 183 68 70
f 183 70 69
f 183 69 73
f 183 73 72
f 183 72 61
f 183 61 62
f 183 62 173
f 183 173 39
f 183 39 2
f 183 2 186
f 86 44 55
f 86 55 58
f 86 58 65
f 57 60 87
f 87 57 90
f 87 90 88
f 13 154 170
f 170 168 13
f 171 20 152
f 134 141 125
f 134 125 123
f 134 123 130
f 134 130 131
f 134 131 128
f 134 128 127
f 134 127 126
f 134 126 120
f 134 120 137
f 134 137 139
f 53 77 41
f 53 41 78
f 53 78 43
f 53 43 40
f 53 40 57
f 117 164 160
f 117 160 172
f 117 172 118
f 111 176 96
f 98 30 19
f 98 19 153
f 98 153 150
f 98 150 18
f 98 18 28
f 116 188 8
f 116 8 37
f 116 37 38
f 116 38 128
f 116 128 131
f 3 6 182
f 101 94 31
f 31 103 101
f 67 63 71
f 67 71 68
f 67 68 184
f 10 14 157
f 157 155 10
f 94 102 89
f 94 89 114
f 94 114 112
f 36 23 145
f 36 145 144
f 36 144 143
f 36 143 22
f 36 22 35
f 36 35 51
f 36 51 52
f 36 52 47
f 36 47 50
f 37 8 4
f 37 4 117
f 37 117 127
f 37 127 128
f 37 128 38
f 91 90 89
f 91 89 102
f 91 102 104
f 91 104 106
f 91 106 105
f 6 187 190
f 190 182 6
f 41 43 78
f 36 83 48
f 48 183 36
f 67 185 49
f 67 49 84
f 67 84 74
f 117 118 138
f 117 138 137
f 117 137 120
f 117 120 126
f 117 126 127
f 21 33 45
f 21 45 85
f 21 85 35
f 21 35 22
f 21 22 140
f 21 140 137
f 21 137 138
f 52 51 35
f 52 35 85
f 52 85 76
f 81 80 82
f 81 82 40
f 133 132 136
f 133 136 119
f 29 109 96
f 29 96 108
f 29 108 93
f 29 93 91
f 29 91 105
f 29 105 100
f 29 100 99
f 131 129 124
f 131 124 122
f 131 122 188
f 131 188 116
f 67 75 47
f 67 47 52
f 67 52 76
f 67 76 85
f 67 85 66
f 67 66 64
f 67 64 73
f 67 73 69
f 67 69 70
f 67 70 63
f 96 176 111
f 189 147 121
f 147 188 122
f 147 145 23
f 25 110 177
f 14 10 155
f 155 157 14
f 101 103 31
f 31 94 101
f 24 146 148

