# https://github.com/mikedh/trimesh
v -0.01081500 0.02274400 0.00950000
v -0.01081500 0.02274400 0.00950000
v -0.01081500 0.02274400 -0.00950000
v -0.01081500 0.02274400 -0.00950000
v -0.01029400 0.02380000 0.00950000
v -0.01029400 0.02380000 0.00950000
v -0.01029400 0.02380000 -0.00950000
v -0.00964000 0.02477900 0.00950000
v -0.00964000 0.02477900 0.00950000
v -0.00964000 0.02477900 -0.00950000
v -0.00886400 0.02566400 0.00950000
v -0.00886400 0.02566400 0.00950000
v -0.00886400 0.02566400 -0.00950000
v -0.00797900 0.02644000 0.00950000
v -0.00797900 0.02644000 0.00950000
v -0.00797900 0.02644000 -0.00950000
v -0.00797900 0.02644000 -0.00950000
v -0.00594400 0.02761500 0.00950000
v -0.00594400 0.02761500 0.00950000
v -0.00594400 0.02761500 -0.00950000
v -0.00594400 0.02761500 -0.00950000
v -0.00482900 0.02799300 0.00950000
v -0.00482900 0.02799300 0.00950000
v -0.00482900 0.02799300 -0.00950000
v -0.00482900 0.02799300 -0.00950000
v -0.00367500 0.02822300 0.00950000
v -0.00367500 0.02822300 0.00950000
v -0.00367500 0.02822300 -0.00950000
v -0.00250000 0.02830000 0.00950000
v -0.00250000 0.02830000 0.00950000
v -0.00250000 0.02830000 -0.00950000
v 0.00739300 0.02830000 -0.00950000
v 0.00739300 0.02830000 0.00950000
v 0.00739300 0.02830000 0.00950000
v -0.01100000 -0.00000000 -0.00950000
v 0.00960000 0.00000000 0.00950000
v -0.01149200 0.00041300 -0.00950000
v -0.01149200 0.00041300 -0.00950000
v 0.01000500 0.02588700 -0.00950000
v 0.01000500 0.02588700 -0.00950000
v 0.01003300 0.00025000 -0.00950000
v 0.01003300 0.00025000 -0.00950000
v 0.00977100 0.00003000 -0.00950000
v 0.00977100 0.00003000 -0.00950000
v 0.00754700 0.02827600 -0.00950000
v 0.00762000 0.02824600 -0.00950000
v 0.00762000 0.02824600 -0.00950000
v 0.00968700 0.00000800 -0.00950000
v -0.01125000 0.00006700 -0.00950000
v -0.01125000 0.00006700 -0.00950000
v -0.01108700 0.00000800 -0.00950000
v -0.01117100 0.00003000 -0.00950000
v 0.00747100 0.02829400 -0.00950000
v -0.01149200 0.00041300 0.00950000
v -0.01149200 0.00041300 0.00950000
v 0.01000500 0.02588700 0.00950000
v 0.01000500 0.02588700 0.00950000
v 0.00754700 0.02827600 0.00950000
v 0.00754700 0.02827600 0.00950000
v 0.00747100 0.02829400 0.00950000
v 0.00747100 0.02829400 0.00950000
v 0.01003300 0.00025000 0.00950000
v 0.01003300 0.00025000 0.00950000
v 0.00977100 0.00003000 0.00950000
v 0.00977100 0.00003000 0.00950000
v -0.01125000 0.00006700 0.00950000
v -0.01125000 0.00006700 0.00950000
v -0.01117100 0.00003000 0.00950000
v -0.01117100 0.00003000 0.00950000
v -0.01108700 0.00000800 0.00950000
v 0.00968700 0.00000800 0.00950000
v 0.00762000 0.02824600 0.00950000
v 0.00762000 0.02824600 0.00950000
v -0.01100000 0.00000000 0.00950000
v 0.00960000 -0.00000000 -0.00950000
f 11 9 5
f 11 5 1
f 11 1 54
f 11 54 67
f 11 67 68
f 11 68 70
f 11 70 74
f 11 74 36
f 11 36 71
f 11 71 64
f 11 64 63
f 11 63 57
f 11 57 73
f 11 73 58
f 11 58 61
f 11 61 34
f 11 34 30
f 11 30 26
f 11 26 22
f 11 22 19
f 11 19 15
f 39 46 72
f 72 56 39
f 25 20 18
f 25 18 23
f 25 23 27
f 25 27 29
f 25 29 33
f 25 33 60
f 25 60 59
f 25 59 72
f 25 72 46
f 25 46 45
f 25 45 53
f 25 53 32
f 25 32 31
f 25 31 28
f 38 55 2
f 2 4 38
f 52 50 37
f 52 37 3
f 52 3 7
f 52 7 10
f 52 10 13
f 52 13 17
f 52 17 21
f 52 21 24
f 52 24 28
f 52 28 31
f 52 31 32
f 52 32 53
f 52 53 45
f 52 45 47
f 52 47 40
f 52 40 42
f 52 42 44
f 52 44 48
f 52 48 75
f 52 75 35
f 52 35 51
f 41 62 65
f 65 43 41
f 62 41 39
f 39 56 62
f 51 35 75
f 51 75 48
f 51 48 43
f 51 43 65
f 51 65 71
f 51 71 36
f 51 36 74
f 51 74 70
f 51 70 69
f 51 69 66
f 51 66 49
f 51 49 52
f 16 13 10
f 16 10 7
f 16 7 4
f 16 4 2
f 16 2 6
f 16 6 8
f 16 8 12
f 16 12 14
f 16 14 18
f 16 18 20
f 49 66 55
f 55 38 49

