# https://github.com/mikedh/trimesh
v 0.08428700 0.01090500 -0.01900000
v 0.08428700 0.01090500 -0.01900000
v 0.08422000 0.01094600 -0.01900000
v 0.08422000 0.01094600 -0.01900000
v 0.08414700 0.01097600 -0.01900000
v 0.08414700 0.01097600 -0.01900000
v 0.07926300 -0.01046300 -0.01900000
v 0.07926300 -0.01046300 -0.01900000
v 0.08220000 -0.00939400 -0.01900000
v 0.08220000 -0.00939400 -0.01900000
v 0.08407100 0.01099400 -0.01900000
v 0.08407100 0.01099400 -0.01900000
v 0.08656300 -0.00316300 -0.01900000
v 0.08656300 -0.00316300 -0.01900000
v 0.08549400 -0.00610000 -0.01900000
v 0.08549400 -0.00610000 -0.01900000
v 0.08670000 -0.00160000 -0.01900000
v 0.08670000 -0.00160000 -0.01900000
v 0.08669400 0.00837100 -0.01900000
v 0.08669400 0.00837100 -0.01900000
v 0.08655400 0.00864600 -0.01900000
v 0.08670000 0.00829300 -0.01900000
v 0.08670000 0.00829300 -0.01900000
v 0.08664600 0.00852000 -0.01900000
v 0.08664600 0.00852000 -0.01900000
v 0.08660500 0.00858700 -0.01900000
v 0.07926300 -0.01046300 -0.03800000
v 0.07926300 -0.01046300 -0.03800000
v 0.08428700 0.01090500 -0.03800000
v 0.08428700 0.01090500 -0.03800000
v 0.08422000 0.01094600 -0.03800000
v 0.08407100 0.01099400 -0.03800000
v 0.08407100 0.01099400 -0.03800000
v 0.08414700 0.01097600 -0.03800000
v 0.08414700 0.01097600 -0.03800000
v 0.08655400 0.00864600 -0.03800000
v 0.08655400 0.00864600 -0.03800000
v 0.08664600 0.00852000 -0.03800000
v 0.08664600 0.00852000 -0.03800000
v 0.08660500 0.00858700 -0.03800000
v 0.08660500 0.00858700 -0.03800000
v 0.08669400 0.00837100 -0.03800000
v 0.08669400 0.00837100 -0.03800000
v 0.08670000 0.00829300 -0.03800000
v 0.08670000 0.00829300 -0.03800000
v 0.08220000 -0.00939400 -0.03800000
v 0.08220000 -0.00939400 -0.03800000
v 0.08670000 -0.00160000 -0.03800000
v 0.08656300 -0.00316300 -0.03800000
v 0.08656300 -0.00316300 -0.03800000
v 0.08549400 -0.00610000 -0.03800000
v 0.08549400 -0.00610000 -0.03800000
v 0.06930900 -0.01060000 -0.01900000
v 0.07122000 0.01100000 -0.01900000
v 0.06994800 -0.01060000 -0.03800000
v 0.07185900 0.01100000 -0.03800000
f 20 25 38
f 38 42 20
f 34 33 56
f 31 34 56
f 29 31 56
f 37 29 56
f 41 37 56
f 39 41 56
f 43 39 56
f 44 43 56
f 48 44 56
f 49 48 56
f 52 49 56
f 46 52 56
f 28 46 56
f 55 28 56
f 27 55 53
f 53 8 27
f 12 32 35
f 5 12 35
f 4 5 35
f 2 4 35
f 30 2 35
f 31 30 35
f 47 10 15
f 15 51 47
f 53 55 56
f 56 54 53
f 9 7 53
f 16 9 53
f 13 16 53
f 17 13 53
f 23 17 53
f 19 23 53
f 24 19 53
f 26 24 53
f 21 26 53
f 1 21 53
f 3 1 53
f 6 3 53
f 11 6 53
f 54 11 53
f 32 12 54
f 54 56 32
f 50 51 15
f 15 14 50
f 20 42 45
f 22 20 45
f 18 22 45
f 14 18 45
f 50 14 45
f 48 50 45
f 47 27 8
f 8 10 47
f 26 21 2
f 25 26 2
f 38 25 2
f 40 38 2
f 36 40 2
f 30 36 2

