# https://github.com/mikedh/trimesh
v 0.08670000 0.00829300 0.01900000
v 0.08407100 0.01099400 0.01900000
v 0.08407100 0.01099400 0.01900000
v 0.08414700 0.01097600 0.01900000
v 0.08422000 0.01094600 0.01900000
v 0.08428700 0.01090500 0.01900000
v 0.08428700 0.01090500 0.01900000
v 0.08655400 0.00864600 0.01900000
v 0.08655400 0.00864600 0.01900000
v 0.08664600 0.00852000 0.01900000
v 0.08664600 0.00852000 0.01900000
v 0.08660500 0.00858700 0.01900000
v 0.08660500 0.00858700 0.01900000
v 0.08669400 0.00837100 0.01900000
v 0.08669400 0.00837100 0.01900000
v 0.08670000 -0.00160000 0.01900000
v 0.08656300 -0.00316300 0.01900000
v 0.08656300 -0.00316300 0.01900000
v 0.08549400 -0.00610000 0.01900000
v 0.08549400 -0.00610000 0.01900000
v 0.08220000 -0.00939400 0.01900000
v 0.08220000 -0.00939400 0.01900000
v 0.07926300 -0.01046300 0.01900000
v 0.07926300 -0.01046300 0.01900000
v 0.08670000 -0.00160000 0.03800000
v 0.08670000 -0.00160000 0.03800000
v 0.08670000 0.00829300 0.03800000
v 0.08670000 0.00829300 0.03800000
v 0.08669400 0.00837100 0.03800000
v 0.08669400 0.00837100 0.03800000
v 0.08664600 0.00852000 0.03800000
v 0.08664600 0.00852000 0.03800000
v 0.08414700 0.01097600 0.03800000
v 0.08414700 0.01097600 0.03800000
v 0.08422000 0.01094600 0.03800000
v 0.08422000 0.01094600 0.03800000
v 0.08428700 0.01090500 0.03800000
v 0.08428700 0.01090500 0.03800000
v 0.08407100 0.01099400 0.03800000
v 0.08407100 0.01099400 0.03800000
v 0.07926300 -0.01046300 0.03800000
v 0.07926300 -0.01046300 0.03800000
v 0.08220000 -0.00939400 0.03800000
v 0.08220000 -0.00939400 0.03800000
v 0.08549400 -0.00610000 0.03800000
v 0.08549400 -0.00610000 0.03800000
v 0.08660500 0.00858700 0.03800000
v 0.08655400 0.00864600 0.03800000
v 0.08656300 -0.00316300 0.03800000
v 0.08656300 -0.00316300 0.03800000
v 0.06932500 -0.01060000 0.01900000
v 0.07129600 0.01100000 0.01900000
v 0.06955700 -0.01060000 0.03800000
v 0.07152800 0.01100000 0.03800000
f 17 50 46
f 46 19 17
f 3 40 33
f 3 33 35
f 3 35 38
f 3 38 6
f 3 6 5
f 3 5 4
f 52 54 40
f 40 3 52
f 19 46 43
f 43 21 19
f 41 24 21
f 21 43 41
f 26 27 30
f 26 30 31
f 26 31 47
f 26 47 48
f 26 48 37
f 26 37 36
f 26 36 34
f 26 34 39
f 26 39 54
f 26 54 53
f 26 53 42
f 26 42 44
f 26 44 45
f 26 45 49
f 5 7 9
f 5 9 12
f 5 12 10
f 5 10 15
f 5 15 1
f 5 1 16
f 5 16 18
f 5 18 20
f 5 20 22
f 5 22 23
f 5 23 51
f 5 51 52
f 5 52 2
f 5 2 4
f 38 48 47
f 38 47 32
f 38 32 11
f 38 11 13
f 38 13 8
f 38 8 6
f 54 52 51
f 51 53 54
f 11 32 29
f 29 14 11
f 24 41 53
f 53 51 24
f 14 29 28
f 14 28 25
f 14 25 50
f 14 50 17
f 14 17 16
f 14 16 1

