# Blender 4.5.4 LTS
# www.blender.org
mtllib left_hand_middle_0_link.mtl
o left_hand_middle_0_link
v 0.019117 -0.008721 -0.012800
v 0.019250 -0.008833 -0.012800
v 0.036790 -0.008892 -0.012800
v 0.019008 0.012187 -0.012800
v 0.019030 -0.008571 -0.012800
v 0.037025 -0.008783 -0.012800
v 0.019067 0.012350 -0.012800
v 0.019413 -0.008892 -0.012800
v 0.019179 0.012483 -0.012800
v 0.019329 0.012570 -0.012800
v 0.019413 0.012592 -0.012800
v 0.019167 0.012350 0.012900
v 0.019429 0.012570 0.012900
v 0.019279 0.012483 0.012900
v 0.019108 0.012187 0.012900
v 0.038387 -0.008776 0.012900
v 0.019513 0.012592 0.012900
v 0.018765 -0.006750 0.012900
v 0.019130 -0.008471 0.012900
v 0.019167 -0.008550 0.012900
v 0.019350 -0.008733 0.012900
v 0.038585 -0.008657 0.012900
v 0.019217 -0.008621 0.012900
v 0.019513 -0.008792 0.012900
v 0.019934 -0.012561 0.008943
v 0.020590 -0.013642 0.008943
v 0.021619 -0.014378 0.008943
v 0.042280 -0.014378 0.008944
v 0.043309 -0.013642 0.008944
v 0.043966 -0.012561 0.008944
v 0.019934 -0.012561 -0.007744
v 0.020591 -0.013642 -0.007744
v 0.021620 -0.014378 -0.007744
v 0.042280 -0.014378 -0.007744
v 0.043309 -0.013642 -0.007744
v 0.043966 -0.012561 -0.007744
v 0.041426 -0.013503 0.010472
v 0.041619 -0.013453 0.010472
v 0.041985 -0.013296 0.010471
v 0.042459 -0.012938 0.010470
v 0.042441 -0.012921 0.010483
v 0.042592 -0.012790 0.010469
v 0.041744 -0.014398 -0.008570
v 0.042918 -0.013807 -0.008498
v 0.043513 -0.013137 -0.008524
v 0.043638 -0.012922 -0.008536
v 0.043367 -0.013336 -0.008547
v 0.041977 -0.014319 -0.008591
v 0.042643 -0.013989 -0.008581
v 0.041739 -0.014379 -0.008611
v 0.042634 -0.013976 -0.008611
v 0.041732 -0.014352 -0.008646
v 0.042754 -0.013836 -0.008661
v 0.043351 -0.013323 -0.008601
v 0.043323 -0.013302 -0.008646
v 0.042987 -0.013643 -0.008661
v 0.043362 -0.013332 -0.008569
v 0.041979 -0.014323 -0.008581
v 0.041742 -0.014390 -0.008591
v 0.041257 -0.014425 -0.008646
v 0.041746 -0.014408 -0.008526
v 0.041746 -0.014406 -0.008537
v 0.041745 -0.014401 -0.008559
v 0.043034 -0.013693 -0.008558
v 0.042647 -0.013995 -0.008559
v 0.041596 -0.014364 -0.008660
v 0.022307 -0.014441 -0.008504
v 0.022167 -0.014351 -0.008647
v 0.022159 -0.014384 -0.008602
v 0.021262 -0.013981 -0.008602
v 0.021917 -0.014332 -0.008549
v 0.022154 -0.014403 -0.008549
v 0.021250 -0.014000 -0.008537
v 0.020863 -0.013695 -0.008548
v 0.022155 -0.014397 -0.008571
v 0.021689 -0.014234 -0.008571
v 0.021256 -0.013989 -0.008581
v 0.021692 -0.014226 -0.008592
v 0.020868 -0.013690 -0.008570
v 0.020540 -0.013328 -0.008580
v 0.020537 -0.013330 -0.008570
v 0.022637 -0.014476 -0.008559
v 0.022638 -0.014469 -0.008580
v 0.022298 -0.014363 -0.008661
v 0.043587 -0.012894 0.009846
v 0.043819 -0.012258 0.009860
v 0.042191 -0.014190 0.009846
v 0.041731 -0.014352 0.009846
v 0.041741 -0.014390 0.009791
v 0.041742 -0.014394 0.009781
v 0.043911 -0.011981 0.009829
v 0.043814 -0.012460 0.009801
v 0.043618 -0.012911 0.009801
v 0.042618 -0.013952 0.009846
v 0.042998 -0.013655 0.009846
v 0.042360 -0.014088 0.009861
v 0.042627 -0.013965 0.009830
v 0.043323 -0.013302 0.009846
v 0.043601 -0.012902 0.009829
v 0.041746 -0.014408 0.009726
v 0.041745 -0.014404 0.009748
v 0.041744 -0.014401 0.009759
v 0.042647 -0.013995 0.009759
v 0.042643 -0.013989 0.009781
v 0.042207 -0.014226 0.009791
v 0.043025 -0.013684 0.009791
v 0.043033 -0.013693 0.009758
v 0.043364 -0.013334 0.009758
v 0.043367 -0.013336 0.009747
v 0.043908 -0.012231 0.009722
v 0.043634 -0.012920 0.009758
v 0.043824 -0.012463 0.009779
v 0.043832 -0.012466 0.009757
v 0.022155 -0.014397 0.009770
v 0.021707 -0.014190 0.009846
v 0.021280 -0.013952 0.009846
v 0.020258 -0.012922 0.009713
v 0.021916 -0.014332 0.009748
v 0.020863 -0.013695 0.009747
v 0.020385 -0.013135 0.009724
v 0.020260 -0.012921 0.009735
v 0.020262 -0.012920 0.009747
v 0.021256 -0.013989 0.009780
v 0.020540 -0.013328 0.009780
v 0.021272 -0.013965 0.009829
v 0.022167 -0.014351 0.009846
v 0.021529 -0.014083 0.009860
v 0.021261 -0.013981 0.009801
v 0.020877 -0.013680 0.009801
v 0.020867 -0.013690 0.009769
v 0.021688 -0.014234 0.009770
v 0.022157 -0.014389 0.009791
v 0.022153 -0.014403 0.009748
v 0.022298 -0.014363 0.009860
v 0.045022 -0.009000 -0.009500
v 0.044917 0.008427 -0.012800
v 0.044179 0.012600 0.012900
v 0.044510 -0.009000 0.009500
v 0.044256 0.005700 0.012900
v 0.044871 0.012600 -0.012800
vn -0.8421 -0.4966 0.2106
vn -0.2956 -0.9010 -0.3176
vn -0.8443 -0.5233 0.1150
vn -0.8114 -0.5446 0.2123
vn -0.7332 -0.6470 0.2092
vn -0.6461 -0.7157 0.2651
vn -0.6737 -0.6563 0.3397
vn -0.7438 -0.5650 0.3570
vn -0.7591 -0.4947 0.4231
vn -0.7634 -0.4921 0.4184
vn -0.7187 -0.5086 0.4741
vn -0.7248 -0.5104 0.4627
vn 0.2175 -0.9377 -0.2710
vn 0.1900 -0.8754 -0.4445
vn 0.3118 -0.8779 -0.3635
vn 0.2972 -0.8484 -0.4381
vn 0.5127 -0.7676 -0.3846
vn 0.5566 -0.8045 -0.2074
vn 0.3828 -0.9014 -0.2025
vn 0.2516 -0.9537 -0.1648
vn -0.2108 -0.9582 -0.1932
vn -0.4675 -0.8386 -0.2797
vn -0.5401 -0.8333 -0.1181
vn -0.4931 -0.8376 -0.2352
vn -0.5098 -0.7728 -0.3779
vn -0.3918 -0.8187 -0.4199
vn -0.5609 -0.7203 0.4082
vn -0.4790 -0.7484 0.4588
vn -0.4303 -0.6525 0.6238
vn -0.3449 -0.6319 0.6940
vn -0.3810 -0.5919 0.7102
vn -0.3637 -0.5663 0.7397
vn -0.6678 -0.5323 0.5203
vn -0.3966 -0.8549 -0.3345
vn -0.2252 -0.9291 -0.2933
vn -0.2416 -0.9484 -0.2055
vn -0.3203 -0.9188 -0.2308
vn -0.4168 -0.8901 -0.1845
vn -0.1735 0.9848 0.0005
vn -0.3420 0.9397 -0.0000
vn -0.3400 0.9404 0.0015
vn -0.1728 0.9850 0.0008
vn 0.2894 -0.6264 0.7238
vn 0.1630 -0.6944 0.7009
vn 0.1805 -0.8768 0.4457
vn 0.4082 -0.8183 0.4046
vn 0.5068 -0.7667 0.3942
vn 0.5888 -0.6764 0.4425
vn 0.4999 -0.5358 0.6805
vn 0.4370 -0.6398 0.6322
vn 0.3316 -0.6190 0.7119
vn -0.1129 -0.6935 0.7115
vn 0.1058 -0.4974 0.8611
vn 0.1394 -0.4616 0.8761
vn 0.1200 -0.3906 0.9127
vn -0.1138 -0.5106 0.8522
vn -0.1995 -0.9495 0.2421
vn -0.3311 -0.9174 0.2205
vn -0.4111 -0.8875 0.2083
vn -0.1492 -0.9579 -0.2452
vn -0.1315 -0.9551 -0.2654
vn 0.0300 -0.5718 -0.8198
vn 0.2985 -0.3585 -0.8845
vn 0.4523 -0.4874 -0.7469
vn 0.4266 -0.5549 -0.7142
vn 0.0858 -0.6057 -0.7910
vn 0.0535 -0.6946 -0.7174
vn 0.4873 -0.7394 -0.4646
vn 0.1861 -0.8309 -0.5243
vn 0.1552 -0.7050 -0.6920
vn 0.5174 -0.8159 0.2581
vn 0.6373 -0.7300 0.2470
vn 0.7006 -0.6918 0.1748
vn 0.7645 -0.5858 0.2691
vn 0.7633 -0.5896 0.2641
vn -0.0000 -0.0000 1.0000
vn 0.5632 0.5826 0.5860
vn 0.7912 -0.5449 -0.2777
vn 0.7739 -0.5670 -0.2822
vn 0.7797 -0.6085 -0.1476
vn 0.6261 -0.7692 -0.1280
vn 0.6235 -0.7105 -0.3263
vn -0.1783 -0.6925 0.6990
vn -0.1959 -0.8656 0.4609
vn -0.3739 -0.8588 0.3502
vn -0.2015 -0.9221 0.3305
vn 0.8177 -0.4313 0.3812
vn 0.8849 -0.3030 0.3538
vn 0.8751 -0.2701 0.4015
vn 0.8241 -0.2814 0.4915
vn 0.7544 -0.3957 0.5237
vn 0.3722 -0.5853 0.7203
vn 0.2439 -0.4440 0.8622
vn 0.5575 -0.4376 -0.7054
vn 0.6677 -0.5396 -0.5129
vn -0.1944 -0.8500 -0.4895
vn -0.1663 -0.6755 -0.7183
vn -0.1076 -0.6395 -0.7612
vn 0.0858 -0.6058 -0.7910
vn 0.1551 -0.7051 -0.6920
vn -0.5098 -0.7728 -0.3780
vn -0.5839 -0.7785 -0.2301
vn -0.5856 -0.7507 -0.3057
vn -0.6641 -0.6334 -0.3972
vn -0.7497 -0.5986 -0.2823
vn -0.6661 -0.6051 -0.4360
vn -0.6225 -0.6225 -0.4743
vn -0.4657 -0.6613 -0.5880
vn -0.4843 -0.7303 -0.4817
vn -0.6600 -0.7338 -0.1610
vn -0.5795 -0.8052 -0.1259
vn -0.8291 -0.5505 -0.0983
vn 0.9297 -0.1439 0.3389
vn 0.7226 -0.1239 0.6801
vn 0.7515 -0.1766 0.6357
vn 0.7624 -0.1837 0.6205
vn 0.8744 -0.4713 -0.1155
vn 0.8546 -0.5193 -0.0001
vn 0.8540 -0.5053 0.1239
vn 0.8388 -0.5082 0.1951
vn 0.7997 -0.5780 0.1625
vn 0.8314 -0.5449 -0.1092
vn 0.7797 -0.6085 -0.1475
vn 0.8301 -0.5394 -0.1413
vn -0.6428 0.7660 -0.0000
vn -0.6436 0.7653 0.0029
vn -0.1076 -0.6395 -0.7613
vn -0.1260 -0.6397 -0.7582
vn 0.3657 -0.3511 0.8620
vn 0.2962 -0.3072 0.9044
vn 0.5408 -0.4297 0.7231
vn 0.4005 -0.3277 0.8557
vn 0.8008 -0.4033 -0.4428
vn -0.0000 -0.0000 -1.0000
vn 0.3565 0.0039 -0.9343
vn 0.8786 0.1158 -0.4632
vn 0.9029 -0.3580 0.2377
vn 0.8859 -0.4222 0.1922
vn 0.9439 -0.2724 0.1865
vn 0.9336 -0.2691 0.2367
vn 0.3739 -0.1704 -0.9117
vn 0.8961 0.3931 0.2060
vn 0.2716 -0.9404 0.2045
vn -0.5956 -0.7892 0.1500
vn 0.2249 -0.9055 0.3600
vn -0.0000 1.0000 -0.0000
vn -0.8660 0.5001 -0.0000
vn -0.8649 0.5020 0.0039
vn 0.9669 -0.2009 0.1573
vn 0.9588 -0.2842 -0.0000
vn 0.9875 -0.1551 0.0266
vn 0.9543 -0.1569 0.2543
vn 0.6623 -0.3545 0.6601
vn 0.5706 -0.3050 0.7625
vn 0.2766 -0.2718 0.9217
vn -0.9848 0.1738 -0.0000
vn -0.9849 0.1731 0.0044
vn -0.3126 -0.6674 -0.6759
vn -0.1260 -0.6398 -0.7582
vn -0.1077 -0.6395 -0.7612
vn -0.2560 -0.7492 -0.6109
vn -0.4842 -0.7304 -0.4818
vn -0.9508 -0.3022 -0.0686
vn -0.9781 -0.2080 0.0031
vn -0.9653 -0.2528 0.0652
vn -1.0000 -0.0009 0.0074
vn -0.9848 0.1737 -0.0000
vn 0.8684 -0.4828 -0.1132
vn 0.8670 -0.4475 -0.2192
vn 0.7579 -0.4944 -0.4257
vn 0.7367 -0.5890 -0.3323
vn 0.4498 -0.8741 0.1836
vn 0.6219 -0.7553 -0.2070
vn 0.6357 -0.7382 -0.2259
vn 0.5818 -0.8134 -0.0000
vn -0.8736 -0.4091 0.2635
vn -0.8697 -0.4130 0.2704
vn -0.8666 -0.4735 0.1575
vn -0.1249 -0.9273 -0.3529
vn -0.2953 -0.6228 0.7245
vn -0.5104 -0.7781 0.3661
vn 0.6623 -0.3545 0.6600
vn 0.5408 -0.4298 0.7230
vn 0.5000 -0.5357 0.6804
vn 0.5877 -0.6773 0.4426
vn 0.7645 -0.5857 0.2692
vn -0.7497 -0.5986 -0.2822
vn -0.6790 -0.6673 -0.3059
vn 0.9996 0.0111 0.0269
vn 0.8860 0.0099 -0.4636
vn -0.9740 -0.2267 -0.0042
vn -0.9507 -0.3024 -0.0685
vn -0.7710 -0.5429 -0.3327
vn -0.7468 -0.5754 -0.3334
vn 0.9560 -0.1982 0.2164
s 1
usemtl g1_black.014
f 122//1 121//2 117//3
f 120//4 26//5 119//6 130//7 124//8
s 0
f 20//9 120//10 124//11 23//12
s 1
f 43//13 59//14 58//15 48//16 49//17 65//18 34//19 61//20 62//21
s 0
f 76//22 33//23 73//24 77//25 78//26
s 1
f 124//8 130//7 129//27 128//28 125//29 127//30 116//31 21//32 23//33
f 76//34 75//35 72//36 71//37 33//38
f 11//39 10//40 13//41 17//42
f 87//43 88//44 89//45 105//46 104//47 106//48 95//49 97//50 96//51
f 134//52 88//44 37//53 38//54 16//55 24//56
f 133//57 118//58 27//59 33//38 71//37 72//36 67//60 82//61
f 3//62 6//63 56//64 53//65 66//66 60//67
f 66//66 53//65 51//68 49//17 48//16 50//69 52//70
f 106//48 104//47 103//71 107//72 29//73 109//74 108//75
f 13//76 14//76 12//76 15//76 18//76 19//76 20//76 23//76 21//76 24//76 16//76 22//76 139//76 137//77 17//76
s 0
f 57//78 45//79 47//80 35//81 64//82
s 1
f 88//44 134//52 126//83 132//84 89//45
f 131//85 27//59 118//58 133//57 114//86
f 111//87 113//88 112//89 92//90 93//91
f 38//54 37//53 88//44 87//43 96//51 94//92 39//93
f 56//64 55//94 54//95 51//68 53//65
s 0
f 50//69 69//96 68//97 84//98 60//67 66//99 52//100
f 77//101 73//102 74//103 79//104 81//105 80//106 1//107 2//108 70//109
s 1
f 74//110 73//111 33//38 27//59 119//6 26//5 32//112
f 112//89 138//113 139//114 91//115 86//116 92//90
s 0
f 46//117 36//118 30//119 111//120 109//121 29//118 35//122 47//123 45//124
s 1
f 10//40 9//125 14//126 13//41
f 84//127 8//128 3//62 60//67
f 40//129 41//130 39//93 94//92 96//51 97//50 95//49 98//131 42//132
f 135//133 54//95 55//94
f 4//134 7//134 9//134 10//134 11//134 140//135 136//134 6//134 3//134 8//134 2//134 1//134 5//134
f 62//21 61//20 63//136
f 62//21 63//136 43//13
s 0
f 113//137 111//138 30//139 110//140
s 1
f 56//64 6//63 136//141 135//133 55//94
f 101//142 100//143 102//144
f 101//142 102//144 90//145
f 11//39 17//42 137//77 140//146
f 7//147 12//148 14//126 9//125
s 0
f 110//149 30//150 36//150 135//151 138//152
s 1
f 42//132 98//131 99//153 85//154 86//116 91//115 139//114 22//155 41//130 40//129
f 4//156 15//157 12//148 7//147
s 0
f 2//158 8//159 84//160 68//161 69//96 70//162
f 5//163 31//164 25//165 19//165 18//166 15//157 4//167
s 1
f 36//168 46//169 45//170 57//171 54//95 135//133
f 28//172 34//19 65//18 44//173 64//174 35//175 29//73 107//72 103//71 104//47 105//46
f 102//144 100//143 28//172 105//46 89//45 90//145
f 121//2 122//1 120//4 20//176 19//177 25//178
f 16//55 38//54 39//93 41//130 22//155
f 93//91 92//90 86//116 85//154 99//153
f 43//13 83//179 82//61 67//60 72//36 75//35 69//96 50//69 48//16 58//15 59//14
f 69//96 75//35 76//34 78//26 77//101 70//109
f 131//85 114//86 132//84 126//83 115//180 127//30 125//29 128//28 123//181
s 0
f 111//87 93//91 99//182 98//183 95//184 106//185 108//75 109//186
s 1
f 130//7 119//6 27//59 131//85 123//181 128//28 129//27
f 32//112 81//187 79//188 74//110
f 89//45 132//84 114//86 133//57 82//61 83//179 43//13 63//136 61//20 34//19 28//172 100//143 101//142 90//145
s 0
f 140//189 137//77 139//189 138//189 135//189 136//190
s 1
f 44//173 65//18 49//17 51//68 54//95 57//171 64//174
f 32//112 26//5 120//4 122//1 117//3 121//2 25//178 31//191 5//192 1//193 80//194 81//187
f 134//52 24//56 21//32 116//31 127//30 115//180 126//83
f 110//195 138//113 112//89 113//88
