# Blender 4.5.4 LTS
# www.blender.org
mtllib left_hand_palm_link_extra_1.mtl
o left_hand_palm_link
v 0.086676 -0.008447 0.019000
v 0.086646 -0.008520 0.019000
v 0.086694 -0.008371 0.019000
v 0.086605 -0.008587 0.019000
v 0.086554 -0.008646 0.019000
v 0.086700 0.001600 0.019000
v 0.079263 0.010463 0.019000
v 0.086700 -0.008293 0.019000
v 0.084220 -0.010946 0.019000
v 0.084147 -0.010976 0.019000
v 0.084071 -0.010994 0.019000
v 0.082200 0.009394 0.019000
v 0.083485 0.008494 0.019000
v 0.084594 0.007385 0.019000
v 0.085494 0.006100 0.019000
v 0.086563 0.003163 0.019000
v 0.084287 -0.010905 0.019000
v 0.086554 -0.008646 0.038000
v 0.086605 -0.008587 0.038000
v 0.086646 -0.008520 0.038000
v 0.086676 -0.008447 0.038000
v 0.084071 -0.010994 0.038000
v 0.086694 -0.008371 0.038000
v 0.086700 -0.008293 0.038000
v 0.086700 0.001600 0.038000
v 0.086563 0.003163 0.038000
v 0.085494 0.006100 0.038000
v 0.082200 0.009394 0.038000
v 0.084594 0.007385 0.038000
v 0.083485 0.008494 0.038000
v 0.084147 -0.010976 0.038000
v 0.084220 -0.010946 0.038000
v 0.084287 -0.010905 0.038000
v 0.079263 0.010463 0.038000
v 0.071859 -0.011000 0.019000
v 0.069888 0.010600 0.019000
v 0.071675 -0.011000 0.038000
v 0.069704 0.010600 0.038000
vn -0.9958 -0.0909 -0.0097
vn -0.5913 -0.6522 -0.4743
vn -0.5512 -0.6000 0.5798
vn 0.1524 0.8637 -0.4803
vn 0.1261 0.7147 0.6880
vn 0.3629 0.6285 0.6880
vn 0.3629 0.6285 -0.6880
vn 0.5559 0.4665 0.6880
vn 0.6285 0.3629 0.6880
vn 0.6285 0.3629 -0.6880
vn 0.5559 0.4665 -0.6880
vn 0.4665 0.5559 -0.6880
vn 0.4665 0.5559 0.6880
vn 0.6878 -0.2216 0.6912
vn 0.6450 -0.3273 0.6905
vn 0.6452 -0.3268 -0.6905
vn 0.6890 -0.2197 -0.6906
vn 0.7148 -0.1098 -0.6907
vn 0.7147 -0.0276 -0.6989
vn 0.7160 0.0313 -0.6974
vn 0.7147 0.1261 -0.6880
vn 0.7147 0.1261 0.6880
vn 0.7160 0.0313 0.6974
vn 0.7147 -0.0278 0.6988
vn 0.7140 -0.1119 0.6911
vn -0.0041 0.2451 0.9695
vn -0.5513 -0.5999 0.5798
vn 0.1108 -0.7140 0.6913
vn 0.2206 -0.6881 0.6913
vn 0.3286 -0.6462 0.6888
vn 0.4296 -0.5840 0.6887
vn 0.5235 -0.4850 0.7005
vn 0.5868 -0.4269 0.6880
vn 0.1115 -0.7138 -0.6914
vn 0.2221 -0.6906 -0.6883
vn 0.3280 -0.6466 -0.6887
vn 0.4283 -0.5832 -0.6903
vn -0.4794 -0.2037 -0.8536
vn 0.5866 -0.4277 -0.6877
vn 0.5240 -0.4888 -0.6975
vn 0.0056 0.9999 -0.0091
s 0
usemtl g1_black
f 38//1 36//1 35//2 37//3
s 1
f 7//4 34//5 28//6 12//7
f 29//8 27//9 15//10 14//11 13//12 12//7 28//6 30//13
f 21//14 20//15 2//16 1//17 3//18 8//19 6//20 16//21 26//22 25//23 24//24 23//25
f 34//5 38//26 37//27 22//28 31//29 32//30 33//31 18//32 19//33 20//15 21//14 23//25 24//24 25//23 26//22 27//9 29//8 30//13 28//6
f 26//22 16//21 15//10 27//9
f 32//30 31//29 22//28 11//34 10//35 9//36 17//37 33//31
f 37//27 35//38 11//34 22//28
f 14//11 15//10 16//21 6//20 8//19 3//18 1//17 2//16 4//39 5//40 17//37 9//36 10//35 11//34 35//38 36//41 7//4 12//7 13//12
f 5//40 4//39 2//16 20//15 19//33 18//32 33//31 17//37
f 34//5 7//4 36//41 38//26
