# Blender 4.5.4 LTS
# www.blender.org
mtllib left_hand_index_0_link.mtl
o left_hand_index_0_link
v 0.019117 -0.008721 -0.012800
v 0.019250 -0.008833 -0.012800
v 0.019008 0.012187 -0.012800
v 0.019030 -0.008571 -0.012800
v 0.019008 -0.008487 -0.012800
v 0.019067 0.012350 -0.012800
v 0.019413 -0.008892 -0.012800
v 0.036953 -0.008833 -0.012800
v 0.019179 0.012483 -0.012800
v 0.019329 0.012570 -0.012800
v 0.019413 0.012592 -0.012800
v 0.019167 0.012350 0.012900
v 0.019429 0.012570 0.012900
v 0.019279 0.012483 0.012900
v 0.019108 0.012187 0.012900
v 0.038312 -0.008794 0.012900
v 0.019513 0.012592 0.012900
v 0.018765 -0.006750 0.012900
v 0.019130 -0.008471 0.012900
v 0.019167 -0.008550 0.012900
v 0.019279 -0.008683 0.012900
v 0.019350 -0.008733 0.012900
v 0.038585 -0.008657 0.012900
v 0.019217 -0.008621 0.012900
v 0.019513 -0.008792 0.012900
v 0.019934 -0.012561 0.008943
v 0.020590 -0.013642 0.008943
v 0.021619 -0.014378 0.008943
v 0.042280 -0.014378 0.008944
v 0.043966 -0.012561 0.008944
v 0.019934 -0.012561 -0.007744
v 0.020591 -0.013642 -0.007744
v 0.021620 -0.014378 -0.007744
v 0.042280 -0.014378 -0.007744
v 0.043309 -0.013642 -0.007744
v 0.043966 -0.012561 -0.007744
v 0.042459 -0.012938 0.010470
v 0.042592 -0.012790 0.010469
v 0.041974 -0.013302 -0.009271
v 0.041744 -0.014398 -0.008570
v 0.042918 -0.013807 -0.008498
v 0.043809 -0.012458 -0.008611
v 0.042648 -0.013997 -0.008548
v 0.043513 -0.013137 -0.008524
v 0.043908 -0.012231 -0.008522
v 0.043367 -0.013336 -0.008547
v 0.042643 -0.013989 -0.008581
v 0.041739 -0.014379 -0.008611
v 0.042200 -0.014210 -0.008621
v 0.042634 -0.013976 -0.008611
v 0.042197 -0.014204 -0.008630
v 0.041732 -0.014352 -0.008646
v 0.042754 -0.013836 -0.008661
v 0.042361 -0.014088 -0.008661
v 0.043009 -0.013666 -0.008629
v 0.043022 -0.013680 -0.008601
v 0.043618 -0.012911 -0.008601
v 0.043613 -0.012908 -0.008611
v 0.043346 -0.013319 -0.008610
v 0.043587 -0.012894 -0.008646
v 0.043323 -0.013302 -0.008646
v 0.043428 -0.013127 -0.008660
v 0.043829 -0.012465 -0.008569
v 0.043362 -0.013332 -0.008569
v 0.042211 -0.014234 -0.008570
v 0.041742 -0.014390 -0.008591
v 0.043634 -0.012920 -0.008558
v 0.043034 -0.013693 -0.008558
v 0.041596 -0.014364 -0.008660
v 0.022167 -0.014351 -0.008647
v 0.022159 -0.014384 -0.008602
v 0.021262 -0.013981 -0.008602
v 0.022154 -0.014403 -0.008549
v 0.021250 -0.014000 -0.008537
v 0.021251 -0.013998 -0.008548
v 0.020863 -0.013695 -0.008548
v 0.022155 -0.014397 -0.008571
v 0.021689 -0.014234 -0.008571
v 0.021254 -0.013992 -0.008570
v 0.021256 -0.013989 -0.008581
v 0.021692 -0.014226 -0.008592
v 0.020868 -0.013690 -0.008570
v 0.020537 -0.013330 -0.008570
v 0.022637 -0.014476 -0.008559
v 0.022638 -0.014469 -0.008580
v 0.022298 -0.014363 -0.008661
v 0.041731 -0.014352 0.009846
v 0.041740 -0.014385 0.009801
v 0.043808 -0.012458 0.009811
v 0.043618 -0.012911 0.009801
v 0.042998 -0.013655 0.009846
v 0.043323 -0.013302 0.009846
v 0.043601 -0.012902 0.009829
v 0.041982 -0.014333 0.009748
v 0.041745 -0.014404 0.009748
v 0.043210 -0.013524 0.009736
v 0.042643 -0.013989 0.009781
v 0.042207 -0.014226 0.009791
v 0.043025 -0.013684 0.009791
v 0.043033 -0.013693 0.009758
v 0.043837 -0.012468 0.009735
v 0.043634 -0.012920 0.009758
v 0.043832 -0.012466 0.009757
v 0.043834 -0.012467 0.009746
v 0.022155 -0.014397 0.009770
v 0.021704 -0.014197 0.009838
v 0.021707 -0.014190 0.009846
v 0.021280 -0.013952 0.009846
v 0.021918 -0.014327 0.009770
v 0.021250 -0.013998 0.009748
v 0.021249 -0.014000 0.009736
v 0.020863 -0.013695 0.009747
v 0.020385 -0.013135 0.009724
v 0.020688 -0.013523 0.009736
v 0.020531 -0.013334 0.009747
v 0.020262 -0.012920 0.009747
v 0.021256 -0.013989 0.009780
v 0.021694 -0.014221 0.009801
v 0.022160 -0.014378 0.009811
v 0.021699 -0.014210 0.009820
v 0.021696 -0.014216 0.009811
v 0.022167 -0.014351 0.009846
v 0.021529 -0.014083 0.009860
v 0.021261 -0.013981 0.009801
v 0.020877 -0.013680 0.009801
v 0.020867 -0.013690 0.009769
v 0.021254 -0.013992 0.009769
v 0.021688 -0.014234 0.009770
v 0.022157 -0.014389 0.009791
v 0.022298 -0.014363 0.009860
v 0.042106 -0.013253 -0.009256
v 0.044329 -0.009000 -0.009500
v 0.045012 0.008435 -0.012800
v 0.045142 0.012600 0.012900
v 0.044874 0.005700 0.012900
v 0.045174 0.012600 -0.012800
vn -0.4849 -0.7313 -0.4797
vn -0.2076 -0.8723 -0.4428
vn -0.2295 -0.9033 -0.3624
vn -0.3928 -0.8511 -0.3483
vn -0.3916 -0.8184 -0.4206
vn -0.5096 -0.7725 -0.3789
vn 0.5225 -0.7651 -0.3762
vn 0.4737 -0.7740 -0.4203
vn 0.5578 -0.6111 -0.5615
vn 0.6871 -0.5237 -0.5036
vn 0.7617 -0.5195 -0.3872
vn 0.5934 -0.7148 -0.3701
vn 0.6049 -0.7632 -0.2272
vn 0.5785 -0.7748 -0.2550
vn -0.7226 -0.6208 0.3041
vn -0.6898 -0.6179 0.3772
vn -0.7248 -0.5104 0.4628
vn -0.7976 -0.4711 0.3767
vn -0.8521 -0.4400 0.2833
vn -0.7830 -0.5385 0.3115
vn 0.5818 -0.8134 -0.0000
vn 0.7194 -0.6653 0.1994
vn 0.6545 -0.7031 0.2778
vn 0.5828 -0.6806 0.4441
vn 0.5671 -0.7631 0.3099
vn 0.5522 -0.8263 -0.1106
vn 0.5735 -0.7953 -0.1967
vn 0.6363 -0.7476 -0.1904
vn 0.6326 -0.7572 -0.1625
vn -0.1735 0.9848 0.0005
vn -0.3420 0.9397 -0.0000
vn -0.3400 0.9404 0.0015
vn -0.1728 0.9850 0.0008
vn 0.2778 -0.7395 -0.6131
vn 0.1960 -0.8235 -0.5324
vn 0.1552 -0.7050 -0.6920
vn 0.0858 -0.6057 -0.7911
vn 0.3457 -0.6220 -0.7026
vn 0.2742 -0.7548 -0.5959
vn -0.8660 0.5001 -0.0000
vn -0.8649 0.5020 0.0039
vn -0.6436 0.7653 0.0029
vn -0.6428 0.7660 -0.0000
vn 0.9992 -0.0389 0.0012
vn 0.9891 -0.1471 -0.0000
vn 0.9678 -0.1970 -0.1565
vn 0.9684 -0.1955 -0.1549
vn 0.9992 -0.0389 0.0010
vn 0.8951 -0.0349 -0.4445
vn 0.7135 -0.0277 0.7001
vn -0.3310 -0.7599 0.5595
vn -0.3893 -0.7946 0.4660
vn -0.5181 -0.7162 0.4676
vn -0.4987 -0.7900 0.3565
vn -0.3826 -0.8544 0.3515
vn -0.3108 -0.9006 0.3038
vn -0.2192 -0.9273 0.3033
vn -0.1959 -0.8656 0.4609
vn -0.2344 -0.8121 0.5343
vn -0.6782 -0.5287 0.5104
vn -0.6708 -0.6242 0.4005
vn -0.6627 -0.6304 0.4042
vn -0.6535 -0.5396 0.5308
vn -0.5218 -0.5629 0.6410
vn 0.8567 -0.4600 -0.2333
vn 0.7976 -0.4919 -0.3492
vn 0.7431 -0.4238 -0.5178
vn 0.7594 -0.4093 -0.5058
vn 0.8214 -0.3654 -0.4380
vn 0.8864 -0.2883 -0.3622
vn 0.1953 -0.8616 0.4686
vn -0.1109 -0.9539 -0.2790
vn -0.1007 -0.9358 -0.3378
vn 0.1959 -0.9357 -0.2936
vn 0.2148 -0.9767 -0.0000
vn 0.3286 -0.9282 0.1747
vn 0.3328 -0.9073 0.2571
vn 0.2108 -0.9358 0.2826
vn -0.8352 -0.5234 0.1690
vn -0.9080 -0.4077 0.0963
vn 0.7166 -0.6267 0.3063
vn 0.7881 -0.4965 0.3640
vn 0.6746 -0.4640 0.5741
vn 0.6901 -0.4528 0.5646
vn 0.5408 -0.4298 0.7230
vn 0.5000 -0.5357 0.6804
vn 0.6692 -0.6501 0.3599
vn 0.6546 -0.7031 0.2779
vn 0.9183 -0.3081 0.2486
vn 0.8642 -0.4122 0.2885
vn 0.9136 -0.3629 0.1833
vn 0.9224 -0.3098 0.2307
vn -0.1129 -0.6935 0.7115
vn -0.1137 -0.5106 0.8523
vn -0.3636 -0.5663 0.7397
vn -0.3939 -0.5915 0.7036
vn -0.2969 -0.5569 0.7757
vn -0.2953 -0.6228 0.7246
vn -0.1783 -0.6925 0.6991
vn -0.9803 0.1945 0.0337
vn -0.4181 -0.7177 -0.5568
vn -0.9508 -0.3023 -0.0685
vn -0.9781 -0.2080 0.0032
vn -0.4353 0.6824 0.5872
vn -0.9762 0.2147 -0.0292
vn 0.4023 -0.1855 -0.8965
vn 0.5032 -0.2719 -0.8202
vn 0.6124 -0.3345 -0.7163
vn 0.6224 -0.4118 -0.6657
vn 0.5575 -0.4376 -0.7055
vn 0.4266 -0.5555 -0.7137
vn 0.2912 -0.4302 -0.8545
vn 0.2329 -0.4621 -0.8557
vn 0.2344 -0.4262 -0.8737
vn -0.0000 -0.0000 1.0000
vn 0.3539 -0.1576 0.9219
vn 0.4913 -0.1438 0.8590
vn 0.7136 -0.0277 0.7000
vn -0.0000 -0.0000 -1.0000
vn 0.0985 -0.0038 -0.9951
vn -0.5955 -0.7532 0.2794
vn -0.5187 -0.8287 0.2105
vn -0.9488 0.0062 0.3157
vn -0.5248 -0.6983 0.4868
vn -0.6822 -0.6764 0.2777
vn -0.7221 -0.6630 0.1974
vn -0.7538 -0.6307 0.1845
vn -0.7215 -0.6660 0.1896
vn -0.9458 0.3238 0.0260
vn 0.8106 -0.3196 -0.4908
vn 0.8630 -0.2436 -0.4425
vn 0.9451 -0.2011 -0.2577
vn 0.9001 -0.2294 -0.3705
vn 0.3643 -0.3483 0.8637
vn 0.0586 -0.4258 0.9029
vn 0.1630 -0.6944 0.7009
vn 0.4999 -0.5357 0.6805
vn 0.5408 -0.4298 0.7231
vn 0.3850 -0.3262 0.8633
vn 0.7739 -0.5670 -0.2822
vn 0.7776 -0.6067 -0.1649
vn 0.6920 -0.6962 -0.1908
vn 0.7126 -0.6791 -0.1763
vn 0.7894 -0.5470 -0.2788
vn -0.2792 -0.9321 -0.2309
vn -0.2378 -0.9582 -0.1590
vn -0.2600 -0.9568 -0.1301
vn 0.5198 -0.5717 -0.6348
vn 0.8941 -0.4389 -0.0890
vn 0.9439 -0.2740 -0.1844
vn -0.2599 -0.9568 -0.1301
vn -0.2377 -0.9582 -0.1590
vn -0.1398 -0.9642 -0.2254
vn -0.2685 -0.9111 0.3127
vn -0.3108 -0.9006 0.3037
vn -0.2149 -0.9766 -0.0000
vn 0.5399 -0.8331 0.1199
vn 0.4887 -0.7365 0.4677
vn 0.3931 -0.8200 0.4161
vn -0.5955 -0.7569 -0.2694
vn -0.5933 -0.7524 -0.2861
vn -0.5856 -0.7507 -0.3057
vn -0.6641 -0.6334 -0.3972
vn -0.7277 -0.5718 -0.3788
vn -0.6225 -0.6225 -0.4743
vn -0.4657 -0.6613 -0.5880
vn -0.1293 -0.9490 -0.2874
vn 0.1966 -0.8692 -0.4537
vn -0.3161 -0.9382 0.1410
vn -0.5795 -0.8052 -0.1258
vn -0.5818 -0.8133 -0.0000
vn -0.5672 -0.8165 0.1078
vn -0.5694 -0.8119 0.1293
vn -0.6617 -0.7324 0.1602
vn -0.5815 -0.8135 -0.0000
vn -0.7992 -0.5851 -0.1372
vn -0.6600 -0.7338 -0.1610
vn -0.5318 -0.8242 -0.1945
vn 0.3918 -0.8408 -0.3736
vn 0.3779 -0.7484 -0.5451
vn 0.3224 -0.6673 -0.6714
vn 0.7802 -0.3786 0.4979
vn 0.8034 -0.2931 0.5184
vn -0.7695 -0.5953 -0.2312
vn -0.6790 -0.6673 -0.3059
vn -0.6600 -0.7338 -0.1611
vn 0.3931 -0.8199 0.4161
vn -0.2767 -0.7362 0.6177
vn -0.3401 -0.7304 0.5923
vn 0.5828 -0.6805 0.4441
vn 0.7371 -0.6370 0.2256
vn 0.6612 -0.3240 0.6766
vn -0.0000 1.0000 -0.0022
vn -0.0003 1.0000 -0.0000
vn 0.1960 -0.8235 -0.5323
vn -0.1575 -0.7970 -0.5831
vn -0.1647 -0.6926 -0.7023
vn -0.1076 -0.6394 -0.7613
vn 0.0857 -0.6057 -0.7910
vn 0.1552 -0.7051 -0.6920
vn 0.9502 -0.1019 0.2944
vn 0.9216 -0.3357 0.1947
vn 0.7371 -0.6371 0.2255
vn 0.9814 -0.1549 0.1136
vn 0.7195 -0.6653 0.1994
vn 0.8166 -0.5635 -0.1249
vn 0.7777 -0.6067 -0.1648
vn -0.1259 -0.6397 -0.7582
vn 0.2330 -0.9677 -0.0966
vn 0.1959 -0.9356 -0.2936
vn 0.1967 -0.8692 -0.4537
vn 0.3918 -0.8408 -0.3735
vn 0.4991 -0.7912 -0.3533
vn 0.5112 -0.8362 -0.1985
vn 0.9019 -0.2380 0.3605
vn 0.8549 -0.1335 0.5013
vn 0.8034 -0.2932 0.5183
vn 0.7314 -0.3162 -0.6043
vn 0.5094 -0.3509 -0.7857
vn 0.7437 -0.2692 -0.6120
vn -0.3819 -0.6925 0.6120
vn -0.3779 -0.6975 0.6088
vn -0.3637 -0.5662 0.7397
vn -0.5217 -0.5629 0.6410
vn -0.5247 -0.6983 0.4869
vn -0.3944 -0.7370 0.5488
vn -0.4099 -0.7254 0.5530
vn -0.3311 -0.7598 0.5595
vn -0.9740 -0.2267 -0.0042
vn -0.9507 -0.3023 -0.0686
vn -0.7710 -0.5430 -0.3328
vn -0.8552 -0.5183 0.0007
vn -0.8048 -0.5714 0.1608
vn -0.8057 -0.5688 0.1651
vn -0.8453 -0.5021 0.1827
vn -0.8616 -0.4792 0.1673
vn -0.8549 -0.5188 -0.0000
vn -0.2780 -0.6652 -0.6930
vn -0.1260 -0.6398 -0.7582
vn -0.1077 -0.6395 -0.7612
vn -0.1575 -0.7969 -0.5831
vn -0.4848 -0.7313 -0.4797
vn -0.4675 -0.8386 -0.2797
vn -0.5575 -0.8243 -0.0990
vn -0.5525 -0.8145 -0.1772
vn -0.4716 -0.8323 -0.2912
vn -0.5400 -0.7800 -0.3163
vn -0.5096 -0.7725 -0.3788
vn -0.3917 -0.8184 -0.4206
s 1
usemtl g1_black.015
f 72//1 71//2 77//3 78//4 81//5 80//6
f 47//7 50//8 56//9 59//10 64//11 68//12 41//13 43//14
f 115//15 114//16 24//17 20//18 116//19 113//20
s 0
f 35//21 96//22 100//23 99//24 97//25 29//21 34//26 43//27 41//28 68//29
s 1
f 11//30 10//31 13//32 17//33
s 0
f 49//34 48//35 52//36 69//37 54//38 51//39
s 1
f 6//40 12//41 14//42 9//43
s 0
f 135//44 30//45 36//46 45//47 132//48 133//49 136//44 134//50
s 1
f 121//51 118//52 124//53 117//54 128//55 109//56 105//57 129//58 119//59
s 0
f 24//60 114//61 126//62 125//63 21//64
s 1
f 67//65 44//66 64//11 59//10 57//67 58//68 42//69 63//70
f 88//71 129//58 105//57 84//72 85//73 40//74 34//75 29//76 94//77 95//78
f 19//79 26//80 116//19 20//18
s 0
f 96//81 102//82 90//83 93//84 92//85 91//86 99//87 100//88
s 1
f 103//89 102//90 30//91 104//92
f 130//93 25//94 22//95 108//96 123//97 107//98 122//99
f 3//100 5//101 4//102 31//103 26//80 19//79 18//104 15//105
f 133//106 132//107 60//108 62//109 61//110 53//111 54//38 131//112 39//113 8//114
f 22//115 25//115 16//115 23//116 135//117 134//118 17//115 13//115 14//115 12//115 15//105 18//104 19//79 20//115 24//115 21//115
f 4//119 5//101 3//100 6//119 9//119 10//119 11//119 136//120 133//119 8//119 7//119 2//119 1//119
f 112//121 111//122 127//123 117//54 124//53 125//124 126//125 114//126 115//127 27//128
f 110//129 127//123 111//122
f 3//100 15//105 12//41 6//40
s 0
f 63//130 42//131 132//132 45//133
s 1
f 37//134 23//116 16//135 87//136 91//137 92//138 38//139
s 0
f 44//140 46//141 35//142 68//143 64//144
f 77//145 73//146 33//147 78//4
s 1
f 59//10 56//9 55//148 53//111 61//110 62//109 58//68 57//67
f 36//149 67//65 63//70 45//150
s 0
f 33//151 73//152 84//153 105//154 109//155 28//156
f 29//157 97//158 98//159
f 79//160 75//161 76//162 82//163 83//164 1//165 2//166 72//1 80//6
s 1
f 40//74 85//73 84//72 73//167 77//3 71//2 48//35 66//168
f 28//169 128//55 117//54 127//123 110//129 111//122
s 0
f 74//170 33//171 28//172 111//173 112//174 27//175 32//176 76//177 75//178
s 1
f 54//38 53//111 55//148 56//9 50//8 47//7 65//179 49//180 51//181
f 90//182 102//90 103//89 89//183
f 32//176 83//184 82//185 76//186
f 119//59 129//58 88//71 87//136 130//93 122//99
f 49//180 65//179 66//168 48//35
f 29//76 98//187 88//71 95//78 94//77
f 10//31 9//43 14//42 13//32
f 107//98 123//97 106//188 120//189 121//51 119//59 122//99
f 91//137 87//136 88//71 98//187 97//158 99//190
f 101//191 104//92 30//91
f 93//192 90//182 89//183 135//117
f 11//30 17//33 134//193 136//194
f 92//138 93//192 135//117 23//116 37//134 38//139
s 0
f 48//195 71//196 70//197 86//198 69//199 52//200
f 135//201 103//202 104//92 101//203 30//204
s 1
f 30//91 102//90 96//205 35//206 46//207 44//66 67//65 36//149
f 8//114 39//113 131//112 54//38 69//199 86//198 7//208
s 0
f 34//209 40//210 66//211 65//212 47//213 43//214
f 103//215 135//216 89//217
s 1
f 128//55 28//169 109//56
s 0
f 58//218 62//219 60//108 132//220 42//69
f 120//221 106//222 123//97 108//96 22//223 21//224 125//225 124//226 118//227 121//228
f 31//229 4//230 1//231 83//184 32//232 27//233 115//234 113//235 116//236 26//237
f 2//238 7//239 86//240 70//197 71//241 72//242
f 78//243 33//244 74//245 75//246 79//247 80//248 81//249
s 1
f 130//93 87//136 16//135 25//94
