# Blender 4.5.4 LTS
# www.blender.org
mtllib left_hand_palm_link_extra_2.mtl
o left_hand_palm_link
v 0.086554 -0.008646 -0.019000
v 0.086605 -0.008587 -0.019000
v 0.086646 -0.008520 -0.019000
v 0.086676 -0.008447 -0.019000
v 0.086694 -0.008371 -0.019000
v 0.084071 -0.010994 -0.019000
v 0.084147 -0.010976 -0.019000
v 0.084220 -0.010946 -0.019000
v 0.086563 0.003163 -0.019000
v 0.085494 0.006100 -0.019000
v 0.084287 -0.010905 -0.019000
v 0.082200 0.009394 -0.019000
v 0.079263 0.010463 -0.019000
v 0.086676 -0.008447 -0.038000
v 0.086646 -0.008520 -0.038000
v 0.084220 -0.010946 -0.038000
v 0.084147 -0.010976 -0.038000
v 0.084071 -0.010994 -0.038000
v 0.086563 0.003163 -0.038000
v 0.086694 -0.008371 -0.038000
v 0.086605 -0.008587 -0.038000
v 0.086554 -0.008646 -0.038000
v 0.084287 -0.010905 -0.038000
v 0.079263 0.010463 -0.038000
v 0.082200 0.009394 -0.038000
v 0.085494 0.006100 -0.038000
v 0.070257 0.010600 -0.019000
v 0.072228 -0.011000 -0.019000
v 0.072413 -0.011000 -0.038000
v 0.070442 0.010600 -0.038000
vn 0.1529 0.8665 -0.4752
vn 0.1261 0.7147 0.6880
vn 0.3629 0.6285 0.6880
vn 0.3629 0.6285 -0.6880
vn 0.5240 -0.4888 -0.6975
vn 0.5866 -0.4277 -0.6878
vn 0.6452 -0.3268 -0.6905
vn 0.6451 -0.3273 0.6905
vn 0.5869 -0.4269 0.6880
vn 0.5248 -0.4882 0.6973
vn 0.4254 -0.5857 0.6899
vn 0.4283 -0.5831 -0.6903
vn 0.7146 0.1261 0.6880
vn 0.7147 0.1261 -0.6880
vn 0.6285 0.3629 -0.6880
vn 0.6285 0.3629 0.6880
vn -0.5514 -0.6000 0.5797
vn -0.5450 -0.6010 -0.5847
vn 0.1115 -0.7139 -0.6914
vn 0.1106 -0.7141 0.6912
vn 0.1274 0.7165 0.6858
vn 0.2206 -0.6881 0.6913
vn 0.3267 -0.6467 0.6893
vn 0.6878 -0.2216 0.6912
vn 0.7141 -0.1118 0.6911
vn 0.7148 -0.1098 -0.6907
vn 0.6890 -0.2197 -0.6906
vn 0.3280 -0.6467 -0.6886
vn 0.2221 -0.6906 -0.6883
vn -0.3295 0.9096 0.2532
s 1
usemtl g1_black
f 24//1 13//2 12//3 25//4
f 22//5 21//6 15//7 3//8 2//9 1//10 11//11 23//12
f 9//13 19//14 26//15 10//16
f 28//17 29//18 18//19 6//20
f 13//2 27//21 28//17 6//20 7//22 8//23 11//11 1//10 2//9 3//8 4//24 5//25 9//13 10//16 12//3
f 25//4 26//15 19//14 20//26 14//27 15//7 21//6 22//5 23//12 16//28 17//29 18//19 29//18 30//30 24//1
f 10//16 26//15 25//4 12//3
f 29//18 28//17 27//21 30//30
f 3//8 15//7 14//27 20//26 19//14 9//13 5//25 4//24
f 13//2 24//1 30//30 27//21
f 6//20 18//19 17//29 16//28 23//12 11//11 8//23 7//22
