# Blender 4.5.4 LTS
# www.blender.org
mtllib left_hand_index_1_link.mtl
o left_hand_index_1_link
v 0.043447 0.003484 0.010047
v 0.046728 0.003010 0.009113
v 0.047778 0.002840 0.008673
v 0.048790 0.002668 0.008143
v 0.049741 0.002498 0.007495
v 0.050576 0.002347 0.006682
v 0.051221 0.002236 0.005700
v 0.051860 0.002191 0.003450
v 0.045590 0.002439 0.009443
v 0.050436 0.001892 0.006618
v 0.044479 0.001783 0.009706
v 0.045533 0.001702 0.009382
v 0.043393 0.001056 0.009903
v 0.044445 0.001008 0.009617
v 0.051635 0.001483 0.003325
v 0.043377 0.000251 0.009775
v 0.048244 -0.000230 0.007523
v 0.049135 -0.000089 0.006878
v 0.047240 -0.000945 0.007810
v 0.048154 -0.000778 0.007268
v 0.044328 -0.001978 0.008708
v 0.046245 -0.001706 0.007951
v 0.047170 -0.001520 0.007487
v 0.044303 -0.002648 0.008285
v 0.046192 -0.002288 0.007534
v 0.049658 -0.001092 0.005285
v 0.050346 -0.000659 0.004489
v 0.050889 -0.000150 0.003617
v 0.042324 -0.003580 0.008335
v 0.044279 -0.003236 0.007749
v 0.046142 -0.002786 0.007020
v 0.050823 -0.000349 0.003348
v 0.051294 0.000267 0.002514
v 0.042324 -0.004139 0.007683
v 0.044257 -0.003718 0.007118
v 0.046097 -0.003188 0.006429
v 0.049501 -0.001630 0.004468
v 0.049436 -0.001818 0.004017
v 0.039232 -0.005970 0.005896
v 0.043277 -0.004934 0.005173
v 0.045991 -0.003955 0.004462
v 0.039238 -0.006202 0.004997
v 0.043271 -0.005126 0.004382
v 0.045966 -0.004109 0.003777
v 0.049288 -0.002185 0.002609
v 0.045075 -0.004611 0.003267
v 0.045946 -0.004229 0.003087
v 0.038172 -0.006896 -0.000522
v 0.040304 -0.006389 -0.000498
v 0.021857 -0.008747 -0.001715
v 0.030677 -0.008087 -0.001637
v 0.037086 -0.007101 -0.001497
v 0.038171 -0.006872 -0.001465
v 0.040303 -0.006365 -0.001393
v 0.041328 -0.006090 -0.001353
v 0.043255 -0.005500 -0.001263
v 0.045047 -0.004818 -0.001158
v 0.034929 -0.007451 -0.002556
v 0.037084 -0.007050 -0.002462
v 0.041328 -0.006041 -0.002221
v 0.043257 -0.005453 -0.002071
v 0.030667 -0.007954 -0.003753
v 0.034926 -0.007367 -0.003557
v 0.043269 -0.005125 -0.004481
v 0.045088 -0.004481 -0.004097
v 0.043275 -0.004934 -0.005272
v 0.045106 -0.004314 -0.004820
v 0.045989 -0.003955 -0.004560
v 0.050081 -0.001385 -0.003111
v 0.046054 -0.003505 -0.005895
v 0.047794 -0.002748 -0.005115
v 0.046094 -0.003186 -0.006529
v 0.047852 -0.002495 -0.005673
v 0.049500 -0.001629 -0.004567
v 0.044275 -0.003236 -0.007847
v 0.046139 -0.002786 -0.007119
v 0.047917 -0.002177 -0.006198
v 0.050823 -0.000349 -0.003445
v 0.051295 0.000267 -0.002612
v 0.044298 -0.002647 -0.008383
v 0.046188 -0.002286 -0.007634
v 0.047990 -0.001774 -0.006667
v 0.048855 -0.001458 -0.006077
v 0.049657 -0.001091 -0.005385
v 0.050346 -0.000658 -0.004589
v 0.050889 -0.000149 -0.003717
v 0.044322 -0.001976 -0.008806
v 0.046241 -0.001706 -0.008049
v 0.048068 -0.001297 -0.007054
v 0.048150 -0.000776 -0.007366
v 0.049033 -0.000575 -0.006734
v 0.043369 0.000253 -0.009874
v 0.043384 0.001057 -0.010002
v 0.044437 0.001010 -0.009716
v 0.044471 0.001784 -0.009805
v 0.045526 0.001703 -0.009481
v 0.050433 0.001892 -0.006719
v 0.045641 0.003177 -0.009578
v 0.046720 0.003012 -0.009213
v 0.047771 0.002842 -0.008773
v 0.049737 0.002499 -0.007596
v 0.050573 0.002348 -0.006783
v 0.051220 0.002237 -0.005800
v 0.051629 0.002188 -0.004695
v 0.051860 0.002192 -0.003550
v 0.015277 -0.007000 0.013100
v -0.001881 0.005168 0.013100
v -0.003535 0.004213 0.013100
v -0.004763 0.002750 0.013100
v -0.005416 0.000955 0.013100
v -0.005416 -0.000955 0.013100
v -0.004763 -0.002750 0.013100
v -0.004213 -0.003535 0.013100
v -0.002750 -0.004763 0.013100
v -0.001881 -0.005168 0.013100
v 0.019094 -0.006996 0.013100
v 0.019264 -0.006965 0.013100
v 0.019426 -0.006905 0.013100
v 0.019707 -0.006707 0.013100
v 0.019094 0.006996 0.013100
v 0.000000 -0.007000 -0.012900
v -0.002394 -0.006578 -0.012900
v -0.003500 -0.006062 -0.012900
v -0.005362 -0.004500 -0.012900
v -0.006062 -0.003500 -0.012900
v -0.006894 -0.001216 -0.012900
v -0.006894 0.001216 -0.012900
v -0.006062 0.003500 -0.012900
v -0.004500 0.005362 -0.012900
v -0.002394 0.006578 -0.012900
v -0.001216 0.006894 -0.012900
v 0.019000 0.007000 -0.012900
v 0.019264 -0.006965 -0.012900
v 0.019094 -0.006996 -0.012900
v 0.019094 0.006996 -0.012900
v 0.019426 -0.006905 -0.012900
v 0.019426 0.006905 -0.012900
v 0.019264 0.006965 -0.012900
v 0.019707 -0.006707 -0.012900
v 0.051685 0.002827 -0.004501
v 0.051203 0.003974 -0.005876
v 0.051415 0.003930 -0.005406
v 0.046480 0.004849 -0.009195
v 0.029687 0.006657 -0.011907
v 0.047339 0.004700 -0.008876
v 0.049812 0.004245 -0.007509
v 0.050604 0.004092 -0.006758
v 0.051590 0.003892 -0.004885
v 0.014586 0.008897 -0.000050
v 0.014599 0.008882 -0.001163
v 0.028266 0.007195 -0.011638
v 0.046353 0.005348 -0.008789
v 0.050350 0.004574 -0.006452
v 0.051059 0.004415 -0.005300
v 0.050560 0.003087 0.006713
v 0.050517 0.003096 0.006762
v 0.037828 0.006073 0.010872
v 0.043817 0.005281 0.009821
v 0.045032 0.005089 0.009529
v 0.048571 0.004477 0.008203
v 0.047835 0.004612 0.008564
v 0.049110 0.004377 0.007895
v 0.049193 0.004362 0.007843
v 0.049722 0.004261 0.007477
v 0.050541 0.004104 0.006730
v 0.051184 0.003977 0.005811
v 0.051711 0.003864 0.004271
v 0.051824 0.003835 0.003527
v 0.019581 0.008848 0.002215
v 0.022050 0.008782 0.002202
v 0.017181 0.008787 0.003384
v 0.019645 0.008775 0.003371
v 0.051369 0.004340 0.004136
v 0.050275 0.004590 0.006438
v 0.045010 0.005576 0.009094
v 0.035520 0.006787 0.010774
v 0.030847 0.007102 0.011305
v 0.028444 0.007190 0.011523
vn -0.0392 -0.9958 -0.0824
vn -0.0774 -0.9970 -0.0060
vn -0.0680 -0.9901 0.1228
vn -0.3413 -0.9377 0.0651
vn -0.3422 -0.9396 -0.0000
vn 0.6475 -0.6539 -0.3914
vn 0.6288 -0.7160 -0.3031
vn 0.5124 -0.7958 -0.3229
vn 0.4696 -0.8057 -0.3610
vn 0.4710 -0.7548 -0.4564
vn 0.4711 -0.7548 -0.4564
vn 0.5756 -0.6727 -0.4650
vn -0.0053 0.9967 0.0810
vn 0.0147 0.9971 0.0742
vn 0.0167 0.9987 0.0491
vn 0.0363 0.9983 0.0451
vn -0.0216 0.9993 -0.0292
vn -0.0182 0.9998 -0.0000
vn -0.1914 0.9813 -0.0184
vn -0.3422 0.9396 -0.0000
vn -0.3413 0.9377 0.0651
vn 0.1579 0.9284 0.3365
vn 0.1704 0.8670 0.4682
vn 0.0736 0.9767 0.2014
vn 0.1094 0.9798 0.1675
vn 0.2754 0.9611 -0.0224
vn 0.2597 0.9647 -0.0432
vn 0.2002 0.9752 -0.0939
vn 0.0430 0.7072 -0.7057
vn 0.0167 0.9332 -0.3588
vn 0.1907 0.9763 0.1021
vn 0.2589 0.9648 0.0452
vn 0.2873 0.9578 0.0071
vn 0.3127 0.5224 0.7933
vn -0.0000 -0.0000 1.0000
vn 0.1783 -0.1542 0.9718
vn 0.2235 -0.1485 0.9633
vn 0.2490 -0.1112 0.9621
vn 0.2787 -0.0887 0.9563
vn 0.3102 -0.0704 0.9481
vn 0.3493 -0.0242 0.9367
vn 0.2242 0.0768 0.9715
vn 0.2243 0.0766 0.9715
vn 0.7895 0.6012 0.1238
vn 0.6386 0.6206 0.4551
vn 0.6396 0.6205 0.4537
vn 0.7198 0.6113 0.3291
vn 0.7889 0.6014 0.1264
vn 0.1002 0.3853 -0.9173
vn 0.0967 0.5020 -0.8594
vn 0.0431 0.8832 -0.4671
vn 0.3497 0.6416 -0.6827
vn 0.3463 0.6399 -0.6860
vn -0.9848 -0.1736 -0.0000
vn -0.8660 -0.5000 -0.0000
vn -0.8642 -0.4990 0.0651
vn -0.9827 -0.1733 0.0651
vn -0.7661 -0.6427 -0.0000
vn -0.5000 -0.8660 -0.0000
vn -0.4990 -0.8642 0.0651
vn -0.7644 -0.6414 0.0651
vn 0.3291 -0.6305 0.7030
vn 0.2427 -0.6551 0.7155
vn 0.2408 -0.6947 0.6778
vn 0.2755 -0.7196 0.6374
vn 0.2922 -0.6126 0.7344
vn 0.3713 -0.6465 0.6665
vn 0.4194 -0.6592 0.6242
vn 0.4120 -0.5398 0.7341
vn 0.4120 -0.5397 0.7341
vn 0.3612 -0.5208 0.7735
vn -0.9827 0.1733 0.0651
vn -0.9848 0.1736 -0.0000
vn -0.3423 -0.9396 -0.0000
vn -0.3414 -0.9377 0.0651
vn -0.6414 0.7644 0.0651
vn -0.6427 0.7661 -0.0000
vn -0.8660 0.5000 -0.0000
vn -0.8642 0.4990 0.0651
vn 0.9861 -0.1385 -0.0922
vn 0.9704 -0.0118 -0.2413
vn 0.9527 -0.0697 -0.2959
vn 0.9616 0.0049 -0.2744
vn 0.9903 0.0115 0.1385
vn 0.9860 -0.1666 -0.0011
vn 0.7512 0.6076 -0.2579
vn 0.7965 0.5988 0.0842
vn 0.7776 0.6030 -0.1781
vn 0.7575 0.6043 -0.2470
vn 0.0992 0.2528 -0.9624
vn 0.3560 0.0553 -0.9328
vn 0.3565 0.0555 -0.9327
vn 0.3180 0.0572 -0.9464
vn 0.2676 -0.0571 -0.9618
vn 0.2785 -0.0884 -0.9564
vn 0.2487 -0.1112 -0.9622
vn 0.2225 -0.1483 -0.9636
vn -0.0000 -0.0000 -1.0000
vn -0.0023 -0.0000 -1.0000
vn 0.9735 -0.2187 -0.0667
vn 0.9495 -0.3133 -0.0145
vn 0.1125 0.6267 0.7711
vn 0.9474 -0.3081 -0.0861
vn 0.8700 -0.4723 -0.1419
vn 0.8431 -0.4760 -0.2501
vn 0.8723 -0.3529 -0.3385
vn 0.9624 -0.1909 -0.1935
vn 0.1654 -0.9067 -0.3881
vn 0.1980 -0.8509 -0.4866
vn 0.4221 -0.8144 -0.3983
vn 0.4219 -0.8507 -0.3134
vn 0.4213 -0.8733 -0.2447
vn 0.3797 -0.9024 -0.2036
vn 0.3452 -0.9137 -0.2147
vn 0.3166 -0.9020 -0.2934
vn 0.9475 0.0067 -0.3197
vn 0.8507 -0.1474 -0.5046
vn 0.8941 0.0152 -0.4475
vn 0.7552 0.0056 -0.6554
vn 0.8133 -0.1748 -0.5550
vn 0.6935 -0.0349 -0.7196
vn 0.5840 0.0096 -0.8117
vn 0.6295 0.0115 -0.7769
vn 0.5244 -0.6721 -0.5227
vn 0.4192 -0.6581 -0.6254
vn 0.3710 -0.6455 -0.6676
vn 0.4699 -0.5562 -0.6854
vn 0.5851 -0.4986 -0.6396
vn 0.5852 -0.5798 -0.5670
vn 0.4668 -0.8559 -0.2224
vn 0.4683 -0.8364 -0.2849
vn 0.5540 -0.7827 -0.2836
vn 0.5539 -0.7827 -0.2836
vn 0.6159 -0.7515 -0.2365
vn 0.5974 -0.7970 0.0886
vn 0.4654 -0.8747 0.1349
vn 0.4195 -0.9012 0.1090
vn 0.4194 -0.9012 0.1091
vn 0.3759 -0.9253 -0.0514
vn 0.3394 -0.9391 -0.0533
vn 0.3406 -0.9363 -0.0854
vn 0.3437 -0.9246 -0.1644
vn 0.4204 -0.8873 -0.1899
vn 0.4204 -0.8872 -0.1898
vn 0.2926 0.6481 0.7031
vn 0.2871 0.6462 0.7071
vn 0.4143 0.6383 0.6488
vn 0.4546 0.6365 0.6231
vn 0.4947 0.6407 0.5871
vn 0.5480 0.6325 0.5474
vn 0.7367 -0.6065 0.2991
vn 0.7077 -0.6774 0.2009
vn 0.7718 -0.6328 -0.0620
vn 0.8119 -0.5578 0.1721
vn 0.8232 -0.5301 0.2032
vn 0.8695 -0.4735 0.1403
vn 0.9337 -0.3238 0.1532
vn 0.9285 -0.3228 0.1837
vn 0.8725 -0.3536 0.3372
vn 0.8430 -0.4765 0.2497
vn 0.3907 0.0399 -0.9196
vn 0.3909 0.0403 -0.9196
vn 0.6294 0.0115 -0.7770
vn 0.5839 0.0096 -0.8117
vn 0.2285 0.9699 0.0847
vn 0.6397 0.6219 -0.4517
vn 0.6436 0.6200 -0.4488
vn 0.5570 0.6313 -0.5397
vn 0.3778 0.6430 -0.6662
vn 0.8515 -0.5141 0.1030
vn 0.6826 -0.7246 -0.0953
vn 0.6955 -0.7015 0.1558
vn 0.6784 -0.7319 0.0649
vn 0.7145 -0.6577 -0.2385
vn 0.7360 -0.6072 -0.2994
vn 0.8233 -0.5299 -0.2034
vn 0.8121 -0.5575 -0.1720
vn 0.8508 -0.5156 -0.1017
vn 0.8515 -0.5142 0.1030
vn 0.2529 0.6470 0.7194
vn 0.1517 0.6369 0.7559
vn 0.4595 -0.4600 0.7598
vn 0.5093 -0.4118 0.7556
vn 0.5093 -0.4118 0.7557
vn 0.5722 -0.3784 0.7275
vn 0.5723 -0.3784 0.7275
vn 0.5276 -0.1976 0.8262
vn 0.9800 0.0049 0.1989
vn 0.8713 0.0073 0.4907
vn 0.8839 -0.0030 0.4676
vn 0.9623 -0.1910 0.1938
vn 0.4731 -0.6672 0.5754
vn 0.4210 -0.7557 0.5017
vn 0.3771 -0.7518 0.5410
vn 0.4712 -0.7543 0.4571
vn 0.6287 -0.7161 0.3033
vn 0.6478 -0.6534 0.3917
vn 0.3226 -0.1013 0.9411
vn 0.3226 -0.1012 0.9411
vn 0.2898 -0.1334 0.9478
vn 0.2591 -0.1671 0.9513
vn 0.2591 -0.1670 0.9513
vn 0.2338 -0.2132 0.9486
vn 0.2009 -0.2390 0.9500
vn 0.2365 -0.4500 0.8611
vn 0.3155 -0.5008 0.8060
vn 0.3466 -0.4154 0.8410
vn 0.3988 -0.4381 0.8056
vn 0.4396 -0.1451 0.8864
vn 0.3700 -0.1039 0.9232
vn 0.7459 0.0070 0.6660
vn 0.7284 -0.0221 0.6848
vn 0.7568 -0.0075 0.6536
vn 0.7834 -0.1493 0.6033
vn 0.8140 -0.1738 0.5543
vn 0.2357 -0.9401 0.2465
vn 0.0500 -0.9794 0.1956
vn 0.0003 -0.9843 0.1766
vn 0.0532 -0.9983 -0.0225
vn 0.1156 -0.9922 -0.0475
vn 0.1168 -0.9900 -0.0787
vn 0.1623 -0.9833 -0.0819
vn 0.1764 -0.9830 -0.0502
vn 0.1917 -0.9801 -0.0516
vn 0.2068 -0.9781 -0.0247
vn 0.2228 -0.9749 -0.0000
vn 0.2597 -0.9653 -0.0265
vn 0.2819 -0.9579 -0.0542
vn 0.3081 -0.9498 -0.0542
vn 0.3389 -0.9405 -0.0260
vn 0.3755 -0.9265 -0.0247
vn 0.4205 -0.8954 0.1465
vn 0.4209 -0.8870 0.1900
vn 0.3449 -0.9136 0.2154
vn 0.3134 -0.9344 0.1694
vn -0.0000 -0.9829 -0.1839
vn 0.1115 -0.9560 -0.2715
vn 0.3152 -0.9222 -0.2240
vn 0.3131 -0.9344 -0.1698
vn 0.3095 -0.9469 -0.0876
vn 0.2608 -0.9639 -0.0543
vn 0.2404 -0.9703 -0.0260
vn 0.2233 -0.9744 -0.0254
vn 0.2082 -0.9767 -0.0526
vn 0.2082 -0.9767 -0.0527
vn 0.1939 -0.9774 -0.0848
vn 0.1789 -0.9803 -0.0835
vn 0.1656 -0.9785 -0.1232
vn 0.1040 -0.9915 -0.0785
vn 0.1029 -0.9936 -0.0467
vn 0.0530 -0.9974 -0.0483
vn 0.7282 0.6085 -0.3153
vn 0.4701 -0.5567 0.6849
vn 0.7579 -0.5372 0.3703
vn 0.7755 -0.3248 0.5415
vn 0.6548 -0.2874 0.6990
vn 0.6499 -0.2572 0.7152
vn 0.5800 -0.4363 0.6880
vn 0.5799 -0.4363 0.6880
vn 0.5204 -0.4821 0.7048
vn 0.4701 -0.5566 0.6850
vn 0.1667 -0.9139 0.3703
vn 0.1423 -0.9377 0.3168
vn 0.2534 -0.9367 0.2417
vn 0.3154 -0.9221 0.2242
vn 0.3458 -0.8962 0.2780
vn 0.4210 -0.8739 0.2431
vn 0.4218 -0.8149 0.3975
vn 0.3380 -0.7437 0.5767
vn 0.3035 -0.7330 0.6087
vn 0.2868 -0.8067 0.5167
vn 0.2336 -0.6308 -0.7400
vn 0.2249 -0.4473 -0.8656
vn 0.3600 -0.5209 -0.7740
vn 0.4118 -0.5400 -0.7341
vn 0.4118 -0.5399 -0.7341
vn 0.3291 -0.6297 -0.7037
vn 0.4695 -0.8063 0.3599
vn 0.4661 -0.8676 0.1734
vn 0.4661 -0.8676 0.1733
vn 0.5991 -0.7925 0.1139
vn 0.6159 -0.7514 0.2368
vn 0.7790 -0.3479 -0.5217
vn 0.7577 -0.5372 -0.3707
vn 0.6647 -0.5718 -0.4809
vn 0.6647 -0.5718 -0.4808
vn 0.6729 -0.4492 -0.5877
vn 0.6492 -0.2584 -0.7154
vn 0.6539 -0.2867 -0.7001
vn 0.7750 -0.3258 -0.5414
vn 0.4758 0.0325 0.8790
vn 0.4301 0.0388 0.9020
vn 0.4264 0.0380 0.9037
vn 0.5135 0.0230 0.8578
vn 0.6979 -0.0282 0.7156
vn 0.6143 0.0142 0.7890
vn 0.5499 0.0168 0.8350
vn 0.5180 0.0271 0.8550
vn 0.2135 -0.3657 -0.9059
vn 0.1721 -0.1779 -0.9689
vn 0.2599 -0.1667 -0.9511
vn 0.2589 -0.1667 -0.9514
vn 0.2895 -0.1337 -0.9478
vn 0.2896 -0.1337 -0.9478
vn 0.3280 -0.1163 -0.9375
vn 0.3157 -0.0845 -0.9451
vn 0.3698 -0.1032 -0.9233
vn 0.3826 -0.1361 -0.9138
vn 0.3006 -0.3928 -0.8691
vn 0.2322 -0.6878 -0.6878
vn 0.3764 -0.7520 -0.5411
vn 0.4210 -0.7560 -0.5012
vn 0.3987 -0.4374 -0.8061
vn 0.3454 -0.4149 -0.8418
vn 0.4392 -0.1444 -0.8867
vn 0.5363 -0.2314 -0.8117
vn 0.5792 -0.4371 -0.6881
vn 0.5207 -0.4810 -0.7053
vn 0.2662 0.0670 0.9616
s 0
usemtl g1_black.008
f 121//1 50//2 106//3 115//4 122//5
f 84//6 74//7 73//8 71//8 70//9 72//10 76//11 77//12 82//12 83//6
s 1
f 171//13 172//14 169//15 170//16 150//17 149//18 131//19 130//20 107//21 120//22 178//23 177//24 176//25
f 154//26 153//27 152//28 151//29 132//30 131//19 149//18 150//17 170//16 169//15 172//14 171//13 176//25 175//31 174//32 173//33
f 157//34 120//22 107//35 108//35 109//35 110//35 111//35 112//35 113//35 114//35 115//35 106//35 116//35 117//35 118//35 119//36 16//37 13//38 14//38 11//39 12//39 9//40 2//41 1//42 158//43
f 173//44 174//45 165//46 166//47 167//48
f 144//49 138//50 135//51 151//29 152//52 143//53
f 126//54 125//55 112//56 111//57
f 124//58 123//59 114//60 113//61
s 0
f 24//62 118//63 117//64 34//65 29//66 30//67 31//68 25//69 22//70 21//71
s 1
f 110//72 127//73 126//54 111//57
f 125//55 124//58 113//61 112//56
f 123//59 122//74 115//75 114//60
f 108//76 129//77 128//78 109//79
f 105//80 140//81 104//82 148//83 168//84 8//85
f 154//86 173//44 167//48 168//87 148//88 142//89
f 144//49 137//90 138//50
f 137//90 144//49 143//91 145//92 99//93 98//94 96//95 95//96 94//96 93//97 92//97 139//98 136//98 133//98 134//98 121//98 122//98 123//98 124//98 125//98 126//98 127//98 128//98 129//98 130//98 131//98 132//99 135//98 138//98
f 105//80 8//85 33//100 79//101
f 177//102 178//23 120//22
f 107//21 130//20 129//77 108//76
s 0
f 105//103 79//104 78//104 86//105 85//105 103//106 104//107 140//107
f 134//108 133//109 72//110 70//111 68//112 67//113 65//113 64//114 66//115
s 1
f 142//116 148//83 104//82 103//117 141//118
f 147//119 141//118 103//117 97//120 102//121 101//122 146//123
s 0
f 82//124 77//124 76//125 75//126 80//126 81//127 88//127 89//128 90//128 91//128 83//129
f 68//130 70//131 71//132 73//133 74//134 45//135 44//136 47//137 46//138 57//139 56//140 61//141 64//142 65//143 67//144
s 1
f 165//46 174//45 175//145 159//146 161//147 160//148 163//149 164//150
f 151//29 135//51 132//30
s 0
f 27//151 26//151 37//152 38//152 69//153 32//154 28//155
f 33//156 8//157 15//158 7//159 27//160 28//156 32//156
f 100//161 99//161 145//162 146//163 101//164
s 1
f 162//165 163//149 160//148
f 152//52 153//166 147//167 146//168 145//169 143//53
s 0
f 32//170 69//171 38//172 45//173 74//174 84//175 85//176 86//177 78//178 79//178 33//179
s 1
f 127//73 110//72 109//79 128//78
f 158//180 159//146 175//145 176//181 177//102 120//22 157//34
s 0
f 22//182 23//182 19//183 20//184 17//185 18//186 5//187 4//187
s 1
f 8//85 168//84 167//188 166//189 7//190 15//191
s 0
f 25//192 31//193 30//194 35//194 36//195 37//196 26//197
f 2//198 9//199 12//200 11//200 14//201 13//202 16//203 119//204 118//205 24//206 21//207 22//208 4//209 3//210
s 1
f 7//190 166//189 165//211 156//212 155//213 6//214 10//215
s 0
f 42//216 39//216 116//217 106//218 50//219 51//220 62//221 63//222 58//223 59//224 52//225 53//225 48//226 49//227 54//227 55//228 60//228 61//229 56//230 57//231 46//232 47//232 44//233 41//233 40//234 43//235
f 121//236 134//237 66//238 64//239 61//240 60//241 55//241 54//242 49//242 48//243 53//244 52//245 59//246 58//247 63//248 62//249 51//250 50//251
s 1
f 153//166 154//86 142//89 141//252 147//167
s 0
f 25//253 26//254 27//254 7//255 10//256 6//257 5//257 18//258 17//259 20//260 19//260 23//253 22//261
f 117//262 116//263 39//264 42//264 43//265 40//266 41//267 36//268 35//269 30//269 29//270 34//271
f 133//272 136//273 87//274 88//275 81//276 80//277 75//277
f 36//278 41//279 44//280 45//281 38//282 37//282
f 103//283 85//284 84//285 83//286 91//287 101//288 102//289 97//290
s 1
f 160//291 161//292 3//293 4//294 5//295 6//214 155//213 156//212 165//211 164//296 163//297 162//298
s 0
f 136//299 139//300 92//301 93//302 94//303 95//304 96//305 98//306 99//307 100//308 87//309
f 133//310 75//311 76//312 72//312
f 88//313 87//314 100//315 101//316 91//317 90//318 89//318
s 1
f 161//292 159//319 158//43 1//42 2//41 3//293
