# Blender 4.5.4 LTS
# www.blender.org
mtllib left_hand_thumb_2_link.mtl
o left_hand_thumb_2_link
v -0.003484 -0.043447 -0.010047
v -0.003010 -0.046728 -0.009113
v -0.002840 -0.047778 -0.008673
v -0.002668 -0.048790 -0.008143
v -0.002498 -0.049741 -0.007495
v -0.002347 -0.050576 -0.006682
v -0.002236 -0.051221 -0.005700
v -0.002191 -0.051860 -0.003450
v -0.002439 -0.045590 -0.009443
v -0.001892 -0.050436 -0.006618
v -0.001783 -0.044479 -0.009706
v -0.001702 -0.045533 -0.009382
v -0.001056 -0.043393 -0.009903
v -0.001008 -0.044445 -0.009617
v -0.001483 -0.051635 -0.003325
v -0.000251 -0.043377 -0.009775
v 0.000230 -0.048244 -0.007523
v 0.000089 -0.049135 -0.006878
v 0.000945 -0.047240 -0.007810
v 0.000778 -0.048154 -0.007268
v 0.001978 -0.044328 -0.008708
v 0.001706 -0.046245 -0.007951
v 0.001520 -0.047170 -0.007487
v 0.002648 -0.044303 -0.008285
v 0.002288 -0.046192 -0.007534
v 0.001092 -0.049658 -0.005285
v 0.000659 -0.050346 -0.004489
v 0.000150 -0.050889 -0.003617
v 0.003580 -0.042324 -0.008335
v 0.003236 -0.044279 -0.007749
v 0.002786 -0.046142 -0.007020
v 0.000349 -0.050823 -0.003348
v -0.000267 -0.051294 -0.002514
v 0.004139 -0.042324 -0.007683
v 0.003718 -0.044257 -0.007118
v 0.003188 -0.046097 -0.006429
v 0.001630 -0.049501 -0.004468
v 0.001818 -0.049436 -0.004017
v 0.005970 -0.039232 -0.005896
v 0.004934 -0.043277 -0.005173
v 0.003955 -0.045991 -0.004462
v 0.006202 -0.039238 -0.004997
v 0.005126 -0.043271 -0.004382
v 0.004109 -0.045966 -0.003777
v 0.002185 -0.049288 -0.002609
v 0.004611 -0.045075 -0.003267
v 0.004229 -0.045946 -0.003087
v 0.006896 -0.038172 0.000522
v 0.006389 -0.040304 0.000498
v 0.008747 -0.021857 0.001715
v 0.008087 -0.030677 0.001637
v 0.007101 -0.037086 0.001497
v 0.006872 -0.038171 0.001465
v 0.006365 -0.040303 0.001393
v 0.006090 -0.041328 0.001353
v 0.005500 -0.043255 0.001263
v 0.004818 -0.045047 0.001158
v 0.007451 -0.034929 0.002556
v 0.007050 -0.037084 0.002462
v 0.006041 -0.041328 0.002221
v 0.005453 -0.043257 0.002071
v 0.007954 -0.030667 0.003753
v 0.007367 -0.034926 0.003557
v 0.005125 -0.043269 0.004481
v 0.004481 -0.045088 0.004097
v 0.004934 -0.043275 0.005272
v 0.004314 -0.045106 0.004820
v 0.003955 -0.045989 0.004560
v 0.001385 -0.050081 0.003111
v 0.003505 -0.046054 0.005895
v 0.002748 -0.047794 0.005115
v 0.003186 -0.046094 0.006529
v 0.002495 -0.047852 0.005673
v 0.001629 -0.049500 0.004567
v 0.003236 -0.044275 0.007847
v 0.002786 -0.046139 0.007119
v 0.002177 -0.047917 0.006198
v 0.000349 -0.050823 0.003445
v -0.000267 -0.051295 0.002612
v 0.002647 -0.044298 0.008383
v 0.002286 -0.046188 0.007634
v 0.001774 -0.047990 0.006667
v 0.001458 -0.048855 0.006077
v 0.001091 -0.049657 0.005385
v 0.000658 -0.050346 0.004589
v 0.000149 -0.050889 0.003717
v 0.001976 -0.044322 0.008806
v 0.001706 -0.046241 0.008049
v 0.001297 -0.048068 0.007054
v 0.000776 -0.048150 0.007366
v 0.000575 -0.049033 0.006734
v -0.000253 -0.043369 0.009874
v -0.001057 -0.043384 0.010002
v -0.001010 -0.044437 0.009716
v -0.001784 -0.044471 0.009805
v -0.001703 -0.045526 0.009481
v -0.001892 -0.050433 0.006719
v -0.003177 -0.045641 0.009578
v -0.003012 -0.046720 0.009213
v -0.002842 -0.047771 0.008773
v -0.002499 -0.049737 0.007596
v -0.002348 -0.050573 0.006783
v -0.002237 -0.051220 0.005800
v -0.002188 -0.051629 0.004695
v -0.002192 -0.051860 0.003550
v 0.007000 -0.015277 -0.013100
v -0.005168 0.001881 -0.013100
v -0.004213 0.003535 -0.013100
v -0.002750 0.004763 -0.013100
v -0.000955 0.005416 -0.013100
v 0.000955 0.005416 -0.013100
v 0.002750 0.004763 -0.013100
v 0.003535 0.004213 -0.013100
v 0.004763 0.002750 -0.013100
v 0.005168 0.001881 -0.013100
v 0.006996 -0.019094 -0.013100
v 0.006965 -0.019264 -0.013100
v 0.006905 -0.019426 -0.013100
v 0.006707 -0.019707 -0.013100
v -0.006996 -0.019094 -0.013100
v 0.007000 0.000000 0.012900
v 0.006578 0.002394 0.012900
v 0.006062 0.003500 0.012900
v 0.004500 0.005362 0.012900
v 0.003500 0.006062 0.012900
v 0.001216 0.006894 0.012900
v -0.001216 0.006894 0.012900
v -0.003500 0.006062 0.012900
v -0.005362 0.004500 0.012900
v -0.006578 0.002394 0.012900
v -0.006894 0.001216 0.012900
v -0.007000 -0.019000 0.012900
v 0.006965 -0.019264 0.012900
v 0.006996 -0.019094 0.012900
v -0.006996 -0.019094 0.012900
v 0.006905 -0.019426 0.012900
v -0.006905 -0.019426 0.012900
v -0.006965 -0.019264 0.012900
v 0.006707 -0.019707 0.012900
v -0.002827 -0.051685 0.004501
v -0.003974 -0.051203 0.005876
v -0.003930 -0.051415 0.005406
v -0.004849 -0.046480 0.009195
v -0.006657 -0.029687 0.011907
v -0.004700 -0.047339 0.008876
v -0.004245 -0.049812 0.007509
v -0.004092 -0.050604 0.006758
v -0.003892 -0.051590 0.004885
v -0.008897 -0.014586 0.000050
v -0.008882 -0.014599 0.001163
v -0.007195 -0.028266 0.011638
v -0.005348 -0.046353 0.008789
v -0.004574 -0.050350 0.006452
v -0.004415 -0.051059 0.005300
v -0.003087 -0.050560 -0.006713
v -0.003096 -0.050517 -0.006762
v -0.006073 -0.037828 -0.010872
v -0.005281 -0.043817 -0.009821
v -0.005089 -0.045032 -0.009529
v -0.004477 -0.048571 -0.008203
v -0.004612 -0.047835 -0.008564
v -0.004377 -0.049110 -0.007895
v -0.004362 -0.049193 -0.007843
v -0.004261 -0.049722 -0.007477
v -0.004104 -0.050541 -0.006730
v -0.003977 -0.051184 -0.005811
v -0.003864 -0.051711 -0.004271
v -0.003835 -0.051824 -0.003527
v -0.008848 -0.019581 -0.002215
v -0.008782 -0.022050 -0.002202
v -0.008787 -0.017181 -0.003384
v -0.008775 -0.019645 -0.003371
v -0.004340 -0.051369 -0.004136
v -0.004590 -0.050275 -0.006438
v -0.005576 -0.045010 -0.009094
v -0.006787 -0.035520 -0.010774
v -0.007102 -0.030847 -0.011305
v -0.007190 -0.028444 -0.011523
vn 0.9958 0.0392 0.0824
vn 0.9970 0.0774 0.0060
vn 0.9901 0.0680 -0.1228
vn 0.9377 0.3413 -0.0651
vn 0.9396 0.3422 -0.0000
vn 0.6539 -0.6475 0.3914
vn 0.7161 -0.6288 0.3032
vn 0.7958 -0.5124 0.3229
vn 0.8057 -0.4696 0.3610
vn 0.7548 -0.4711 0.4564
vn 0.6727 -0.5756 0.4650
vn -0.9967 0.0053 -0.0810
vn -0.9971 -0.0147 -0.0742
vn -0.9987 -0.0167 -0.0491
vn -0.9983 -0.0361 -0.0448
vn -0.9993 0.0216 0.0292
vn -0.9998 0.0182 -0.0000
vn -0.9813 0.1914 0.0184
vn -0.9396 0.3422 -0.0000
vn -0.9377 0.3413 -0.0651
vn -0.9284 -0.1579 -0.3365
vn -0.8671 -0.1702 -0.4681
vn -0.9767 -0.0736 -0.2014
vn -0.9798 -0.1094 -0.1675
vn -0.9611 -0.2754 0.0224
vn -0.9647 -0.2597 0.0431
vn -0.9752 -0.2002 0.0939
vn -0.7072 -0.0430 0.7057
vn -0.9333 -0.0167 0.3588
vn -0.9763 -0.1906 -0.1024
vn -0.9648 -0.2589 -0.0452
vn -0.9578 -0.2873 -0.0068
vn -0.6012 -0.7895 -0.1238
vn -0.6205 -0.6387 -0.4550
vn -0.6207 -0.6395 -0.4536
vn -0.6111 -0.7199 -0.3291
vn -0.6014 -0.7889 -0.1264
vn -0.3853 -0.1002 0.9173
vn -0.5020 -0.0967 0.8594
vn -0.8832 -0.0431 0.4670
vn -0.6416 -0.3497 0.6827
vn -0.6400 -0.3463 0.6859
vn -0.1733 0.9827 -0.0651
vn -0.1736 0.9848 -0.0000
vn 0.1736 0.9848 -0.0000
vn 0.1733 0.9827 -0.0651
vn -0.7661 0.6427 -0.0000
vn -0.7644 0.6414 -0.0651
vn 0.6305 -0.3291 -0.7030
vn 0.6551 -0.2426 -0.7155
vn 0.6947 -0.2408 -0.6778
vn 0.7196 -0.2755 -0.6374
vn 0.6126 -0.2922 -0.7344
vn 0.6465 -0.3713 -0.6665
vn 0.6592 -0.4194 -0.6242
vn 0.5398 -0.4120 -0.7341
vn 0.5397 -0.4120 -0.7341
vn 0.5208 -0.3612 -0.7735
vn -0.4990 0.8642 -0.0651
vn -0.5000 0.8660 -0.0000
vn 0.5000 0.8660 -0.0000
vn 0.6427 0.7661 -0.0000
vn 0.6414 0.7644 -0.0651
vn 0.4990 0.8642 -0.0651
vn 0.8660 0.5000 -0.0000
vn 0.9396 0.3423 -0.0000
vn 0.9377 0.3414 -0.0651
vn 0.8642 0.4990 -0.0651
vn -0.6076 -0.7512 0.2578
vn -0.5988 -0.7965 -0.0843
vn -0.6030 -0.7776 0.1780
vn -0.6043 -0.7575 0.2470
vn -0.2528 -0.0992 0.9624
vn -0.0556 -0.3560 0.9328
vn -0.0554 -0.3566 0.9326
vn -0.0572 -0.3180 0.9464
vn 0.0571 -0.2676 0.9618
vn 0.0884 -0.2785 0.9564
vn 0.1112 -0.2487 0.9622
vn 0.1483 -0.2225 0.9636
vn -0.0000 -0.0000 1.0000
vn -0.0000 0.0023 1.0000
vn 0.1385 -0.9861 0.0922
vn 0.1666 -0.9860 0.0011
vn 0.2187 -0.9735 0.0667
vn 0.3133 -0.9495 0.0145
vn -0.6266 -0.1128 -0.7711
vn 0.0118 -0.9704 0.2413
vn 0.0697 -0.9527 0.2959
vn -0.0049 -0.9615 0.2747
vn -0.0115 -0.9903 -0.1387
vn 0.3081 -0.9474 0.0861
vn 0.4723 -0.8700 0.1419
vn 0.4760 -0.8431 0.2501
vn 0.3529 -0.8723 0.3385
vn 0.1909 -0.9623 0.1935
vn 0.1909 -0.9624 0.1935
vn 0.9067 -0.1654 0.3881
vn 0.8509 -0.1980 0.4866
vn 0.8144 -0.4221 0.3983
vn 0.8507 -0.4219 0.3134
vn 0.8733 -0.4213 0.2447
vn 0.9024 -0.3797 0.2036
vn 0.9137 -0.3452 0.2147
vn 0.9020 -0.3166 0.2934
vn -0.0070 -0.9475 0.3197
vn 0.1474 -0.8507 0.5046
vn -0.0152 -0.8942 0.4475
vn -0.0056 -0.7553 0.6554
vn 0.1748 -0.8133 0.5550
vn 0.0349 -0.6935 0.7196
vn -0.0096 -0.5840 0.8117
vn -0.0117 -0.6297 0.7767
vn 0.6721 -0.5244 0.5227
vn 0.6581 -0.4192 0.6254
vn 0.6455 -0.3710 0.6676
vn 0.5562 -0.4699 0.6854
vn 0.4986 -0.5851 0.6396
vn 0.5798 -0.5852 0.5670
vn 0.8559 -0.4668 0.2224
vn 0.8364 -0.4683 0.2849
vn 0.7827 -0.5540 0.2836
vn 0.7827 -0.5539 0.2836
vn 0.7515 -0.6159 0.2365
vn 0.7970 -0.5974 -0.0886
vn 0.8747 -0.4654 -0.1349
vn 0.9012 -0.4195 -0.1090
vn 0.9012 -0.4194 -0.1091
vn 0.9253 -0.3759 0.0514
vn 0.9391 -0.3394 0.0533
vn 0.9363 -0.3406 0.0854
vn 0.9246 -0.3437 0.1644
vn 0.8873 -0.4204 0.1899
vn 0.8872 -0.4204 0.1898
vn -0.6481 -0.2926 -0.7031
vn -0.6462 -0.2871 -0.7071
vn -0.6383 -0.4143 -0.6488
vn -0.6365 -0.4546 -0.6231
vn -0.6408 -0.4948 -0.5870
vn -0.6325 -0.5480 -0.5474
vn 0.6065 -0.7367 -0.2991
vn 0.6774 -0.7077 -0.2009
vn 0.6328 -0.7718 0.0620
vn 0.5578 -0.8119 -0.1721
vn 0.5301 -0.8232 -0.2032
vn 0.4735 -0.8695 -0.1403
vn 0.3238 -0.9337 -0.1532
vn 0.3228 -0.9285 -0.1837
vn 0.3536 -0.8725 -0.3372
vn 0.4765 -0.8430 -0.2497
vn -0.0399 -0.3907 0.9196
vn -0.0405 -0.3910 0.9195
vn -0.0117 -0.6297 0.7768
vn -0.0096 -0.5839 0.8117
vn -0.9699 -0.2283 -0.0845
vn -0.6219 -0.6398 0.4516
vn -0.6200 -0.6436 0.4488
vn -0.6313 -0.5571 0.5396
vn -0.6430 -0.3779 0.6661
vn 0.5141 -0.8515 -0.1030
vn 0.7246 -0.6826 0.0953
vn 0.7015 -0.6955 -0.1558
vn 0.7319 -0.6784 -0.0649
vn 0.6577 -0.7145 0.2385
vn 0.6072 -0.7360 0.2994
vn 0.5299 -0.8233 0.2034
vn 0.5575 -0.8121 0.1720
vn 0.5156 -0.8508 0.1017
vn 0.5142 -0.8515 -0.1030
vn -0.6470 -0.2530 -0.7193
vn -0.6369 -0.1517 -0.7558
vn -0.5224 -0.3127 -0.7933
vn 0.4600 -0.4595 -0.7598
vn 0.4118 -0.5093 -0.7556
vn 0.4118 -0.5093 -0.7557
vn 0.3784 -0.5722 -0.7275
vn 0.3784 -0.5723 -0.7275
vn 0.1976 -0.5276 -0.8262
vn -0.0049 -0.9800 -0.1990
vn -0.0073 -0.8713 -0.4907
vn 0.0030 -0.8839 -0.4676
vn 0.1909 -0.9623 -0.1938
vn 0.6672 -0.4731 -0.5754
vn 0.7557 -0.4210 -0.5017
vn 0.7518 -0.3771 -0.5410
vn 0.7543 -0.4712 -0.4571
vn 0.7161 -0.6287 -0.3033
vn 0.6534 -0.6478 -0.3917
vn 0.1013 -0.3226 -0.9411
vn 0.1012 -0.3226 -0.9411
vn 0.1334 -0.2898 -0.9478
vn 0.1671 -0.2591 -0.9513
vn 0.1670 -0.2591 -0.9513
vn 0.2132 -0.2338 -0.9486
vn 0.2390 -0.2009 -0.9500
vn 0.4500 -0.2365 -0.8611
vn 0.5008 -0.3155 -0.8060
vn 0.4154 -0.3465 -0.8410
vn 0.4381 -0.3988 -0.8056
vn 0.1451 -0.4396 -0.8864
vn 0.1039 -0.3700 -0.9232
vn -0.0067 -0.7459 -0.6660
vn 0.0221 -0.7284 -0.6848
vn 0.0076 -0.7568 -0.6536
vn 0.1493 -0.7834 -0.6033
vn 0.1738 -0.8140 -0.5543
vn 0.9401 -0.2357 -0.2465
vn 0.9794 -0.0500 -0.1956
vn 0.9843 -0.0003 -0.1766
vn 0.9983 -0.0532 0.0225
vn 0.9922 -0.1156 0.0475
vn 0.9900 -0.1168 0.0787
vn 0.9833 -0.1623 0.0819
vn 0.9830 -0.1764 0.0502
vn 0.9801 -0.1917 0.0516
vn 0.9781 -0.2068 0.0247
vn 0.9749 -0.2228 -0.0000
vn 0.9653 -0.2597 0.0265
vn 0.9579 -0.2819 0.0542
vn 0.9498 -0.3081 0.0542
vn 0.9405 -0.3389 0.0260
vn 0.9265 -0.3755 0.0247
vn 0.8954 -0.4205 -0.1465
vn 0.8870 -0.4209 -0.1900
vn 0.9136 -0.3449 -0.2154
vn 0.9344 -0.3134 -0.1694
vn 0.9829 -0.0000 0.1839
vn 0.9560 -0.1115 0.2715
vn 0.9222 -0.3152 0.2240
vn 0.9344 -0.3131 0.1698
vn 0.9469 -0.3095 0.0876
vn 0.9639 -0.2608 0.0543
vn 0.9703 -0.2404 0.0260
vn 0.9744 -0.2233 0.0254
vn 0.9767 -0.2082 0.0526
vn 0.9767 -0.2082 0.0527
vn 0.9774 -0.1939 0.0848
vn 0.9803 -0.1789 0.0835
vn 0.9785 -0.1656 0.1232
vn 0.9915 -0.1040 0.0785
vn 0.9936 -0.1029 0.0467
vn 0.9974 -0.0530 0.0483
vn -0.6085 -0.7282 0.3153
vn 0.5567 -0.4701 -0.6849
vn 0.5372 -0.7579 -0.3703
vn 0.3248 -0.7755 -0.5415
vn 0.2874 -0.6548 -0.6990
vn 0.2572 -0.6499 -0.7152
vn 0.4363 -0.5800 -0.6880
vn 0.4363 -0.5799 -0.6880
vn 0.4821 -0.5204 -0.7048
vn 0.5566 -0.4701 -0.6850
vn 0.9139 -0.1667 -0.3703
vn 0.9377 -0.1423 -0.3168
vn 0.9367 -0.2534 -0.2417
vn 0.9221 -0.3154 -0.2242
vn 0.8962 -0.3458 -0.2780
vn 0.8739 -0.4210 -0.2431
vn 0.8149 -0.4218 -0.3975
vn 0.7437 -0.3380 -0.5767
vn 0.7330 -0.3035 -0.6087
vn 0.8067 -0.2868 -0.5167
vn 0.6308 -0.2336 0.7400
vn 0.4473 -0.2249 0.8656
vn 0.5209 -0.3600 0.7740
vn 0.5400 -0.4118 0.7341
vn 0.5399 -0.4118 0.7341
vn 0.6297 -0.3291 0.7037
vn 0.8063 -0.4695 -0.3599
vn 0.8676 -0.4661 -0.1734
vn 0.8676 -0.4661 -0.1733
vn 0.7925 -0.5991 -0.1139
vn 0.7514 -0.6159 -0.2368
vn 0.3479 -0.7790 0.5217
vn 0.5372 -0.7577 0.3707
vn 0.5718 -0.6647 0.4809
vn 0.5718 -0.6647 0.4808
vn 0.4492 -0.6729 0.5877
vn 0.2584 -0.6492 0.7154
vn 0.2867 -0.6539 0.7001
vn 0.3258 -0.7750 0.5414
vn -0.0325 -0.4758 -0.8790
vn -0.0386 -0.4302 -0.9019
vn -0.0380 -0.4264 -0.9037
vn -0.0230 -0.5135 -0.8578
vn 0.0282 -0.6979 -0.7156
vn -0.0147 -0.6143 -0.7889
vn -0.0167 -0.5499 -0.8351
vn -0.0271 -0.5180 -0.8550
vn 0.3657 -0.2135 0.9059
vn 0.1779 -0.1721 0.9689
vn 0.1667 -0.2599 0.9511
vn 0.1667 -0.2589 0.9514
vn 0.1337 -0.2895 0.9478
vn 0.1337 -0.2896 0.9478
vn 0.1163 -0.3280 0.9375
vn 0.0845 -0.3157 0.9451
vn 0.1032 -0.3698 0.9233
vn 0.1361 -0.3826 0.9138
vn 0.3928 -0.3006 0.8691
vn -0.0000 -0.0000 -1.0000
vn 0.1542 -0.1783 -0.9718
vn 0.1485 -0.2235 -0.9633
vn 0.1112 -0.2490 -0.9621
vn 0.0887 -0.2787 -0.9563
vn 0.0704 -0.3102 -0.9481
vn 0.0242 -0.3493 -0.9367
vn -0.0768 -0.2242 -0.9715
vn -0.0766 -0.2243 -0.9715
vn 0.6878 -0.2322 0.6878
vn 0.7520 -0.3764 0.5411
vn 0.7560 -0.4210 0.5012
vn 0.4374 -0.3987 0.8061
vn 0.4149 -0.3454 0.8418
vn 0.1444 -0.4392 0.8867
vn 0.2314 -0.5363 0.8117
vn 0.4371 -0.5792 0.6881
vn 0.4810 -0.5207 0.7053
vn -0.0670 -0.2663 -0.9616
s 0
usemtl g1_black.010
f 121//1 50//2 106//3 115//4 122//5
f 84//6 74//7 73//8 71//8 70//9 72//10 76//10 77//11 82//11 83//6
s 1
f 171//12 172//13 169//14 170//15 150//16 149//17 131//18 130//19 107//20 120//21 178//22 177//23 176//24
f 154//25 153//26 152//27 151//28 132//29 131//18 149//17 150//16 170//15 169//14 172//13 171//12 176//24 175//30 174//31 173//32
f 173//33 174//34 165//35 166//36 167//37
f 144//38 138//39 135//40 151//28 152//41 143//42
f 110//43 127//44 126//45 111//46
f 107//20 130//19 129//47 108//48
s 0
f 24//49 118//50 117//51 34//52 29//53 30//54 31//55 25//56 22//57 21//58
s 1
f 127//44 110//43 109//59 128//60
f 125//61 124//62 113//63 112//64
f 123//65 122//66 115//67 114//68
f 124//62 123//65 114//68 113//63
f 154//69 173//33 167//37 168//70 148//71 142//72
f 144//38 137//73 138//39
f 137//73 144//38 143//74 145//75 99//76 98//77 96//78 95//79 94//79 93//80 92//80 139//81 136//81 133//81 134//81 121//81 122//81 123//81 124//81 125//81 126//81 127//81 128//81 129//81 130//81 131//81 132//82 135//81 138//81
f 105//83 8//84 33//85 79//86
f 177//87 178//22 120//21
f 105//83 140//88 104//89 148//90 168//91 8//84
f 108//48 129//47 128//60 109//59
s 0
f 105//92 79//93 78//93 86//94 85//94 103//95 104//96 140//97
f 134//98 133//99 72//100 70//101 68//102 67//103 65//103 64//104 66//105
s 1
f 142//106 148//90 104//89 103//107 141//108
f 147//109 141//108 103//107 97//110 102//111 101//112 146//113
s 0
f 82//114 77//114 76//115 75//116 80//116 81//117 88//117 89//118 90//118 91//118 83//119
f 68//120 70//121 71//122 73//123 74//124 45//125 44//126 47//127 46//128 57//129 56//130 61//131 64//132 65//133 67//134
s 1
f 165//35 174//34 175//135 159//136 161//137 160//138 163//139 164//140
f 151//28 135//40 132//29
s 0
f 27//141 26//141 37//142 38//142 69//143 32//144 28//145
f 33//146 8//147 15//148 7//149 27//150 28//146 32//146
f 100//151 99//151 145//152 146//153 101//154
s 1
f 162//155 163//139 160//138
f 152//41 153//156 147//157 146//158 145//159 143//42
s 0
f 32//160 69//161 38//162 45//163 74//164 84//165 85//166 86//167 78//168 79//168 33//169
s 1
f 126//45 125//61 112//64 111//46
f 158//170 159//136 175//135 176//171 177//87 120//21 157//172
s 0
f 22//173 23//173 19//174 20//175 17//176 18//177 5//178 4//178
s 1
f 8//84 168//91 167//179 166//180 7//181 15//182
s 0
f 25//183 31//184 30//185 35//185 36//186 37//187 26//188
f 2//189 9//190 12//191 11//191 14//192 13//193 16//194 119//195 118//196 24//197 21//198 22//199 4//200 3//201
s 1
f 7//181 166//180 165//202 156//203 155//204 6//205 10//206
s 0
f 42//207 39//207 116//208 106//209 50//210 51//211 62//212 63//213 58//214 59//215 52//216 53//216 48//217 49//218 54//218 55//219 60//219 61//220 56//221 57//222 46//223 47//223 44//224 41//224 40//225 43//226
f 121//227 134//228 66//229 64//230 61//231 60//232 55//232 54//233 49//233 48//234 53//235 52//236 59//237 58//238 63//239 62//240 51//241 50//242
s 1
f 153//156 154//69 142//72 141//243 147//157
s 0
f 25//244 26//245 27//245 7//246 10//247 6//248 5//248 18//249 17//250 20//251 19//251 23//244 22//252
f 117//253 116//254 39//255 42//255 43//256 40//257 41//258 36//259 35//260 30//260 29//261 34//262
f 133//263 136//264 87//265 88//266 81//267 80//268 75//268
f 36//269 41//270 44//271 45//272 38//273 37//273
f 103//274 85//275 84//276 83//277 91//278 101//279 102//280 97//281
s 1
f 160//282 161//283 3//284 4//285 5//286 6//205 155//204 156//203 165//202 164//287 163//288 162//289
s 0
f 136//290 139//291 92//292 93//293 94//294 95//295 96//296 98//297 99//298 100//299 87//300
s 1
f 157//172 120//21 107//301 108//301 109//301 110//301 111//301 112//301 113//301 114//301 115//301 106//301 116//301 117//301 118//301 119//302 16//303 13//304 14//304 11//305 12//305 9//306 2//307 1//308 158//309
s 0
f 133//310 75//311 76//312 72//312
f 88//313 87//314 100//315 101//316 91//317 90//318 89//318
s 1
f 161//283 159//319 158//309 1//308 2//307 3//284
