# Blender 4.5.4 LTS
# www.blender.org
mtllib left_hand_middle_0_link_extra.mtl
o left_hand_middle_0_link
v -0.000955 -0.005416 -0.012800
v -0.004213 -0.003535 -0.012800
v -0.005416 -0.000955 -0.012800
v -0.005416 0.000955 -0.012800
v -0.004213 0.003535 -0.012800
v -0.002750 0.004763 -0.012800
v -0.003500 0.006062 0.012900
v -0.005362 0.004500 0.012900
v -0.006894 0.001216 0.012900
v -0.006894 -0.001216 0.012900
v -0.005362 -0.004500 0.012900
v -0.001216 -0.006894 0.012900
v 0.018207 0.007585 0.012900
v 0.019591 0.007016 -0.012800
v 0.018387 -0.005500 -0.012800
v 0.019339 0.007162 0.012900
v 0.018074 -0.005992 0.012900
vn -0.7661 -0.6427 -0.0000
vn -0.7643 -0.6413 -0.0671
vn -0.1733 -0.9826 -0.0671
vn -0.0414 -0.9978 -0.0515
vn 0.3374 0.5830 0.7391
vn 0.9954 -0.0957 0.0103
vn -0.0000 -0.0000 -1.0000
vn -0.7643 0.6413 -0.0671
vn -0.7661 0.6427 -0.0000
vn -0.5000 0.8660 -0.0000
vn -0.4989 0.8641 -0.0671
vn -0.9848 0.1737 -0.0000
vn -0.9826 0.1733 -0.0671
vn -0.9826 -0.1733 -0.0671
vn -0.9848 -0.1736 -0.0000
vn -0.0000 -0.0000 1.0000
vn 0.6518 -0.6952 0.3031
vn 0.1295 0.2477 0.9601
vn 0.2784 0.9604 -0.0072
vn 0.0711 -0.9972 -0.0221
s 1
usemtl g1_black.002
f 11//1 2//2 1//3 12//4
s 0
f 16//5 17//6 15//6 14//6
f 14//7 15//7 1//7 2//7 3//7 4//7 5//7 6//7
s 1
f 5//8 8//9 7//10 6//11
f 9//12 4//13 3//14 10//15
f 9//16 10//16 11//16 12//4 17//17 16//5 13//18 7//16 8//16
f 5//8 4//13 9//12 8//9
f 6//11 7//10 13//18 16//5 14//19
f 10//15 3//14 2//2 11//1
f 15//20 17//17 12//4 1//3
