# Blender 4.5.4 LTS
# www.blender.org
mtllib left_hand_middle_1_link.mtl
o left_hand_middle_1_link
v 0.043447 0.003484 0.010047
v 0.046728 0.003010 0.009113
v 0.047778 0.002840 0.008673
v 0.048790 0.002668 0.008143
v 0.049741 0.002498 0.007495
v 0.050576 0.002347 0.006682
v 0.051221 0.002236 0.005700
v 0.051860 0.002191 0.003450
v 0.045590 0.002439 0.009443
v 0.050436 0.001892 0.006618
v 0.044479 0.001783 0.009706
v 0.045533 0.001702 0.009382
v 0.043393 0.001056 0.009903
v 0.044445 0.001008 0.009617
v 0.051635 0.001483 0.003325
v 0.043377 0.000251 0.009775
v 0.048244 -0.000230 0.007523
v 0.049135 -0.000089 0.006878
v 0.047240 -0.000945 0.007810
v 0.048154 -0.000778 0.007268
v 0.044328 -0.001978 0.008708
v 0.046245 -0.001706 0.007951
v 0.047170 -0.001520 0.007487
v 0.044303 -0.002648 0.008285
v 0.046192 -0.002288 0.007534
v 0.049658 -0.001092 0.005285
v 0.050346 -0.000659 0.004489
v 0.050889 -0.000150 0.003617
v 0.042324 -0.003580 0.008335
v 0.044279 -0.003236 0.007749
v 0.046142 -0.002786 0.007020
v 0.050823 -0.000349 0.003348
v 0.051294 0.000267 0.002514
v 0.042324 -0.004139 0.007683
v 0.044257 -0.003718 0.007118
v 0.046097 -0.003188 0.006429
v 0.049501 -0.001630 0.004468
v 0.049436 -0.001818 0.004017
v 0.039232 -0.005970 0.005896
v 0.043277 -0.004934 0.005173
v 0.045991 -0.003955 0.004462
v 0.039238 -0.006202 0.004997
v 0.043271 -0.005126 0.004382
v 0.045966 -0.004109 0.003777
v 0.049288 -0.002185 0.002609
v 0.045075 -0.004611 0.003267
v 0.045946 -0.004229 0.003087
v 0.038172 -0.006896 -0.000522
v 0.040304 -0.006389 -0.000498
v 0.021857 -0.008747 -0.001715
v 0.030677 -0.008087 -0.001637
v 0.037086 -0.007101 -0.001497
v 0.038171 -0.006872 -0.001465
v 0.040303 -0.006365 -0.001393
v 0.041328 -0.006090 -0.001353
v 0.043255 -0.005500 -0.001263
v 0.045047 -0.004818 -0.001158
v 0.034929 -0.007451 -0.002556
v 0.037084 -0.007050 -0.002462
v 0.041328 -0.006041 -0.002221
v 0.043257 -0.005453 -0.002071
v 0.030667 -0.007954 -0.003753
v 0.034926 -0.007367 -0.003557
v 0.043269 -0.005125 -0.004481
v 0.045088 -0.004481 -0.004097
v 0.043275 -0.004934 -0.005272
v 0.045106 -0.004314 -0.004820
v 0.045989 -0.003955 -0.004560
v 0.050081 -0.001385 -0.003111
v 0.046054 -0.003505 -0.005895
v 0.047794 -0.002748 -0.005115
v 0.046094 -0.003186 -0.006529
v 0.047852 -0.002495 -0.005673
v 0.049500 -0.001629 -0.004567
v 0.044275 -0.003236 -0.007847
v 0.046139 -0.002786 -0.007119
v 0.047917 -0.002177 -0.006198
v 0.050823 -0.000349 -0.003445
v 0.051295 0.000267 -0.002612
v 0.044298 -0.002647 -0.008383
v 0.046188 -0.002286 -0.007634
v 0.047990 -0.001774 -0.006667
v 0.048855 -0.001458 -0.006077
v 0.049657 -0.001091 -0.005385
v 0.050346 -0.000658 -0.004589
v 0.050889 -0.000149 -0.003717
v 0.044322 -0.001976 -0.008806
v 0.046241 -0.001706 -0.008049
v 0.048068 -0.001297 -0.007054
v 0.048150 -0.000776 -0.007366
v 0.049033 -0.000575 -0.006734
v 0.043369 0.000253 -0.009874
v 0.043384 0.001057 -0.010002
v 0.044437 0.001010 -0.009716
v 0.044471 0.001784 -0.009805
v 0.045526 0.001703 -0.009481
v 0.050433 0.001892 -0.006719
v 0.045641 0.003177 -0.009578
v 0.046720 0.003012 -0.009213
v 0.047771 0.002842 -0.008773
v 0.049737 0.002499 -0.007596
v 0.050573 0.002348 -0.006783
v 0.051220 0.002237 -0.005800
v 0.051629 0.002188 -0.004695
v 0.051860 0.002192 -0.003550
v 0.015277 -0.007000 0.013100
v -0.001881 0.005168 0.013100
v -0.003535 0.004213 0.013100
v -0.004763 0.002750 0.013100
v -0.005416 0.000955 0.013100
v -0.005416 -0.000955 0.013100
v -0.004763 -0.002750 0.013100
v -0.004213 -0.003535 0.013100
v -0.002750 -0.004763 0.013100
v -0.001881 -0.005168 0.013100
v 0.019094 -0.006996 0.013100
v 0.019264 -0.006965 0.013100
v 0.019426 -0.006905 0.013100
v 0.019707 -0.006707 0.013100
v 0.019094 0.006996 0.013100
v 0.000000 -0.007000 -0.012900
v -0.002394 -0.006578 -0.012900
v -0.003500 -0.006062 -0.012900
v -0.005362 -0.004500 -0.012900
v -0.006062 -0.003500 -0.012900
v -0.006894 -0.001216 -0.012900
v -0.006894 0.001216 -0.012900
v -0.006062 0.003500 -0.012900
v -0.004500 0.005362 -0.012900
v -0.002394 0.006578 -0.012900
v -0.001216 0.006894 -0.012900
v 0.019000 0.007000 -0.012900
v 0.019264 -0.006965 -0.012900
v 0.019094 -0.006996 -0.012900
v 0.019094 0.006996 -0.012900
v 0.019426 -0.006905 -0.012900
v 0.019426 0.006905 -0.012900
v 0.019264 0.006965 -0.012900
v 0.019707 -0.006707 -0.012900
v 0.051685 0.002827 -0.004501
v 0.051203 0.003974 -0.005876
v 0.051415 0.003930 -0.005406
v 0.046480 0.004849 -0.009195
v 0.029687 0.006657 -0.011907
v 0.047339 0.004700 -0.008876
v 0.049812 0.004245 -0.007509
v 0.050604 0.004092 -0.006758
v 0.051590 0.003892 -0.004885
v 0.014586 0.008897 -0.000050
v 0.014599 0.008882 -0.001163
v 0.028266 0.007195 -0.011638
v 0.046353 0.005348 -0.008789
v 0.050350 0.004574 -0.006452
v 0.051059 0.004415 -0.005300
v 0.050560 0.003087 0.006713
v 0.050517 0.003096 0.006762
v 0.037828 0.006073 0.010872
v 0.043817 0.005281 0.009821
v 0.045032 0.005089 0.009529
v 0.048571 0.004477 0.008203
v 0.047835 0.004612 0.008564
v 0.049110 0.004377 0.007895
v 0.049193 0.004362 0.007843
v 0.049722 0.004261 0.007477
v 0.050541 0.004104 0.006730
v 0.051184 0.003977 0.005811
v 0.051711 0.003864 0.004271
v 0.051824 0.003835 0.003527
v 0.019581 0.008848 0.002215
v 0.022050 0.008782 0.002202
v 0.017181 0.008787 0.003384
v 0.019645 0.008775 0.003371
v 0.051369 0.004340 0.004136
v 0.050275 0.004590 0.006438
v 0.045010 0.005576 0.009094
v 0.035520 0.006787 0.010774
v 0.030847 0.007102 0.011305
v 0.028444 0.007190 0.011523
vn -0.0392 -0.9958 -0.0824
vn -0.0774 -0.9970 -0.0060
vn -0.0316 -0.6497 0.7595
vn -0.2404 -0.6605 0.7113
vn -0.2480 -0.6820 -0.6880
vn 0.6475 -0.6539 -0.3914
vn 0.6288 -0.7160 -0.3031
vn 0.5124 -0.7958 -0.3229
vn 0.4696 -0.8057 -0.3610
vn 0.4710 -0.7548 -0.4564
vn 0.4711 -0.7548 -0.4564
vn 0.5756 -0.6727 -0.4650
vn -0.0053 0.9967 0.0810
vn 0.0147 0.9971 0.0742
vn 0.0167 0.9987 0.0491
vn 0.0363 0.9983 0.0451
vn -0.0216 0.9993 -0.0292
vn -0.0182 0.9998 -0.0000
vn -0.1378 0.7063 -0.6944
vn -0.2483 0.6816 -0.6883
vn -0.2401 0.6608 0.7111
vn 0.0270 0.5678 0.8227
vn 0.0665 0.9084 0.4127
vn 0.0989 0.8507 0.5162
vn 0.1389 0.8598 0.4915
vn 0.5438 0.8255 -0.1512
vn 0.4792 0.8363 -0.2665
vn 0.3216 0.7799 -0.5369
vn 0.0728 0.8554 -0.5128
vn 0.0007 0.5303 -0.8478
vn 0.2582 0.8638 0.4327
vn 0.4798 0.8349 0.2698
vn 0.6870 0.7200 0.0976
vn 0.1742 0.3773 0.9096
vn -0.4518 0.5385 0.7113
vn -0.6088 0.3515 0.7112
vn -0.6922 0.1221 0.7113
vn -0.8963 -0.1581 0.4143
vn -0.6088 -0.3515 0.7112
vn -0.5384 -0.4518 0.7113
vn -0.3515 -0.6088 0.7112
vn -0.0316 -0.6498 0.7595
vn 0.0196 -0.1121 0.9935
vn 0.1055 -0.5380 0.8363
vn 0.1345 -0.3486 0.9276
vn 0.1783 -0.1542 0.9718
vn 0.2235 -0.1485 0.9633
vn 0.2490 -0.1112 0.9621
vn 0.2787 -0.0887 0.9563
vn 0.3102 -0.0704 0.9481
vn 0.3493 -0.0242 0.9367
vn 0.2242 0.0768 0.9715
vn 0.3750 0.3965 0.8380
vn 0.7345 0.3272 0.5946
vn 0.8412 0.3228 0.4338
vn 0.9331 0.3161 0.1716
vn 0.1006 0.3859 -0.9171
vn 0.0529 0.2740 -0.9603
vn 0.0246 0.5316 -0.8466
vn 0.3648 0.4895 -0.7920
vn -0.7147 -0.1260 -0.6880
vn -0.6284 -0.3629 -0.6880
vn -0.5559 -0.4665 -0.6880
vn -0.3628 -0.6284 -0.6881
vn 0.3291 -0.6305 0.7030
vn 0.1346 -0.3486 0.9275
vn 0.2412 -0.6947 0.6777
vn 0.2755 -0.7196 0.6374
vn 0.2922 -0.6126 0.7344
vn 0.3713 -0.6465 0.6665
vn 0.4194 -0.6592 0.6242
vn 0.4120 -0.5398 0.7341
vn 0.4120 -0.5397 0.7341
vn 0.3612 -0.5208 0.7735
vn -0.7148 0.1260 -0.6879
vn -0.2445 -0.6832 -0.6880
vn -0.4664 0.5560 -0.6880
vn -0.6284 0.3629 -0.6880
vn 0.9861 -0.1385 -0.0922
vn 0.9704 -0.0118 -0.2413
vn 0.9527 -0.0697 -0.2959
vn 0.9180 0.3161 -0.2395
vn 0.9405 0.3179 0.1204
vn 0.9860 -0.1666 -0.0011
vn 0.8609 0.4219 -0.2845
vn 0.0538 0.1349 -0.9894
vn 0.3881 0.4892 -0.7811
vn 0.3180 0.0572 -0.9464
vn 0.2676 -0.0571 -0.9618
vn 0.2785 -0.0884 -0.9564
vn 0.2487 -0.1112 -0.9622
vn 0.2225 -0.1483 -0.9636
vn 0.0942 -0.1072 -0.9898
vn 0.1296 -0.3340 -0.9336
vn 0.1034 -0.5309 -0.8411
vn 0.0180 -0.1076 -0.9940
vn -0.0515 -0.6877 -0.7241
vn 0.9735 -0.2187 -0.0667
vn 0.9495 -0.3133 -0.0145
vn 0.9474 -0.3081 -0.0861
vn 0.8700 -0.4723 -0.1419
vn 0.8431 -0.4760 -0.2501
vn 0.8723 -0.3529 -0.3385
vn 0.9624 -0.1909 -0.1935
vn 0.0179 -0.1076 -0.9940
vn 0.1980 -0.8509 -0.4866
vn 0.4221 -0.8144 -0.3983
vn 0.4219 -0.8507 -0.3134
vn 0.4213 -0.8733 -0.2447
vn 0.3797 -0.9024 -0.2036
vn 0.3452 -0.9137 -0.2147
vn 0.3166 -0.9020 -0.2934
vn 0.8507 -0.1474 -0.5046
vn 0.9263 0.2031 -0.3175
vn 0.7415 0.3266 -0.5861
vn 0.8133 -0.1748 -0.5550
vn 0.6935 -0.0349 -0.7196
vn 0.5840 0.0096 -0.8117
vn 0.6290 0.3389 -0.6996
vn 0.5244 -0.6721 -0.5227
vn 0.4192 -0.6581 -0.6254
vn 0.3710 -0.6455 -0.6676
vn 0.4699 -0.5562 -0.6854
vn 0.5851 -0.4986 -0.6396
vn 0.5852 -0.5798 -0.5670
vn 0.4668 -0.8559 -0.2224
vn 0.4683 -0.8364 -0.2849
vn 0.5540 -0.7827 -0.2836
vn 0.5539 -0.7827 -0.2836
vn 0.6159 -0.7515 -0.2365
vn 0.5974 -0.7970 0.0886
vn 0.4654 -0.8747 0.1349
vn 0.4195 -0.9012 0.1090
vn 0.4194 -0.9012 0.1091
vn 0.3759 -0.9253 -0.0514
vn 0.3394 -0.9391 -0.0533
vn 0.3406 -0.9363 -0.0854
vn 0.3437 -0.9246 -0.1644
vn 0.4204 -0.8873 -0.1899
vn 0.4204 -0.8872 -0.1898
vn 0.2892 0.3750 0.8808
vn 0.4472 0.3562 0.8204
vn 0.4925 0.3516 0.7961
vn 0.5540 0.3487 0.7560
vn 0.6167 0.3409 0.7096
vn 0.7367 -0.6065 0.2991
vn 0.7077 -0.6774 0.2009
vn 0.7718 -0.6328 -0.0620
vn 0.8119 -0.5578 0.1721
vn 0.8232 -0.5301 0.2032
vn 0.8695 -0.4735 0.1403
vn 0.9337 -0.3238 0.1532
vn 0.9285 -0.3228 0.1837
vn 0.8725 -0.3536 0.3372
vn 0.8430 -0.4765 0.2497
vn 0.3907 0.0399 -0.9196
vn 0.3909 0.0391 -0.9196
vn 0.5839 0.0096 -0.8117
vn 0.4793 0.6350 0.6059
vn 0.8515 -0.5141 0.1030
vn 0.6826 -0.7246 -0.0953
vn 0.6955 -0.7015 0.1558
vn 0.6784 -0.7319 0.0649
vn 0.7145 -0.6577 -0.2385
vn 0.7360 -0.6072 -0.2994
vn 0.8233 -0.5299 -0.2034
vn 0.8121 -0.5575 -0.1720
vn 0.8508 -0.5156 -0.1017
vn 0.8515 -0.5142 0.1030
vn 0.4595 -0.4600 0.7598
vn 0.5093 -0.4118 0.7556
vn 0.5093 -0.4118 0.7557
vn 0.5722 -0.3784 0.7275
vn 0.5723 -0.3784 0.7275
vn 0.5276 -0.1976 0.8262
vn 0.8839 -0.0030 0.4676
vn 0.9623 -0.1910 0.1938
vn 0.4731 -0.6672 0.5754
vn 0.4210 -0.7557 0.5017
vn 0.3771 -0.7518 0.5410
vn 0.4712 -0.7543 0.4571
vn 0.6287 -0.7161 0.3033
vn 0.6478 -0.6534 0.3917
vn 0.3226 -0.1013 0.9411
vn 0.3226 -0.1012 0.9411
vn 0.2898 -0.1334 0.9478
vn 0.2591 -0.1671 0.9513
vn 0.2591 -0.1670 0.9513
vn 0.2338 -0.2132 0.9486
vn 0.1041 -0.1183 0.9875
vn 0.2375 -0.4499 0.8609
vn 0.3155 -0.5008 0.8060
vn 0.3466 -0.4154 0.8410
vn 0.3988 -0.4381 0.8056
vn 0.4396 -0.1451 0.8864
vn 0.3700 -0.1039 0.9232
vn 0.7284 -0.0221 0.6848
vn 0.7568 -0.0075 0.6536
vn 0.7834 -0.1493 0.6033
vn 0.8140 -0.1738 0.5543
vn 0.2357 -0.9401 0.2465
vn 0.0500 -0.9797 0.1942
vn 0.0007 -0.9844 0.1760
vn 0.0532 -0.9983 -0.0225
vn 0.1156 -0.9922 -0.0475
vn 0.1168 -0.9900 -0.0787
vn 0.1623 -0.9833 -0.0819
vn 0.1764 -0.9830 -0.0502
vn 0.1917 -0.9801 -0.0516
vn 0.2068 -0.9781 -0.0247
vn 0.2228 -0.9749 -0.0000
vn 0.2597 -0.9653 -0.0265
vn 0.2819 -0.9579 -0.0542
vn 0.3081 -0.9498 -0.0542
vn 0.3389 -0.9405 -0.0260
vn 0.3755 -0.9265 -0.0247
vn 0.4205 -0.8954 0.1465
vn 0.4209 -0.8870 0.1900
vn 0.3449 -0.9136 0.2154
vn 0.3134 -0.9344 0.1694
vn -0.0514 -0.6877 -0.7242
vn 0.1129 -0.9560 -0.2708
vn 0.3152 -0.9222 -0.2240
vn 0.3131 -0.9344 -0.1698
vn 0.3095 -0.9469 -0.0876
vn 0.2608 -0.9639 -0.0543
vn 0.2404 -0.9703 -0.0260
vn 0.2233 -0.9744 -0.0254
vn 0.2082 -0.9767 -0.0526
vn 0.2082 -0.9767 -0.0527
vn 0.1939 -0.9774 -0.0848
vn 0.1789 -0.9803 -0.0835
vn 0.1656 -0.9785 -0.1232
vn 0.1040 -0.9915 -0.0785
vn 0.1029 -0.9936 -0.0467
vn 0.0530 -0.9974 -0.0483
vn 0.4701 -0.5567 0.6849
vn 0.7579 -0.5372 0.3703
vn 0.7755 -0.3248 0.5415
vn 0.6548 -0.2874 0.6990
vn 0.6499 -0.2572 0.7152
vn 0.5800 -0.4363 0.6880
vn 0.5799 -0.4363 0.6880
vn 0.5204 -0.4821 0.7048
vn 0.4701 -0.5566 0.6850
vn 0.1436 -0.9377 0.3163
vn 0.2534 -0.9367 0.2417
vn 0.3154 -0.9221 0.2242
vn 0.3458 -0.8962 0.2780
vn 0.4210 -0.8739 0.2431
vn 0.4218 -0.8149 0.3975
vn 0.3380 -0.7437 0.5767
vn 0.3035 -0.7330 0.6087
vn 0.2868 -0.8067 0.5167
vn 0.2260 -0.4471 -0.8655
vn 0.3600 -0.5209 -0.7740
vn 0.4118 -0.5400 -0.7341
vn 0.4118 -0.5399 -0.7341
vn 0.3291 -0.6297 -0.7037
vn 0.4695 -0.8063 0.3599
vn 0.4661 -0.8676 0.1734
vn 0.4661 -0.8676 0.1733
vn 0.5991 -0.7925 0.1139
vn 0.6159 -0.7514 0.2368
vn 0.7790 -0.3479 -0.5217
vn 0.7577 -0.5372 -0.3707
vn 0.6647 -0.5718 -0.4809
vn 0.6647 -0.5718 -0.4808
vn 0.6729 -0.4492 -0.5877
vn 0.6492 -0.2584 -0.7154
vn 0.6539 -0.2867 -0.7001
vn 0.7750 -0.3258 -0.5414
vn 0.4264 0.0380 0.9037
vn 0.5135 0.0230 0.8578
vn 0.6979 -0.0282 0.7156
vn 0.1721 -0.1779 -0.9689
vn 0.2599 -0.1667 -0.9511
vn 0.2589 -0.1667 -0.9514
vn 0.2895 -0.1337 -0.9478
vn 0.2896 -0.1337 -0.9478
vn 0.3280 -0.1163 -0.9375
vn 0.3157 -0.0845 -0.9451
vn 0.3698 -0.1032 -0.9233
vn 0.3826 -0.1361 -0.9138
vn 0.3006 -0.3928 -0.8691
vn 0.2322 -0.6878 -0.6878
vn 0.3764 -0.7520 -0.5411
vn 0.4210 -0.7560 -0.5012
vn 0.3987 -0.4374 -0.8061
vn 0.3454 -0.4149 -0.8418
vn 0.4392 -0.1444 -0.8867
vn 0.5363 -0.2314 -0.8117
vn 0.5792 -0.4371 -0.6881
vn 0.5207 -0.4810 -0.7053
s 0
usemtl g1_black.009
f 121//1 50//2 106//3 115//4 122//5
f 84//6 74//7 73//8 71//8 70//9 72//10 76//11 77//12 82//12 83//6
s 1
f 171//13 172//14 169//15 170//16 150//17 149//18 131//19 130//20 107//21 120//22 178//23 177//24 176//25
f 154//26 153//27 152//28 151//29 132//30 131//19 149//18 150//17 170//16 169//15 172//14 171//13 176//25 175//31 174//32 173//33
f 157//34 120//22 107//21 108//35 109//36 110//37 111//38 112//39 113//40 114//41 115//4 106//42 116//43 117//44 118//45 119//46 16//47 13//48 14//48 11//49 12//49 9//50 2//51 1//52 158//53
f 173//33 174//32 165//54 166//55 167//56
f 144//57 138//58 135//59 151//29 152//28 143//60
f 126//61 125//62 112//39 111//38
f 124//63 123//64 114//41 113//40
s 0
f 24//65 118//66 117//67 34//68 29//69 30//70 31//71 25//72 22//73 21//74
s 1
f 110//37 127//75 126//61 111//38
f 125//62 124//63 113//40 112//39
f 123//64 122//76 115//4 114//41
f 108//35 129//77 128//78 109//36
f 105//79 140//80 104//81 148//82 168//83 8//84
f 154//26 173//33 167//56 168//83 148//82 142//85
f 144//57 137//86 138//58
f 137//86 144//57 143//60 145//87 99//88 98//89 96//90 95//91 94//91 93//92 92//92 139//93 136//94 133//95 134//96 121//97 122//76 123//64 124//63 125//62 126//61 127//75 128//78 129//77 130//20 131//19 132//30 135//59 138//58
f 105//79 8//84 33//98 79//99
f 177//24 178//23 120//22
f 107//21 130//20 129//77 108//35
s 0
f 105//100 79//101 78//101 86//102 85//102 103//103 104//104 140//104
f 134//105 133//106 72//107 70//108 68//109 67//110 65//110 64//111 66//112
s 1
f 142//85 148//82 104//81 103//113 141//114
f 147//115 141//114 103//113 97//116 102//117 101//118 146//119
s 0
f 82//120 77//120 76//121 75//122 80//122 81//123 88//123 89//124 90//124 91//124 83//125
f 68//126 70//127 71//128 73//129 74//130 45//131 44//132 47//133 46//134 57//135 56//136 61//137 64//138 65//139 67//140
s 1
f 165//54 174//32 175//31 159//141 161//142 160//143 163//144 164//145
f 151//29 135//59 132//30
s 0
f 27//146 26//146 37//147 38//147 69//148 32//149 28//150
f 33//151 8//152 15//153 7//154 27//155 28//151 32//151
f 100//156 99//156 145//157 146//119 101//158
s 1
f 162//159 163//144 160//143
f 152//28 153//27 147//115 146//119 145//87 143//60
s 0
f 32//160 69//161 38//162 45//163 74//164 84//165 85//166 86//167 78//168 79//168 33//169
s 1
f 127//75 110//37 109//36 128//78
f 158//53 159//141 175//31 176//25 177//24 120//22 157//34
s 0
f 22//170 23//170 19//171 20//172 17//173 18//174 5//175 4//175
s 1
f 8//84 168//83 167//56 166//55 7//176 15//177
s 0
f 25//178 31//179 30//180 35//180 36//181 37//182 26//183
f 2//184 9//185 12//186 11//186 14//187 13//188 16//189 119//190 118//191 24//192 21//193 22//194 4//195 3//196
s 1
f 7//176 166//55 165//54 156//197 155//198 6//199 10//200
s 0
f 42//201 39//201 116//202 106//203 50//204 51//205 62//206 63//207 58//208 59//209 52//210 53//210 48//211 49//212 54//212 55//213 60//213 61//214 56//215 57//216 46//217 47//217 44//218 41//218 40//219 43//220
f 121//221 134//222 66//223 64//224 61//225 60//226 55//226 54//227 49//227 48//228 53//229 52//230 59//231 58//232 63//233 62//234 51//235 50//236
s 1
f 153//27 154//26 142//85 141//114 147//115
s 0
f 25//237 26//238 27//238 7//239 10//240 6//241 5//241 18//242 17//243 20//244 19//244 23//237 22//245
f 117//44 116//246 39//247 42//247 43//248 40//249 41//250 36//251 35//252 30//252 29//253 34//254
f 133//95 136//255 87//256 88//257 81//258 80//259 75//259
f 36//260 41//261 44//262 45//263 38//264 37//264
f 103//265 85//266 84//267 83//268 91//269 101//270 102//271 97//272
s 1
f 160//143 161//142 3//273 4//274 5//275 6//199 155//198 156//197 165//54 164//145 163//144 162//159
s 0
f 136//94 139//276 92//277 93//278 94//279 95//280 96//281 98//282 99//283 100//284 87//285
f 133//286 75//287 76//288 72//288
f 88//289 87//290 100//291 101//292 91//293 90//294 89//294
s 1
f 161//142 159//141 158//53 1//52 2//51 3//273
