# Blender 4.5.4 LTS
# www.blender.org
mtllib left_hand_thumb_1_link_extra.mtl
o left_hand_thumb_1_link
v -0.007329 -0.018970 0.012800
v -0.008250 -0.018765 -0.012900
v 0.006186 -0.019000 0.012800
v 0.006958 -0.018927 -0.012900
v -0.006151 -0.007603 0.012800
v 0.005447 -0.007705 0.012800
v -0.007298 -0.006722 -0.012900
v 0.006475 -0.006842 -0.012900
vn 0.5997 0.4761 0.6432
vn -0.6944 -0.2344 0.6803
vn -0.3257 -0.5793 0.7472
vn -0.0000 -0.0000 1.0000
vn 0.6367 0.4663 -0.6142
vn -0.0140 0.9997 0.0200
vn -0.2781 -0.5440 -0.7916
vn -0.0000 -0.0000 -1.0000
vn 0.1029 -0.9947 0.0068
vn -0.2171 -0.9761 -0.0000
vn -0.0081 -0.9999 -0.0062
vn 0.0175 -0.9998 -0.0037
vn 0.9938 -0.0308 -0.1067
vn 0.9993 -0.0307 0.0226
s 1
usemtl g1_black.001
f 6//1 5//2 1//3 3//4
f 5//2 6//1 8//5 7//6
f 7//6 2//7 1//3 5//2
f 7//6 8//5 4//8 2//7
f 3//9 1//10 2//11 4//12
f 4//13 8//5 6//1 3//14
