# Blender 4.2.3 LTS
# www.blender.org
mtllib left_wrist_pitch_link.mtl
o left_wrist_pitch_link
v 0.012045 -0.020500 -0.021641
v 0.012045 -0.020500 0.021665
v 0.010439 -0.020500 -0.022386
v 0.010439 -0.020500 0.022386
v 0.008596 -0.020500 -0.023156
v -0.006182 -0.020500 -0.023914
v -0.003731 -0.020500 -0.024416
v -0.001237 -0.020500 -0.024669
v 0.001265 -0.020500 -0.024667
v 0.003756 -0.020500 -0.024413
v 0.006210 -0.020500 -0.023907
v 0.010046 -0.020500 0.022565
v 0.009677 -0.020500 0.022726
v -0.010874 -0.020500 -0.022178
v 0.009012 -0.020500 0.022997
v -0.013062 -0.020500 -0.020964
v 0.010436 -0.020500 0.022387
v 0.010433 -0.020500 0.022389
v 0.010427 -0.020500 0.022391
v 0.010414 -0.020500 0.022397
v -0.008573 -0.020500 -0.023165
v 0.010390 -0.020500 0.022409
v 0.010340 -0.020500 0.022432
v 0.010240 -0.020500 0.022477
v -0.023567 -0.020500 0.007395
v -0.023975 -0.020500 0.005941
v -0.005730 -0.020500 0.024026
v -0.024573 -0.020500 -0.002496
v -0.024700 -0.020500 0.000000
v -0.024573 -0.020500 0.002496
v 0.001265 -0.020500 0.024667
v 0.000217 -0.020500 0.024699
v -0.024518 -0.020500 0.002992
v -0.001237 -0.020500 0.024669
v -0.002776 -0.020500 0.024543
v -0.003731 -0.020500 0.024416
v -0.024195 -0.020500 0.004969
v 0.006158 -0.020500 0.023920
v 0.003756 -0.020500 0.024413
v 0.003208 -0.020500 0.024491
v 0.008596 -0.020500 0.023156
v -0.008604 -0.020500 0.023153
v -0.010874 -0.020500 0.022178
v -0.023077 -0.020500 0.008805
v -0.011346 -0.020500 0.021940
v -0.013062 -0.020500 0.020964
v -0.013919 -0.020500 0.020405
v -0.015113 -0.020500 0.019537
v -0.016288 -0.020500 0.018568
v -0.017012 -0.020500 0.017908
v -0.021840 -0.020500 0.011537
v -0.022698 -0.020500 0.009741
v -0.024195 -0.020500 -0.004969
v -0.023567 -0.020500 -0.007395
v -0.022698 -0.020500 -0.009741
v -0.021595 -0.020500 -0.011989
v -0.020271 -0.020500 -0.014112
v -0.018739 -0.020500 -0.016091
v -0.006182 -0.020500 0.023914
v -0.018422 -0.020500 0.016454
v -0.018739 -0.020500 0.016091
v -0.021595 -0.020500 0.011989
v -0.020279 -0.020500 0.014101
v -0.017012 -0.020500 -0.017908
v -0.015113 -0.020500 -0.019537
v -0.021470 0.022500 -0.012212
v -0.021637 0.022500 -0.011914
v 0.010439 0.022500 0.022386
v 0.012045 0.022500 0.021688
v 0.012045 0.022500 -0.021648
v 0.010439 0.022500 -0.022386
v 0.008587 0.022500 -0.023159
v -0.006288 0.022500 -0.023886
v -0.008658 0.022500 -0.023133
v -0.010915 0.022500 -0.022157
v -0.013062 0.022500 -0.020964
v -0.014851 0.022500 -0.019736
v -0.016773 0.022500 -0.018132
v -0.024213 0.022500 -0.004882
v -0.024578 0.022500 -0.002452
v -0.024700 0.022500 -0.000000
v -0.024578 0.022500 0.002452
v -0.024213 0.022500 0.004882
v -0.023600 0.022500 0.007290
v -0.022739 0.022500 0.009645
v 0.008587 0.022500 0.023159
v -0.013062 0.022500 0.020964
v -0.010915 0.022500 0.022157
v -0.018534 0.022500 -0.016328
v -0.020106 0.022500 -0.014346
v -0.022739 0.022500 -0.009645
v -0.023600 0.022500 -0.007290
v -0.018534 0.022500 0.016328
v -0.016773 0.022500 0.018132
v -0.014851 0.022500 0.019736
v 0.006198 0.022500 -0.023910
v 0.003728 0.022500 -0.024417
v 0.001211 0.022500 -0.024670
v -0.001321 0.022500 -0.024665
v -0.003831 0.022500 -0.024401
v -0.021636 0.022500 0.011914
v -0.021470 0.022500 0.012212
v -0.020106 0.022500 0.014346
v -0.003831 0.022500 0.024401
v -0.001321 0.022500 0.024665
v 0.001211 0.022500 0.024670
v -0.008658 0.022500 0.023133
v -0.006288 0.022500 0.023886
v 0.006198 0.022500 0.023910
v 0.003728 0.022500 0.024417
v 0.019206 -0.020805 0.019429
v 0.019792 -0.020890 -0.018474
v 0.018560 -0.020728 0.019556
v 0.016797 -0.020607 -0.019563
v 0.018305 -0.020719 -0.018985
v 0.017984 -0.020671 0.019681
v 0.017407 -0.020625 0.019819
v 0.016123 -0.020573 -0.019838
v 0.016308 -0.020562 0.020115
v 0.015258 -0.020541 -0.020203
v 0.014551 -0.020512 0.020680
v 0.013677 -0.020509 -0.020898
v 0.013670 -0.020504 0.021004
v 0.012671 -0.020500 0.021402
v 0.012387 0.022500 0.021552
v 0.014201 0.022503 0.020902
v 0.014587 0.022505 0.020778
v 0.014601 0.022502 -0.020526
v 0.013354 0.022501 0.021191
v 0.014114 0.022501 -0.020733
v 0.016061 0.022520 0.020348
v 0.016253 0.022523 0.020297
v 0.016109 0.022509 -0.019902
v 0.018036 0.022531 -0.019159
v 0.017964 0.022564 0.019887
v 0.019883 0.022647 0.019518
v 0.019899 0.022577 -0.018513
v -0.028134 0.018700 -0.004550
v -0.028006 -0.016700 -0.005281
v -0.028244 0.018700 -0.003809
v -0.028279 -0.016700 -0.003541
v -0.028350 0.018700 -0.002916
v -0.028354 -0.016700 -0.002880
v -0.028426 0.018700 -0.002058
v -0.028444 -0.016700 -0.001780
v -0.028498 0.018700 -0.000297
v -0.028500 -0.016700 0.000000
v -0.028500 0.018700 -0.000000
v -0.027955 0.018700 -0.005546
v -0.027914 0.018700 -0.005748
v -0.027627 -0.016700 -0.006998
v -0.027558 0.018700 -0.007268
v -0.027302 -0.016700 -0.008177
v -0.027302 0.018700 -0.008177
v -0.027142 -0.016700 -0.008691
v -0.027051 0.018700 -0.008973
v -0.026893 -0.016700 -0.009434
v -0.026794 0.018700 -0.009712
v -0.026252 -0.016700 -0.011095
v -0.026143 0.018700 -0.011349
v -0.026004 -0.016700 -0.011664
v -0.026004 0.018700 -0.011664
v -0.025513 -0.016700 -0.012702
v -0.025393 0.018700 -0.012940
v -0.024918 -0.016700 -0.013833
v -0.024545 0.018700 -0.014484
v -0.024680 -0.016700 -0.014253
v -0.024263 -0.016700 -0.014953
v -0.024263 0.018700 -0.014953
v -0.023754 -0.016700 -0.015748
v -0.023600 0.018700 -0.015978
v -0.023390 -0.016700 -0.016284
v -0.023239 0.018700 -0.016499
v -0.022735 -0.016700 -0.017186
v -0.022556 0.018700 -0.017421
v -0.022255 -0.016700 -0.017804
v -0.022069 0.018700 -0.018034
v -0.022108 -0.016700 -0.017986
v -0.021622 -0.016700 -0.018567
v -0.021456 0.018700 -0.018759
v -0.021099 -0.016700 -0.019159
v -0.020912 0.018700 -0.019363
v -0.019870 -0.016700 -0.020431
v -0.019678 0.018700 -0.020616
v -0.019576 -0.016700 -0.020713
v -0.019438 0.018700 -0.020843
v -0.018571 -0.016700 -0.021619
v -0.018368 0.018700 -0.021792
v -0.017202 -0.016700 -0.022723
v -0.016981 0.018700 -0.022889
v -0.016711 -0.016700 -0.023087
v -0.016711 0.018700 -0.023087
v -0.015765 -0.016700 -0.023743
v -0.015518 0.018700 -0.023905
v -0.015107 -0.016700 -0.024167
v -0.014855 0.018700 -0.024322
v -0.013568 -0.016700 -0.025063
v -0.013561 0.018700 -0.025067
v -0.013324 0.018700 -0.025193
v -0.012547 -0.016700 -0.025590
v -0.012511 0.018700 -0.025607
v -0.011988 -0.016700 -0.025856
v -0.011745 0.018700 -0.025967
v -0.010368 -0.016700 -0.026547
v -0.010119 0.018700 -0.026643
v -0.010179 -0.016700 -0.026620
v -0.009880 0.018700 -0.026733
v -0.008711 -0.016700 -0.027136
v -0.008447 0.018700 -0.027219
v -0.007018 -0.016700 -0.027623
v -0.006730 0.018700 -0.027694
v -0.006624 -0.016700 -0.027719
v -0.006256 -0.016700 -0.027805
v -0.005967 0.018700 -0.027868
v -0.004507 -0.016700 -0.028141
v -0.004234 0.018700 -0.028184
v -0.002957 -0.016700 -0.028346
v -0.002957 0.018700 -0.028346
v -0.002753 -0.016700 -0.028367
v -0.002488 0.018700 -0.028391
v -0.001427 -0.016700 -0.028464
v -0.001531 0.018700 -0.028459
v -0.000996 -0.016700 -0.028483
v -0.000730 0.018700 -0.028491
v 0.000763 -0.016700 -0.028490
v 0.000762 0.018700 -0.028490
v 0.001459 -0.016700 -0.028463
v 0.001039 0.018700 -0.028481
v 0.002521 -0.016700 -0.028388
v 0.002816 0.018700 -0.028361
v 0.003300 -0.016700 -0.028308
v 0.003594 0.018700 -0.028273
v 0.004467 -0.016700 -0.028148
v 0.004197 0.018700 -0.028189
v 0.004467 0.018700 -0.028148
v 0.005060 -0.016700 -0.028047
v 0.005333 0.018700 -0.027997
v 0.006788 -0.016700 -0.027680
v 0.007050 0.018700 -0.027614
v 0.008096 -0.016700 -0.027326
v 0.008096 0.018700 -0.027326
v 0.008485 -0.016700 -0.027208
v 0.008742 0.018700 -0.027126
v 0.009919 -0.016700 -0.026718
v 0.009837 0.018700 -0.026749
v 0.010148 -0.016700 -0.026632
v 0.010408 0.018700 -0.026532
v 0.011775 -0.016700 -0.025954
v 0.012045 0.018700 -0.025830
v 0.012045 -0.016700 -0.025830
v 0.012045 -0.016700 0.025830
v 0.012045 0.018700 0.025830
v 0.011775 0.018700 0.025954
v 0.010408 -0.016700 0.026532
v 0.010148 0.018700 0.026632
v 0.009919 -0.016700 0.026718
v 0.009837 0.018700 0.026749
v 0.008742 -0.016700 0.027126
v 0.008796 0.018700 0.027109
v 0.008485 0.018700 0.027208
v 0.007050 -0.016700 0.027614
v 0.006788 0.018700 0.027680
v 0.005333 -0.016700 0.027997
v 0.005060 0.018700 0.028047
v 0.005079 -0.016700 0.028044
v 0.004333 -0.016700 0.028169
v 0.004197 0.018700 0.028189
v 0.003594 -0.016700 0.028273
v 0.003300 0.018700 0.028308
v 0.002816 -0.016700 0.028361
v 0.002521 0.018700 0.028388
v 0.001269 -0.016700 0.028472
v 0.001269 0.018700 0.028472
v 0.001039 -0.016700 0.028481
v 0.000763 0.018700 0.028490
v -0.000730 -0.016700 0.028491
v -0.000996 0.018700 0.028483
v -0.001427 -0.016700 0.028464
v -0.001531 0.018700 0.028459
v -0.002488 -0.016700 0.028391
v -0.002564 0.018700 0.028384
v -0.002753 0.018700 0.028367
v -0.004234 -0.016700 0.028184
v -0.004507 0.018700 0.028141
v -0.005967 -0.016700 0.027868
v -0.006256 0.018700 0.027805
v -0.006350 -0.016700 0.027784
v -0.006350 0.018700 0.027784
v -0.006730 -0.016700 0.027694
v -0.007018 0.018700 0.027623
v -0.008447 -0.016700 0.027219
v -0.008711 0.018700 0.027136
v -0.009892 -0.016700 0.026728
v -0.010021 0.018700 0.026680
v -0.013568 0.018700 0.025063
v -0.013324 -0.016700 0.025193
v -0.012511 0.018700 0.025607
v -0.012547 -0.016700 0.025590
v -0.011988 0.018700 0.025856
v -0.011745 -0.016700 0.025967
v -0.010368 0.018700 0.026547
v -0.010119 -0.016700 0.026643
v -0.010021 -0.016700 0.026680
v -0.015107 0.018700 0.024167
v -0.014855 -0.016700 0.024322
v -0.013511 -0.016700 0.025094
v -0.016756 0.018700 0.023054
v -0.016756 -0.016700 0.023054
v -0.015765 0.018700 0.023743
v -0.015518 -0.016700 0.023905
v -0.015071 -0.016700 0.024189
v -0.019678 -0.016700 0.020616
v -0.019629 -0.016700 0.020663
v -0.018571 0.018700 0.021619
v -0.018368 -0.016700 0.021792
v -0.017202 0.018700 0.022723
v -0.017438 -0.016700 0.022542
v -0.016981 -0.016700 0.022889
v -0.019699 0.018700 0.020596
v -0.019870 0.018700 0.020431
v -0.020913 -0.016700 0.019363
v -0.021099 0.018700 0.019159
v -0.021622 -0.016700 0.018567
v -0.021456 0.018700 0.018759
v -0.022069 -0.016700 0.018034
v -0.022255 0.018700 0.017804
v -0.022285 -0.016700 0.017766
v -0.022556 -0.016700 0.017421
v -0.022735 0.018700 0.017186
v -0.023390 -0.016700 0.016284
v -0.023239 0.018700 0.016499
v -0.023600 -0.016700 0.015978
v -0.023754 0.018700 0.015748
v -0.024467 -0.016700 0.014615
v -0.024467 0.018700 0.014615
v -0.024545 -0.016700 0.014484
v -0.024680 0.018700 0.014253
v -0.024918 -0.016700 0.013833
v -0.025513 0.018700 0.012702
v -0.025393 -0.016700 0.012940
v -0.026207 -0.016700 0.011199
v -0.026190 -0.016700 0.011240
v -0.026143 -0.016700 0.011349
v -0.026207 0.018700 0.011199
v -0.026252 0.018700 0.011095
v -0.026794 -0.016700 0.009712
v -0.026893 0.018700 0.009434
v -0.027051 -0.016700 0.008973
v -0.027142 0.018700 0.008691
v -0.027193 -0.016700 0.008533
v -0.027200 0.018700 0.008509
v -0.027473 -0.016700 0.007580
v -0.027473 0.018700 0.007580
v -0.027558 -0.016700 0.007268
v -0.027627 0.018700 0.006998
v -0.027955 -0.016700 0.005545
v -0.028006 0.018700 0.005281
v -0.028244 -0.016700 0.003808
v -0.028242 0.018700 0.003825
v -0.028279 0.018700 0.003541
v -0.028354 -0.016700 0.002880
v -0.028350 0.018700 0.002916
v -0.028426 -0.016700 0.002058
v -0.028444 0.018700 0.001780
v -0.028498 -0.016700 0.000297
v 0.012481 -0.016700 0.025628
v 0.013770 0.018702 0.025089
v 0.014441 -0.016710 0.024788
v 0.014970 0.018708 0.024645
v 0.015534 0.018714 0.024455
v 0.015283 -0.016724 0.024465
v 0.017341 0.018747 0.023925
v 0.016223 -0.016753 0.024134
v 0.017402 -0.016814 0.023768
v 0.017873 0.018762 0.023790
v 0.017899 -0.016850 0.023632
v 0.019193 0.018813 0.023493
v 0.019132 -0.016967 0.023336
v 0.013245 -0.016705 -0.025272
v 0.014199 0.018701 -0.024844
v 0.014844 -0.016730 -0.024542
v 0.017429 0.018718 -0.023462
v 0.017728 -0.016862 -0.023291
v 0.017213 -0.016827 -0.023505
v 0.016260 0.018708 -0.023946
v 0.019052 -0.016978 -0.022766
v 0.018236 0.018729 -0.023141
v 0.011634 0.019670 0.024950
v 0.011242 0.020600 -0.024108
v 0.010849 0.021531 -0.023264
v 0.014629 0.021533 -0.021567
v 0.018591 0.021573 -0.019988
v 0.015022 0.020604 -0.022410
v 0.018986 0.020650 -0.020834
v 0.011547 0.020600 0.023968
v 0.011940 0.019670 0.024810
v 0.017459 0.019723 0.022898
v 0.014558 0.019677 0.023763
v 0.014162 0.020604 0.022919
v 0.017063 0.020643 0.022044
v 0.011863 -0.017671 0.024844
v 0.011470 -0.018600 0.024002
v 0.014476 -0.018614 0.022735
v 0.014871 -0.017690 0.023581
v 0.017380 -0.017791 0.022765
v 0.019774 -0.018031 0.022218
v 0.019375 -0.018917 0.021344
v 0.016983 -0.018699 0.021908
v 0.020000 -0.020924 -0.009944
v 0.020000 -0.020929 0.019302
v 0.020000 -0.020920 -0.018408
v 0.020000 0.022588 -0.016616
v 0.020000 0.022656 0.019501
v 0.020000 0.022581 -0.018481
v 0.020000 -0.017086 0.023174
v 0.020000 -0.001497 0.023247
v 0.020000 0.018861 0.023348
v 0.020000 0.014291 -0.022477
v 0.020000 0.018772 -0.022486
v 0.020000 -0.017092 -0.022421
v 0.020000 0.021623 -0.019522
v 0.020000 0.022010 -0.019120
v 0.020000 0.022512 -0.018555
v 0.020000 0.018997 -0.022246
v 0.020000 0.020042 -0.021175
v 0.020000 0.020690 -0.020501
v 0.020000 0.021098 -0.020069
v 0.020000 0.019424 0.022776
v 0.020000 0.019838 0.022378
v 0.020000 0.020916 0.021266
v 0.020000 0.020762 0.021427
v 0.020000 0.021909 0.020253
v 0.020000 0.020700 0.021489
v 0.020000 -0.018071 0.022185
v 0.020000 -0.017802 0.022442
v 0.020000 -0.020314 0.019938
v 0.020000 -0.019021 0.021248
v 0.020000 -0.018183 0.022071
v 0.020000 -0.020017 -0.019348
v 0.020000 -0.018189 -0.021275
v 0.020000 -0.017588 -0.021895
vn -0.0000 -1.0000 -0.0000
vn -0.0000 -1.0000 0.0069
vn -0.0000 -1.0000 0.0012
vn 0.0016 -1.0000 -0.0011
vn -0.0000 -1.0000 0.0030
vn -0.0000 1.0000 -0.0000
vn -0.1553 -0.9879 -0.0002
vn -0.1439 -0.9896 -0.0005
vn -0.1176 -0.9931 0.0022
vn -0.0739 -0.9973 -0.0005
vn -0.1148 -0.9934 0.0005
vn -0.0975 -0.9952 0.0013
vn -0.0800 -0.9968 0.0008
vn -0.0504 -0.9987 0.0003
vn -0.0574 -0.9984 0.0005
vn -0.0370 -0.9993 0.0004
vn -0.0278 -0.9996 0.0002
vn -0.0204 -0.9998 0.0003
vn -0.0100 -1.0000 0.0001
vn -0.0054 -1.0000 0.0001
vn -0.0033 -1.0000 -0.0000
vn -0.0004 -1.0000 -0.0000
vn -0.0052 1.0000 -0.0001
vn -0.0007 1.0000 -0.0000
vn -0.0028 1.0000 0.0001
vn -0.0005 1.0000 -0.0001
vn -0.0019 1.0000 -0.0000
vn -0.0102 0.9999 -0.0001
vn -0.0156 0.9999 0.0001
vn -0.0042 1.0000 -0.0003
vn -0.0113 0.9999 -0.0003
vn -0.0240 0.9997 -0.0009
vn -0.0437 0.9990 -0.0009
vn -0.0245 0.9997 -0.0018
vn -0.0719 0.9974 -0.0019
vn -0.0396 0.9992 -0.0036
vn -0.9892 -0.0005 -0.1467
vn -0.9879 -0.0002 -0.1548
vn -0.9930 0.0001 -0.1180
vn -0.9936 -0.0000 -0.1127
vn -0.9962 -0.0000 -0.0873
vn -0.9967 -0.0001 -0.0818
vn -0.9991 0.0002 -0.0413
vn -0.9995 -0.0002 -0.0312
vn -1.0000 -0.0000 -0.0052
vn -0.9842 0.0001 -0.1771
vn -0.9802 -0.0001 -0.1981
vn -0.9765 -0.0003 -0.2155
vn -0.9736 0.0002 -0.2284
vn -0.9639 -0.0001 -0.2663
vn -0.9626 -0.0000 -0.2710
vn -0.9552 -0.0000 -0.2960
vn -0.9537 0.0001 -0.3009
vn -0.9481 -0.0001 -0.3180
vn -0.9447 0.0001 -0.3278
vn -0.9328 -0.0002 -0.3603
vn -0.9292 0.0002 -0.3697
vn -0.9168 -0.0000 -0.3993
vn -0.9149 -0.0000 -0.4037
vn -0.9040 -0.0000 -0.4276
vn -0.9020 0.0002 -0.4318
vn -0.8850 -0.0001 -0.4656
vn -0.8765 0.0004 -0.4813
vn -0.8702 0.0001 -0.4928
vn -0.8587 -0.0001 -0.5124
vn -0.8563 -0.0000 -0.5164
vn -0.8425 -0.0000 -0.5387
vn -0.8399 0.0001 -0.5428
vn -0.8271 -0.0001 -0.5620
vn -0.8218 -0.0000 -0.5698
vn -0.8094 -0.0001 -0.5873
vn -0.8036 0.0001 -0.5952
vn -0.7894 -0.0001 -0.6139
vn -0.7830 0.0001 -0.6221
vn -0.7783 -0.0000 -0.6279
vn -0.7673 -0.0000 -0.6413
vn -0.7637 0.0001 -0.6456
vn -0.7496 -0.0001 -0.6619
vn -0.7434 0.0001 -0.6689
vn -0.7191 -0.0002 -0.6949
vn -0.7125 0.0002 -0.7017
vn -0.6921 -0.0000 -0.7218
vn -0.6863 -0.0000 -0.7274
vn -0.6694 -0.0001 -0.7429
vn -0.6635 0.0002 -0.7482
vn -0.6279 -0.0002 -0.7783
vn -0.6204 0.0002 -0.7843
vn -0.5950 -0.0000 -0.8037
vn -0.5911 -0.0000 -0.8066
vn -0.5699 -0.0000 -0.8217
vn -0.5656 0.0002 -0.8247
vn -0.5417 -0.0001 -0.8406
vn -0.5329 0.0001 -0.8462
vn -0.5033 -0.0002 -0.8641
vn -0.4987 -0.0000 -0.8668
vn -0.4717 -0.0000 -0.8818
vn -0.4582 -0.0001 -0.8888
vn -0.4533 -0.0000 -0.8914
vn -0.4304 -0.0000 -0.9026
vn -0.4256 0.0001 -0.9049
vn -0.3924 -0.0002 -0.9198
vn -0.3838 0.0002 -0.9234
vn -0.3605 -0.0000 -0.9328
vn -0.3509 -0.0000 -0.9364
vn -0.3315 -0.0002 -0.9434
vn -0.3216 0.0002 -0.9469
vn -0.2761 -0.0002 -0.9611
vn -0.2664 0.0002 -0.9639
vn -0.2393 -0.0000 -0.9709
vn -0.2260 -0.0000 -0.9741
vn -0.2228 0.0001 -0.9749
vn -0.1889 -0.0002 -0.9820
vn -0.1791 0.0002 -0.9838
vn -0.1310 -0.0002 -0.9914
vn -0.1262 -0.0000 -0.9920
vn -0.1002 -0.0000 -0.9950
vn -0.0955 -0.0000 -0.9954
vn -0.0734 -0.0001 -0.9973
vn -0.0705 -0.0001 -0.9975
vn -0.0425 -0.0000 -0.9991
vn -0.0397 0.0001 -0.9992
vn -0.0041 -0.0002 -1.0000
vn 0.0006 -0.0000 -1.0000
vn 0.0390 -0.0000 -0.9992
vn 0.0316 -0.0001 -0.9995
vn 0.0698 0.0003 -0.9976
vn 0.0677 0.0002 -0.9977
vn 0.1021 -0.0001 -0.9948
vn 0.1125 0.0001 -0.9937
vn 0.1363 -0.0001 -0.9907
vn 0.1367 -0.0001 -0.9906
vn 0.1520 -0.0000 -0.9884
vn 0.1671 -0.0000 -0.9859
vn 0.1720 0.0001 -0.9851
vn 0.2080 -0.0002 -0.9781
vn 0.2174 0.0002 -0.9761
vn 0.2612 -0.0001 -0.9653
vn 0.2658 -0.0000 -0.9640
vn 0.2909 -0.0000 -0.9568
vn 0.2954 0.0001 -0.9554
vn 0.3230 -0.0002 -0.9464
vn 0.3260 -0.0001 -0.9454
vn 0.3521 -0.0000 -0.9360
vn 0.3552 -0.0000 -0.9348
vn 0.3848 -0.0002 -0.9230
vn 0.3941 0.0002 -0.9191
vn 0.4178 -0.0000 -0.9085
vn 0.4179 -0.0000 0.9085
vn 0.3941 -0.0002 0.9191
vn 0.3848 0.0002 0.9230
vn 0.3566 -0.0000 0.9343
vn 0.3506 -0.0000 0.9365
vn 0.3275 -0.0001 0.9449
vn 0.3270 -0.0000 0.9450
vn 0.3032 -0.0000 0.9529
vn 0.2772 -0.0002 0.9608
vn 0.2681 0.0002 0.9634
vn 0.2174 -0.0002 0.9761
vn 0.2080 0.0002 0.9781
vn 0.1827 -0.0000 0.9832
vn 0.1651 -0.0000 0.9863
vn 0.1624 0.0001 0.9867
vn 0.1391 -0.0000 0.9903
vn 0.1315 0.0001 0.9913
vn 0.1125 -0.0001 0.9937
vn 0.1021 0.0001 0.9948
vn 0.0717 -0.0002 0.9974
vn 0.0665 -0.0000 0.9978
vn 0.0405 -0.0000 0.9992
vn 0.0357 -0.0000 0.9994
vn 0.0054 -0.0002 1.0000
vn -0.0041 0.0002 1.0000
vn -0.0378 -0.0001 0.9993
vn -0.0443 -0.0000 0.9990
vn -0.0687 -0.0000 0.9976
vn -0.0719 -0.0000 0.9974
vn -0.0933 -0.0000 0.9956
vn -0.1180 -0.0002 0.9930
vn -0.1274 0.0002 0.9918
vn -0.1791 -0.0002 0.9838
vn -0.1889 0.0002 0.9820
vn -0.2161 -0.0000 0.9764
vn -0.2211 -0.0000 0.9752
vn -0.2295 -0.0000 0.9733
vn -0.2345 0.0001 0.9721
vn -0.2664 -0.0002 0.9639
vn -0.2761 0.0002 0.9611
vn -0.3218 -0.0002 0.9468
vn -0.3287 0.0001 0.9444
vn -0.4576 0.0001 0.8891
vn -0.4539 -0.0000 0.8910
vn -0.4298 -0.0000 0.9029
vn -0.4262 -0.0001 0.9046
vn -0.3924 0.0002 0.9198
vn -0.3838 -0.0002 0.9234
vn -0.3577 -0.0000 0.9338
vn -0.3534 -0.0000 0.9355
vn -0.3493 -0.0000 0.9370
vn -0.5033 0.0002 0.8641
vn -0.4978 -0.0000 0.8673
vn -0.4708 -0.0000 0.8822
vn -0.5707 -0.0000 0.8212
vn -0.5664 -0.0002 0.8241
vn -0.5417 0.0001 0.8406
vn -0.5367 -0.0000 0.8438
vn -0.5250 -0.0000 0.8511
vn -0.6896 0.0011 0.7242
vn -0.6669 -0.0002 0.7451
vn -0.6279 0.0002 0.7783
vn -0.6283 0.0002 0.7780
vn -0.5958 -0.0001 0.8031
vn -0.6039 0.0001 0.7971
vn -0.5919 -0.0000 0.8060
vn -0.6716 -0.0000 0.7409
vn -0.6942 -0.0000 0.7198
vn -0.7125 -0.0002 0.7017
vn -0.7191 0.0002 0.6949
vn -0.7464 -0.0001 0.6655
vn -0.7466 -0.0001 0.6653
vn -0.7666 0.0001 0.6422
vn -0.7670 0.0001 0.6416
vn -0.7781 -0.0000 0.6281
vn -0.7867 -0.0000 0.6173
vn -0.7894 0.0001 0.6139
vn -0.8063 -0.0002 0.5915
vn -0.8067 -0.0001 0.5910
vn -0.8244 0.0001 0.5660
vn -0.8245 0.0001 0.5658
vn -0.8436 -0.0002 0.5369
vn -0.8462 -0.0000 0.5328
vn -0.8599 -0.0000 0.5105
vn -0.8623 -0.0000 0.5065
vn -0.8678 -0.0001 0.4968
vn -0.8810 0.0003 0.4731
vn -0.8828 0.0002 0.4698
vn -0.9193 0.0013 0.3936
vn -0.9181 0.0012 0.3963
vn -0.9046 -0.0002 0.4263
vn -0.9078 -0.0000 0.4195
vn -0.9203 -0.0000 0.3911
vn -0.9302 -0.0001 0.3670
vn -0.9328 0.0002 0.3603
vn -0.9447 -0.0001 0.3278
vn -0.9481 0.0001 0.3180
vn -0.9517 -0.0000 0.3071
vn -0.9534 -0.0000 0.3018
vn -0.9592 -0.0000 0.2827
vn -0.9593 -0.0000 0.2823
vn -0.9655 -0.0000 0.2605
vn -0.9667 -0.0000 0.2558
vn -0.9744 -0.0002 0.2249
vn -0.9765 0.0002 0.2155
vn -0.9864 -0.0002 0.1642
vn -0.9871 -0.0000 0.1598
vn -0.9916 -0.0000 0.1292
vn -0.9931 -0.0001 0.1174
vn -0.9936 -0.0000 0.1133
vn -0.9962 -0.0000 0.0866
vn -0.9966 0.0001 0.0824
vn -0.9991 -0.0002 0.0413
vn -0.9995 0.0002 0.0312
vn -1.0000 -0.0000 0.0052
vn 0.4187 -0.0000 0.9081
vn 0.3945 -0.0004 0.9189
vn 0.3940 -0.0003 0.9191
vn 0.3469 -0.0014 0.9379
vn 0.3187 -0.0009 0.9479
vn 0.3588 -0.0023 0.9334
vn 0.2818 -0.0017 0.9595
vn 0.3317 -0.0049 0.9434
vn 0.2960 -0.0037 0.9552
vn 0.2463 -0.0038 0.9692
vn 0.2654 -0.0041 0.9641
vn 0.2196 -0.0042 0.9756
vn 0.2328 -0.0047 0.9725
vn 0.1825 -0.0046 0.9832
vn 0.1762 -0.0049 0.9843
vn 0.4211 -0.0000 -0.9070
vn 0.4160 -0.0002 -0.9094
vn 0.4157 -0.0002 -0.9095
vn 0.3840 -0.0012 -0.9233
vn 0.4009 -0.0005 -0.9161
vn 0.3995 -0.0007 -0.9167
vn 0.3827 -0.0012 -0.9239
vn 0.3685 -0.0014 -0.9296
vn 0.3698 -0.0013 -0.9291
vn 0.3479 -0.0019 -0.9375
vn 0.3417 -0.0017 -0.9398
vn 0.0996 -0.7071 0.7001
vn -0.6136 -0.7071 0.3514
vn -0.6218 -0.7071 0.3367
vn -0.7039 -0.7094 0.0357
vn -0.7058 -0.7078 0.0292
vn -0.7071 -0.7071 0.0036
vn -0.6798 -0.7082 0.1908
vn -0.6822 -0.7076 0.1841
vn -0.6908 -0.7059 0.1564
vn -0.6896 -0.7065 0.1591
vn -0.6975 -0.7075 0.1139
vn -0.6966 -0.7080 0.1159
vn -0.7033 -0.7066 0.0786
vn -0.7022 -0.7071 0.0830
vn -0.7045 -0.7071 0.0613
vn -0.6672 -0.7079 0.2318
vn -0.6729 -0.7071 0.2173
vn -0.6783 -0.7071 0.2000
vn -0.6553 -0.7071 0.2655
vn -0.6586 -0.7062 0.2598
vn -0.6672 -0.7079 0.2316
vn -0.6246 -0.7067 0.3323
vn -0.6386 -0.7082 0.3009
vn -0.6379 -0.7073 0.3047
vn -0.6492 -0.7071 0.2802
vn -0.6500 -0.7072 0.2782
vn -0.5992 -0.7081 0.3735
vn -0.5939 -0.7102 0.3781
vn -0.6072 -0.7081 0.3605
vn -0.5421 -0.7071 0.4540
vn -0.5495 -0.7081 0.4434
vn -0.5546 -0.7093 0.4351
vn -0.5569 -0.7101 0.4309
vn -0.5702 -0.7070 0.4183
vn -0.5829 -0.7071 0.4003
vn -0.5278 -0.7071 0.4706
vn -0.5327 -0.7062 0.4664
vn -0.5027 -0.7086 0.4952
vn -0.5076 -0.7071 0.4923
vn -0.4875 -0.7071 0.5121
vn -0.4716 -0.7070 0.5270
vn -0.4778 -0.7055 0.5235
vn -0.4435 -0.7084 0.5491
vn -0.4498 -0.7070 0.5458
vn -0.4271 -0.7071 0.5636
vn -0.4182 -0.7078 0.5693
vn -0.4152 -0.7082 0.5711
vn -0.4011 -0.7062 0.5834
vn -0.3789 -0.7082 0.5957
vn -0.3863 -0.7071 0.5923
vn -0.3712 -0.7071 0.6018
vn -0.3493 -0.7077 0.6141
vn -0.3513 -0.7083 0.6122
vn -0.2499 -0.7072 0.6614
vn -0.2713 -0.7075 0.6526
vn -0.2782 -0.7095 0.6474
vn -0.3014 -0.7071 0.6397
vn -0.3180 -0.7071 0.6316
vn -0.3210 -0.7069 0.6303
vn -0.3328 -0.7073 0.6237
vn -0.1704 -0.7072 0.6862
vn -0.1886 -0.7062 0.6825
vn -0.2110 -0.7101 0.6717
vn -0.2276 -0.7071 0.6695
vn -0.2471 -0.7071 0.6625
vn -0.1352 -0.7086 0.6925
vn -0.1527 -0.7074 0.6902
vn -0.1622 -0.7071 0.6883
vn -0.0145 -0.7081 0.7060
vn -0.0267 -0.7071 0.7066
vn -0.0575 -0.7070 0.7049
vn -0.0485 -0.7089 0.7037
vn -0.0935 -0.7049 0.7031
vn -0.0835 -0.7071 0.7021
vn -0.1267 -0.7068 0.6960
vn 0.0983 -0.7070 0.7003
vn 0.0794 -0.7072 0.7025
vn 0.0639 -0.7088 0.7025
vn 0.0507 -0.7066 0.7058
vn 0.0213 -0.7074 0.7065
vn 0.0286 -0.7083 0.7054
vn 0.0039 -0.7059 0.7083
vn 0.1415 -0.7097 0.6901
vn 0.1290 -0.7082 0.6941
vn 0.1167 -0.7071 0.6974
vn 0.2521 -0.7071 0.6606
vn 0.2316 -0.7070 0.6682
vn 0.2106 -0.7101 0.6719
vn 0.1961 -0.7068 0.6797
vn 0.1538 -0.7071 0.6902
vn 0.2520 -0.7071 0.6607
vn 0.2675 -0.7071 0.6546
vn 0.2792 -0.7058 0.6511
vn 0.2827 -0.7063 0.6490
vn 0.2905 -0.7069 0.6449
vn 0.2947 -0.7070 0.6428
vn 0.2968 -0.7071 0.6418
vn 0.2980 -0.7071 0.6413
vn 0.2982 -0.7071 0.6412
vn 0.2990 -0.7071 0.6408
vn 0.2987 -0.7072 0.6408
vn 0.3004 -0.7070 0.6403
vn 0.2955 -0.7071 -0.6424
vn 0.2724 -0.7078 -0.6518
vn 0.2719 -0.7076 -0.6522
vn 0.1849 -0.7065 -0.6831
vn 0.2052 -0.7090 -0.6747
vn 0.2113 -0.7100 -0.6717
vn 0.2284 -0.7070 -0.6693
vn 0.2489 -0.7071 -0.6619
vn 0.1469 -0.7081 -0.6906
vn 0.1424 -0.7093 -0.6904
vn 0.1181 -0.7073 -0.6970
vn 0.0963 -0.7069 -0.7008
vn 0.0716 -0.7098 -0.7007
vn 0.0719 -0.7099 -0.7007
vn -0.0300 -0.7071 -0.7065
vn -0.0028 -0.7083 -0.7059
vn 0.0005 -0.7092 -0.7050
vn 0.0276 -0.7071 -0.7066
vn 0.0494 -0.7071 -0.7054
vn -0.0710 -0.7101 -0.7006
vn -0.0706 -0.7100 -0.7006
vn -0.0519 -0.7070 -0.7053
vn -0.1691 -0.7072 -0.6865
vn -0.1596 -0.7078 -0.6882
vn -0.1416 -0.7096 -0.6903
vn -0.1335 -0.7075 -0.6940
vn -0.0928 -0.7066 -0.7015
vn -0.1953 -0.7067 -0.6801
vn -0.2106 -0.7100 -0.6720
vn -0.2347 -0.7065 -0.6677
vn -0.2780 -0.7090 -0.6481
vn -0.2769 -0.7086 -0.6490
vn -0.2549 -0.7074 -0.6593
vn -0.3416 -0.7099 -0.6159
vn -0.3240 -0.7071 -0.6286
vn -0.3044 -0.7071 -0.6383
vn -0.4206 -0.7075 -0.5680
vn -0.4015 -0.7097 -0.5789
vn -0.4025 -0.7094 -0.5785
vn -0.3830 -0.7071 -0.5943
vn -0.3560 -0.7068 -0.6113
vn -0.4445 -0.7063 -0.5509
vn -0.4585 -0.7100 -0.5345
vn -0.4733 -0.7072 -0.5253
vn -0.5108 -0.7094 -0.4857
vn -0.5079 -0.7079 -0.4908
vn -0.4893 -0.7071 -0.5105
vn -0.5495 -0.7082 -0.4432
vn -0.5426 -0.7071 -0.4534
vn -0.5301 -0.7071 -0.4680
vn -0.5563 -0.7096 -0.4325
vn -0.5569 -0.7099 -0.4312
vn -0.5724 -0.7071 -0.4153
vn -0.6153 -0.7071 -0.3485
vn -0.6064 -0.7080 -0.3620
vn -0.5975 -0.7100 -0.3726
vn -0.5945 -0.7085 -0.3802
vn -0.5848 -0.7071 -0.3974
vn -0.6259 -0.7070 -0.3293
vn -0.6322 -0.7100 -0.3101
vn -0.6383 -0.7081 -0.3018
vn -0.6755 -0.7070 -0.2094
vn -0.6702 -0.7073 -0.2249
vn -0.6607 -0.7097 -0.2448
vn -0.6593 -0.7074 -0.2547
vn -0.6484 -0.7070 -0.2823
vn -0.6808 -0.7079 -0.1881
vn -0.6817 -0.7100 -0.1765
vn -0.6915 -0.7061 -0.1526
vn -0.6973 -0.7084 -0.1093
vn -0.6970 -0.7091 -0.1067
vn -0.7026 -0.7071 -0.0797
vn -0.7048 -0.7071 -0.0579
vn -0.7034 -0.7099 -0.0357
vn -0.7069 -0.7069 -0.0221
vn 0.2727 0.7068 0.6527
vn 0.2954 0.7071 0.6425
vn 0.2707 0.7107 0.6494
vn 0.2376 0.7356 0.6344
vn 0.2721 0.7065 0.6533
vn 0.2312 0.7072 0.6682
vn 0.2136 0.7096 0.6714
vn 0.2110 0.7100 0.6718
vn 0.1898 0.7062 0.6821
vn 0.1468 0.7081 0.6907
vn 0.1418 0.7093 0.6905
vn 0.1149 0.7069 0.6979
vn 0.0252 0.7072 0.7065
vn 0.0471 0.7069 0.7058
vn 0.0704 0.7100 0.7007
vn 0.0720 0.7096 0.7009
vn 0.0931 0.7072 0.7009
vn -0.0030 0.7091 0.7051
vn -0.0015 0.7087 0.7055
vn -0.0314 0.7071 0.7064
vn -0.0736 0.7100 0.7003
vn -0.0657 0.7089 0.7023
vn -0.0508 0.7070 0.7053
vn -0.1658 0.7074 0.6871
vn -0.1562 0.7085 0.6883
vn -0.1444 0.7098 0.6894
vn -0.1336 0.7072 0.6943
vn -0.0901 0.7067 0.7017
vn -0.1955 0.7064 0.6803
vn -0.2133 0.7100 0.6711
vn -0.2324 0.7069 0.6680
vn -0.2798 0.7091 0.6473
vn -0.2770 0.7082 0.6494
vn -0.2528 0.7071 0.6604
vn -0.3423 0.7098 0.6157
vn -0.3237 0.7069 0.6289
vn -0.3039 0.7072 0.6384
vn -0.4212 0.7070 0.5680
vn -0.4028 0.7082 0.5799
vn -0.3989 0.7090 0.5815
vn -0.3830 0.7071 0.5944
vn -0.3561 0.7068 0.6112
vn -0.4439 0.7072 0.5503
vn -0.4515 0.7098 0.5407
vn -0.4755 0.7063 0.5244
vn -0.5051 0.7084 0.4930
vn -0.5068 0.7094 0.4897
vn -0.4906 0.7076 0.5085
vn -0.5704 0.7070 0.4180
vn -0.5568 0.7088 0.4331
vn -0.5515 0.7101 0.4377
vn -0.5422 0.7072 0.4537
vn -0.5280 0.7070 0.4705
vn -0.5830 0.7072 0.4000
vn -0.5936 0.7097 0.3793
vn -0.5971 0.7087 0.3759
vn -0.6096 0.7072 0.3580
vn -0.6172 0.7069 0.3454
vn -0.6240 0.7059 0.3351
vn -0.6335 0.7100 0.3077
vn -0.6418 0.7072 0.2967
vn -0.6741 0.7071 0.2133
vn -0.6700 0.7075 0.2247
vn -0.6615 0.7098 0.2418
vn -0.6597 0.7071 0.2548
vn -0.6508 0.7071 0.2766
vn -0.6825 0.7100 0.1737
vn -0.6819 0.7089 0.1804
vn -0.6785 0.7069 0.1996
vn -0.7025 0.7072 0.0801
vn -0.7002 0.7081 0.0912
vn -0.6967 0.7097 0.1047
vn -0.6972 0.7079 0.1129
vn -0.6913 0.7062 0.1527
vn -0.7049 0.7069 0.0582
vn -0.7036 0.7097 0.0351
vn -0.7069 0.7069 0.0221
vn -0.7071 0.7071 -0.0038
vn -0.7058 0.7078 -0.0292
vn -0.7041 0.7093 -0.0351
vn -0.7045 0.7070 -0.0617
vn -0.6931 0.7071 -0.1402
vn -0.6958 0.7072 -0.1253
vn -0.6966 0.7098 -0.1047
vn -0.6971 0.7095 -0.1034
vn -0.7021 0.7072 -0.0834
vn -0.6883 0.7073 -0.1615
vn -0.6825 0.7099 -0.1738
vn -0.6803 0.7075 -0.1915
vn -0.6613 0.7101 -0.2418
vn -0.6670 0.7082 -0.2314
vn -0.6746 0.7069 -0.2128
vn -0.6050 0.7077 -0.3648
vn -0.6207 0.7061 -0.3409
vn -0.6188 0.7051 -0.3463
vn -0.6352 0.7100 -0.3042
vn -0.6345 0.7089 -0.3082
vn -0.6467 0.7073 -0.2855
vn -0.6576 0.7064 -0.2616
vn -0.5914 0.7101 -0.3821
vn -0.5941 0.7092 -0.3796
vn -0.5810 0.7072 -0.4028
vn -0.5683 0.7070 -0.4210
vn -0.5517 0.7099 -0.4379
vn -0.5515 0.7098 -0.4383
vn -0.4853 0.7072 -0.5142
vn -0.5030 0.7083 -0.4953
vn -0.5046 0.7092 -0.4925
vn -0.5257 0.7070 -0.4731
vn -0.5399 0.7072 -0.4565
vn -0.4694 0.7068 -0.5293
vn -0.4513 0.7100 -0.5405
vn -0.4390 0.7065 -0.5550
vn -0.3992 0.7084 -0.5820
vn -0.3991 0.7085 -0.5821
vn -0.4178 0.7073 -0.5703
vn -0.3207 0.7070 -0.6304
vn -0.3330 0.7084 -0.6223
vn -0.3423 0.7098 -0.6157
vn -0.3525 0.7076 -0.6124
vn -0.3770 0.7069 -0.5985
vn -0.3009 0.7072 -0.6398
vn -0.2796 0.7096 -0.6468
vn -0.2712 0.7073 -0.6528
vn -0.2133 0.7099 -0.6712
vn -0.2274 0.7072 -0.6694
vn -0.2480 0.7071 -0.6622
vn -0.1444 0.7101 -0.6892
vn -0.1574 0.7081 -0.6884
vn -0.1888 0.7060 -0.6826
vn -0.0499 0.7070 -0.7054
vn -0.0673 0.7090 -0.7020
vn -0.0736 0.7101 -0.7003
vn -0.0891 0.7074 -0.7011
vn -0.1267 0.7065 -0.6962
vn -0.0281 0.7070 -0.7066
vn -0.0015 0.7094 -0.7048
vn 0.0003 0.7089 -0.7053
vn 0.0967 0.7072 -0.7004
vn 0.0794 0.7086 -0.7011
vn 0.0704 0.7101 -0.7005
vn 0.0479 0.7062 -0.7063
vn 0.0223 0.7075 -0.7064
vn 0.1879 0.7069 -0.6819
vn 0.1536 0.7072 -0.6901
vn 0.1417 0.7098 -0.6900
vn 0.1216 0.7073 -0.6964
vn 0.1076 0.7071 -0.6989
vn 0.2082 0.7094 -0.6734
vn 0.2110 0.7100 -0.6719
vn 0.2305 0.7072 -0.6684
vn 0.2787 0.7069 -0.6500
vn 0.2467 0.7197 -0.6490
vn 0.2718 0.7068 -0.6531
vn 0.2725 0.7065 -0.6531
vn 0.2727 0.7068 -0.6527
vn 0.2851 0.7081 -0.6460
vn 0.2765 0.7074 -0.6505
vn 0.2667 0.7093 -0.6525
vn 0.2499 0.7221 -0.6450
vn 0.2455 0.7117 -0.6582
vn 0.2001 0.7048 -0.6806
vn 0.2067 0.7324 -0.6488
vn 0.1829 0.7135 -0.6764
vn 0.2890 0.7071 -0.6454
vn 0.2938 0.7071 -0.6432
vn 0.2904 0.7037 -0.6484
vn 0.2802 0.7079 -0.6483
vn 0.2296 0.7100 -0.6657
vn 0.2570 0.7000 -0.6663
vn 0.2560 0.6990 -0.6677
vn 0.2660 0.7056 -0.6568
vn 0.1908 0.7029 -0.6853
vn 0.1950 0.7069 -0.6799
vn 0.2953 0.7071 -0.6425
vn 0.2867 0.7131 -0.6397
vn 0.2890 0.7077 -0.6448
vn 0.2558 0.7069 -0.6594
vn 0.2531 0.7104 -0.6568
vn 0.1993 0.7071 -0.6784
vn 0.1926 0.7137 -0.6734
vn 0.2823 0.7057 0.6499
vn 0.2952 0.7071 0.6425
vn 0.0829 0.7105 0.6988
vn 0.1154 0.6882 0.7163
vn 0.1299 0.7040 0.6982
vn 0.2193 0.7062 0.6732
vn 0.1953 0.6952 0.6918
vn 0.1891 0.7008 0.6878
vn 0.1550 0.7071 0.6899
vn 0.2588 0.7129 0.6518
vn 0.2881 0.6816 0.6726
vn 0.2418 0.7075 0.6641
vn 0.2585 0.7135 0.6512
vn 0.2600 0.7129 0.6513
vn 0.2465 0.7079 0.6619
vn 0.1712 0.7092 0.6839
vn 0.1901 0.7121 0.6759
vn 0.1935 0.7143 0.6726
vn 0.2123 0.7094 0.6721
vn 0.2269 0.7069 0.6699
vn 0.1487 0.7067 0.6917
vn 0.1151 0.7174 0.6871
vn 0.1030 0.7102 0.6964
vn 0.0526 0.7090 0.7032
vn 0.2624 0.7066 0.6572
vn 0.2605 0.7084 0.6559
vn 0.1964 0.7047 0.6818
vn 0.1906 0.7109 0.6770
vn 0.1187 0.7027 0.7015
vn 0.1093 0.7135 0.6920
vn 0.2959 -0.7073 0.6420
vn 0.2898 -0.7065 0.6457
vn 0.2719 -0.7128 0.6465
vn 0.2690 -0.7142 0.6462
vn 0.2767 -0.7045 0.6536
vn 0.2740 -0.6966 0.6631
vn 0.2422 -0.7093 0.6620
vn 0.1935 -0.7052 0.6821
vn 0.1839 -0.6828 0.7071
vn 0.2150 -0.7077 0.6730
vn -0.0157 -0.6909 0.7228
vn 0.0322 -0.7147 0.6987
vn 0.0935 -0.6938 0.7140
vn 0.1016 -0.7036 0.7033
vn 0.1390 -0.7112 0.6891
vn -0.0013 -0.7190 0.6950
vn -0.0105 -0.7117 0.7024
vn 0.0522 -0.7135 0.6987
vn 0.0956 -0.7222 0.6851
vn 0.1036 -0.7264 0.6794
vn 0.0797 -0.7184 0.6911
vn 0.2581 -0.7101 0.6551
vn 0.2370 -0.7092 0.6640
vn 0.1964 -0.7165 0.6693
vn 0.1956 -0.7160 0.6701
vn 0.1439 -0.7129 0.6863
vn -0.0225 -0.7121 0.7017
vn -0.0069 -0.7005 0.7136
vn 0.0854 -0.7188 0.6899
vn 0.1009 -0.7057 0.7013
vn 0.1896 -0.7164 0.6715
vn 0.1999 -0.7068 0.6786
vn 0.2686 -0.7104 0.6505
vn 0.2720 -0.7068 0.6530
vn 0.2975 -0.7071 0.6415
vn 0.2976 -0.7071 0.6414
vn 0.1125 -0.7162 -0.6887
vn 0.1512 -0.7171 -0.6804
vn 0.1320 -0.7123 -0.6893
vn 0.1607 -0.7173 -0.6780
vn 0.2030 -0.7158 -0.6681
vn 0.2023 -0.7157 -0.6685
vn 0.2328 -0.7145 -0.6597
vn 0.2275 -0.7143 -0.6619
vn 0.2497 -0.7136 -0.6546
vn 0.2558 -0.7141 -0.6516
vn 0.2714 -0.7102 -0.6496
vn 0.2889 -0.7092 -0.6431
vn 0.2842 -0.7082 -0.6462
vn 0.2974 -0.7075 -0.6411
vn 0.2956 -0.7071 -0.6424
vn 1.0000 -0.0000 -0.0000
vt 0.000000 0.000000
vt 0.577004 0.054433
vt 0.569233 0.054412
vt 0.418746 0.054201
vt 0.415611 0.056533
vt 0.411391 0.059637
vt 0.410721 0.060118
vt 0.410461 0.060313
vt 0.406758 0.063007
vt 0.405102 0.064299
vt 0.402715 0.066060
vt 0.403136 0.129678
vt 0.403441 0.178394
vt 0.406494 0.180632
vt 0.407562 0.181470
vt 0.408039 0.181823
vt 0.411465 0.184440
vt 0.416926 0.188482
vt 0.419577 0.190404
vt 0.541432 0.190389
vt 0.576701 0.190376
vt 0.580616 0.187553
vt 0.588645 0.181839
vt 0.591229 0.179963
vt 0.593420 0.178411
vt 0.593655 0.080340
vt 0.593693 0.066336
vt 0.592693 0.065633
vt 0.588231 0.062370
vt 0.585421 0.060343
vt 0.583620 0.059069
vt 0.581342 0.057429
vt 0.579668 0.056217
vt 0.577311 0.054651
s 0
f 1/1/1 2/1/1 3/1/1
f 3/1/1 2/1/1 4/1/1
f 3/1/1 4/1/1 5/1/1
f 6/1/1 7/1/1 4/1/1
f 4/1/1 7/1/1 8/1/1
f 4/1/1 8/1/1 9/1/1
f 9/1/1 10/1/1 4/1/1
f 4/1/1 10/1/1 11/1/1
f 4/1/1 11/1/1 5/1/1
f 12/1/1 13/1/1 14/1/1
f 14/1/1 13/1/1 15/1/1
f 14/1/1 15/1/1 16/1/1
f 17/1/1 18/1/1 12/1/1
f 12/1/2 18/1/2 19/1/2
f 12/1/3 19/1/3 20/1/3
f 17/1/1 12/1/1 14/1/1
f 17/1/4 14/1/4 4/1/4
f 4/1/1 14/1/1 21/1/1
f 4/1/1 21/1/1 6/1/1
f 20/1/1 22/1/1 12/1/1
f 12/1/1 22/1/1 23/1/1
f 12/1/5 23/1/5 24/1/5
f 25/1/1 26/1/1 27/1/1
f 28/1/1 15/1/1 29/1/1
f 29/1/1 15/1/1 30/1/1
f 31/1/1 32/1/1 33/1/1
f 33/1/1 32/1/1 34/1/1
f 33/1/1 34/1/1 35/1/1
f 35/1/1 36/1/1 33/1/1
f 33/1/1 36/1/1 27/1/1
f 33/1/1 27/1/1 37/1/1
f 37/1/1 27/1/1 26/1/1
f 38/1/1 39/1/1 33/1/1
f 33/1/1 39/1/1 40/1/1
f 33/1/1 40/1/1 31/1/1
f 30/1/1 15/1/1 33/1/1
f 33/1/1 15/1/1 41/1/1
f 33/1/1 41/1/1 38/1/1
f 42/1/1 43/1/1 44/1/1
f 44/1/1 43/1/1 45/1/1
f 44/1/1 45/1/1 46/1/1
f 46/1/1 47/1/1 44/1/1
f 44/1/1 47/1/1 48/1/1
f 44/1/1 48/1/1 49/1/1
f 50/1/1 51/1/1 49/1/1
f 49/1/1 51/1/1 52/1/1
f 49/1/1 52/1/1 44/1/1
f 28/1/1 53/1/1 15/1/1
f 15/1/1 53/1/1 54/1/1
f 15/1/1 54/1/1 55/1/1
f 55/1/1 56/1/1 15/1/1
f 15/1/1 56/1/1 57/1/1
f 15/1/1 57/1/1 58/1/1
f 25/1/1 27/1/1 44/1/1
f 44/1/1 27/1/1 59/1/1
f 44/1/1 59/1/1 42/1/1
f 50/1/1 60/1/1 51/1/1
f 51/1/1 60/1/1 61/1/1
f 51/1/1 61/1/1 62/1/1
f 62/1/1 61/1/1 63/1/1
f 58/1/1 64/1/1 15/1/1
f 15/1/1 64/1/1 65/1/1
f 15/1/1 65/1/1 16/1/1
f 66/1/6 67/1/6 68/1/6
f 69/1/6 70/1/6 68/1/6
f 68/1/6 70/1/6 71/1/6
f 68/1/6 71/1/6 72/1/6
f 73/1/6 74/1/6 68/1/6
f 68/1/6 74/1/6 75/1/6
f 75/1/6 76/1/6 68/1/6
f 68/1/6 76/1/6 77/1/6
f 68/1/6 77/1/6 78/1/6
f 79/1/6 80/1/6 68/1/6
f 68/1/6 80/1/6 81/1/6
f 68/1/6 81/1/6 82/1/6
f 82/1/6 83/1/6 68/1/6
f 68/1/6 83/1/6 84/1/6
f 68/1/6 84/1/6 85/1/6
f 86/1/6 87/1/6 88/1/6
f 78/1/6 89/1/6 68/1/6
f 68/1/6 89/1/6 90/1/6
f 68/1/6 90/1/6 66/1/6
f 67/1/6 91/1/6 68/1/6
f 68/1/6 91/1/6 92/1/6
f 68/1/6 92/1/6 79/1/6
f 93/1/6 94/1/6 86/1/6
f 86/1/6 94/1/6 95/1/6
f 86/1/6 95/1/6 87/1/6
f 72/1/6 96/1/6 68/1/6
f 68/1/6 96/1/6 97/1/6
f 68/1/6 97/1/6 98/1/6
f 98/1/6 99/1/6 68/1/6
f 68/1/6 99/1/6 100/1/6
f 68/1/6 100/1/6 73/1/6
f 85/1/6 101/1/6 68/1/6
f 68/1/6 101/1/6 102/1/6
f 68/1/6 102/1/6 86/1/6
f 86/1/6 102/1/6 103/1/6
f 86/1/6 103/1/6 93/1/6
f 104/1/6 105/1/6 106/1/6
f 88/1/6 107/1/6 86/1/6
f 86/1/6 107/1/6 108/1/6
f 86/1/6 108/1/6 109/1/6
f 109/1/6 108/1/6 104/1/6
f 109/1/6 104/1/6 110/1/6
f 110/1/6 104/1/6 106/1/6
f 410/1/7 111/1/7 112/1/7 409/1/7
f 112/1/8 411/1/8 409/1/8
f 113/1/9 114/1/9 111/1/9
f 111/1/10 114/1/10 115/1/10
f 111/1/11 115/1/11 112/1/11
f 113/1/12 116/1/12 114/1/12
f 114/1/13 116/1/13 117/1/13
f 114/1/14 117/1/14 118/1/14
f 118/1/15 117/1/15 119/1/15
f 118/1/16 119/1/16 120/1/16
f 120/1/17 119/1/17 121/1/17
f 120/1/18 121/1/18 122/1/18
f 122/1/19 121/1/19 123/1/19
f 122/1/20 123/1/20 1/1/20
f 1/1/21 123/1/21 124/1/21
f 1/1/22 124/1/22 2/1/22
f 70/1/6 69/1/6 125/1/6
f 126/1/23 127/1/23 128/1/23
f 125/1/24 129/1/24 70/1/24
f 70/1/25 129/1/25 126/1/25
f 70/1/26 126/1/26 130/1/26
f 130/1/27 126/1/27 128/1/27
f 127/1/28 131/1/28 128/1/28
f 128/1/29 131/1/29 132/1/29
f 128/1/30 132/1/30 133/1/30
f 133/1/31 132/1/31 134/1/31
f 132/1/32 135/1/32 134/1/32
f 134/1/33 135/1/33 136/1/33
f 134/1/34 136/1/34 137/1/34
f 412/1/35 137/1/35 136/1/35 413/1/35
f 137/1/36 412/1/36 414/1/36
f 138/1/37 139/1/37 140/1/37
f 140/1/38 139/1/38 141/1/38
f 140/1/39 141/1/39 142/1/39
f 142/1/40 141/1/40 143/1/40
f 142/1/41 143/1/41 144/1/41
f 144/1/42 143/1/42 145/1/42
f 144/1/43 145/1/43 146/1/43
f 146/1/44 145/1/44 147/1/44
f 146/1/45 147/1/45 148/1/45
f 138/1/46 149/1/46 139/1/46
f 139/1/47 149/1/47 150/1/47
f 139/1/48 150/1/48 151/1/48
f 151/1/49 150/1/49 152/1/49
f 151/1/50 152/1/50 153/1/50
f 153/1/51 152/1/51 154/1/51
f 153/1/52 154/1/52 155/1/52
f 155/1/53 154/1/53 156/1/53
f 155/1/54 156/1/54 157/1/54
f 157/1/55 156/1/55 158/1/55
f 157/1/56 158/1/56 159/1/56
f 159/1/57 158/1/57 160/1/57
f 159/1/58 160/1/58 161/1/58
f 161/1/59 160/1/59 162/1/59
f 161/1/60 162/1/60 163/1/60
f 163/1/61 162/1/61 164/1/61
f 163/1/62 164/1/62 165/1/62
f 165/1/63 164/1/63 166/1/63
f 165/1/64 166/1/64 167/1/64
f 167/1/65 166/1/65 168/1/65
f 168/1/66 166/1/66 169/1/66
f 168/1/67 169/1/67 170/1/67
f 170/1/68 169/1/68 171/1/68
f 170/1/69 171/1/69 172/1/69
f 172/1/70 171/1/70 173/1/70
f 172/1/71 173/1/71 174/1/71
f 174/1/72 173/1/72 175/1/72
f 174/1/73 175/1/73 176/1/73
f 176/1/74 175/1/74 177/1/74
f 176/1/75 177/1/75 178/1/75
f 178/1/76 177/1/76 179/1/76
f 179/1/77 177/1/77 180/1/77
f 179/1/78 180/1/78 181/1/78
f 181/1/79 180/1/79 182/1/79
f 181/1/80 182/1/80 183/1/80
f 183/1/81 182/1/81 184/1/81
f 183/1/82 184/1/82 185/1/82
f 185/1/83 184/1/83 186/1/83
f 185/1/84 186/1/84 187/1/84
f 187/1/85 186/1/85 188/1/85
f 187/1/86 188/1/86 189/1/86
f 189/1/87 188/1/87 190/1/87
f 189/1/88 190/1/88 191/1/88
f 191/1/89 190/1/89 192/1/89
f 191/1/90 192/1/90 193/1/90
f 193/1/91 192/1/91 194/1/91
f 193/1/92 194/1/92 195/1/92
f 195/1/93 194/1/93 196/1/93
f 195/1/94 196/1/94 197/1/94
f 196/1/95 198/1/95 197/1/95
f 197/1/96 198/1/96 199/1/96
f 197/1/97 199/1/97 200/1/97
f 200/1/98 199/1/98 201/1/98
f 200/1/99 201/1/99 202/1/99
f 202/1/100 201/1/100 203/1/100
f 202/1/101 203/1/101 204/1/101
f 204/1/102 203/1/102 205/1/102
f 204/1/103 205/1/103 206/1/103
f 206/1/104 205/1/104 207/1/104
f 206/1/105 207/1/105 208/1/105
f 208/1/106 207/1/106 209/1/106
f 208/1/107 209/1/107 210/1/107
f 210/1/108 209/1/108 211/1/108
f 210/1/109 211/1/109 212/1/109
f 212/1/110 211/1/110 213/1/110
f 213/1/111 211/1/111 214/1/111
f 213/1/112 214/1/112 215/1/112
f 215/1/113 214/1/113 216/1/113
f 215/1/114 216/1/114 217/1/114
f 217/1/115 216/1/115 218/1/115
f 217/1/116 218/1/116 219/1/116
f 219/1/117 218/1/117 220/1/117
f 219/1/118 220/1/118 221/1/118
f 221/1/119 220/1/119 222/1/119
f 221/1/120 222/1/120 223/1/120
f 223/1/121 222/1/121 224/1/121
f 223/1/122 224/1/122 225/1/122
f 225/1/123 224/1/123 226/1/123
f 225/1/124 226/1/124 227/1/124
f 227/1/125 226/1/125 228/1/125
f 227/1/126 228/1/126 229/1/126
f 229/1/127 228/1/127 230/1/127
f 229/1/128 230/1/128 231/1/128
f 231/1/129 230/1/129 232/1/129
f 231/1/130 232/1/130 233/1/130
f 232/1/131 234/1/131 233/1/131
f 233/1/132 234/1/132 235/1/132
f 233/1/133 235/1/133 236/1/133
f 236/1/134 235/1/134 237/1/134
f 236/1/135 237/1/135 238/1/135
f 238/1/136 237/1/136 239/1/136
f 238/1/137 239/1/137 240/1/137
f 240/1/138 239/1/138 241/1/138
f 240/1/139 241/1/139 242/1/139
f 242/1/140 241/1/140 243/1/140
f 242/1/141 243/1/141 244/1/141
f 244/1/142 243/1/142 245/1/142
f 244/1/143 245/1/143 246/1/143
f 246/1/144 245/1/144 247/1/144
f 246/1/145 247/1/145 248/1/145
f 248/1/146 247/1/146 249/1/146
f 248/1/147 249/1/147 250/1/147
f 251/1/148 252/1/148 253/1/148
f 251/1/149 253/1/149 254/1/149
f 254/1/150 253/1/150 255/1/150
f 254/1/151 255/1/151 256/1/151
f 256/1/152 255/1/152 257/1/152
f 256/1/153 257/1/153 258/1/153
f 257/1/154 259/1/154 258/1/154
f 258/1/155 259/1/155 260/1/155
f 258/1/156 260/1/156 261/1/156
f 261/1/157 260/1/157 262/1/157
f 261/1/158 262/1/158 263/1/158
f 263/1/159 262/1/159 264/1/159
f 263/1/160 264/1/160 265/1/160
f 265/1/161 264/1/161 266/1/161
f 266/1/162 264/1/162 267/1/162
f 266/1/163 267/1/163 268/1/163
f 268/1/164 267/1/164 269/1/164
f 268/1/165 269/1/165 270/1/165
f 270/1/166 269/1/166 271/1/166
f 270/1/167 271/1/167 272/1/167
f 272/1/168 271/1/168 273/1/168
f 272/1/169 273/1/169 274/1/169
f 274/1/170 273/1/170 275/1/170
f 274/1/171 275/1/171 276/1/171
f 276/1/172 275/1/172 277/1/172
f 276/1/173 277/1/173 278/1/173
f 278/1/174 277/1/174 279/1/174
f 278/1/175 279/1/175 280/1/175
f 279/1/176 281/1/176 280/1/176
f 280/1/177 281/1/177 282/1/177
f 280/1/178 282/1/178 283/1/178
f 283/1/179 282/1/179 284/1/179
f 283/1/180 284/1/180 285/1/180
f 285/1/181 284/1/181 286/1/181
f 285/1/182 286/1/182 287/1/182
f 287/1/183 286/1/183 288/1/183
f 287/1/184 288/1/184 289/1/184
f 289/1/185 288/1/185 290/1/185
f 289/1/186 290/1/186 291/1/186
f 291/1/187 290/1/187 292/1/187
f 291/1/188 292/1/188 293/1/188
f 293/1/189 292/1/189 294/1/189
f 295/1/190 296/1/190 297/1/190
f 297/1/191 296/1/191 298/1/191
f 297/1/192 298/1/192 299/1/192
f 299/1/193 298/1/193 300/1/193
f 299/1/194 300/1/194 301/1/194
f 301/1/195 300/1/195 302/1/195
f 301/1/196 302/1/196 294/1/196
f 294/1/197 302/1/197 303/1/197
f 294/1/198 303/1/198 293/1/198
f 304/1/199 305/1/199 295/1/199
f 295/1/200 305/1/200 306/1/200
f 295/1/201 306/1/201 296/1/201
f 307/1/202 308/1/202 309/1/202
f 309/1/203 308/1/203 310/1/203
f 309/1/204 310/1/204 304/1/204
f 304/1/205 310/1/205 311/1/205
f 304/1/206 311/1/206 305/1/206
f 312/1/207 313/1/207 314/1/207
f 314/1/208 313/1/208 315/1/208
f 314/1/209 315/1/209 316/1/209
f 316/1/210 315/1/210 317/1/210
f 316/1/211 317/1/211 307/1/211
f 307/1/212 317/1/212 318/1/212
f 307/1/213 318/1/213 308/1/213
f 314/1/214 319/1/214 312/1/214
f 312/1/215 319/1/215 320/1/215
f 312/1/216 320/1/216 321/1/216
f 321/1/217 320/1/217 322/1/217
f 321/1/218 322/1/218 323/1/218
f 323/1/219 322/1/219 324/1/219
f 323/1/220 324/1/220 325/1/220
f 325/1/221 324/1/221 326/1/221
f 325/1/222 326/1/222 327/1/222
f 327/1/223 326/1/223 328/1/223
f 328/1/224 326/1/224 329/1/224
f 328/1/225 329/1/225 330/1/225
f 330/1/226 329/1/226 331/1/226
f 330/1/227 331/1/227 332/1/227
f 332/1/228 331/1/228 333/1/228
f 332/1/229 333/1/229 334/1/229
f 334/1/230 333/1/230 335/1/230
f 334/1/231 335/1/231 336/1/231
f 336/1/232 335/1/232 337/1/232
f 336/1/233 337/1/233 338/1/233
f 338/1/234 337/1/234 339/1/234
f 338/1/235 339/1/235 340/1/235
f 341/1/236 342/1/236 339/1/236
f 339/1/237 342/1/237 343/1/237
f 339/1/238 343/1/238 340/1/238
f 339/1/239 344/1/239 341/1/239
f 341/1/240 344/1/240 345/1/240
f 341/1/241 345/1/241 346/1/241
f 346/1/242 345/1/242 347/1/242
f 346/1/243 347/1/243 348/1/243
f 348/1/244 347/1/244 349/1/244
f 348/1/245 349/1/245 350/1/245
f 350/1/246 349/1/246 351/1/246
f 350/1/247 351/1/247 352/1/247
f 352/1/248 351/1/248 353/1/248
f 352/1/249 353/1/249 354/1/249
f 354/1/250 353/1/250 355/1/250
f 354/1/251 355/1/251 356/1/251
f 356/1/252 355/1/252 357/1/252
f 356/1/253 357/1/253 358/1/253
f 357/1/254 359/1/254 358/1/254
f 358/1/255 359/1/255 360/1/255
f 358/1/256 360/1/256 361/1/256
f 361/1/257 360/1/257 362/1/257
f 361/1/258 362/1/258 363/1/258
f 363/1/259 362/1/259 364/1/259
f 363/1/260 364/1/260 365/1/260
f 365/1/261 364/1/261 148/1/261
f 365/1/262 148/1/262 147/1/262
f 252/1/263 251/1/263 366/1/263
f 252/1/264 366/1/264 367/1/264
f 367/1/265 366/1/265 368/1/265
f 367/1/266 368/1/266 369/1/266
f 369/1/267 368/1/267 370/1/267
f 370/1/268 368/1/268 371/1/268
f 370/1/269 371/1/269 372/1/269
f 371/1/270 373/1/270 372/1/270
f 372/1/271 373/1/271 374/1/271
f 372/1/272 374/1/272 375/1/272
f 375/1/273 374/1/273 376/1/273
f 375/1/274 376/1/274 377/1/274
f 376/1/275 378/1/275 377/1/275
f 378/1/276 415/1/276 416/1/276 377/1/276
f 377/1/277 416/1/277 417/1/277
f 250/1/278 249/1/278 379/1/278
f 379/1/279 249/1/279 380/1/279
f 379/1/280 380/1/280 381/1/280
f 382/1/281 383/1/281 384/1/281
f 381/1/282 380/1/282 384/1/282
f 384/1/283 380/1/283 385/1/283
f 384/1/284 385/1/284 382/1/284
f 383/1/285 382/1/285 386/1/285
f 386/1/286 382/1/286 387/1/286
f 386/1/287 387/1/287 419/1/287 418/1/287
f 386/1/288 418/1/288 420/1/288
f 40/1/289 39/1/289 266/1/289
f 336/1/290 338/1/290 62/1/290
f 62/1/291 338/1/291 51/1/291
f 30/1/292 363/1/292 29/1/292
f 29/1/293 363/1/293 365/1/293
f 29/1/294 365/1/294 147/1/294
f 25/1/295 352/1/295 26/1/295
f 26/1/296 352/1/296 354/1/296
f 26/1/297 354/1/297 37/1/297
f 37/1/298 354/1/298 356/1/298
f 37/1/299 356/1/299 33/1/299
f 33/1/300 356/1/300 358/1/300
f 33/1/301 358/1/301 30/1/301
f 30/1/302 358/1/302 361/1/302
f 30/1/303 361/1/303 363/1/303
f 44/1/304 348/1/304 25/1/304
f 25/1/305 348/1/305 350/1/305
f 25/1/306 350/1/306 352/1/306
f 52/1/307 341/1/307 44/1/307
f 44/1/308 341/1/308 346/1/308
f 44/1/309 346/1/309 348/1/309
f 338/1/310 340/1/310 51/1/310
f 51/1/311 340/1/311 343/1/311
f 51/1/312 343/1/312 52/1/312
f 52/1/313 343/1/313 342/1/313
f 52/1/314 342/1/314 341/1/314
f 63/1/315 332/1/315 62/1/315
f 62/1/316 332/1/316 334/1/316
f 62/1/317 334/1/317 336/1/317
f 61/1/318 323/1/318 325/1/318
f 325/1/319 327/1/319 61/1/319
f 61/1/320 327/1/320 328/1/320
f 61/1/321 328/1/321 63/1/321
f 63/1/322 328/1/322 330/1/322
f 63/1/323 330/1/323 332/1/323
f 323/1/324 61/1/324 321/1/324
f 321/1/325 61/1/325 60/1/325
f 321/1/326 60/1/326 312/1/326
f 312/1/327 60/1/327 50/1/327
f 312/1/328 50/1/328 313/1/328
f 313/1/329 50/1/329 315/1/329
f 315/1/330 50/1/330 49/1/330
f 315/1/331 49/1/331 317/1/331
f 317/1/332 49/1/332 48/1/332
f 317/1/333 48/1/333 318/1/333
f 318/1/334 48/1/334 308/1/334
f 308/1/335 48/1/335 47/1/335
f 308/1/336 47/1/336 310/1/336
f 310/1/337 47/1/337 311/1/337
f 311/1/338 47/1/338 46/1/338
f 311/1/339 46/1/339 305/1/339
f 305/1/340 46/1/340 45/1/340
f 305/1/341 45/1/341 306/1/341
f 303/1/342 302/1/342 42/1/342
f 42/1/343 302/1/343 300/1/343
f 42/1/344 300/1/344 43/1/344
f 43/1/345 300/1/345 298/1/345
f 43/1/346 298/1/346 45/1/346
f 45/1/347 298/1/347 296/1/347
f 45/1/348 296/1/348 306/1/348
f 27/1/349 289/1/349 59/1/349
f 59/1/350 289/1/350 291/1/350
f 59/1/351 291/1/351 42/1/351
f 42/1/352 291/1/352 293/1/352
f 42/1/353 293/1/353 303/1/353
f 36/1/354 285/1/354 27/1/354
f 27/1/355 285/1/355 287/1/355
f 27/1/356 287/1/356 289/1/356
f 32/1/357 276/1/357 34/1/357
f 34/1/358 276/1/358 278/1/358
f 34/1/359 278/1/359 35/1/359
f 35/1/360 278/1/360 280/1/360
f 35/1/361 280/1/361 36/1/361
f 36/1/362 280/1/362 283/1/362
f 36/1/363 283/1/363 285/1/363
f 266/1/364 268/1/364 40/1/364
f 40/1/365 268/1/365 270/1/365
f 40/1/366 270/1/366 31/1/366
f 31/1/367 270/1/367 272/1/367
f 31/1/368 272/1/368 32/1/368
f 32/1/369 272/1/369 274/1/369
f 32/1/370 274/1/370 276/1/370
f 38/1/371 263/1/371 39/1/371
f 39/1/372 263/1/372 265/1/372
f 39/1/373 265/1/373 266/1/373
f 254/1/374 256/1/374 41/1/374
f 41/1/375 256/1/375 258/1/375
f 41/1/376 258/1/376 38/1/376
f 38/1/377 258/1/377 261/1/377
f 38/1/378 261/1/378 263/1/378
f 41/1/379 15/1/379 254/1/379
f 254/1/380 15/1/380 13/1/380
f 254/1/381 13/1/381 251/1/381
f 251/1/382 13/1/382 12/1/382
f 12/1/383 24/1/383 251/1/383
f 251/1/384 24/1/384 23/1/384
f 251/1/385 23/1/385 22/1/385
f 22/1/386 20/1/386 251/1/386
f 251/1/387 20/1/387 19/1/387
f 251/1/388 19/1/388 18/1/388
f 18/1/389 17/1/389 251/1/389
f 251/1/390 17/1/390 4/1/390
f 250/1/391 3/1/391 248/1/391
f 248/1/392 3/1/392 5/1/392
f 248/1/393 5/1/393 246/1/393
f 238/1/394 240/1/394 11/1/394
f 11/1/395 240/1/395 242/1/395
f 11/1/396 242/1/396 5/1/396
f 5/1/397 242/1/397 244/1/397
f 5/1/398 244/1/398 246/1/398
f 238/1/399 11/1/399 236/1/399
f 236/1/400 11/1/400 10/1/400
f 236/1/401 10/1/401 233/1/401
f 233/1/402 10/1/402 231/1/402
f 231/1/403 10/1/403 9/1/403
f 231/1/404 9/1/404 229/1/404
f 221/1/405 223/1/405 8/1/405
f 8/1/406 223/1/406 225/1/406
f 8/1/407 225/1/407 9/1/407
f 9/1/408 225/1/408 227/1/408
f 9/1/409 227/1/409 229/1/409
f 7/1/410 217/1/410 8/1/410
f 8/1/411 217/1/411 219/1/411
f 8/1/412 219/1/412 221/1/412
f 210/1/413 212/1/413 6/1/413
f 6/1/414 212/1/414 213/1/414
f 6/1/415 213/1/415 7/1/415
f 7/1/416 213/1/416 215/1/416
f 7/1/417 215/1/417 217/1/417
f 210/1/418 6/1/418 208/1/418
f 208/1/419 6/1/419 21/1/419
f 208/1/420 21/1/420 206/1/420
f 14/1/421 202/1/421 21/1/421
f 21/1/422 202/1/422 204/1/422
f 21/1/423 204/1/423 206/1/423
f 16/1/424 197/1/424 14/1/424
f 14/1/425 197/1/425 200/1/425
f 14/1/426 200/1/426 202/1/426
f 189/1/427 191/1/427 65/1/427
f 65/1/428 191/1/428 193/1/428
f 65/1/429 193/1/429 16/1/429
f 16/1/430 193/1/430 195/1/430
f 16/1/431 195/1/431 197/1/431
f 189/1/432 65/1/432 187/1/432
f 187/1/433 65/1/433 64/1/433
f 187/1/434 64/1/434 185/1/434
f 58/1/435 181/1/435 64/1/435
f 64/1/436 181/1/436 183/1/436
f 64/1/437 183/1/437 185/1/437
f 176/1/438 178/1/438 58/1/438
f 58/1/439 178/1/439 179/1/439
f 58/1/440 179/1/440 181/1/440
f 176/1/441 58/1/441 174/1/441
f 174/1/442 58/1/442 57/1/442
f 174/1/443 57/1/443 172/1/443
f 165/1/444 167/1/444 56/1/444
f 56/1/445 167/1/445 168/1/445
f 56/1/446 168/1/446 57/1/446
f 57/1/447 168/1/447 170/1/447
f 57/1/448 170/1/448 172/1/448
f 165/1/449 56/1/449 163/1/449
f 163/1/450 56/1/450 55/1/450
f 163/1/451 55/1/451 161/1/451
f 153/1/452 155/1/452 54/1/452
f 54/1/453 155/1/453 157/1/453
f 54/1/454 157/1/454 55/1/454
f 55/1/455 157/1/455 159/1/455
f 55/1/456 159/1/456 161/1/456
f 153/1/457 54/1/457 151/1/457
f 151/1/458 54/1/458 53/1/458
f 151/1/459 53/1/459 139/1/459
f 139/1/460 53/1/460 141/1/460
f 141/1/461 53/1/461 28/1/461
f 141/1/462 28/1/462 143/1/462
f 143/1/463 28/1/463 145/1/463
f 145/1/464 28/1/464 29/1/464
f 145/1/465 29/1/465 147/1/465
f 388/1/466 68/1/466 86/1/466
f 253/1/467 252/1/467 388/1/467
f 253/1/468 388/1/468 255/1/468
f 255/1/469 388/1/469 257/1/469
f 257/1/470 388/1/470 86/1/470
f 257/1/471 86/1/471 259/1/471
f 259/1/472 86/1/472 260/1/472
f 260/1/473 86/1/473 109/1/473
f 260/1/474 109/1/474 262/1/474
f 262/1/475 109/1/475 264/1/475
f 264/1/476 109/1/476 110/1/476
f 264/1/477 110/1/477 267/1/477
f 275/1/478 273/1/478 106/1/478
f 106/1/479 273/1/479 271/1/479
f 106/1/480 271/1/480 110/1/480
f 110/1/481 271/1/481 269/1/481
f 110/1/482 269/1/482 267/1/482
f 275/1/483 106/1/483 277/1/483
f 277/1/484 106/1/484 105/1/484
f 277/1/485 105/1/485 279/1/485
f 104/1/486 282/1/486 105/1/486
f 105/1/487 282/1/487 281/1/487
f 105/1/488 281/1/488 279/1/488
f 290/1/489 288/1/489 108/1/489
f 108/1/490 288/1/490 286/1/490
f 108/1/491 286/1/491 104/1/491
f 104/1/492 286/1/492 284/1/492
f 104/1/493 284/1/493 282/1/493
f 290/1/494 108/1/494 292/1/494
f 292/1/495 108/1/495 107/1/495
f 292/1/496 107/1/496 294/1/496
f 88/1/497 299/1/497 107/1/497
f 107/1/498 299/1/498 301/1/498
f 107/1/499 301/1/499 294/1/499
f 87/1/500 295/1/500 88/1/500
f 88/1/501 295/1/501 297/1/501
f 88/1/502 297/1/502 299/1/502
f 316/1/503 307/1/503 95/1/503
f 95/1/504 307/1/504 309/1/504
f 95/1/505 309/1/505 87/1/505
f 87/1/506 309/1/506 304/1/506
f 87/1/507 304/1/507 295/1/507
f 316/1/508 95/1/508 314/1/508
f 314/1/509 95/1/509 94/1/509
f 314/1/510 94/1/510 319/1/510
f 93/1/511 322/1/511 94/1/511
f 94/1/512 322/1/512 320/1/512
f 94/1/513 320/1/513 319/1/513
f 331/1/514 329/1/514 103/1/514
f 103/1/515 329/1/515 326/1/515
f 103/1/516 326/1/516 93/1/516
f 93/1/517 326/1/517 324/1/517
f 93/1/518 324/1/518 322/1/518
f 331/1/519 103/1/519 333/1/519
f 333/1/520 103/1/520 102/1/520
f 333/1/521 102/1/521 335/1/521
f 335/1/522 102/1/522 337/1/522
f 337/1/523 102/1/523 101/1/523
f 337/1/524 101/1/524 339/1/524
f 339/1/525 101/1/525 85/1/525
f 339/1/526 85/1/526 344/1/526
f 351/1/527 349/1/527 84/1/527
f 84/1/528 349/1/528 347/1/528
f 84/1/529 347/1/529 85/1/529
f 85/1/530 347/1/530 345/1/530
f 85/1/531 345/1/531 344/1/531
f 83/1/532 355/1/532 84/1/532
f 84/1/533 355/1/533 353/1/533
f 84/1/534 353/1/534 351/1/534
f 362/1/535 360/1/535 82/1/535
f 82/1/536 360/1/536 359/1/536
f 82/1/537 359/1/537 83/1/537
f 83/1/538 359/1/538 357/1/538
f 83/1/539 357/1/539 355/1/539
f 362/1/540 82/1/540 364/1/540
f 364/1/541 82/1/541 81/1/541
f 364/1/542 81/1/542 148/1/542
f 146/1/543 148/1/543 81/1/543
f 146/1/544 81/1/544 144/1/544
f 144/1/545 81/1/545 80/1/545
f 144/1/546 80/1/546 142/1/546
f 150/1/547 149/1/547 79/1/547
f 79/1/548 149/1/548 138/1/548
f 79/1/549 138/1/549 80/1/549
f 80/1/550 138/1/550 140/1/550
f 80/1/551 140/1/551 142/1/551
f 150/1/552 79/1/552 152/1/552
f 152/1/553 79/1/553 92/1/553
f 152/1/554 92/1/554 154/1/554
f 91/1/555 158/1/555 92/1/555
f 92/1/556 158/1/556 156/1/556
f 92/1/557 156/1/557 154/1/557
f 169/1/558 166/1/558 66/1/558
f 66/1/559 166/1/559 164/1/559
f 66/1/560 164/1/560 67/1/560
f 67/1/561 164/1/561 162/1/561
f 67/1/562 162/1/562 91/1/562
f 91/1/563 162/1/563 160/1/563
f 91/1/564 160/1/564 158/1/564
f 169/1/565 66/1/565 171/1/565
f 171/1/566 66/1/566 90/1/566
f 171/1/567 90/1/567 173/1/567
f 173/1/568 90/1/568 175/1/568
f 175/1/569 90/1/569 89/1/569
f 175/1/570 89/1/570 177/1/570
f 186/1/571 184/1/571 78/1/571
f 78/1/572 184/1/572 182/1/572
f 78/1/573 182/1/573 89/1/573
f 89/1/574 182/1/574 180/1/574
f 89/1/575 180/1/575 177/1/575
f 186/1/576 78/1/576 188/1/576
f 188/1/577 78/1/577 77/1/577
f 188/1/578 77/1/578 190/1/578
f 76/1/579 194/1/579 77/1/579
f 77/1/580 194/1/580 192/1/580
f 77/1/581 192/1/581 190/1/581
f 201/1/582 199/1/582 75/1/582
f 75/1/583 199/1/583 198/1/583
f 75/1/584 198/1/584 76/1/584
f 76/1/585 198/1/585 196/1/585
f 76/1/586 196/1/586 194/1/586
f 201/1/587 75/1/587 203/1/587
f 203/1/588 75/1/588 74/1/588
f 203/1/589 74/1/589 205/1/589
f 73/1/590 209/1/590 74/1/590
f 74/1/591 209/1/591 207/1/591
f 74/1/592 207/1/592 205/1/592
f 100/1/593 214/1/593 73/1/593
f 73/1/594 214/1/594 211/1/594
f 73/1/595 211/1/595 209/1/595
f 222/1/596 220/1/596 99/1/596
f 99/1/597 220/1/597 218/1/597
f 99/1/598 218/1/598 100/1/598
f 100/1/599 218/1/599 216/1/599
f 100/1/600 216/1/600 214/1/600
f 222/1/601 99/1/601 224/1/601
f 224/1/602 99/1/602 98/1/602
f 224/1/603 98/1/603 226/1/603
f 234/1/604 232/1/604 97/1/604
f 97/1/605 232/1/605 230/1/605
f 97/1/606 230/1/606 98/1/606
f 98/1/607 230/1/607 228/1/607
f 98/1/608 228/1/608 226/1/608
f 241/1/609 239/1/609 96/1/609
f 96/1/610 239/1/610 237/1/610
f 96/1/611 237/1/611 97/1/611
f 97/1/612 237/1/612 235/1/612
f 97/1/613 235/1/613 234/1/613
f 241/1/614 96/1/614 243/1/614
f 243/1/615 96/1/615 72/1/615
f 243/1/616 72/1/616 245/1/616
f 249/1/617 247/1/617 389/1/617
f 389/1/618 247/1/618 245/1/618
f 389/1/619 245/1/619 390/1/619
f 390/1/620 245/1/620 72/1/620
f 390/1/621 72/1/621 71/1/621
f 70/1/622 130/1/622 391/1/622
f 130/1/623 128/1/623 391/1/623
f 391/1/624 128/1/624 133/1/624
f 391/1/625 133/1/625 392/1/625
f 392/1/626 133/1/626 134/1/626
f 422/1/627 421/1/627 392/1/627 134/1/627
f 134/1/628 137/1/628 423/1/628 422/1/628
f 137/1/629 414/1/629 423/1/629
f 393/1/630 389/1/630 390/1/630
f 249/1/631 389/1/631 380/1/631
f 380/1/632 389/1/632 393/1/632
f 380/1/633 393/1/633 385/1/633
f 424/1/634 419/1/634 387/1/634 394/1/634
f 394/1/635 387/1/635 393/1/635
f 393/1/636 387/1/636 382/1/636
f 393/1/637 382/1/637 385/1/637
f 394/1/638 425/1/638 424/1/638
f 394/1/639 426/1/639 425/1/639
f 71/1/640 70/1/640 390/1/640
f 390/1/641 70/1/641 391/1/641
f 390/1/642 391/1/642 393/1/642
f 393/1/643 391/1/643 392/1/643
f 393/1/644 392/1/644 394/1/644
f 394/1/645 392/1/645 421/1/645 427/1/645
f 394/1/646 427/1/646 426/1/646
f 68/1/647 395/1/647 69/1/647
f 252/1/648 396/1/648 388/1/648
f 377/1/649 417/1/649 428/1/649
f 377/1/650 428/1/650 429/1/650 397/1/650
f 377/1/651 397/1/651 375/1/651
f 398/1/652 369/1/652 370/1/652
f 398/1/653 370/1/653 397/1/653
f 397/1/654 370/1/654 372/1/654
f 397/1/655 372/1/655 375/1/655
f 396/1/656 252/1/656 398/1/656
f 398/1/657 252/1/657 367/1/657
f 398/1/658 367/1/658 369/1/658
f 69/1/659 395/1/659 125/1/659
f 125/1/660 395/1/660 399/1/660
f 125/1/661 399/1/661 129/1/661
f 132/1/662 131/1/662 400/1/662
f 400/1/663 131/1/663 127/1/663
f 400/1/664 127/1/664 399/1/664
f 399/1/665 127/1/665 126/1/665
f 399/1/666 126/1/666 129/1/666
f 132/1/667 400/1/667 135/1/667
f 431/1/668 430/1/668 135/1/668 400/1/668
f 136/1/669 135/1/669 430/1/669 432/1/669
f 136/1/670 432/1/670 413/1/670
f 68/1/467 388/1/467 395/1/467
f 395/1/648 388/1/648 396/1/648
f 395/1/671 396/1/671 399/1/671
f 399/1/672 396/1/672 398/1/672
f 399/1/673 398/1/673 400/1/673
f 400/1/674 398/1/674 397/1/674
f 433/1/675 431/1/675 400/1/675 397/1/675
f 397/1/676 429/1/676 433/1/676
f 251/1/677 401/1/677 366/1/677
f 4/1/678 2/1/678 402/1/678
f 402/1/679 2/1/679 124/1/679
f 402/1/680 124/1/680 403/1/680
f 366/1/681 401/1/681 368/1/681
f 368/1/682 401/1/682 404/1/682
f 368/1/683 404/1/683 371/1/683
f 405/1/684 374/1/684 404/1/684
f 404/1/685 374/1/685 373/1/685
f 404/1/686 373/1/686 371/1/686
f 406/1/687 434/1/687 435/1/687
f 415/1/688 378/1/688 406/1/688 435/1/688
f 406/1/689 378/1/689 405/1/689
f 405/1/690 378/1/690 376/1/690
f 405/1/691 376/1/691 374/1/691
f 111/1/692 410/1/692 436/1/692
f 437/1/693 407/1/693 111/1/693 436/1/693
f 111/1/694 407/1/694 113/1/694
f 408/1/695 117/1/695 407/1/695
f 407/1/696 117/1/696 116/1/696
f 407/1/697 116/1/697 113/1/697
f 124/1/698 123/1/698 403/1/698
f 403/1/699 123/1/699 121/1/699
f 403/1/700 121/1/700 408/1/700
f 408/1/701 121/1/701 119/1/701
f 408/1/702 119/1/702 117/1/702
f 406/1/703 438/1/703 434/1/703
f 407/1/704 437/1/704 438/1/704 406/1/704
f 407/1/705 406/1/705 405/1/705
f 407/1/706 405/1/706 408/1/706
f 408/1/707 405/1/707 404/1/707
f 408/1/708 404/1/708 403/1/708
f 403/1/709 404/1/709 401/1/709
f 403/1/710 401/1/710 402/1/710
f 402/1/711 401/1/711 251/1/711
f 402/1/712 251/1/712 4/1/712
f 112/1/713 439/1/713 411/1/713
f 115/1/714 440/1/714 439/1/714 112/1/714
f 115/1/715 441/1/715 440/1/715
f 386/1/716 420/1/716 441/1/716 115/1/716
f 386/1/717 115/1/717 114/1/717
f 386/1/718 114/1/718 383/1/718
f 383/1/719 114/1/719 118/1/719
f 383/1/720 118/1/720 384/1/720
f 384/1/721 118/1/721 120/1/721
f 384/1/722 120/1/722 381/1/722
f 120/1/723 122/1/723 381/1/723
f 381/1/724 122/1/724 1/1/724
f 381/1/725 1/1/725 379/1/725
f 379/1/726 1/1/726 3/1/726
f 379/1/727 3/1/727 250/1/727
f 414/2/728 412/3/728 413/4/728 432/5/728 430/6/728 431/7/728 433/8/728 429/9/728 428/10/728 417/11/728 416/12/728 415/13/728 435/14/728 434/15/728 438/16/728 437/17/728 436/18/728 410/19/728 409/20/728 411/21/728 439/22/728 440/23/728 441/24/728 420/25/728 418/26/728 419/27/728 424/28/728 425/29/728 426/30/728 427/31/728 421/32/728 422/33/728 423/34/728
