# Blender 4.2.3 LTS
# www.blender.org
mtllib left_elbow_link.mtl
o left_elbow_link
v 0.070943 0.011762 -0.042931
v 0.070943 0.014062 -0.042488
v 0.072941 0.010871 -0.040048
v 0.072940 0.013941 -0.038918
v 0.070943 0.016935 -0.041630
v 0.070943 0.017871 -0.041269
v 0.072940 0.016855 -0.037482
v 0.070942 0.019764 -0.040401
v 0.072940 0.019472 -0.035840
v 0.070942 0.022262 -0.038935
v 0.072939 0.020525 -0.035070
v 0.070942 0.023176 -0.038293
v 0.072939 0.022051 -0.033826
v 0.070941 0.024587 -0.037169
v 0.070941 0.025201 -0.036625
v 0.072939 0.023385 -0.032595
v 0.070940 0.027234 -0.034530
v 0.072938 0.024386 -0.031569
v 0.070940 0.028520 -0.032920
v 0.072938 0.026378 -0.029205
v 0.070939 0.029029 -0.032204
v 0.070938 0.030583 -0.029653
v 0.072937 0.028221 -0.026496
v 0.070938 0.031118 -0.028610
v 0.070937 0.031929 -0.026796
v 0.072936 0.029756 -0.023631
v 0.070937 0.032647 -0.024848
v 0.070936 0.032981 -0.023783
v 0.072935 0.030983 -0.020620
v 0.070935 0.033745 -0.020627
v 0.072935 0.031245 -0.019832
v 0.069191 0.007889 0.024139
v 0.069827 0.008636 0.023288
v 0.052753 0.007864 0.024104
v 0.052022 0.008594 0.023320
v 0.051847 0.008848 0.023120
v 0.069983 0.008854 0.023072
v 0.051393 0.009844 0.022551
v 0.070923 0.011762 0.021379
v 0.064593 0.011762 0.021584
v 0.070801 0.010677 0.021770
v 0.058000 0.011762 0.021797
v 0.070241 0.009267 0.022700
v 0.070719 0.010368 0.021931
v 0.051286 0.010243 0.022392
v 0.051227 0.010543 0.022292
v 0.051134 0.011526 0.022059
v 0.051131 0.011762 0.022020
v 0.069071 0.007733 0.024296
v 0.068977 0.007541 0.024418
v 0.053155 0.007057 0.024515
v 0.068897 0.007102 0.024519
v 0.053123 0.007307 0.024483
v 0.068900 0.007192 0.024515
v 0.053037 0.007529 0.024396
v 0.068948 0.007456 0.024454
v 0.068897 0.004411 0.024519
v 0.053155 0.004389 0.024515
v 0.068897 0.001720 0.024519
v 0.053155 0.001720 0.024515
v 0.068897 -0.003569 0.024519
v 0.053155 -0.003480 0.024515
v 0.050637 0.015863 -0.042315
v 0.051027 0.013876 -0.042620
v 0.051151 0.011762 -0.042937
v 0.050244 0.017035 -0.042130
v 0.072924 0.010928 0.019126
v 0.072924 0.011910 0.018802
v 0.070926 0.015232 0.020422
v 0.072924 0.014867 0.017598
v 0.070929 0.018470 0.019260
v 0.072925 0.017704 0.016084
v 0.070931 0.020579 0.018312
v 0.072925 0.020332 0.014312
v 0.070933 0.023023 0.016950
v 0.070933 0.025245 0.015373
v 0.072926 0.023561 0.011517
v 0.070933 0.026502 0.014282
v 0.070933 0.027004 0.013794
v 0.072926 0.025009 0.009976
v 0.070933 0.028794 0.011745
v 0.072927 0.026038 0.008740
v 0.070931 0.030316 0.009465
v 0.072928 0.028163 0.005686
v 0.070930 0.031446 0.007264
v 0.072928 0.028698 0.004775
v 0.070929 0.032609 0.004226
v 0.072929 0.029907 0.002399
v 0.070929 0.033517 0.000831
v 0.072930 0.031245 -0.001072
v 0.070929 0.033745 -0.000278
v 0.072931 0.032333 -0.005706
v 0.070931 0.034387 -0.004523
v 0.070931 0.034592 -0.006834
v 0.072932 0.032699 -0.010452
v 0.070933 0.034710 -0.011126
v 0.070933 0.034616 -0.013700
v 0.072934 0.032333 -0.015198
v 0.070934 0.034471 -0.015563
v 0.070934 0.034187 -0.017972
v 0.064040 0.032661 0.004109
v 0.064122 0.031178 0.007979
v 0.063959 0.033745 -0.000280
v 0.064285 0.026859 0.014250
v 0.064204 0.029256 0.011351
v 0.064366 0.023949 0.016699
v 0.064444 0.020487 0.018722
v 0.064520 0.016438 0.020342
v 0.070956 0.006623 0.022231
v 0.070006 0.001720 0.023420
v 0.072924 0.007829 0.019918
v 0.072923 0.004805 0.020373
v 0.072923 0.001720 0.020526
v 0.072924 0.002326 0.019331
v 0.072924 -0.004431 0.018643
v 0.072923 -0.001502 0.020358
v 0.072925 0.015405 0.016025
v 0.072924 0.009059 0.018442
v 0.072923 -0.003028 0.020160
v 0.072924 -0.004714 0.019851
v 0.072925 -0.010847 0.016415
v 0.072924 -0.007890 0.018998
v 0.072939 0.017599 -0.034590
v 0.072940 0.011485 -0.037548
v 0.072940 -0.008521 -0.037250
v 0.072941 -0.007967 -0.039877
v 0.072940 -0.001936 -0.038915
v 0.072941 -0.004750 -0.040748
v 0.072939 -0.014544 -0.034113
v 0.072940 -0.013244 -0.037577
v 0.072941 -0.008613 -0.039657
v 0.072927 0.025610 0.007200
v 0.072941 0.007680 -0.040852
v 0.072940 0.004854 -0.039016
v 0.072941 0.006248 -0.041098
v 0.072941 -0.003024 -0.041065
v 0.072941 -0.001495 -0.041263
v 0.072941 0.001971 -0.039166
v 0.072941 0.001720 -0.041431
v 0.072941 0.004728 -0.041284
v 0.072924 -0.009500 0.018424
v 0.072925 -0.014069 0.016201
v 0.072926 -0.016576 0.012768
v 0.072925 -0.018191 0.013281
v 0.072927 -0.021309 0.007898
v 0.072926 0.021023 0.012209
v 0.072929 0.028918 0.001269
v 0.072938 0.022866 -0.030303
v 0.072936 0.027002 -0.024916
v 0.072936 -0.023655 -0.024163
v 0.072937 -0.024251 -0.027339
v 0.072938 -0.019681 -0.029670
v 0.072938 -0.021161 -0.031337
v 0.072939 -0.017460 -0.034779
v 0.072933 0.031063 -0.012051
v 0.072935 0.029784 -0.018721
v 0.072931 0.030769 -0.005266
v 0.072932 -0.027332 -0.011183
v 0.072933 -0.029146 -0.013097
v 0.072934 -0.026252 -0.017888
v 0.072934 -0.028304 -0.018081
v 0.072936 -0.026660 -0.022874
v 0.072926 -0.021319 0.010259
v 0.072927 -0.024384 0.006228
v 0.072929 -0.024792 0.002067
v 0.072929 -0.026752 0.001759
v 0.072931 -0.026836 -0.004409
v 0.072930 -0.028363 -0.003058
v 0.072932 -0.029166 -0.008049
v 0.051384 0.001720 0.022756
v 0.052139 0.023469 0.018046
v 0.052078 0.026639 0.015224
v 0.051013 0.014056 0.021654
v 0.051994 0.015728 0.021246
v 0.052099 0.019798 0.020029
v 0.050079 0.017999 0.020932
v 0.050211 0.017651 0.020999
v 0.050642 0.016217 0.021270
v 0.055966 0.031407 0.007574
v 0.056270 0.026634 0.014909
v 0.056320 0.023340 0.017679
v 0.056297 0.019576 0.019695
v 0.056234 0.015500 0.021049
v 0.051933 0.029270 0.011751
v 0.056148 0.029341 0.011482
v 0.058557 0.019215 -0.041272
v 0.051848 0.020137 -0.041340
v 0.051278 0.015962 -0.042282
v 0.057552 0.011762 -0.042935
v 0.057988 0.014992 -0.042379
v 0.070313 0.011762 -0.042931
v 0.059554 0.026462 -0.036660
v 0.059926 0.029194 -0.033038
v 0.059335 0.024857 -0.038174
v 0.059094 0.023102 -0.039444
v 0.060235 0.031307 -0.028865
v 0.060514 0.032855 -0.024394
v 0.058832 0.021214 -0.040469
v 0.052381 0.023933 -0.039636
v 0.052615 0.025614 -0.038368
v 0.052823 0.027127 -0.036813
v 0.053009 0.028472 -0.035018
v 0.053175 0.029655 -0.033031
v 0.053472 0.031578 -0.028660
v 0.051266 0.010573 -0.043222
v 0.051162 0.011400 -0.043001
v 0.051359 0.010170 -0.043368
v 0.051425 0.009942 -0.043463
v 0.051904 0.008859 -0.044069
v 0.052077 0.008594 -0.044268
v 0.052773 0.007864 -0.045020
v 0.053076 0.007493 -0.045331
v 0.053151 0.007276 -0.045406
v 0.053175 0.001720 -0.045430
v 0.053175 0.004389 -0.045430
v 0.053175 0.007058 -0.045430
v 0.068917 0.001720 -0.045426
v 0.068917 0.004411 -0.045426
v 0.070975 0.006577 -0.043136
v 0.071081 0.009167 -0.042833
v 0.070723 0.010408 -0.043288
v 0.070798 0.010668 -0.043196
v 0.068917 0.007102 -0.045426
v 0.068949 0.007380 -0.045386
v 0.068996 0.007539 -0.045325
v 0.069055 0.007671 -0.045249
v 0.069211 0.007889 -0.045045
v 0.069969 0.008844 -0.044134
v 0.070213 0.009244 -0.043863
v 0.068917 -0.003569 -0.045426
v 0.053175 -0.003480 -0.045430
v 0.051901 -0.005183 -0.043718
v 0.051470 -0.006115 -0.042946
v 0.051161 -0.006030 -0.042616
v 0.051236 -0.007187 -0.042339
v 0.051107 -0.003342 -0.043101
v 0.053172 -0.003561 -0.045427
v 0.053124 -0.003816 -0.045372
v 0.053009 -0.004075 -0.045233
v 0.052719 -0.004376 -0.044866
v 0.052058 -0.004965 -0.043959
v 0.051149 -0.008593 -0.041783
v 0.069282 -0.004426 -0.044943
v 0.070082 -0.005303 -0.043789
v 0.070378 -0.005813 -0.043302
v 0.070769 -0.006932 -0.042511
v 0.070832 -0.007246 -0.042339
v 0.070941 -0.008593 -0.041777
v 0.068986 -0.003978 -0.045338
v 0.069115 -0.004240 -0.045168
v 0.070925 -0.018967 0.015231
v 0.070926 -0.019533 0.014764
v 0.070937 -0.026627 -0.027305
v 0.070937 -0.026248 -0.027928
v 0.070941 -0.014723 -0.039040
v 0.070941 -0.014197 -0.039336
v 0.070942 -0.011733 -0.040562
v 0.070940 -0.017046 -0.037571
v 0.070940 -0.016142 -0.038175
v 0.070939 -0.023664 -0.031505
v 0.070940 -0.022620 -0.032704
v 0.070941 -0.021395 -0.033974
v 0.070940 -0.018887 -0.036200
v 0.070938 -0.024311 -0.030700
v 0.070937 -0.027878 -0.024997
v 0.070938 -0.028477 -0.023709
v 0.070934 -0.031069 -0.013984
v 0.070934 -0.031024 -0.014380
v 0.070934 -0.030456 -0.017685
v 0.070936 -0.029546 -0.020942
v 0.070937 -0.029202 -0.021916
v 0.070932 -0.031163 -0.007945
v 0.070934 -0.031255 -0.010001
v 0.070934 -0.031253 -0.011035
v 0.070931 -0.031036 -0.006627
v 0.070930 -0.030478 -0.003320
v 0.070930 -0.028612 0.002491
v 0.070930 -0.029247 0.000888
v 0.070930 -0.029587 -0.000087
v 0.070929 -0.027923 0.004000
v 0.070927 -0.026627 0.006400
v 0.070927 -0.022389 0.012049
v 0.070927 -0.023747 0.010499
v 0.070927 -0.024391 0.009691
v 0.070927 -0.026302 0.006936
v 0.070927 -0.021468 0.012997
v 0.070924 -0.017046 0.016666
v 0.070924 -0.016252 0.017199
v 0.070924 -0.015377 0.017748
v 0.070925 -0.012414 0.019343
v 0.070924 -0.009313 0.020626
v 0.070923 -0.008593 0.020872
v 0.069997 -0.005209 0.022985
v 0.069262 -0.004426 0.024037
v 0.052699 -0.004376 0.023950
v 0.052038 -0.004966 0.023041
v 0.051881 -0.005185 0.022800
v 0.070362 -0.005819 0.022391
v 0.051451 -0.006117 0.022028
v 0.051217 -0.007187 0.021423
v 0.070752 -0.006942 0.021600
v 0.070884 -0.007770 0.021185
v 0.051131 -0.008593 0.020866
v 0.068922 -0.003819 0.024487
v 0.053135 -0.003691 0.024492
v 0.053055 -0.003949 0.024397
v 0.053025 -0.004011 0.024361
v 0.068997 -0.004057 0.024392
v 0.052882 -0.004221 0.024183
v 0.069123 -0.004279 0.024224
v 0.051143 -0.006034 0.021699
v 0.051084 -0.003359 0.022184
v 0.070901 -0.006035 0.021710
v 0.070953 -0.003359 0.022187
v 0.051147 -0.017046 -0.037577
v 0.051144 -0.026627 -0.027311
v 0.051132 -0.017046 0.016660
v 0.051148 -0.010842 -0.040951
v 0.051131 -0.010842 0.020034
v 0.051133 -0.022389 0.012043
v 0.051135 -0.026627 0.006394
v 0.051137 -0.029565 -0.000027
v 0.051139 -0.031069 -0.006927
v 0.051141 -0.031069 -0.013989
v 0.051143 -0.029565 -0.020889
v 0.051146 -0.022389 -0.032960
v 0.070974 -0.003353 -0.043090
v 0.070926 -0.006033 -0.042611
v 0.051131 -0.010842 0.020034
v 0.051132 -0.017046 0.016660
v 0.051133 -0.022389 0.012043
v 0.051135 -0.026627 0.006394
v 0.051137 -0.029565 -0.000027
v 0.051139 -0.031069 -0.006927
v 0.051141 -0.031069 -0.013989
v 0.051143 -0.029565 -0.020889
v 0.051144 -0.026627 -0.027311
v 0.051146 -0.022389 -0.032960
v 0.051147 -0.017046 -0.037577
v 0.051148 -0.010842 -0.040951
v 0.099917 -0.005277 -0.038274
v 0.099917 -0.008521 -0.037250
v 0.099917 -0.011624 -0.035857
v 0.099917 -0.014544 -0.034113
v 0.099917 -0.017242 -0.032041
v 0.099917 -0.019681 -0.029670
v 0.099917 -0.021828 -0.027032
v 0.099917 -0.023655 -0.024163
v 0.099917 -0.025136 -0.021101
v 0.099917 -0.026252 -0.017888
v 0.099917 -0.026987 -0.014567
v 0.099917 -0.027332 -0.011183
v 0.099917 -0.027281 -0.007782
v 0.099917 -0.026836 -0.004409
v 0.099917 -0.026003 -0.001112
v 0.099917 -0.024792 0.002067
v 0.099917 -0.023220 0.005084
v 0.099917 -0.021309 0.007898
v 0.099917 -0.019084 0.010470
v 0.099917 -0.016576 0.012768
v 0.099917 -0.013817 0.014758
v 0.099917 -0.010847 0.016415
v 0.099917 -0.007704 0.017716
v 0.099917 -0.004431 0.018643
v 0.099917 -0.001073 0.019183
v 0.099917 0.002326 0.019331
v 0.099917 0.005718 0.019082
v 0.099917 0.009059 0.018442
v 0.099917 0.012302 0.017418
v 0.099917 0.015405 0.016025
v 0.099917 0.018325 0.014280
v 0.099917 0.021023 0.012209
v 0.099917 0.023463 0.009838
v 0.099917 0.025610 0.007200
v 0.099917 0.027437 0.004331
v 0.099917 0.028918 0.001269
v 0.099917 0.030034 -0.001945
v 0.099917 0.030769 -0.005266
v 0.099917 0.031113 -0.008650
v 0.099917 0.031063 -0.012051
v 0.099917 0.030618 -0.015423
v 0.099917 0.029784 -0.018721
v 0.099917 0.028574 -0.021899
v 0.099917 0.027002 -0.024916
v 0.099917 0.025091 -0.027730
v 0.099917 0.022866 -0.030303
v 0.099917 0.020357 -0.032600
v 0.099917 0.017599 -0.034590
v 0.099917 0.014628 -0.036247
v 0.099917 0.011485 -0.037548
v 0.099917 0.008213 -0.038475
v 0.099917 0.004854 -0.039016
v 0.099917 0.001456 -0.039163
v 0.099917 -0.001936 -0.038915
v 0.102000 0.002185 0.010082
v 0.102000 -0.003461 0.009355
v 0.102000 0.001888 -0.009916
v 0.102000 0.017196 0.002955
v 0.102000 0.012950 0.006746
v 0.102000 0.007807 0.009188
v 0.102000 0.021640 -0.013056
v 0.102000 0.021724 -0.007364
v 0.102000 0.020202 -0.001879
v 0.102000 0.012449 -0.026900
v 0.102000 0.016807 -0.023237
v 0.102000 0.019955 -0.018494
v 0.102000 -0.004031 -0.029020
v 0.102000 0.001591 -0.029914
v 0.102000 0.007237 -0.029188
v 0.102000 -0.016426 -0.017953
v 0.102000 -0.013420 -0.022787
v 0.102000 -0.009174 -0.026579
v 0.102000 -0.016179 -0.001338
v 0.102000 -0.017864 -0.006776
v 0.102000 -0.017949 -0.012468
v 0.102000 -0.008674 0.007068
v 0.102000 -0.013031 0.003404
v 0.100917 0.001591 -0.029914
v 0.100917 -0.004031 -0.029020
v 0.100917 -0.009174 -0.026579
v 0.100917 -0.013420 -0.022787
v 0.100917 -0.016426 -0.017953
v 0.100917 -0.017949 -0.012468
v 0.100917 -0.017864 -0.006776
v 0.100917 -0.016179 -0.001338
v 0.100917 -0.013031 0.003404
v 0.100917 -0.008674 0.007068
v 0.100917 -0.003461 0.009355
v 0.100917 0.002185 0.010082
v 0.100917 0.007807 0.009188
v 0.100917 0.012950 0.006746
v 0.100917 0.017196 0.002955
v 0.100917 0.020202 -0.001879
v 0.100917 0.021724 -0.007364
v 0.100917 0.021640 -0.013056
v 0.100917 0.019955 -0.018494
v 0.100917 0.016807 -0.023237
v 0.100917 0.012449 -0.026900
v 0.100917 0.007237 -0.029188
v 0.100917 0.005587 0.018091
v 0.100917 -0.016587 -0.031285
v 0.100917 -0.011161 -0.034970
v 0.100917 -0.005032 -0.037305
v 0.100917 0.001471 -0.038163
v 0.100917 0.007997 -0.037498
v 0.100917 0.029072 -0.002217
v 0.100917 0.026563 0.003844
v 0.100917 0.022725 0.009163
v 0.100917 0.017764 0.013453
v 0.100917 0.011946 0.016484
v 0.100917 0.002311 0.018331
v 0.100917 -0.000971 0.018188
v 0.100917 -0.007376 0.016771
v 0.100917 -0.013280 0.013915
v 0.100917 -0.018367 0.009773
v 0.100917 0.014193 -0.035347
v 0.100917 0.019726 -0.031824
v 0.100917 0.024298 -0.027121
v 0.100917 0.027661 -0.021490
v 0.100917 0.029636 -0.015235
v 0.100917 0.030114 -0.008693
v 0.100917 -0.022362 0.004571
v 0.100917 -0.025049 -0.001413
v 0.100917 -0.026284 -0.007855
v 0.100917 -0.026000 -0.014408
v 0.100917 -0.024212 -0.020719
v 0.100917 -0.021017 -0.026447
v 0.050000 0.014945 -0.041673
v 0.050000 0.013698 -0.041629
v 0.050000 0.012714 -0.041721
v 0.050000 0.011761 -0.041787
v 0.050000 0.015650 -0.041734
v 0.050000 0.015712 -0.041745
v 0.050000 0.016798 -0.041888
v 0.050000 0.016904 -0.041911
v 0.050000 0.017518 -0.042048
v 0.050000 0.033762 -0.020529
v 0.050000 0.033745 -0.020633
v 0.050000 0.034565 -0.014400
v 0.050000 0.034576 -0.014305
v 0.050000 0.034582 -0.014232
v 0.050000 0.034585 -0.014131
v 0.050000 0.034714 -0.010485
v 0.050000 0.034709 -0.010316
v 0.050000 0.034581 -0.006671
v 0.050000 0.034572 -0.006579
v 0.050000 0.033770 -0.000452
v 0.050000 0.033745 -0.000284
v 0.050000 0.011761 0.020889
v 0.050000 0.011659 0.020905
v 0.050000 0.006775 0.021329
v 0.050000 0.006640 0.021338
v 0.050000 0.006128 0.021356
v 0.050000 0.006071 0.021356
v 0.050000 0.006295 0.021354
v 0.050000 0.007354 0.021280
v 0.050000 0.007592 0.021255
v 0.050000 0.011149 0.020976
v 0.050000 0.011256 0.020962
v 0.050000 0.002873 0.021383
v 0.050000 0.001720 0.021383
v 0.050000 0.025198 0.016808
v 0.050000 0.026758 0.015415
v 0.050000 0.020130 0.020323
v 0.050000 0.019739 0.020446
v 0.050000 0.018160 0.020901
v 0.050000 0.022190 0.019296
v 0.050000 0.020519 0.020194
v 0.050000 0.020151 0.020316
v 0.050000 0.032929 0.003153
v 0.050000 0.032748 0.003885
v 0.050000 0.032332 0.005031
v 0.050000 0.031327 0.007922
v 0.050000 0.028117 0.013610
v 0.050000 0.029300 0.011882
v 0.050000 0.030150 0.010149
v 0.050000 0.022872 0.018939
v 0.050000 0.023726 0.018325
v 0.050000 0.012811 0.020820
v 0.050000 0.013903 0.020699
v 0.050000 0.014700 0.020789
v 0.050000 0.016039 0.020743
v 0.050000 0.016375 0.020824
v 0.050000 0.017575 0.020850
v 0.050000 0.017956 0.020875
v 0.050000 0.018008 0.020891
v 0.050000 0.019052 -0.041725
v 0.050000 0.020076 -0.041484
v 0.050000 0.033206 -0.023170
v 0.050000 0.033068 -0.023728
v 0.050000 0.032715 -0.024748
v 0.050000 0.032408 -0.025917
v 0.050000 0.020383 -0.041402
v 0.050000 0.020601 -0.041335
v 0.050000 0.021315 -0.041112
v 0.050000 0.022522 -0.040625
v 0.050000 0.023685 -0.040000
v 0.050000 0.024281 -0.039648
v 0.050000 0.025354 -0.038856
v 0.050000 0.025946 -0.038356
v 0.050000 0.026861 -0.037430
v 0.050000 0.027429 -0.036768
v 0.050000 0.028203 -0.035748
v 0.050000 0.028735 -0.034936
v 0.050000 0.029385 -0.033856
v 0.050000 0.029875 -0.032910
v 0.050000 0.030865 -0.030678
v 0.050000 0.031715 -0.028461
v 0.050000 0.009279 -0.042037
v 0.050000 0.008870 -0.042091
v 0.050000 0.011364 -0.041846
v 0.050000 0.011518 -0.041823
v 0.050000 0.008666 -0.042115
v 0.050000 0.008554 -0.042128
v 0.050000 0.006675 -0.042187
v 0.050000 0.006001 -0.042241
v 0.050000 0.005848 -0.042251
v 0.050000 0.005461 -0.042269
v 0.050000 0.005323 -0.042271
v 0.050000 0.005266 -0.042271
v 0.050000 0.002285 -0.042282
v 0.050000 0.001720 -0.042282
v 0.050000 0.004652 -0.042271
v 0.050000 0.005216 -0.042271
v 0.050000 -0.003162 -0.041954
v 0.050000 -0.004138 -0.041775
v 0.050000 -0.002298 -0.042066
v 0.050000 -0.000815 -0.042150
v 0.050000 -0.001915 -0.042150
v 0.050000 -0.005292 -0.041542
v 0.050000 -0.005744 -0.041401
v 0.050000 -0.007649 -0.040886
v 0.050000 -0.008233 -0.040693
v 0.050000 -0.000321 0.021273
v 0.050000 -0.002009 0.021242
v 0.050000 -0.002385 0.021161
v 0.050000 -0.003173 0.021058
v 0.050000 -0.004324 0.020821
v 0.050000 -0.005362 0.020628
v 0.050000 -0.005825 0.020484
v 0.050000 -0.007642 0.019989
v 0.050000 -0.008239 0.019792
v 0.050000 -0.009446 -0.040244
v 0.050000 -0.009216 0.019430
v 0.050000 -0.010411 0.018988
v 0.050000 -0.013708 0.017194
v 0.050000 -0.016402 0.015729
v 0.050000 -0.019244 0.013272
v 0.050000 -0.021561 0.011270
v 0.050000 -0.023818 0.008260
v 0.050000 -0.025652 0.005814
v 0.050000 -0.027218 0.002387
v 0.050000 -0.028487 -0.000387
v 0.050000 -0.029289 -0.004075
v 0.050000 -0.029937 -0.007050
v 0.050000 -0.029936 -0.010830
v 0.050000 -0.029935 -0.013868
v 0.050000 -0.029127 -0.017567
v 0.050000 -0.028481 -0.020528
v 0.050000 -0.026902 -0.023977
v 0.050000 -0.025644 -0.026727
v 0.050000 -0.023363 -0.029765
v 0.050000 -0.021551 -0.032179
v 0.050000 -0.018673 -0.034664
v 0.050000 -0.016393 -0.036634
v 0.050000 -0.013048 -0.038452
v 0.050000 -0.010404 -0.039890
vn 0.8323 0.1049 -0.5444
vn 0.8615 0.1753 -0.4765
vn 0.8658 0.1432 -0.4795
vn 0.8749 0.1743 -0.4518
vn 0.8875 0.2037 -0.4134
vn 0.8884 0.1917 -0.4171
vn 0.8955 0.2367 -0.3768
vn 0.8983 0.2226 -0.3789
vn 0.9009 0.2563 -0.3504
vn 0.9016 0.2487 -0.3541
vn 0.9020 0.2727 -0.3346
vn 0.9029 0.2678 -0.3362
vn 0.9024 0.2862 -0.3221
vn 0.9028 0.2917 -0.3161
vn 0.8994 0.3136 -0.3045
vn 0.8992 0.3133 -0.3054
vn 0.8978 0.3441 -0.2748
vn 0.8960 0.3395 -0.2861
vn 0.8898 0.3721 -0.2641
vn 0.8862 0.3958 -0.2408
vn 0.8815 0.3906 -0.2655
vn 0.8709 0.4374 -0.2240
vn 0.8688 0.4523 -0.2017
vn 0.8626 0.4460 -0.2386
vn 0.8431 0.5046 -0.1860
vn 0.8422 0.5147 -0.1606
vn 0.8358 0.5086 -0.2070
vn 0.8021 0.5805 -0.1403
vn 0.7952 0.5753 -0.1913
vn -0.0025 0.7525 0.6586
vn -0.0005 0.7316 0.6817
vn -0.0000 0.6186 0.7857
vn 0.0016 0.7032 0.7109
vn 0.0021 0.4968 0.8679
vn 0.0305 0.3358 0.9414
vn 0.0304 0.3355 0.9416
vn 0.0144 0.6642 0.7474
vn 0.0109 0.5694 0.8220
vn 0.0196 0.3740 0.9272
vn 0.0181 0.4582 0.8887
vn 0.0231 0.3199 0.9472
vn 0.0240 0.2589 0.9656
vn 0.0290 0.2339 0.9718
vn 0.0320 0.1610 0.9864
vn -0.0026 0.7107 0.7035
vn -0.0056 0.5382 0.8428
vn -0.0006 0.1265 0.9920
vn -0.0017 0.0454 0.9990
vn -0.0015 0.6563 0.7545
vn -0.0015 0.3635 0.9316
vn -0.0021 0.3964 0.9181
vn -0.0004 0.2235 0.9747
vn -0.0003 -0.0000 1.0000
vn -0.6917 -0.0252 -0.7217
vn -0.6985 0.0661 -0.7125
vn -0.7063 0.0488 -0.7062
vn -0.6609 -0.0646 -0.7477
vn -0.6413 -0.1412 -0.7542
vn -0.6504 -0.0992 -0.7531
vn -0.6089 -0.1649 -0.7759
vn -0.6047 -0.1743 -0.7771
vn 0.7682 0.2003 0.6080
vn 0.7738 0.1682 0.6106
vn 0.8093 0.2215 0.5440
vn 0.8122 0.1964 0.5493
vn 0.8457 0.2510 0.4709
vn 0.8494 0.2160 0.4815
vn 0.8661 0.2795 0.4145
vn 0.8757 0.2345 0.4221
vn 0.8810 0.2739 0.3859
vn 0.8959 0.2906 0.3361
vn 0.8958 0.2914 0.3357
vn 0.8965 0.3086 0.3179
vn 0.8980 0.3206 0.3013
vn 0.8957 0.3349 0.2926
vn 0.8967 0.3401 0.2833
vn 0.8931 0.3744 0.2495
vn 0.8913 0.3720 0.2591
vn 0.8767 0.4281 0.2194
vn 0.8761 0.4158 0.2442
vn 0.8657 0.4676 0.1787
vn 0.8507 0.4683 0.2387
vn 0.8389 0.5258 0.1406
vn 0.8141 0.5418 0.2091
vn 0.7935 0.5962 0.1226
vn 0.7942 0.5915 0.1391
vn 0.7410 0.6639 0.1006
vn 0.7323 0.6783 0.0606
vn 0.7346 0.6765 0.0523
vn 0.7058 0.7082 0.0198
vn 0.7130 0.7007 -0.0253
vn 0.7339 0.6773 -0.0519
vn 0.7337 0.6774 -0.0523
vn 0.7347 0.6737 -0.0794
vn 0.7734 0.6172 -0.1448
vn 0.7924 0.6018 -0.1001
vn 0.0012 0.9336 0.3582
vn 0.0033 0.9708 0.2397
vn -0.0096 0.9660 0.2584
vn -0.0001 0.9795 0.2014
vn -0.0159 0.8316 0.5551
vn 0.0129 0.8895 0.4567
vn 0.0008 0.9339 0.3575
vn 0.0340 0.6963 0.7170
vn 0.0287 0.7528 0.6576
vn 0.0156 0.7708 0.6369
vn 0.0307 0.8687 0.4944
vn 0.0315 0.6552 0.7548
vn 0.0272 0.6441 0.7645
vn 0.0504 0.5780 0.8145
vn 0.0380 0.5050 0.8623
vn 0.0483 0.4859 0.8727
vn 0.0313 0.2570 0.9659
vn 0.0380 0.2656 0.9633
vn 0.0584 0.3718 0.9265
vn 0.0270 0.3376 0.9409
vn 0.0518 0.4094 0.9109
vn -0.0000 0.9864 -0.1641
vn -0.0043 0.9915 -0.1299
vn -0.0021 0.9931 -0.1173
vn 0.0003 0.9970 -0.0778
vn -0.0000 0.9888 0.1495
vn -0.0007 0.9993 -0.0362
vn -0.0009 0.9994 -0.0354
vn 0.0010 0.9996 0.0276
vn -0.0005 0.9994 0.0355
vn 0.0001 0.9961 0.0887
vn -0.0040 0.9915 0.1298
vn -0.0000 0.9887 0.1497
vn 0.8490 0.0917 0.5204
vn 0.7979 0.0981 0.5947
vn 0.7756 0.0991 0.6234
vn 0.7656 0.0941 0.6364
vn 0.7628 0.0915 0.6401
vn 0.7594 0.0872 0.6447
vn 0.7556 0.0722 0.6511
vn 0.7510 0.0506 0.6583
vn 0.7481 0.0344 0.6627
vn 0.7453 0.0176 0.6665
vn 0.7436 0.0032 0.6686
vn 0.7450 0.0174 0.6668
vn 0.7039 -0.0000 0.7103
vn 0.7667 0.1590 0.6221
vn 0.7254 0.1171 0.6783
vn 0.7310 0.1013 0.6748
vn 0.7035 0.0358 0.7098
vn 0.7039 0.0352 0.7095
vn 1.0000 -0.0000 0.0003
vn 1.0000 -0.0000 0.0006
vn 1.0000 0.0001 0.0007
vn 1.0000 -0.0000 -0.0000
vn 1.0000 -0.0000 0.0004
vn 1.0000 -0.0001 0.0008
vn 1.0000 0.0006 0.0001
vn 1.0000 0.0001 -0.0000
vn 1.0000 -0.0001 0.0006
vn 1.0000 -0.0002 0.0004
vn 1.0000 0.0001 0.0002
vn 1.0000 0.0002 0.0004
vn 1.0000 0.0001 0.0004
vn 1.0000 -0.0002 0.0003
vn 1.0000 -0.0001 0.0004
vn 1.0000 0.0003 -0.0000
vn 1.0000 -0.0000 0.0005
vn 1.0000 0.0001 0.0005
vn 1.0000 0.0002 0.0005
vn 1.0000 -0.0003 0.0003
vn 1.0000 -0.0002 0.0005
vn 1.0000 -0.0003 0.0004
vn 1.0000 -0.0000 0.0002
vn 1.0000 -0.0001 0.0003
vn 1.0000 -0.0002 0.0001
vn 1.0000 -0.0001 0.0001
vn 1.0000 -0.0001 0.0002
vn 1.0000 0.0001 0.0003
vn 1.0000 0.0002 0.0003
vn 1.0000 0.0003 0.0002
vn 1.0000 0.0003 0.0003
vn 1.0000 -0.0002 0.0002
vn 1.0000 -0.0003 0.0005
vn 1.0000 -0.0001 0.0005
vn 1.0000 -0.0004 0.0003
vn -0.7033 0.1061 0.7029
vn -0.7215 0.0460 0.6908
vn -0.7076 0.0006 0.7066
vn -0.7157 0.0331 0.6977
vn -0.7156 0.0331 0.6977
vn -0.7091 0.0086 0.7050
vn -0.7215 -0.0082 0.6924
vn -0.7278 0.0583 0.6833
vn -0.7375 0.0696 0.6718
vn -0.7217 0.0541 0.6901
vn -0.7062 0.0942 0.7018
vn -0.7040 0.1004 0.7031
vn -0.7085 0.0060 0.7057
vn -0.7044 -0.0002 0.7098
vn -0.7045 -0.0001 0.7097
vn -0.7045 -0.0000 0.7097
vn 0.1061 0.6623 0.7417
vn 0.1295 0.1627 0.9781
vn 0.1780 0.2945 0.9389
vn 0.1800 0.2724 0.9452
vn 0.1948 0.2565 0.9467
vn 0.1692 0.2783 0.9455
vn 0.0940 0.2121 0.9727
vn 0.0856 0.1885 0.9783
vn 0.2258 0.4611 0.8581
vn 0.1798 0.3100 0.9336
vn 0.1787 0.3014 0.9366
vn 0.0022 0.9708 0.2398
vn -0.0001 0.9730 0.2310
vn 0.0085 0.9338 0.3577
vn 0.0004 0.9400 0.3411
vn 0.0065 0.9445 0.3283
vn 0.0311 0.7705 0.6367
vn 0.0448 0.6434 0.7643
vn 0.0443 0.6440 0.7638
vn 0.0715 0.4706 0.8794
vn 0.0465 0.5048 0.8620
vn 0.0780 0.3132 0.9465
vn 0.0371 0.3718 0.9276
vn 0.0579 0.2221 0.9733
vn 0.0312 0.2570 0.9659
vn 0.0512 0.8238 0.5645
vn 0.1005 0.7950 0.5982
vn 0.0248 0.7972 0.6032
vn 0.0437 0.8970 0.4399
vn 0.0154 0.8840 0.4672
vn 0.0149 0.8843 0.4668
vn 0.0016 0.8841 0.4673
vn 0.0319 0.1848 0.9823
vn 0.0574 0.2222 0.9733
vn 0.0598 0.2846 0.9568
vn 0.0918 0.3126 0.9454
vn 0.0947 0.4723 0.8763
vn 0.0916 0.4697 0.8781
vn 0.0857 0.6634 0.7433
vn 0.0581 0.6430 0.7636
vn 0.0471 0.7846 0.6183
vn 0.0184 0.7849 0.6193
vn 0.0172 0.8688 0.4948
vn 0.2341 0.4504 0.8616
vn 0.1732 0.5755 0.7993
vn 0.1743 0.7067 0.6857
vn -0.7064 0.0464 0.7063
vn -0.6900 0.0794 0.7195
vn -0.6768 -0.0832 0.7315
vn -0.6390 0.0267 0.7687
vn -0.5915 -0.1892 0.7838
vn -0.5737 -0.0175 0.8189
vn -0.5643 -0.0546 0.8238
vn -0.4639 -0.2657 0.8451
vn -0.4619 -0.0551 0.8852
vn 0.0454 0.4161 -0.9082
vn 0.0166 0.2179 -0.9758
vn 0.1102 0.1913 -0.9753
vn 0.0829 0.2053 -0.9752
vn 0.0680 0.2292 -0.9710
vn 0.0003 0.1483 -0.9889
vn 0.0071 0.1687 -0.9856
vn 0.0003 0.1696 -0.9855
vn 0.0052 0.1882 -0.9821
vn 0.0003 0.1893 -0.9819
vn 0.0274 0.2500 -0.9679
vn -0.0000 0.3598 -0.9330
vn 0.0125 0.2861 -0.9581
vn 0.0551 0.7944 -0.6049
vn 0.0636 0.7798 -0.6228
vn 0.0813 0.7153 -0.6941
vn 0.0774 0.6785 -0.7305
vn 0.0800 0.6613 -0.7459
vn 0.0838 0.5766 -0.8127
vn 0.0719 0.6215 -0.7801
vn 0.0757 0.5731 -0.8160
vn 0.0258 0.9128 -0.4077
vn 0.0266 0.8897 -0.4557
vn 0.0269 0.8910 -0.4532
vn 0.0522 0.8526 -0.5199
vn 0.0560 0.8138 -0.5784
vn 0.0060 0.9543 -0.2989
vn 0.0020 0.9719 -0.2353
vn 0.0710 0.4683 -0.8807
vn 0.0829 0.4666 -0.8806
vn 0.0944 0.5751 -0.8126
vn 0.0898 0.5914 -0.8014
vn 0.0971 0.6762 -0.7303
vn 0.0653 0.5051 -0.8606
vn 0.0491 0.3665 -0.9291
vn 0.0596 0.3650 -0.9291
vn 0.0439 0.2478 -0.9678
vn 0.0174 0.2178 -0.9758
vn 0.0087 0.1584 -0.9873
vn 0.0268 0.1563 -0.9873
vn 0.0001 0.9782 -0.2078
vn 0.0044 0.9704 -0.2416
vn -0.0016 0.9450 -0.3271
vn 0.0046 0.9449 -0.3274
vn 0.0123 0.9382 -0.3458
vn 0.0859 0.7083 -0.7007
vn 0.0920 0.7923 -0.6032
vn 0.0908 0.7905 -0.6056
vn 0.0579 0.8557 -0.5143
vn 0.0602 0.8887 -0.4545
vn 0.0244 0.9144 -0.4040
vn 0.0310 0.9668 -0.2535
vn 0.0666 0.2575 -0.9640
vn 0.0704 0.2895 -0.9546
vn 0.0726 0.2981 -0.9518
vn 0.0716 0.3732 -0.9250
vn 0.0853 0.4714 -0.8778
vn 0.0784 0.5070 -0.8584
vn 0.0906 0.5916 -0.8011
vn 0.0780 0.6439 -0.7611
vn 0.0863 0.7081 -0.7008
vn 0.0706 0.7570 -0.6495
vn 0.0753 0.7943 -0.6029
vn 0.0581 0.8350 -0.5471
vn 0.0608 0.8553 -0.5145
vn 0.0441 0.8867 -0.4602
vn 0.0479 0.9131 -0.4050
vn 0.0163 0.9337 -0.3576
vn 0.0230 0.9646 -0.2628
vn -0.7276 0.0894 -0.6801
vn -0.7048 0.0649 -0.7064
vn -0.7032 0.1032 -0.7035
vn -0.7033 0.1052 -0.7031
vn -0.7231 0.0822 -0.6859
vn -0.7213 0.0786 -0.6881
vn -0.6951 0.0226 -0.7185
vn -0.7330 0.0548 -0.6780
vn -0.7252 0.0438 -0.6871
vn -0.7178 0.0321 -0.6955
vn -0.7093 0.0118 -0.7048
vn -0.7061 0.0025 -0.7081
vn -0.7041 -0.0000 -0.7101
vn -0.7052 0.0033 -0.7090
vn -0.7053 -0.0000 -0.7089
vn -0.7055 0.0007 -0.7087
vn 0.7041 0.0347 -0.7092
vn 0.7172 -0.0000 -0.6968
vn 0.7241 0.1168 -0.6797
vn 0.7457 0.0472 -0.6647
vn 0.7754 0.1543 -0.6123
vn 0.7823 -0.0027 -0.6229
vn 0.8325 0.0236 -0.5536
vn 0.8250 0.0225 -0.5647
vn 0.7438 -0.0000 -0.6684
vn 0.7226 0.0426 -0.6900
vn 0.7114 0.0854 -0.6976
vn 0.7447 0.0103 -0.6673
vn 0.7482 0.0317 -0.6627
vn 0.7510 0.0470 -0.6586
vn 0.7553 0.0672 -0.6520
vn 0.7473 0.0396 -0.6633
vn 0.7537 0.0459 -0.6556
vn 0.7630 -0.0264 -0.6459
vn 0.7636 -0.0163 -0.6455
vn 0.0003 -0.0000 -1.0000
vn -0.0001 0.1406 -0.9901
vn 0.0005 0.1101 -0.9939
vn -0.0012 0.3582 -0.9336
vn -0.0007 0.3287 -0.9444
vn -0.0012 0.5029 -0.8644
vn -0.0032 0.6396 -0.7687
vn -0.0022 0.6829 -0.7305
vn -0.0004 0.3418 -0.9398
vn 0.0003 0.2350 -0.9720
vn 0.0003 0.1744 -0.9847
vn 0.0003 0.2349 -0.9720
vn 0.0002 0.2339 -0.9723
vn -0.0045 0.2569 -0.9664
vn -0.0017 0.3853 -0.9228
vn 0.0005 0.3346 -0.9424
vn -0.0038 0.4865 -0.8737
vn 0.0008 0.4426 -0.8967
vn -0.0025 0.5634 -0.8262
vn -0.0024 0.6003 -0.7998
vn -0.0043 0.6920 -0.7219
vn -0.0022 0.7165 -0.6976
vn -0.7397 -0.1922 -0.6449
vn -0.7395 -0.2014 -0.6423
vn -0.7236 -0.1251 -0.6788
vn -0.7236 -0.0887 -0.6845
vn -0.7036 -0.0370 -0.7096
vn -0.7185 -0.0000 -0.6955
vn -0.7443 -0.1423 -0.6525
vn -0.7478 -0.0001 -0.6640
vn -0.7478 -0.0001 -0.6639
vn -0.7479 -0.0035 -0.6638
vn -0.7496 -0.0212 -0.6615
vn -0.7557 -0.0657 -0.6517
vn -0.7661 -0.1148 -0.6324
vn -0.7750 -0.1271 -0.6191
vn -0.7752 -0.1273 -0.6188
vn -0.7182 -0.1376 -0.6821
vn -0.7314 -0.2032 -0.6510
vn -0.7203 -0.1811 -0.6697
vn -0.7068 -0.2219 -0.6717
vn -0.0052 -0.7979 -0.6028
vn -0.0105 -0.8351 -0.5500
vn -0.0075 -0.7391 -0.6735
vn -0.0074 -0.6928 -0.7211
vn -0.0043 -0.6370 -0.7709
vn -0.0061 -0.5784 -0.8158
vn -0.0012 -0.4920 -0.8706
vn -0.0014 -0.4801 -0.8772
vn -0.0012 -0.3851 -0.9229
vn 0.0003 -0.3681 -0.9298
vn 0.0001 -0.0420 -0.9991
vn -0.0000 -0.2092 -0.9779
vn -0.0001 -0.2108 -0.9775
vn -0.0029 -0.4722 -0.8815
vn -0.0022 -0.5464 -0.8375
vn -0.0053 -0.7721 -0.6354
vn -0.0053 -0.7711 -0.6366
vn 0.7067 -0.4497 0.5462
vn 0.7091 -0.6020 -0.3671
vn 0.7072 -0.3471 -0.6159
vn 0.7072 -0.2279 -0.6693
vn 0.7064 -0.2901 -0.6456
vn 0.7405 -0.2998 -0.6014
vn 0.7018 -0.2569 -0.6645
vn 0.7238 -0.3817 -0.5748
vn 0.7253 -0.3824 -0.5724
vn 0.7104 -0.3664 -0.6009
vn 0.7071 -0.5336 -0.4640
vn 0.7073 -0.5091 -0.4905
vn 0.7230 -0.4706 -0.5058
vn 0.7090 -0.4679 -0.5275
vn 0.7059 -0.4231 -0.5681
vn 0.6963 -0.5680 -0.4388
vn 0.7427 -0.5491 -0.3834
vn 0.7173 -0.5436 -0.4360
vn 0.7196 -0.6105 -0.3309
vn 0.7210 -0.6099 -0.3289
vn 0.7073 -0.6409 -0.2982
vn 0.7092 -0.7005 -0.0796
vn 0.7187 -0.6853 -0.1177
vn 0.7168 -0.6875 -0.1160
vn 0.7011 -0.6868 -0.1915
vn 0.7246 -0.6519 -0.2235
vn 0.7209 -0.6537 -0.2301
vn 0.7070 -0.6558 -0.2648
vn 0.7070 -0.7064 0.0323
vn 0.7239 -0.6899 -0.0026
vn 0.7248 -0.6890 -0.0013
vn 0.7027 -0.7101 -0.0443
vn 0.7067 -0.7042 0.0684
vn 0.7194 -0.6857 0.1106
vn 0.7144 -0.6900 0.1166
vn 0.7071 -0.6574 0.2604
vn 0.7229 -0.6552 0.2194
vn 0.7297 -0.6457 0.2252
vn 0.7016 -0.6871 0.1890
vn 0.7015 -0.6871 0.1890
vn 0.7066 -0.6435 0.2943
vn 0.7216 -0.6116 0.3244
vn 0.7166 -0.6135 0.3319
vn 0.7045 -0.5338 0.4677
vn 0.7157 -0.5462 0.4353
vn 0.7243 -0.5486 0.4176
vn 0.7035 -0.5840 0.4051
vn 0.7081 -0.6033 0.3668
vn 0.7069 -0.4914 0.5088
vn 0.7281 -0.4621 0.5064
vn 0.7099 -0.5052 0.4908
vn 0.7118 -0.4201 0.5629
vn 0.7240 -0.3987 0.5629
vn 0.7148 -0.3898 0.5806
vn 0.7079 -0.3754 0.5983
vn 0.7003 -0.3122 0.6419
vn 0.7387 -0.3197 0.5934
vn 0.7006 -0.2726 0.6595
vn 0.7091 -0.2368 0.6642
vn 0.7070 -0.2281 0.6694
vn -0.0056 -0.8040 0.5946
vn -0.0096 -0.8356 0.5493
vn -0.0079 -0.7387 0.6740
vn -0.0082 -0.7001 0.7140
vn -0.0048 -0.6366 0.7712
vn -0.0090 -0.4907 0.8713
vn -0.0002 -0.5759 0.8175
vn -0.0025 -0.4484 0.8938
vn 0.0003 -0.3683 0.9297
vn -0.0003 -0.3555 0.9347
vn -0.0010 -0.1265 0.9920
vn -0.0006 -0.1070 0.9943
vn -0.0025 -0.3445 0.9388
vn -0.0008 -0.5029 0.8644
vn -0.0029 -0.3724 0.9281
vn -0.0033 -0.6453 0.7640
vn -0.0042 -0.6052 0.7961
vn -0.0044 -0.8310 0.5562
vn -0.0056 -0.7887 0.6147
vn -0.7404 -0.2010 0.6415
vn -0.7038 -0.0382 0.7094
vn -0.7403 -0.1358 0.6584
vn -0.7843 -0.1387 0.6047
vn -0.7741 -0.1291 0.6198
vn -0.7655 -0.1171 0.6327
vn -0.7580 -0.0794 0.6474
vn -0.7522 -0.0442 0.6574
vn -0.7498 -0.0243 0.6612
vn -0.7482 -0.0107 0.6634
vn -0.7476 -0.0015 0.6641
vn -0.7047 -0.0000 0.7095
vn -0.7226 -0.0124 0.6911
vn -0.7436 -0.1416 0.6535
vn -0.7251 -0.0898 0.6828
vn -0.7250 -0.1385 0.6747
vn -0.7170 -0.1274 0.6853
vn -0.7301 -0.2030 0.6525
vn -0.7200 -0.1825 0.6695
vn -0.7073 -0.2223 0.6711
vn 0.7366 -0.1994 0.6463
vn 0.7406 -0.1862 0.6456
vn 0.7522 -0.0291 0.6583
vn 0.7562 -0.0623 0.6514
vn 0.7616 -0.0965 0.6408
vn 0.7041 -0.0000 0.7101
vn 0.7204 -0.0069 0.6936
vn 0.7038 -0.0370 0.7094
vn 0.7221 -0.0144 0.6916
vn 0.7549 -0.1797 0.6307
vn 0.7215 -0.0891 0.6867
vn 0.7216 -0.1249 0.6810
vn 0.7672 -0.1251 0.6291
vn 0.7686 -0.1267 0.6270
vn 0.7172 -0.1362 0.6835
vn 0.7304 -0.1992 0.6533
vn 0.7221 -0.1794 0.6681
vn 0.7065 -0.2239 0.6713
vn 0.7069 -0.2219 0.6716
vn 0.0003 -0.5555 -0.8315
vn 0.0001 -0.8539 -0.5204
vn -0.0002 -0.5985 0.8011
vn 0.0003 -0.3470 -0.9379
vn -0.0003 -0.3233 0.9463
vn -0.0012 -0.3470 0.9379
vn -0.0003 -0.5574 0.8303
vn -0.0017 -0.5315 0.8471
vn -0.0080 -0.4777 0.8785
vn -0.0069 -0.4740 0.8805
vn 0.0019 -0.3823 0.9240
vn -0.0002 -0.7522 0.6590
vn -0.0002 -0.7172 0.6968
vn -0.0060 -0.6538 0.7566
vn -0.0140 -0.6743 0.7384
vn -0.0060 -0.6361 0.7716
vn -0.0001 -0.8547 0.5191
vn -0.0033 -0.7999 0.6001
vn -0.0154 -0.8216 0.5699
vn -0.0050 -0.7820 0.6233
vn -0.0001 -0.9442 0.3293
vn -0.0021 -0.9297 0.3683
vn -0.0091 -0.9093 0.4161
vn -0.0093 -0.9096 0.4153
vn -0.0001 -0.8799 0.4751
vn -0.0016 -0.9771 0.2130
vn -0.0178 -0.9859 0.1664
vn -0.0003 -0.9641 0.2657
vn -0.0000 -0.9981 -0.0623
vn -0.0090 -1.0000 -0.0019
vn -0.0094 -1.0000 -0.0000
vn -0.0023 -0.9990 0.0452
vn 0.0002 -0.9954 0.0959
vn 0.0002 -0.9631 -0.2691
vn -0.0095 -0.9770 -0.2130
vn -0.0011 -0.9856 -0.1694
vn -0.0000 -0.9936 -0.1129
vn 0.0001 -0.8792 -0.4765
vn -0.0080 -0.9067 -0.4217
vn -0.0093 -0.9093 -0.4160
vn -0.0024 -0.9271 -0.3749
vn -0.0000 -0.9429 -0.3330
vn -0.0022 -0.8197 -0.5728
vn -0.0092 -0.7999 -0.6001
vn -0.0042 -0.7794 -0.6265
vn 0.0002 -0.5973 -0.8020
vn -0.0097 -0.6638 -0.7479
vn -0.0059 -0.6538 -0.7566
vn 0.0006 -0.7197 -0.6942
vn -0.0003 -0.7542 -0.6567
vn 0.0021 -0.3609 -0.9326
vn -0.0025 -0.4455 -0.8953
vn -0.0093 -0.4777 -0.8785
vn -0.0068 -0.4907 -0.8713
vn -0.0020 -0.5205 -0.8539
vn 0.8038 0.0087 -0.5949
vn 0.7513 -0.0313 -0.6592
vn 0.7614 -0.0930 -0.6416
vn 0.7410 -0.2012 -0.6406
vn 0.7352 -0.2008 -0.6474
vn 0.7565 -0.1283 -0.6413
vn 0.7776 -0.1358 -0.6139
vn 0.7678 -0.1261 -0.6281
vn 0.7045 -0.0000 -0.7097
vn 0.7274 -0.0358 -0.6853
vn 0.7481 -0.1584 -0.6444
vn 0.7216 -0.0889 -0.6865
vn 0.7216 -0.1343 -0.6791
vn 0.7156 -0.1262 -0.6871
vn 0.7312 -0.2027 -0.6513
vn 0.7200 -0.1814 -0.6699
vn 0.7072 -0.2227 -0.6710
vn -0.7066 -0.2457 -0.6637
vn -0.7069 -0.2455 0.6633
vn -0.7070 -0.2453 0.6633
vn -0.7052 -0.3389 0.6228
vn -0.7052 -0.3388 0.6228
vn -0.7051 -0.4638 0.5365
vn -0.7051 -0.4637 0.5365
vn -0.7050 -0.5674 0.4255
vn -0.7053 -0.5672 0.4253
vn -0.7052 -0.6448 0.2948
vn -0.7051 -0.6449 0.2949
vn -0.7049 -0.6931 0.1507
vn -0.7051 -0.6929 0.1509
vn -0.7049 -0.7093 -0.0002
vn -0.7048 -0.6930 -0.1514
vn -0.7050 -0.6929 -0.1512
vn -0.7049 -0.6449 -0.2953
vn -0.7050 -0.6449 -0.2951
vn -0.7049 -0.5673 -0.4259
vn -0.7050 -0.5672 -0.4258
vn -0.7049 -0.4636 -0.5369
vn -0.7051 -0.4635 -0.5366
vn -0.7051 -0.3386 -0.6231
vn -0.7052 -0.3387 -0.6229
vn -0.7068 -0.2452 -0.6636
vn -0.0073 -0.2451 -0.9695
vn -0.0000 -0.3010 -0.9536
vn -0.0000 -0.4095 -0.9123
vn -0.0073 -0.4619 -0.8869
vn -0.0000 -0.5128 -0.8585
vn -0.0000 -0.6091 -0.7931
vn -0.0073 -0.6541 -0.7563
vn -0.0000 -0.6970 -0.7170
vn -0.0000 -0.7756 -0.6312
vn -0.0073 -0.8109 -0.5852
vn -0.0000 -0.8435 -0.5371
vn -0.0000 -0.9002 -0.4354
vn -0.0073 -0.9240 -0.3824
vn -0.0000 -0.9446 -0.3281
vn -0.0000 -0.9764 -0.2161
vn -0.0073 -0.9872 -0.1590
vn -0.0000 -0.9948 -0.1014
vn -0.0000 -0.9999 0.0150
vn -0.0073 -0.9973 0.0730
vn -0.0000 -0.9914 0.1308
vn -0.0000 -0.9695 0.2450
vn -0.0073 -0.9536 0.3010
vn -0.0000 -0.9345 0.3560
vn -0.0000 -0.8868 0.4621
vn -0.0073 -0.8585 0.5128
vn -0.0000 -0.8273 0.5618
vn -0.0000 -0.7563 0.6542
vn -0.0073 -0.7171 0.6969
vn -0.0000 -0.6752 0.7376
vn -0.0000 -0.5850 0.8110
vn -0.0073 -0.5370 0.8436
vn -0.0000 -0.4868 0.8735
vn -0.0000 -0.3825 0.9240
vn -0.0073 -0.3280 0.9446
vn -0.0000 -0.2725 0.9622
vn -0.0000 -0.1588 0.9873
vn -0.0073 -0.1013 0.9948
vn -0.0000 -0.0432 0.9991
vn -0.0000 0.0732 0.9973
vn -0.0073 0.1309 0.9914
vn -0.0000 0.1881 0.9821
vn -0.0000 0.3011 0.9536
vn -0.0073 0.3559 0.9345
vn -0.0000 0.4095 0.9123
vn -0.0000 0.5130 0.8584
vn -0.0073 0.5619 0.8272
vn -0.0000 0.6089 0.7932
vn -0.0000 0.6969 0.7172
vn -0.0073 0.7375 0.6753
vn -0.0000 0.7756 0.6312
vn -0.0000 0.8435 0.5371
vn -0.0073 0.8733 0.4871
vn -0.0000 0.9002 0.4354
vn -0.0000 0.9447 0.3280
vn -0.0073 0.9621 0.2725
vn -0.0000 0.9764 0.2161
vn -0.0000 0.9949 0.1011
vn -0.0073 0.9990 0.0433
vn -0.0000 0.9999 -0.0147
vn -0.0000 0.9914 -0.1308
vn -0.0073 0.9821 -0.1883
vn -0.0000 0.9695 -0.2452
vn -0.0000 0.9346 -0.3558
vn -0.0073 0.9122 -0.4097
vn -0.0000 0.8868 -0.4621
vn -0.0000 0.8273 -0.5618
vn -0.0073 0.7932 -0.6090
vn -0.0000 0.7564 -0.6541
vn -0.0000 0.6753 -0.7376
vn -0.0073 0.6312 -0.7755
vn -0.0000 0.5851 -0.8109
vn -0.0000 0.4871 -0.8734
vn -0.0073 0.4355 -0.9002
vn -0.0000 0.3825 -0.9240
vn -0.0000 0.2726 -0.9621
vn -0.0073 0.2161 -0.9763
vn -0.0000 0.1590 -0.9873
vn -0.0000 0.0520 -0.9986
vn 0.0009 0.0432 -0.9991
vn -0.0011 -0.0641 -0.9979
vn -0.0000 -0.0729 -0.9973
vn -0.0000 -0.1884 -0.9821
vn -0.0000 -0.1570 -0.9876
vn -0.0000 -0.4288 -0.9034
vn -0.0000 -0.6661 -0.7459
vn -0.0000 -0.8492 -0.5281
vn -0.0000 -0.9637 -0.2671
vn -0.0000 -0.9635 -0.2675
vn -0.0000 -0.9999 0.0149
vn -0.0000 -0.9552 0.2960
vn -0.0000 -0.8331 0.5531
vn -0.0000 -0.6436 0.7653
vn -0.0000 -0.6436 0.7654
vn -0.0000 -0.4017 0.9157
vn -0.0000 -0.4022 0.9156
vn -0.0000 -0.1274 0.9919
vn -0.0000 -0.1277 0.9918
vn -0.0000 0.1570 0.9876
vn -0.0000 0.4289 0.9033
vn -0.0000 0.6660 0.7459
vn -0.0000 0.8492 0.5281
vn -0.0000 0.9636 0.2674
vn -0.0000 0.9999 -0.0148
vn -0.0000 0.9552 -0.2960
vn -0.0000 0.8332 -0.5530
vn -0.0000 0.6434 -0.7655
vn -0.0000 0.4017 -0.9158
vn -0.0000 0.4020 -0.9157
vn -0.0000 0.1275 -0.9918
vn 0.7065 0.0306 -0.7070
vn 0.7660 0.0652 -0.6395
vn 0.7067 0.1125 -0.6985
vn 0.7045 0.2328 -0.6704
vn 0.8097 0.1600 -0.5647
vn 0.7064 0.2707 -0.6540
vn 0.7046 0.3811 -0.5986
vn 0.8097 0.2859 -0.5125
vn 0.7066 0.4141 -0.5738
vn 0.7066 0.4779 -0.5220
vn 0.7659 0.4610 -0.4482
vn 0.7065 0.5354 -0.4629
vn 0.7047 0.6092 -0.3638
vn 0.8097 0.4855 -0.3297
vn 0.7066 0.6275 -0.3270
vn 0.7067 0.6612 -0.2518
vn 0.7658 0.6133 -0.1936
vn 0.7064 0.6862 -0.1735
vn 0.7047 0.7077 -0.0517
vn 0.8098 0.5817 -0.0768
vn 0.7065 0.7076 -0.0104
vn 0.7047 0.7005 0.1127
vn 0.8097 0.5838 0.0597
vn 0.7064 0.6911 0.1529
vn 0.7046 0.6557 0.2714
vn 0.8098 0.5543 0.1925
vn 0.7067 0.6369 0.3081
vn 0.7067 0.5968 0.3800
vn 0.7658 0.5215 0.3763
vn 0.7066 0.5489 0.4467
vn 0.7047 0.4641 0.5367
vn 0.8095 0.4091 0.4210
vn 0.7066 0.4310 0.5612
vn 0.7065 0.3629 0.6076
vn 0.7659 0.2971 0.5703
vn 0.7066 0.2899 0.6455
vn 0.7045 0.1739 0.6880
vn 0.8098 0.1767 0.5595
vn 0.7064 0.1332 0.6952
vn 0.7064 0.0517 0.7059
vn 0.7065 0.0518 0.7058
vn 0.7065 -0.0308 0.7070
vn 0.7066 -0.0308 0.7070
vn 0.7064 -0.1127 0.6988
vn 0.7660 -0.1389 0.6276
vn 0.7066 -0.1928 0.6808
vn 0.7066 -0.2706 0.6538
vn 0.7659 -0.2800 0.5788
vn 0.7065 -0.3446 0.6181
vn 0.7063 -0.4141 0.5741
vn 0.7660 -0.4059 0.4985
vn 0.7065 -0.4781 0.5218
vn 0.7066 -0.5355 0.4626
vn 0.7659 -0.5099 0.3916
vn 0.7064 -0.5856 0.3977
vn 0.7064 -0.6277 0.3271
vn 0.7659 -0.5866 0.2634
vn 0.7066 -0.6612 0.2519
vn 0.7066 -0.6860 0.1733
vn 0.7658 -0.6315 0.1211
vn 0.7064 -0.7017 0.0926
vn 0.7064 -0.7077 0.0106
vn 0.7659 -0.6424 -0.0278
vn 0.7066 -0.7039 -0.0716
vn 0.7064 -0.6911 -0.1529
vn 0.7659 -0.6187 -0.1753
vn 0.7065 -0.6686 -0.2322
vn 0.7064 -0.6372 -0.3082
vn 0.7659 -0.5615 -0.3132
vn 0.7065 -0.5969 -0.3801
vn 0.7065 -0.5489 -0.4467
vn 0.7659 -0.4742 -0.4342
vn 0.7066 -0.4932 -0.5074
vn 0.7066 -0.4310 -0.5612
vn 0.7660 -0.3611 -0.5318
vn 0.7067 -0.3628 -0.6074
vn 0.7067 -0.2898 -0.6455
vn 0.7658 -0.2290 -0.6010
vn 0.7063 -0.2131 -0.6750
vn 0.7045 -0.0928 -0.7036
vn 0.8099 -0.1105 -0.5761
vn 0.7066 -0.0516 -0.7058
vn -1.0000 -0.0000 -0.0000
vt 0.000000 0.000000
vt 0.486153 0.516986
vt 0.480261 0.519493
vt 0.480161 0.519548
vt 0.477721 0.521230
vt 0.477185 0.521663
vt 0.476204 0.522767
vt 0.475080 0.523724
vt 0.472634 0.525891
vt 0.470502 0.528546
vt 0.468356 0.531639
vt 0.467446 0.533173
vt 0.466408 0.535203
vt 0.465627 0.536867
vt 0.464646 0.539285
vt 0.464009 0.541060
vt 0.463120 0.543920
vt 0.462638 0.545770
vt 0.461876 0.549123
vt 0.461538 0.550983
vt 0.460938 0.554620
vt 0.460470 0.558391
vt 0.460254 0.560623
vt 0.460191 0.561303
vt 0.460112 0.562264
vt 0.459879 0.565462
vt 0.459569 0.570256
vt 0.459701 0.572174
vt 0.459723 0.572507
vt 0.459860 0.575900
vt 0.459871 0.576093
vt 0.459930 0.578298
vt 0.459972 0.582195
vt 0.459884 0.585270
vt 0.459821 0.588248
vt 0.459786 0.589006
vt 0.459764 0.589487
vt 0.459579 0.596003
vt 0.459528 0.597282
vt 0.459504 0.597919
vt 0.459492 0.598270
vt 0.459436 0.604142
vt 0.459383 0.606248
vt 0.459374 0.606724
vt 0.459357 0.607935
vt 0.459355 0.608365
vt 0.459355 0.608545
vt 0.459354 0.608699
vt 0.459355 0.610462
vt 0.459344 0.617861
vt 0.459344 0.619624
vt 0.459471 0.627548
vt 0.459471 0.630984
vt 0.459552 0.632182
vt 0.459659 0.634883
vt 0.459832 0.637930
vt 0.460056 0.641536
vt 0.460191 0.642950
vt 0.460687 0.648903
vt 0.460873 0.650729
vt 0.461304 0.654520
vt 0.461645 0.657514
vt 0.463027 0.665776
vt 0.464775 0.676228
vt 0.466669 0.683354
vt 0.469059 0.692348
vt 0.471380 0.698010
vt 0.474301 0.705136
vt 0.476945 0.709070
vt 0.480261 0.714004
vt 0.483108 0.716023
vt 0.486666 0.718546
vt 0.489586 0.718549
vt 0.493221 0.718552
vt 0.496082 0.716529
vt 0.499628 0.714022
vt 0.502295 0.710057
vt 0.505590 0.705161
vt 0.507942 0.699430
vt 0.510836 0.692377
vt 0.512761 0.685138
vt 0.515124 0.676255
vt 0.516533 0.667839
vt 0.518257 0.657534
vt 0.518683 0.653800
vt 0.519030 0.650747
vt 0.519220 0.648882
vt 0.519697 0.643202
vt 0.519835 0.641757
vt 0.520020 0.638512
vt 0.520248 0.634916
vt 0.520347 0.632452
vt 0.520425 0.631278
vt 0.520455 0.626004
vt 0.520560 0.619625
vt 0.520560 0.616022
vt 0.520535 0.606028
vt 0.520535 0.605851
vt 0.520533 0.605329
vt 0.520517 0.604251
vt 0.520509 0.603829
vt 0.520461 0.602020
vt 0.520437 0.601276
vt 0.520170 0.590159
vt 0.520156 0.589824
vt 0.520101 0.588566
vt 0.520086 0.588245
vt 0.520019 0.584967
vt 0.519903 0.581553
vt 0.519990 0.579063
vt 0.519945 0.574877
vt 0.520023 0.573829
vt 0.520048 0.570077
vt 0.520072 0.568888
vt 0.520088 0.568726
vt 0.520097 0.568250
vt 0.519659 0.563315
vt 0.519541 0.562093
vt 0.519535 0.562029
vt 0.519417 0.560879
vt 0.518554 0.555655
vt 0.518211 0.553525
vt 0.517620 0.550856
vt 0.516162 0.546255
vt 0.514822 0.541381
vt 0.513086 0.537136
vt 0.511425 0.533436
vt 0.509759 0.530781
vt 0.507617 0.527103
vt 0.504837 0.523962
vt 0.503736 0.522662
vt 0.503032 0.522098
vt 0.499727 0.519548
vt 0.499565 0.519469
vt 0.493674 0.516961
vt 0.493586 0.516936
vt 0.490081 0.516534
vt 0.489918 0.516520
vt 0.486413 0.516921
vt 0.486315 0.516933
vt 0.486245 0.516951
s 0
f 1/1/1 2/1/1 3/1/1
f 3/1/2 2/1/2 4/1/2
f 2/1/3 5/1/3 4/1/3
f 4/1/4 5/1/4 6/1/4
f 4/1/5 6/1/5 7/1/5
f 7/1/6 6/1/6 8/1/6
f 7/1/7 8/1/7 9/1/7
f 9/1/8 8/1/8 10/1/8
f 9/1/9 10/1/9 11/1/9
f 11/1/10 10/1/10 12/1/10
f 11/1/11 12/1/11 13/1/11
f 12/1/12 14/1/12 13/1/12
f 13/1/13 14/1/13 15/1/13
f 13/1/14 15/1/14 16/1/14
f 16/1/15 15/1/15 17/1/15
f 16/1/16 17/1/16 18/1/16
f 18/1/17 17/1/17 19/1/17
f 18/1/18 19/1/18 20/1/18
f 19/1/19 21/1/19 20/1/19
f 20/1/20 21/1/20 22/1/20
f 20/1/21 22/1/21 23/1/21
f 22/1/22 24/1/22 23/1/22
f 23/1/23 24/1/23 25/1/23
f 23/1/24 25/1/24 26/1/24
f 25/1/25 27/1/25 26/1/25
f 26/1/26 27/1/26 28/1/26
f 26/1/27 28/1/27 29/1/27
f 29/1/28 28/1/28 30/1/28
f 29/1/29 30/1/29 31/1/29
f 32/1/30 33/1/30 34/1/30
f 34/1/31 33/1/31 35/1/31
f 35/1/32 33/1/32 36/1/32
f 36/1/33 33/1/33 37/1/33
f 36/1/34 37/1/34 38/1/34
f 39/1/35 40/1/35 41/1/35
f 41/1/36 40/1/36 42/1/36
f 37/1/37 43/1/37 38/1/37
f 38/1/38 43/1/38 44/1/38
f 38/1/39 44/1/39 45/1/39
f 45/1/40 44/1/40 41/1/40
f 45/1/41 41/1/41 46/1/41
f 46/1/42 41/1/42 42/1/42
f 46/1/43 42/1/43 47/1/43
f 47/1/44 42/1/44 48/1/44
f 49/1/45 32/1/45 34/1/45
f 49/1/46 34/1/46 50/1/46
f 51/1/47 52/1/47 53/1/47
f 53/1/48 52/1/48 54/1/48
f 34/1/49 55/1/49 50/1/49
f 50/1/50 55/1/50 53/1/50
f 50/1/51 53/1/51 56/1/51
f 56/1/52 53/1/52 54/1/52
f 52/1/53 51/1/53 57/1/53
f 57/1/53 51/1/53 58/1/53
f 57/1/53 58/1/53 59/1/53
f 59/1/53 58/1/53 60/1/53
f 59/1/53 60/1/53 61/1/53
f 61/1/53 60/1/53 62/1/53
f 63/1/54 64/1/54 469/1/54 468/1/54
f 64/1/55 65/1/55 470/1/55 469/1/55
f 65/1/56 471/1/56 470/1/56
f 472/1/57 63/1/57 468/1/57
f 473/1/58 63/1/58 472/1/58
f 66/1/59 63/1/59 473/1/59 474/1/59
f 475/1/60 66/1/60 474/1/60
f 476/1/61 66/1/61 475/1/61
f 39/1/62 67/1/62 68/1/62
f 39/1/63 68/1/63 69/1/63
f 69/1/64 68/1/64 70/1/64
f 69/1/65 70/1/65 71/1/65
f 71/1/66 70/1/66 72/1/66
f 71/1/67 72/1/67 73/1/67
f 73/1/68 72/1/68 74/1/68
f 73/1/69 74/1/69 75/1/69
f 75/1/70 74/1/70 76/1/70
f 76/1/71 74/1/71 77/1/71
f 76/1/72 77/1/72 78/1/72
f 78/1/73 77/1/73 79/1/73
f 79/1/74 77/1/74 80/1/74
f 79/1/75 80/1/75 81/1/75
f 81/1/76 80/1/76 82/1/76
f 81/1/77 82/1/77 83/1/77
f 83/1/78 82/1/78 84/1/78
f 83/1/79 84/1/79 85/1/79
f 85/1/80 84/1/80 86/1/80
f 85/1/81 86/1/81 87/1/81
f 87/1/82 86/1/82 88/1/82
f 87/1/83 88/1/83 89/1/83
f 89/1/84 88/1/84 90/1/84
f 89/1/85 90/1/85 91/1/85
f 90/1/86 92/1/86 91/1/86
f 91/1/87 92/1/87 93/1/87
f 93/1/88 92/1/88 94/1/88
f 94/1/89 92/1/89 95/1/89
f 94/1/90 95/1/90 96/1/90
f 96/1/91 95/1/91 97/1/91
f 97/1/92 95/1/92 98/1/92
f 97/1/93 98/1/93 99/1/93
f 99/1/94 98/1/94 100/1/94
f 100/1/95 98/1/95 31/1/95
f 100/1/96 31/1/96 30/1/96
f 87/1/97 101/1/97 102/1/97
f 101/1/98 87/1/98 103/1/98
f 103/1/99 87/1/99 89/1/99
f 103/1/100 89/1/100 91/1/100
f 81/1/101 83/1/101 102/1/101
f 102/1/102 83/1/102 85/1/102
f 102/1/103 85/1/103 87/1/103
f 78/1/104 79/1/104 104/1/104
f 104/1/105 79/1/105 81/1/105
f 104/1/106 81/1/106 105/1/106
f 105/1/107 81/1/107 102/1/107
f 78/1/108 104/1/108 76/1/108
f 76/1/109 104/1/109 106/1/109
f 76/1/110 106/1/110 75/1/110
f 75/1/111 106/1/111 107/1/111
f 75/1/112 107/1/112 73/1/112
f 40/1/113 39/1/113 108/1/113
f 108/1/114 39/1/114 69/1/114
f 108/1/115 69/1/115 107/1/115
f 107/1/116 69/1/116 71/1/116
f 107/1/117 71/1/117 73/1/117
f 100/1/118 30/1/118 478/1/118 477/1/118
f 479/1/119 100/1/119 477/1/119
f 99/1/120 100/1/120 479/1/120 480/1/120
f 97/1/121 99/1/121 480/1/121 481/1/121
f 103/1/122 91/1/122 93/1/122
f 96/1/123 97/1/123 481/1/123 482/1/123
f 483/1/124 96/1/124 482/1/124
f 94/1/125 96/1/125 483/1/125 484/1/125
f 485/1/126 94/1/126 484/1/126
f 93/1/127 94/1/127 485/1/127 486/1/127
f 487/1/128 93/1/128 486/1/128
f 103/1/129 93/1/129 487/1/129 488/1/129
f 39/1/130 41/1/130 109/1/130
f 109/1/131 41/1/131 44/1/131
f 109/1/132 44/1/132 43/1/132
f 43/1/133 37/1/133 109/1/133
f 109/1/134 37/1/134 33/1/134
f 109/1/135 33/1/135 32/1/135
f 32/1/136 49/1/136 109/1/136
f 109/1/137 49/1/137 50/1/137
f 109/1/138 50/1/138 56/1/138
f 56/1/139 54/1/139 109/1/139
f 109/1/140 54/1/140 52/1/140
f 109/1/141 52/1/141 110/1/141
f 110/1/142 52/1/142 57/1/142
f 110/1/142 57/1/142 59/1/142
f 67/1/143 39/1/143 111/1/143
f 111/1/144 39/1/144 109/1/144
f 111/1/145 109/1/145 112/1/145
f 112/1/146 109/1/146 110/1/146
f 112/1/147 110/1/147 113/1/147
f 114/1/148 113/1/148 115/1/148
f 115/1/149 113/1/149 116/1/149
f 117/1/150 70/1/150 118/1/150
f 118/1/151 70/1/151 68/1/151
f 68/1/151 67/1/151 118/1/151
f 118/1/151 67/1/151 111/1/151
f 118/1/151 111/1/151 114/1/151
f 114/1/152 111/1/152 112/1/152
f 114/1/148 112/1/148 113/1/148
f 116/1/153 119/1/153 115/1/153
f 115/1/154 119/1/154 120/1/154
f 115/1/155 120/1/155 121/1/155
f 121/1/156 120/1/156 122/1/156
f 7/1/157 123/1/157 4/1/157
f 4/1/158 123/1/158 124/1/158
f 4/1/159 124/1/159 3/1/159
f 125/1/160 126/1/160 127/1/160
f 127/1/160 126/1/160 128/1/160
f 129/1/148 130/1/148 125/1/148
f 125/1/152 130/1/152 131/1/152
f 125/1/160 131/1/160 126/1/160
f 132/1/161 82/1/161 80/1/161
f 3/1/158 124/1/158 133/1/158
f 133/1/162 124/1/162 134/1/162
f 133/1/162 134/1/162 135/1/162
f 128/1/160 136/1/160 127/1/160
f 127/1/160 136/1/160 137/1/160
f 127/1/157 137/1/157 138/1/157
f 138/1/151 137/1/151 139/1/151
f 138/1/163 139/1/163 134/1/163
f 134/1/152 139/1/152 140/1/152
f 134/1/162 140/1/162 135/1/162
f 122/1/148 141/1/148 121/1/148
f 121/1/164 141/1/164 142/1/164
f 121/1/148 142/1/148 143/1/148
f 143/1/157 142/1/157 144/1/157
f 143/1/148 144/1/148 145/1/148
f 132/1/159 80/1/159 146/1/159
f 80/1/151 77/1/151 146/1/151
f 146/1/165 77/1/165 74/1/165
f 146/1/166 74/1/166 117/1/166
f 117/1/151 74/1/151 72/1/151
f 117/1/149 72/1/149 70/1/149
f 147/1/167 88/1/167 86/1/167
f 16/1/159 18/1/159 148/1/159
f 148/1/151 18/1/151 20/1/151
f 148/1/168 20/1/168 149/1/168
f 7/1/169 9/1/169 123/1/169
f 123/1/148 9/1/148 11/1/148
f 123/1/170 11/1/170 148/1/170
f 148/1/167 11/1/167 13/1/167
f 148/1/148 13/1/148 16/1/148
f 150/1/171 151/1/171 152/1/171
f 152/1/172 151/1/172 153/1/172
f 152/1/173 153/1/173 129/1/173
f 129/1/174 153/1/174 154/1/174
f 129/1/171 154/1/171 130/1/171
f 147/1/171 86/1/171 132/1/171
f 132/1/148 86/1/148 84/1/148
f 132/1/175 84/1/175 82/1/175
f 155/1/176 156/1/176 31/1/176
f 20/1/168 23/1/168 149/1/168
f 149/1/168 23/1/168 26/1/168
f 149/1/174 26/1/174 156/1/174
f 156/1/177 26/1/177 29/1/177
f 156/1/151 29/1/151 31/1/151
f 31/1/176 98/1/176 155/1/176
f 155/1/159 98/1/159 95/1/159
f 155/1/178 95/1/178 157/1/178
f 157/1/158 95/1/158 92/1/158
f 157/1/175 92/1/175 147/1/175
f 147/1/148 92/1/148 90/1/148
f 147/1/179 90/1/179 88/1/179
f 158/1/176 159/1/176 160/1/176
f 160/1/170 159/1/170 161/1/170
f 160/1/148 161/1/148 150/1/148
f 150/1/148 161/1/148 162/1/148
f 150/1/175 162/1/175 151/1/175
f 144/1/162 163/1/162 145/1/162
f 145/1/175 163/1/175 164/1/175
f 145/1/180 164/1/180 165/1/180
f 165/1/181 164/1/181 166/1/181
f 165/1/171 166/1/171 167/1/171
f 167/1/182 166/1/182 168/1/182
f 167/1/161 168/1/161 158/1/161
f 158/1/175 168/1/175 169/1/175
f 158/1/177 169/1/177 159/1/177
f 47/1/183 48/1/183 489/1/183 490/1/183
f 491/1/184 492/1/184 35/1/184 36/1/184
f 493/1/185 494/1/185 51/1/185 53/1/185
f 492/1/186 495/1/186 34/1/187 35/1/187
f 495/1/188 493/1/188 53/1/188 34/1/188
f 34/1/189 53/1/189 55/1/189
f 496/1/190 491/1/190 36/1/190 38/1/190
f 497/1/191 496/1/191 38/1/191 45/1/191
f 498/1/192 497/1/192 45/1/192
f 46/1/193 499/1/193 498/1/193 45/1/193
f 46/1/194 47/1/194 490/1/194 499/1/194
f 494/1/195 500/1/195 51/1/195
f 170/1/196 51/1/196 500/1/196 501/1/196
f 51/1/197 170/1/197 58/1/197
f 58/1/198 170/1/198 60/1/198
f 171/1/199 172/1/199 503/1/199 502/1/199
f 173/1/200 48/1/200 174/1/200
f 504/1/201 505/1/201 175/1/201
f 176/1/202 175/1/202 505/1/202 506/1/202
f 175/1/203 176/1/203 177/1/203
f 175/1/204 177/1/204 174/1/204
f 174/1/205 177/1/205 178/1/205
f 174/1/206 178/1/206 173/1/206
f 175/1/207 171/1/207 507/1/207 508/1/207
f 508/1/208 509/1/208 175/1/208
f 509/1/209 504/1/209 175/1/209
f 101/1/210 103/1/210 510/1/210 511/1/210
f 510/1/211 103/1/211 488/1/211
f 102/1/212 101/1/212 179/1/212
f 179/1/213 101/1/213 511/1/213 512/1/213
f 513/1/214 179/1/214 512/1/214
f 105/1/215 180/1/215 104/1/215
f 104/1/216 180/1/216 181/1/216
f 104/1/217 181/1/217 106/1/217
f 106/1/218 181/1/218 182/1/218
f 106/1/219 182/1/219 107/1/219
f 107/1/220 182/1/220 183/1/220
f 107/1/221 183/1/221 108/1/221
f 108/1/222 183/1/222 42/1/222
f 108/1/223 42/1/223 40/1/223
f 514/1/224 184/1/224 515/1/224
f 172/1/225 184/1/225 514/1/225 503/1/225
f 184/1/226 172/1/226 185/1/226
f 515/1/227 184/1/227 516/1/227
f 184/1/228 179/1/228 513/1/228 516/1/228
f 179/1/229 184/1/229 185/1/229
f 179/1/230 185/1/230 102/1/230
f 48/1/231 42/1/231 174/1/231
f 174/1/232 42/1/232 183/1/232
f 174/1/233 183/1/233 175/1/233
f 175/1/234 183/1/234 182/1/234
f 175/1/235 182/1/235 171/1/235
f 171/1/236 182/1/236 181/1/236
f 171/1/237 181/1/237 172/1/237
f 172/1/238 181/1/238 180/1/238
f 172/1/239 180/1/239 185/1/239
f 185/1/240 180/1/240 105/1/240
f 185/1/241 105/1/241 102/1/241
f 517/1/242 507/1/242 171/1/242
f 518/1/243 517/1/243 171/1/243
f 518/1/244 171/1/244 502/1/244
f 519/1/245 489/1/245 48/1/245
f 48/1/246 173/1/246 520/1/246 519/1/246
f 521/1/247 520/1/247 173/1/247
f 173/1/248 178/1/248 522/1/248 521/1/248
f 523/1/249 522/1/249 178/1/249
f 178/1/250 177/1/250 524/1/250 523/1/250
f 177/1/251 176/1/251 525/1/251 524/1/251
f 526/1/252 525/1/252 176/1/252
f 506/1/253 526/1/253 176/1/253
f 8/1/254 6/1/254 186/1/254
f 187/1/255 188/1/255 63/1/255
f 63/1/256 66/1/256 187/1/256
f 187/1/257 66/1/257 476/1/257 527/1/257
f 528/1/258 187/1/258 527/1/258
f 65/1/259 64/1/259 189/1/259
f 189/1/260 64/1/260 190/1/260
f 189/1/261 190/1/261 191/1/261
f 191/1/262 190/1/262 2/1/262
f 191/1/263 2/1/263 1/1/263
f 186/1/264 6/1/264 190/1/264
f 190/1/265 6/1/265 5/1/265
f 190/1/266 5/1/266 2/1/266
f 192/1/267 193/1/267 19/1/267
f 19/1/268 17/1/268 192/1/268
f 192/1/269 17/1/269 15/1/269
f 192/1/270 15/1/270 194/1/270
f 194/1/271 15/1/271 14/1/271
f 194/1/272 14/1/272 195/1/272
f 195/1/273 14/1/273 12/1/273
f 195/1/274 12/1/274 10/1/274
f 25/1/275 24/1/275 196/1/275
f 196/1/276 24/1/276 22/1/276
f 196/1/277 22/1/277 193/1/277
f 193/1/278 22/1/278 21/1/278
f 193/1/279 21/1/279 19/1/279
f 27/1/280 197/1/280 28/1/280
f 28/1/281 197/1/281 30/1/281
f 10/1/282 198/1/282 195/1/282
f 195/1/283 198/1/283 199/1/283
f 195/1/284 199/1/284 194/1/284
f 194/1/285 199/1/285 200/1/285
f 194/1/286 200/1/286 192/1/286
f 10/1/287 8/1/287 198/1/287
f 198/1/288 8/1/288 186/1/288
f 198/1/289 186/1/289 187/1/289
f 187/1/290 186/1/290 190/1/290
f 187/1/291 190/1/291 188/1/291
f 188/1/292 190/1/292 64/1/292
f 188/1/293 64/1/293 63/1/293
f 478/1/294 30/1/294 529/1/294
f 529/1/295 30/1/295 197/1/295 530/1/295
f 197/1/296 196/1/296 531/1/296 530/1/296
f 196/1/297 197/1/297 27/1/297
f 196/1/298 27/1/298 25/1/298
f 200/1/299 201/1/299 192/1/299
f 192/1/300 201/1/300 202/1/300
f 192/1/301 202/1/301 193/1/301
f 193/1/302 202/1/302 203/1/302
f 193/1/303 203/1/303 196/1/303
f 196/1/304 203/1/304 204/1/304
f 531/1/305 196/1/305 204/1/305 532/1/305
f 533/1/306 187/1/306 528/1/306
f 534/1/307 187/1/307 533/1/307
f 535/1/308 198/1/308 187/1/308 534/1/308
f 536/1/309 198/1/309 535/1/309
f 199/1/310 198/1/310 536/1/310 537/1/310
f 538/1/311 199/1/311 537/1/311
f 539/1/312 200/1/312 199/1/312 538/1/312
f 540/1/313 200/1/313 539/1/313
f 541/1/314 201/1/314 200/1/314 540/1/314
f 542/1/315 201/1/315 541/1/315
f 543/1/316 202/1/316 201/1/316 542/1/316
f 544/1/317 202/1/317 543/1/317
f 545/1/318 203/1/318 202/1/318 544/1/318
f 546/1/319 203/1/319 545/1/319
f 547/1/320 204/1/320 203/1/320 546/1/320
f 548/1/321 204/1/321 547/1/321
f 532/1/322 204/1/322 548/1/322
f 549/1/323 206/1/323 205/1/323 550/1/323
f 551/1/324 206/1/324 549/1/324
f 65/1/325 206/1/325 551/1/325 552/1/325
f 65/1/326 552/1/326 471/1/326
f 550/1/327 205/1/327 207/1/327 553/1/327
f 553/1/328 207/1/328 208/1/328 554/1/328
f 554/1/329 208/1/329 555/1/329
f 555/1/330 208/1/330 209/1/330 556/1/330
f 556/1/331 209/1/331 210/1/331 557/1/331
f 557/1/332 210/1/332 211/1/332 558/1/332
f 558/1/333 211/1/333 212/1/333 559/1/333
f 212/1/334 213/1/334 560/1/334 559/1/334
f 561/1/335 215/1/335 214/1/335 562/1/335
f 563/1/336 215/1/336 561/1/336
f 216/1/337 215/1/337 563/1/337 564/1/337
f 213/1/338 216/1/338 564/1/338 560/1/338
f 139/1/339 217/1/339 140/1/339
f 140/1/340 217/1/340 218/1/340
f 135/1/341 219/1/341 133/1/341
f 133/1/342 219/1/342 220/1/342
f 133/1/343 220/1/343 3/1/343
f 221/1/344 222/1/344 220/1/344
f 220/1/345 222/1/345 1/1/345
f 220/1/346 1/1/346 3/1/346
f 223/1/347 219/1/347 218/1/347
f 218/1/348 219/1/348 135/1/348
f 218/1/349 135/1/349 140/1/349
f 223/1/350 224/1/350 219/1/350
f 219/1/351 224/1/351 225/1/351
f 219/1/352 225/1/352 226/1/352
f 226/1/353 227/1/353 219/1/353
f 219/1/354 227/1/354 228/1/354
f 219/1/355 228/1/355 220/1/355
f 220/1/356 228/1/356 229/1/356
f 220/1/357 229/1/357 221/1/357
f 230/1/358 231/1/358 217/1/358
f 217/1/358 231/1/358 214/1/358
f 217/1/358 214/1/358 218/1/358
f 218/1/358 214/1/358 215/1/358
f 218/1/358 215/1/358 223/1/358
f 223/1/358 215/1/358 216/1/358
f 223/1/359 216/1/359 224/1/359
f 224/1/360 216/1/360 213/1/360
f 224/1/361 213/1/361 225/1/361
f 225/1/362 213/1/362 212/1/362
f 225/1/363 212/1/363 226/1/363
f 226/1/364 212/1/364 211/1/364
f 226/1/365 211/1/365 227/1/365
f 207/1/366 205/1/366 222/1/366
f 191/1/367 1/1/367 222/1/367
f 206/1/368 65/1/368 189/1/368
f 191/1/369 222/1/369 189/1/369
f 189/1/370 222/1/370 205/1/370
f 189/1/371 205/1/371 206/1/371
f 207/1/372 222/1/372 208/1/372
f 208/1/373 222/1/373 221/1/373
f 208/1/374 221/1/374 209/1/374
f 221/1/375 229/1/375 209/1/375
f 209/1/376 229/1/376 228/1/376
f 209/1/377 228/1/377 210/1/377
f 210/1/378 228/1/378 227/1/378
f 210/1/379 227/1/379 211/1/379
f 232/1/380 233/1/380 234/1/380
f 234/1/381 233/1/381 235/1/381
f 236/1/382 566/1/382 565/1/382
f 565/1/383 567/1/383 236/1/383
f 562/1/384 214/1/384 568/1/384
f 214/1/385 231/1/385 569/1/385 568/1/385
f 236/1/386 567/1/386 569/1/386 231/1/386
f 236/1/387 231/1/388 237/1/387
f 236/1/389 237/1/389 238/1/389
f 238/1/390 239/1/390 236/1/390
f 236/1/391 239/1/391 240/1/391
f 236/1/392 240/1/392 241/1/392
f 241/1/393 232/1/393 236/1/393
f 236/1/394 232/1/394 234/1/394
f 236/1/395 234/1/395 570/1/395 566/1/395
f 570/1/396 234/1/396 235/1/396 571/1/396
f 235/1/397 572/1/397 571/1/397
f 235/1/398 242/1/398 573/1/398 572/1/398
f 243/1/399 244/1/399 240/1/399
f 240/1/400 244/1/400 241/1/400
f 241/1/401 244/1/401 232/1/401
f 232/1/402 244/1/402 245/1/402
f 232/1/403 245/1/403 233/1/403
f 233/1/404 245/1/404 246/1/404
f 233/1/405 246/1/405 235/1/405
f 246/1/406 247/1/406 235/1/406
f 235/1/407 247/1/407 248/1/407
f 235/1/408 248/1/408 242/1/408
f 231/1/409 230/1/409 237/1/409
f 237/1/410 230/1/410 249/1/410
f 237/1/411 249/1/411 238/1/411
f 238/1/412 249/1/412 239/1/412
f 249/1/413 250/1/413 239/1/413
f 239/1/414 250/1/414 243/1/414
f 239/1/415 243/1/415 240/1/415
f 251/1/416 252/1/416 144/1/416
f 253/1/417 254/1/417 151/1/417
f 255/1/418 256/1/418 130/1/418
f 126/1/419 131/1/419 248/1/419
f 130/1/420 256/1/420 131/1/420
f 131/1/421 256/1/421 257/1/421
f 131/1/422 257/1/422 248/1/422
f 154/1/423 258/1/423 130/1/423
f 130/1/424 258/1/424 259/1/424
f 130/1/425 259/1/425 255/1/425
f 260/1/426 261/1/426 153/1/426
f 153/1/427 261/1/427 262/1/427
f 153/1/428 262/1/428 154/1/428
f 154/1/429 262/1/429 263/1/429
f 154/1/430 263/1/430 258/1/430
f 151/1/431 254/1/431 153/1/431
f 153/1/432 254/1/432 264/1/432
f 153/1/433 264/1/433 260/1/433
f 253/1/434 151/1/434 265/1/434
f 265/1/435 151/1/435 162/1/435
f 265/1/436 162/1/436 266/1/436
f 267/1/437 268/1/437 159/1/437
f 159/1/438 268/1/438 269/1/438
f 159/1/439 269/1/439 161/1/439
f 161/1/440 269/1/440 270/1/440
f 161/1/441 270/1/441 162/1/441
f 162/1/442 270/1/442 271/1/442
f 162/1/443 271/1/443 266/1/443
f 169/1/444 272/1/444 273/1/444
f 169/1/445 273/1/445 159/1/445
f 159/1/446 273/1/446 274/1/446
f 159/1/447 274/1/447 267/1/447
f 272/1/448 169/1/448 275/1/448
f 275/1/449 169/1/449 168/1/449
f 275/1/450 168/1/450 276/1/450
f 166/1/451 277/1/451 278/1/451
f 166/1/452 278/1/452 168/1/452
f 168/1/453 278/1/453 279/1/453
f 168/1/454 279/1/455 276/1/455
f 277/1/456 166/1/456 280/1/456
f 280/1/457 166/1/457 164/1/457
f 280/1/458 164/1/458 281/1/458
f 282/1/459 283/1/459 163/1/459
f 163/1/460 283/1/460 284/1/460
f 163/1/461 284/1/461 164/1/461
f 164/1/462 284/1/462 285/1/462
f 164/1/463 285/1/463 281/1/463
f 144/1/464 252/1/464 163/1/464
f 163/1/465 252/1/465 286/1/465
f 163/1/466 286/1/466 282/1/466
f 251/1/467 144/1/467 287/1/467
f 287/1/468 144/1/468 142/1/468
f 287/1/469 142/1/469 288/1/469
f 288/1/470 142/1/470 289/1/470
f 289/1/471 142/1/471 141/1/471
f 289/1/472 141/1/472 290/1/472
f 290/1/473 141/1/473 291/1/473
f 291/1/474 141/1/474 122/1/474
f 291/1/475 122/1/475 292/1/475
f 293/1/476 294/1/476 295/1/476
f 295/1/477 296/1/477 293/1/477
f 293/1/478 296/1/478 297/1/478
f 293/1/479 297/1/479 298/1/479
f 297/1/480 299/1/480 298/1/480
f 298/1/481 299/1/481 300/1/481
f 298/1/482 300/1/482 301/1/482
f 301/1/483 300/1/483 302/1/483
f 302/1/484 300/1/484 303/1/484
f 302/1/485 303/1/485 292/1/485
f 61/1/486 62/1/486 304/1/486
f 304/1/487 62/1/487 305/1/487
f 305/1/488 306/1/488 304/1/488
f 304/1/489 306/1/489 307/1/489
f 304/1/490 307/1/490 308/1/490
f 308/1/491 307/1/491 309/1/491
f 308/1/492 309/1/492 310/1/492
f 310/1/493 309/1/493 295/1/493
f 310/1/494 295/1/494 294/1/494
f 299/1/495 311/1/495 300/1/495
f 501/1/496 574/1/496 170/1/496
f 311/1/497 299/1/497 312/1/497
f 312/1/498 299/1/498 297/1/498
f 312/1/499 297/1/499 296/1/499
f 296/1/500 295/1/500 312/1/500
f 312/1/501 295/1/501 309/1/501
f 312/1/502 309/1/502 307/1/502
f 307/1/503 306/1/503 312/1/503
f 312/1/504 306/1/504 305/1/504
f 312/1/505 305/1/505 62/1/505
f 60/1/506 170/1/506 62/1/506
f 62/1/507 170/1/507 574/1/507 575/1/507
f 576/1/508 312/1/508 62/1/508 575/1/508
f 312/1/509 576/1/509 577/1/509
f 311/1/510 312/1/510 577/1/510 578/1/510
f 311/1/511 578/1/511 579/1/511
f 311/1/512 579/1/512 580/1/512 300/1/512
f 300/1/513 580/1/513 581/1/513
f 303/1/514 300/1/514 581/1/514 582/1/514
f 301/1/515 313/1/515 298/1/515
f 298/1/516 313/1/516 293/1/516
f 304/1/517 308/1/517 314/1/517
f 314/1/518 308/1/518 310/1/518
f 314/1/519 310/1/519 294/1/519
f 59/1/520 61/1/520 110/1/520
f 110/1/521 61/1/521 116/1/521
f 110/1/522 116/1/522 113/1/522
f 61/1/523 304/1/523 116/1/523
f 116/1/524 304/1/524 314/1/524
f 116/1/525 314/1/525 119/1/525
f 119/1/526 314/1/526 120/1/526
f 294/1/527 293/1/527 314/1/527
f 314/1/528 293/1/528 313/1/528
f 314/1/529 313/1/529 120/1/529
f 120/1/530 313/1/530 301/1/530
f 120/1/531 301/1/531 122/1/531
f 122/1/532 301/1/532 302/1/532
f 122/1/533 302/1/533 292/1/533
f 259/1/534 258/1/534 315/1/534
f 254/1/535 253/1/535 316/1/535
f 251/1/536 287/1/536 317/1/536
f 318/1/537 242/1/537 248/1/537
f 292/1/538 303/1/538 291/1/538
f 291/1/539 303/1/539 319/1/539
f 287/1/540 288/1/540 317/1/540
f 317/1/541 288/1/541 289/1/541
f 317/1/542 289/1/542 319/1/542
f 319/1/543 289/1/543 290/1/543
f 319/1/544 290/1/544 291/1/544
f 283/1/545 282/1/545 320/1/545
f 320/1/546 282/1/546 286/1/546
f 320/1/547 286/1/547 317/1/547
f 317/1/548 286/1/548 252/1/548
f 317/1/549 252/1/549 251/1/549
f 321/1/550 281/1/550 285/1/550
f 321/1/551 285/1/551 320/1/551
f 320/1/552 285/1/552 284/1/552
f 320/1/553 284/1/553 283/1/553
f 279/1/554 278/1/554 322/1/554
f 322/1/555 278/1/555 277/1/555
f 322/1/556 277/1/556 321/1/556
f 321/1/557 277/1/557 280/1/557
f 321/1/558 280/1/558 281/1/558
f 323/1/559 275/1/559 322/1/559
f 322/1/560 275/1/560 276/1/560
f 322/1/561 276/1/561 279/1/561
f 267/1/562 274/1/562 324/1/562
f 324/1/563 274/1/563 273/1/563
f 324/1/564 273/1/564 323/1/564
f 323/1/565 273/1/565 272/1/565
f 323/1/566 272/1/566 275/1/566
f 325/1/567 270/1/567 269/1/567
f 325/1/568 269/1/568 324/1/568
f 324/1/569 269/1/569 268/1/569
f 324/1/570 268/1/570 267/1/570
f 253/1/571 265/1/571 316/1/571
f 316/1/572 265/1/572 266/1/572
f 316/1/573 266/1/573 325/1/573
f 325/1/574 266/1/574 271/1/574
f 325/1/575 271/1/575 270/1/575
f 254/1/576 316/1/576 264/1/576
f 264/1/577 316/1/577 326/1/577
f 264/1/578 326/1/578 260/1/578
f 258/1/579 263/1/579 315/1/579
f 315/1/580 263/1/580 262/1/580
f 315/1/581 262/1/581 326/1/581
f 326/1/582 262/1/582 261/1/582
f 326/1/583 261/1/583 260/1/583
f 248/1/584 257/1/584 318/1/584
f 318/1/585 257/1/585 256/1/585
f 318/1/586 256/1/586 315/1/586
f 315/1/587 256/1/587 255/1/587
f 315/1/588 255/1/588 259/1/588
f 249/1/589 230/1/589 250/1/589
f 250/1/590 230/1/590 327/1/590
f 250/1/591 327/1/591 243/1/591
f 247/1/592 246/1/592 328/1/592
f 328/1/593 246/1/593 245/1/593
f 328/1/594 245/1/594 327/1/594
f 327/1/595 245/1/595 244/1/595
f 327/1/596 244/1/596 243/1/596
f 217/1/597 139/1/597 230/1/597
f 230/1/598 139/1/598 137/1/598
f 230/1/599 137/1/599 327/1/599
f 327/1/600 137/1/600 136/1/600
f 327/1/601 136/1/601 328/1/601
f 328/1/602 136/1/602 128/1/602
f 328/1/603 128/1/603 247/1/603
f 247/1/604 128/1/604 126/1/604
f 247/1/605 126/1/605 248/1/605
f 242/1/606 583/1/606 573/1/606
f 329/1/607 303/1/607 582/1/607 584/1/607
f 329/1/608 584/1/608 585/1/608
f 585/1/609 586/1/609 329/1/609
f 330/1/610 329/1/610 586/1/610 587/1/610
f 587/1/611 588/1/611 330/1/611
f 331/1/612 330/1/612 588/1/612 589/1/612
f 589/1/613 590/1/613 331/1/613
f 332/1/614 331/1/614 590/1/614 591/1/614
f 591/1/615 592/1/615 332/1/615
f 333/1/616 332/1/616 592/1/616 593/1/616
f 333/1/617 593/1/617 594/1/617
f 334/1/618 333/1/618 594/1/618 595/1/618
f 595/1/619 596/1/619 334/1/619
f 335/1/619 334/1/619 596/1/619 597/1/619
f 597/1/620 598/1/620 335/1/620
f 599/1/621 336/1/621 335/1/621 598/1/621
f 599/1/622 600/1/622 336/1/622
f 337/1/623 336/1/623 600/1/623 601/1/623
f 601/1/624 602/1/624 337/1/624
f 338/1/625 337/1/625 602/1/625 603/1/625
f 603/1/626 604/1/626 338/1/626
f 339/1/627 338/1/627 604/1/627 605/1/627
f 605/1/628 606/1/628 339/1/628
f 340/1/629 339/1/629 606/1/629 607/1/629
f 242/1/630 340/1/630 607/1/630 583/1/630
f 341/1/631 125/1/631 127/1/631
f 341/1/632 342/1/632 125/1/632
f 125/1/633 342/1/633 343/1/633
f 125/1/634 343/1/634 129/1/634
f 343/1/635 344/1/635 129/1/635
f 129/1/636 344/1/636 345/1/636
f 129/1/637 345/1/637 152/1/637
f 345/1/638 346/1/638 152/1/638
f 152/1/639 346/1/639 347/1/639
f 152/1/640 347/1/640 150/1/640
f 347/1/641 348/1/641 150/1/641
f 150/1/642 348/1/642 349/1/642
f 150/1/643 349/1/643 160/1/643
f 349/1/644 350/1/644 160/1/644
f 160/1/645 350/1/645 351/1/645
f 160/1/646 351/1/646 158/1/646
f 351/1/647 352/1/647 158/1/647
f 158/1/648 352/1/648 353/1/648
f 158/1/649 353/1/649 167/1/649
f 353/1/650 354/1/650 167/1/650
f 167/1/651 354/1/651 355/1/651
f 167/1/652 355/1/652 165/1/652
f 355/1/653 356/1/653 165/1/653
f 165/1/654 356/1/654 357/1/654
f 165/1/655 357/1/655 145/1/655
f 357/1/656 358/1/656 145/1/656
f 145/1/657 358/1/657 359/1/657
f 145/1/658 359/1/658 143/1/658
f 359/1/659 360/1/659 143/1/659
f 143/1/660 360/1/660 361/1/660
f 143/1/661 361/1/661 121/1/661
f 361/1/662 362/1/662 121/1/662
f 121/1/663 362/1/663 363/1/663
f 121/1/664 363/1/664 115/1/664
f 363/1/665 364/1/665 115/1/665
f 115/1/666 364/1/666 365/1/666
f 115/1/667 365/1/667 114/1/667
f 365/1/668 366/1/668 114/1/668
f 114/1/669 366/1/669 367/1/669
f 114/1/670 367/1/670 118/1/670
f 367/1/671 368/1/671 118/1/671
f 118/1/672 368/1/672 369/1/672
f 118/1/673 369/1/673 117/1/673
f 369/1/674 370/1/674 117/1/674
f 117/1/675 370/1/675 371/1/675
f 117/1/676 371/1/676 146/1/676
f 371/1/677 372/1/677 146/1/677
f 146/1/678 372/1/678 373/1/678
f 146/1/679 373/1/679 132/1/679
f 373/1/680 374/1/680 132/1/680
f 132/1/681 374/1/681 375/1/681
f 132/1/682 375/1/682 147/1/682
f 375/1/683 376/1/683 147/1/683
f 147/1/684 376/1/684 377/1/684
f 147/1/685 377/1/685 157/1/685
f 377/1/686 378/1/686 157/1/686
f 157/1/687 378/1/687 379/1/687
f 157/1/688 379/1/688 155/1/688
f 379/1/689 380/1/689 155/1/689
f 155/1/690 380/1/690 381/1/690
f 155/1/691 381/1/691 156/1/691
f 381/1/692 382/1/692 156/1/692
f 156/1/693 382/1/693 383/1/693
f 156/1/694 383/1/694 149/1/694
f 383/1/695 384/1/695 149/1/695
f 149/1/696 384/1/696 385/1/696
f 149/1/697 385/1/697 148/1/697
f 385/1/698 386/1/698 148/1/698
f 148/1/699 386/1/699 387/1/699
f 148/1/700 387/1/700 123/1/700
f 387/1/701 388/1/701 123/1/701
f 123/1/702 388/1/702 389/1/702
f 123/1/703 389/1/703 124/1/703
f 389/1/704 390/1/704 124/1/704
f 124/1/705 390/1/705 391/1/705
f 124/1/706 391/1/706 134/1/706
f 134/1/707 391/1/707 392/1/707
f 134/1/708 392/1/708 138/1/708
f 138/1/709 392/1/709 393/1/709
f 138/1/710 393/1/710 127/1/710
f 127/1/711 393/1/711 394/1/711
f 127/1/712 394/1/712 341/1/712
f 395/1/151 396/1/151 397/1/151
f 398/1/151 399/1/151 397/1/151
f 397/1/151 399/1/151 400/1/151
f 397/1/151 400/1/151 395/1/151
f 401/1/151 402/1/151 397/1/151
f 397/1/151 402/1/151 403/1/151
f 397/1/151 403/1/151 398/1/151
f 404/1/151 405/1/151 397/1/151
f 397/1/151 405/1/151 406/1/151
f 397/1/151 406/1/151 401/1/151
f 407/1/151 408/1/151 397/1/151
f 397/1/151 408/1/151 409/1/151
f 397/1/151 409/1/151 404/1/151
f 410/1/151 411/1/151 397/1/151
f 397/1/151 411/1/151 412/1/151
f 397/1/151 412/1/151 407/1/151
f 413/1/151 414/1/151 397/1/151
f 397/1/151 414/1/151 415/1/151
f 397/1/151 415/1/151 410/1/151
f 396/1/151 416/1/151 397/1/151
f 397/1/151 416/1/151 417/1/151
f 397/1/151 417/1/151 413/1/151
f 418/1/713 407/1/713 419/1/713
f 419/1/714 407/1/714 412/1/714
f 419/1/714 412/1/714 420/1/714
f 420/1/715 412/1/715 411/1/715
f 420/1/715 411/1/715 421/1/715
f 421/1/716 411/1/716 410/1/716
f 421/1/716 410/1/716 422/1/716
f 422/1/717 410/1/717 415/1/717
f 422/1/718 415/1/718 423/1/718
f 423/1/719 415/1/719 414/1/719
f 423/1/719 414/1/719 424/1/719
f 424/1/720 414/1/720 413/1/720
f 424/1/720 413/1/720 425/1/720
f 425/1/721 413/1/721 417/1/721
f 425/1/721 417/1/721 426/1/721
f 426/1/722 417/1/722 416/1/722
f 426/1/723 416/1/723 427/1/723
f 427/1/724 416/1/724 396/1/724
f 427/1/725 396/1/725 428/1/725
f 428/1/726 396/1/726 395/1/726
f 428/1/727 395/1/727 429/1/727
f 429/1/728 395/1/728 400/1/728
f 429/1/728 400/1/728 430/1/728
f 430/1/729 400/1/729 399/1/729
f 430/1/729 399/1/729 431/1/729
f 431/1/730 399/1/730 398/1/730
f 431/1/730 398/1/730 432/1/730
f 432/1/731 398/1/731 403/1/731
f 432/1/731 403/1/731 433/1/731
f 433/1/732 403/1/732 402/1/732
f 433/1/732 402/1/732 434/1/732
f 434/1/733 402/1/733 401/1/733
f 434/1/733 401/1/733 435/1/733
f 435/1/734 401/1/734 406/1/734
f 435/1/734 406/1/734 436/1/734
f 436/1/735 406/1/735 405/1/735
f 436/1/735 405/1/735 437/1/735
f 437/1/736 405/1/736 404/1/736
f 437/1/736 404/1/736 438/1/736
f 438/1/737 404/1/737 409/1/737
f 438/1/738 409/1/738 439/1/738
f 439/1/739 409/1/739 408/1/739
f 439/1/739 408/1/739 418/1/739
f 418/1/713 408/1/713 407/1/713
f 440/1/151 429/1/151 430/1/151
f 421/1/151 441/1/151 420/1/151
f 420/1/151 441/1/151 442/1/151
f 420/1/151 442/1/151 419/1/151
f 419/1/151 442/1/151 443/1/151
f 419/1/151 443/1/151 418/1/151
f 418/1/151 443/1/151 444/1/151
f 418/1/151 444/1/151 439/1/151
f 439/1/151 444/1/151 445/1/151
f 439/1/151 445/1/151 438/1/151
f 434/1/151 446/1/151 433/1/151
f 433/1/151 446/1/151 447/1/151
f 433/1/151 447/1/151 432/1/151
f 432/1/151 447/1/151 448/1/151
f 432/1/151 448/1/151 431/1/151
f 431/1/151 448/1/151 449/1/151
f 431/1/151 449/1/151 430/1/151
f 430/1/151 449/1/151 450/1/151
f 430/1/151 450/1/151 440/1/151
f 440/1/151 451/1/151 429/1/151
f 429/1/151 451/1/151 452/1/151
f 429/1/151 452/1/151 428/1/151
f 428/1/151 452/1/151 453/1/151
f 428/1/151 453/1/151 427/1/151
f 427/1/151 453/1/151 454/1/151
f 427/1/151 454/1/151 426/1/151
f 426/1/151 454/1/151 455/1/151
f 426/1/151 455/1/151 425/1/151
f 445/1/151 456/1/151 438/1/151
f 438/1/151 456/1/151 457/1/151
f 438/1/151 457/1/151 437/1/151
f 437/1/151 457/1/151 458/1/151
f 437/1/151 458/1/151 436/1/151
f 436/1/151 458/1/151 459/1/151
f 436/1/151 459/1/151 435/1/151
f 435/1/151 459/1/151 460/1/151
f 435/1/151 460/1/151 434/1/151
f 434/1/151 460/1/151 461/1/151
f 434/1/151 461/1/151 446/1/151
f 455/1/151 462/1/151 425/1/151
f 425/1/151 462/1/151 463/1/151
f 425/1/151 463/1/151 424/1/151
f 424/1/151 463/1/151 464/1/151
f 424/1/151 464/1/151 423/1/151
f 423/1/151 464/1/151 465/1/151
f 423/1/151 465/1/151 422/1/151
f 422/1/151 465/1/151 466/1/151
f 422/1/151 466/1/151 421/1/151
f 421/1/151 466/1/151 467/1/151
f 421/1/151 467/1/151 441/1/151
f 444/1/740 393/1/740 392/1/740
f 444/1/741 392/1/741 445/1/741
f 445/1/742 392/1/742 391/1/742
f 445/1/743 391/1/743 456/1/743
f 391/1/744 390/1/744 456/1/744
f 456/1/745 390/1/745 389/1/745
f 456/1/746 389/1/746 457/1/746
f 457/1/747 389/1/747 388/1/747
f 388/1/748 387/1/748 457/1/748
f 457/1/749 387/1/749 386/1/749
f 457/1/750 386/1/750 458/1/750
f 458/1/751 386/1/751 385/1/751
f 458/1/752 385/1/752 459/1/752
f 459/1/753 385/1/753 384/1/753
f 384/1/754 383/1/754 459/1/754
f 459/1/755 383/1/755 382/1/755
f 459/1/756 382/1/756 460/1/756
f 460/1/757 382/1/757 381/1/757
f 460/1/758 381/1/758 461/1/758
f 381/1/759 380/1/759 461/1/759
f 461/1/760 380/1/760 379/1/760
f 461/1/761 379/1/761 446/1/761
f 379/1/762 378/1/762 446/1/762
f 446/1/763 378/1/763 377/1/763
f 446/1/764 377/1/764 447/1/764
f 447/1/765 377/1/765 376/1/765
f 376/1/766 375/1/766 447/1/766
f 447/1/767 375/1/767 374/1/767
f 447/1/768 374/1/768 448/1/768
f 448/1/769 374/1/769 373/1/769
f 448/1/770 373/1/770 449/1/770
f 449/1/771 373/1/771 372/1/771
f 372/1/772 371/1/772 449/1/772
f 449/1/773 371/1/773 370/1/773
f 449/1/774 370/1/774 450/1/774
f 450/1/775 370/1/775 369/1/775
f 450/1/776 369/1/776 440/1/776
f 369/1/777 368/1/777 440/1/777
f 440/1/778 368/1/778 367/1/778
f 440/1/779 367/1/779 451/1/779
f 451/1/780 367/1/780 366/1/780
f 451/1/781 366/1/781 452/1/781
f 366/1/782 365/1/782 452/1/782
f 452/1/783 365/1/783 364/1/783
f 452/1/784 364/1/784 453/1/784
f 364/1/785 363/1/785 453/1/785
f 453/1/786 363/1/786 362/1/786
f 453/1/787 362/1/787 454/1/787
f 362/1/788 361/1/788 454/1/788
f 454/1/789 361/1/789 360/1/789
f 454/1/790 360/1/790 455/1/790
f 360/1/791 359/1/791 455/1/791
f 455/1/792 359/1/792 358/1/792
f 455/1/793 358/1/793 462/1/793
f 358/1/794 357/1/794 462/1/794
f 462/1/795 357/1/795 356/1/795
f 462/1/796 356/1/796 463/1/796
f 356/1/797 355/1/797 463/1/797
f 463/1/798 355/1/798 354/1/798
f 463/1/799 354/1/799 464/1/799
f 354/1/800 353/1/800 464/1/800
f 464/1/801 353/1/801 352/1/801
f 464/1/802 352/1/802 465/1/802
f 352/1/803 351/1/803 465/1/803
f 465/1/804 351/1/804 350/1/804
f 465/1/805 350/1/805 466/1/805
f 350/1/806 349/1/806 466/1/806
f 466/1/807 349/1/807 348/1/807
f 466/1/808 348/1/808 467/1/808
f 348/1/809 347/1/809 467/1/809
f 467/1/810 347/1/810 346/1/810
f 467/1/811 346/1/811 441/1/811
f 346/1/812 345/1/812 441/1/812
f 441/1/813 345/1/813 344/1/813
f 441/1/814 344/1/814 442/1/814
f 344/1/815 343/1/815 442/1/815
f 442/1/816 343/1/816 342/1/816
f 442/1/817 342/1/817 443/1/817
f 443/1/818 342/1/818 341/1/818
f 443/1/819 341/1/819 444/1/819
f 444/1/820 341/1/820 394/1/820
f 444/1/821 394/1/821 393/1/821
f 479/2/822 477/3/822 478/4/822 529/5/822 530/6/822 531/7/822 532/8/822 548/9/822 547/10/822 546/11/822 545/12/822 544/13/822 543/14/822 542/15/822 541/16/822 540/17/822 539/18/822 538/19/822 537/20/822 536/21/822 535/22/822 534/23/822 533/24/822 528/25/822 527/26/822 476/27/822 475/28/822 474/29/822 473/30/822 472/31/822 468/32/822 469/33/822 470/34/822 471/35/822 552/36/822 551/37/822 549/38/822 550/39/822 553/40/822 554/41/822 555/42/822 556/43/822 557/44/822 558/45/822 559/46/822 560/47/822 564/48/822 563/49/822 561/50/822 562/51/822 568/52/822 569/53/822 567/54/822 565/55/822 566/56/822 570/57/822 571/58/822 572/59/822 573/60/822 583/61/822 607/62/822 606/63/822 605/64/822 604/65/822 603/66/822 602/67/822 601/68/822 600/69/822 599/70/822 598/71/822 597/72/822 596/73/822 595/74/822 594/75/822 593/76/822 592/77/822 591/78/822 590/79/822 589/80/822 588/81/822 587/82/822 586/83/822 585/84/822 584/85/822 582/86/822 581/87/822 580/88/822 579/89/822 578/90/822 577/91/822 576/92/822 575/93/822 574/94/822 501/95/822 500/96/822 494/97/822 493/98/822 495/99/822 492/100/822 491/101/822 496/102/822 497/103/822 498/104/822 499/105/822 490/106/822 489/107/822 519/108/822 520/109/822 521/110/822 522/111/822 523/112/822 524/113/822 525/114/822 526/115/822 506/116/822 505/117/822 504/118/822 509/119/822 508/120/822 507/121/822 517/122/822 518/123/822 502/124/822 503/125/822 514/126/822 515/127/822 516/128/822 513/129/822 512/130/822 511/131/822 510/132/822 488/133/822 487/134/822 486/135/822 485/136/822 484/137/822 483/138/822 482/139/822 481/140/822 480/141/822
