# Blender 4.2.3 LTS
# www.blender.org
mtllib right_wrist_pitch_link.mtl
o right_wrist_pitch_link
v 0.018148 0.020704 -0.019042
v 0.019637 0.020869 -0.018524
v 0.017728 0.016862 -0.023291
v 0.016646 0.020598 -0.019624
v 0.019297 0.017004 -0.022673
v 0.012045 0.016700 -0.025830
v 0.010439 0.020500 -0.022386
v 0.013645 0.016709 -0.025088
v 0.012045 0.020500 -0.021641
v 0.015217 0.016740 -0.024374
v 0.014754 0.020527 -0.020421
v 0.017497 0.016846 -0.023386
v 0.015120 0.020537 -0.020262
v 0.016123 0.020573 -0.019838
v 0.019343 0.016992 0.023291
v 0.017407 0.020625 0.019819
v 0.018013 0.016859 0.023601
v 0.016368 0.020564 0.020098
v 0.017402 0.016814 0.023768
v 0.019312 0.020819 0.019410
v 0.018560 0.020728 0.019556
v 0.018042 0.020676 0.019668
v 0.012045 0.020500 0.021665
v 0.012626 0.016700 0.025563
v 0.014571 0.016711 0.024737
v 0.016344 0.016758 0.024094
v 0.014614 0.020513 0.020658
v 0.015283 0.016724 0.024465
v 0.013670 0.020504 0.021004
v 0.012740 0.020500 0.021373
v 0.010667 0.020500 0.022280
v 0.010439 0.020500 0.022386
v 0.012045 0.016700 0.025830
v 0.016252 -0.022523 0.020297
v 0.017340 -0.022546 0.020027
v 0.017062 -0.020643 0.022044
v 0.017966 -0.022564 0.019887
v 0.019886 -0.022647 0.019518
v 0.013354 -0.022501 0.021192
v 0.014203 -0.022503 0.020901
v 0.014162 -0.020604 0.022919
v 0.014587 -0.022505 0.020778
v 0.016063 -0.022520 0.020347
v 0.012389 -0.022500 0.021552
v 0.011546 -0.020600 0.023968
v 0.012045 -0.022500 0.021688
v 0.011242 -0.020600 0.024108
v 0.010439 -0.022500 0.022386
v 0.015534 -0.018714 0.024455
v 0.014970 -0.018708 0.024645
v 0.014557 -0.019677 0.023764
v 0.013770 -0.018702 0.025089
v 0.011939 -0.019670 0.024810
v 0.012045 -0.018700 0.025830
v 0.011634 -0.019670 0.024950
v 0.017341 -0.018747 0.023925
v 0.017459 -0.019723 0.022898
v 0.017872 -0.018762 0.023790
v 0.019192 -0.018813 0.023493
v 0.010439 -0.022500 -0.022386
v 0.012045 -0.018700 -0.025830
v 0.012045 -0.022500 -0.021648
v 0.014227 -0.018701 -0.024832
v 0.014126 -0.022501 -0.020728
v 0.016314 -0.018708 -0.023923
v 0.014601 -0.022502 -0.020526
v 0.017429 -0.018718 -0.023462
v 0.016132 -0.022509 -0.019893
v 0.017318 -0.022520 -0.019428
v 0.018313 -0.018730 -0.023111
v 0.018069 -0.022531 -0.019147
v 0.019792 -0.018765 -0.022558
v 0.019942 -0.022579 -0.018499
v -0.024545 -0.018700 -0.014484
v -0.021470 -0.022500 -0.012212
v -0.021637 -0.022500 -0.011914
v 0.010408 -0.018700 -0.026532
v 0.008587 -0.022500 -0.023159
v 0.009837 -0.018700 -0.026749
v 0.008742 -0.018700 -0.027126
v 0.006198 -0.022500 -0.023910
v 0.008096 -0.018700 -0.027326
v 0.003594 -0.018700 -0.028273
v 0.004467 -0.018700 -0.028148
v 0.003728 -0.022500 -0.024417
v 0.005333 -0.018700 -0.027997
v 0.007050 -0.018700 -0.027614
v 0.002816 -0.018700 -0.028361
v 0.001211 -0.022500 -0.024670
v 0.001039 -0.018700 -0.028481
v -0.002488 -0.018700 -0.028391
v -0.001531 -0.018700 -0.028459
v -0.001321 -0.022500 -0.024665
v -0.000730 -0.018700 -0.028491
v 0.000762 -0.018700 -0.028490
v -0.002957 -0.018700 -0.028346
v -0.003831 -0.022500 -0.024401
v -0.004234 -0.018700 -0.028184
v -0.005967 -0.018700 -0.027868
v -0.006288 -0.022500 -0.023886
v -0.006730 -0.018700 -0.027694
v -0.008447 -0.018700 -0.027219
v -0.008658 -0.022500 -0.023133
v -0.009880 -0.018700 -0.026733
v -0.013324 -0.018700 -0.025193
v -0.012511 -0.018700 -0.025607
v -0.010915 -0.022500 -0.022157
v -0.011745 -0.018700 -0.025967
v -0.010119 -0.018700 -0.026643
v -0.013561 -0.018700 -0.025067
v -0.013062 -0.022500 -0.020964
v -0.014855 -0.018700 -0.024322
v -0.015518 -0.018700 -0.023905
v -0.014851 -0.022500 -0.019736
v -0.016711 -0.018700 -0.023087
v -0.019678 -0.018700 -0.020616
v -0.019438 -0.018700 -0.020843
v -0.016773 -0.022500 -0.018132
v -0.018368 -0.018700 -0.021792
v -0.016981 -0.018700 -0.022889
v -0.020912 -0.018700 -0.019363
v -0.018534 -0.022500 -0.016328
v -0.021456 -0.018700 -0.018759
v -0.020106 -0.022500 -0.014346
v -0.022556 -0.018700 -0.017421
v -0.022069 -0.018700 -0.018034
v -0.024263 -0.018700 -0.014953
v -0.023600 -0.018700 -0.015978
v -0.023239 -0.018700 -0.016499
v -0.022739 -0.022500 -0.009645
v -0.026004 -0.018700 -0.011664
v -0.025393 -0.018700 -0.012940
v -0.027302 -0.018700 -0.008177
v -0.027051 -0.018700 -0.008973
v -0.023600 -0.022500 -0.007290
v -0.026794 -0.018700 -0.009712
v -0.026143 -0.018700 -0.011349
v -0.027558 -0.018700 -0.007268
v -0.024213 -0.022500 -0.004882
v -0.027955 -0.018700 -0.005546
v -0.028134 -0.018700 -0.004550
v -0.024578 -0.022500 -0.002452
v -0.028244 -0.018700 -0.003809
v -0.028500 -0.018700 0.000000
v -0.028498 -0.018700 -0.000297
v -0.024700 -0.022500 -0.000000
v -0.028426 -0.018700 -0.002058
v -0.028350 -0.018700 -0.002916
v -0.000996 -0.018700 0.028483
v -0.001531 -0.018700 0.028459
v -0.001321 -0.022500 0.024665
v -0.028444 -0.018700 0.001780
v -0.024578 -0.022500 0.002452
v -0.028350 -0.018700 0.002916
v -0.024213 -0.022500 0.004882
v -0.028242 -0.018700 0.003825
v -0.028279 -0.018700 0.003541
v -0.027200 -0.018700 0.008509
v -0.027473 -0.018700 0.007580
v -0.023600 -0.022500 0.007290
v -0.027627 -0.018700 0.006998
v -0.028006 -0.018700 0.005281
v -0.022739 -0.022500 0.009645
v -0.026893 -0.018700 0.009434
v -0.027142 -0.018700 0.008691
v -0.024467 -0.018700 0.014615
v -0.024680 -0.018700 0.014253
v -0.021470 -0.022500 0.012212
v -0.025513 -0.018700 0.012702
v -0.021636 -0.022500 0.011914
v -0.026207 -0.018700 0.011199
v -0.026252 -0.018700 0.011095
v -0.023754 -0.018700 0.015748
v -0.020106 -0.022500 0.014346
v -0.023239 -0.018700 0.016499
v -0.018534 -0.022500 0.016328
v -0.022255 -0.018700 0.017804
v -0.022735 -0.018700 0.017186
v -0.019699 -0.018700 0.020596
v -0.019870 -0.018700 0.020431
v -0.016773 -0.022500 0.018132
v -0.021099 -0.018700 0.019159
v -0.021456 -0.018700 0.018759
v -0.016756 -0.018700 0.023054
v -0.017202 -0.018700 0.022723
v -0.014851 -0.022500 0.019736
v -0.018571 -0.018700 0.021619
v -0.019438 -0.018700 0.020843
v -0.015765 -0.018700 0.023743
v -0.013062 -0.022500 0.020964
v -0.015107 -0.018700 0.024167
v -0.013568 -0.018700 0.025063
v -0.010915 -0.022500 0.022157
v -0.012511 -0.018700 0.025607
v -0.011988 -0.018700 0.025856
v -0.008658 -0.022500 0.023133
v -0.010368 -0.018700 0.026547
v -0.006288 -0.022500 0.023886
v -0.008711 -0.018700 0.027136
v -0.010021 -0.018700 0.026680
v -0.006350 -0.018700 0.027784
v -0.006256 -0.018700 0.027805
v -0.003831 -0.022500 0.024401
v -0.007018 -0.018700 0.027623
v -0.007159 -0.018700 0.027586
v -0.002564 -0.018700 0.028384
v -0.002753 -0.018700 0.028367
v -0.004507 -0.018700 0.028141
v 0.000763 -0.018700 0.028490
v 0.001211 -0.022500 0.024670
v 0.001332 -0.018700 0.028469
v 0.002521 -0.018700 0.028388
v 0.003728 -0.022500 0.024417
v 0.003300 -0.018700 0.028308
v 0.006198 -0.022500 0.023910
v 0.005060 -0.018700 0.028047
v 0.004197 -0.018700 0.028189
v 0.008587 -0.022500 0.023159
v 0.008485 -0.018700 0.027208
v 0.006788 -0.018700 0.027680
v 0.009837 -0.018700 0.026749
v 0.008796 -0.018700 0.027109
v 0.011775 -0.018700 0.025954
v 0.010148 -0.018700 0.026632
v -0.028500 0.016700 -0.000000
v -0.024700 0.020500 0.000000
v -0.028444 0.016700 -0.001780
v -0.024573 0.020500 -0.002496
v -0.024195 0.020500 -0.004969
v -0.028279 0.016700 -0.003541
v -0.028354 0.016700 -0.002880
v -0.027142 0.016700 -0.008691
v -0.027302 0.016700 -0.008177
v -0.023567 0.020500 -0.007395
v -0.027627 0.016700 -0.006998
v -0.028006 0.016700 -0.005281
v -0.026893 0.016700 -0.009434
v -0.022698 0.020500 -0.009741
v -0.026252 0.016700 -0.011095
v -0.024680 0.016700 -0.014253
v -0.024918 0.016700 -0.013833
v -0.021595 0.020500 -0.011989
v -0.025513 0.016700 -0.012702
v -0.026004 0.016700 -0.011664
v -0.024263 0.016700 -0.014953
v -0.020271 0.020500 -0.014112
v -0.023754 0.016700 -0.015748
v -0.022108 0.016700 -0.017986
v -0.022255 0.016700 -0.017804
v -0.018739 0.020500 -0.016091
v -0.022735 0.016700 -0.017186
v -0.023390 0.016700 -0.016284
v -0.019576 0.016700 -0.020713
v -0.019870 0.016700 -0.020431
v -0.017012 0.020500 -0.017908
v -0.021099 0.016700 -0.019159
v -0.021622 0.016700 -0.018567
v -0.018571 0.016700 -0.021619
v -0.015113 0.020500 -0.019537
v -0.017202 0.016700 -0.022723
v -0.013062 0.020500 -0.020964
v -0.015765 0.016700 -0.023743
v -0.016711 0.016700 -0.023087
v -0.010874 0.020500 -0.022178
v -0.013568 0.016700 -0.025063
v -0.015107 0.016700 -0.024167
v -0.010179 0.016700 -0.026620
v -0.010368 0.016700 -0.026547
v -0.008573 0.020500 -0.023165
v -0.011988 0.016700 -0.025856
v -0.012547 0.016700 -0.025590
v -0.008711 0.016700 -0.027136
v -0.006182 0.020500 -0.023914
v -0.007018 0.016700 -0.027623
v -0.003731 0.020500 -0.024416
v -0.006256 0.016700 -0.027805
v -0.006624 0.016700 -0.027719
v -0.001427 0.016700 -0.028464
v -0.002753 0.016700 -0.028367
v -0.001237 0.020500 -0.024669
v -0.002957 0.016700 -0.028346
v -0.004507 0.016700 -0.028141
v 0.002521 0.016700 -0.028388
v 0.001459 0.016700 -0.028463
v 0.001265 0.020500 -0.024667
v 0.000763 0.016700 -0.028490
v -0.000996 0.016700 -0.028483
v 0.003300 0.016700 -0.028308
v 0.003756 0.020500 -0.024413
v 0.004467 0.016700 -0.028148
v 0.005060 0.016700 -0.028047
v 0.006210 0.020500 -0.023907
v 0.006788 0.016700 -0.027680
v 0.010148 0.016700 -0.026632
v 0.009919 0.016700 -0.026718
v 0.008596 0.020500 -0.023156
v 0.008485 0.016700 -0.027208
v 0.008096 0.016700 -0.027326
v 0.011775 0.016700 -0.025954
v 0.010408 0.016700 0.026532
v 0.008596 0.020500 0.023156
v 0.006210 0.020500 0.023907
v 0.008742 0.016700 0.027126
v 0.009919 0.016700 0.026718
v 0.004333 0.016700 0.028169
v 0.005079 0.016700 0.028044
v 0.003756 0.020500 0.024413
v 0.005333 0.016700 0.027997
v 0.007050 0.016700 0.027614
v 0.001039 0.016700 0.028481
v 0.001269 0.016700 0.028472
v 0.001265 0.020500 0.024667
v 0.002816 0.016700 0.028361
v 0.003594 0.016700 0.028273
v -0.000730 0.016700 0.028491
v -0.001237 0.020500 0.024669
v -0.001427 0.016700 0.028464
v -0.002488 0.016700 0.028391
v -0.003731 0.020500 0.024416
v -0.004234 0.016700 0.028184
v -0.005967 0.016700 0.027868
v -0.006182 0.020500 0.023914
v -0.006350 0.016700 0.027784
v -0.008573 0.020500 0.023164
v -0.008447 0.016700 0.027219
v -0.006730 0.016700 0.027694
v -0.010119 0.016700 0.026643
v -0.010021 0.016700 0.026680
v -0.009892 0.016700 0.026728
v -0.011745 0.016700 0.025967
v -0.010874 0.020500 0.022178
v -0.012547 0.016700 0.025590
v -0.013062 0.020500 0.020964
v -0.013511 0.016700 0.025094
v -0.013324 0.016700 0.025193
v -0.016981 0.016700 0.022889
v -0.016756 0.016700 0.023054
v -0.015113 0.020500 0.019537
v -0.015518 0.016700 0.023905
v -0.014855 0.016700 0.024322
v -0.017012 0.020500 0.017908
v -0.018368 0.016700 0.021792
v -0.017438 0.016700 0.022542
v -0.018739 0.020500 0.016091
v -0.020913 0.016700 0.019363
v -0.019678 0.016700 0.020616
v -0.022285 0.016700 0.017766
v -0.022556 0.016700 0.017421
v -0.020271 0.020500 0.014112
v -0.022069 0.016700 0.018034
v -0.021622 0.016700 0.018567
v -0.024918 0.016700 0.013833
v -0.024545 0.016700 0.014484
v -0.021595 0.020500 0.011989
v -0.024467 0.016700 0.014615
v -0.023600 0.016700 0.015978
v -0.025393 0.016700 0.012940
v -0.022698 0.020500 0.009741
v -0.026143 0.016700 0.011349
v -0.027473 0.016700 0.007580
v -0.027051 0.016700 0.008973
v -0.023567 0.020500 0.007395
v -0.026794 0.016700 0.009712
v -0.026207 0.016700 0.011199
v -0.027558 0.016700 0.007268
v -0.024195 0.020500 0.004969
v -0.027917 0.016700 0.005733
v -0.024573 0.020500 0.002496
v -0.028244 0.016700 0.003808
v -0.027955 0.016700 0.005545
v -0.028498 0.016700 0.000297
v -0.028426 0.016700 0.002058
v -0.028354 0.016700 0.002880
v 0.020000 0.018156 -0.021312
v 0.020000 0.018352 -0.021113
v 0.020000 0.019814 -0.019560
v 0.020000 0.020423 -0.018938
v 0.020000 0.020921 -0.018409
v 0.020000 0.017091 -0.022420
v 0.020000 0.017552 -0.021934
v 0.020000 0.019185 0.021045
v 0.020000 0.020929 0.019301
v 0.020000 0.017914 0.022320
v 0.020000 0.017530 0.022711
v 0.020000 0.017079 0.023166
v 0.020000 -0.020916 0.021266
v 0.020000 -0.020762 0.021427
v 0.020000 -0.021922 0.020240
v 0.020000 -0.022654 0.019499
v 0.020000 -0.019838 0.022378
v 0.020000 -0.018917 0.023282
v 0.020000 -0.018856 0.023338
v 0.020000 -0.019993 0.022224
v 0.020000 -0.018772 -0.022484
v 0.020000 -0.019183 -0.022052
v 0.020000 -0.021820 -0.019278
v 0.020000 -0.022476 -0.018590
v 0.020000 -0.022581 -0.018480
v 0.020000 -0.015463 -0.022485
v 0.020000 -0.009872 -0.022470
v 0.020000 -0.011663 0.023304
v 0.020000 -0.022602 -0.007859
v 0.020000 0.020920 -0.010349
vn 0.1201 0.7076 -0.6964
vn 0.1563 0.7191 -0.6771
vn 0.0796 0.7124 -0.6972
vn 0.1125 0.7239 -0.6807
vn 0.1988 0.7152 -0.6701
vn 0.2069 0.7172 -0.6654
vn 0.1569 0.7161 -0.6801
vn 0.1320 0.7111 -0.6906
vn 0.2942 0.7071 -0.6430
vn 0.2972 0.7080 -0.6407
vn 0.2806 0.7078 -0.6483
vn 0.2837 0.7088 -0.6459
vn 0.2503 0.7136 -0.6544
vn 0.2621 0.7162 -0.6467
vn 0.2260 0.7100 -0.6669
vn 0.2503 0.7153 -0.6524
vn 0.2345 0.7146 -0.6590
vn 0.0908 0.7130 0.6953
vn 0.1427 0.7128 0.6867
vn 0.1362 0.7119 0.6889
vn -0.0025 0.7069 0.7073
vn 0.0036 0.7082 0.7060
vn 0.0499 0.7127 0.6997
vn 0.0388 0.7106 0.7025
vn 0.0800 0.7131 0.6965
vn 0.1057 0.7159 0.6901
vn 0.2722 0.7090 0.6506
vn 0.1714 0.7129 0.6800
vn 0.1958 0.7095 0.6770
vn 0.2118 0.7110 0.6705
vn 0.2362 0.7091 0.6643
vn 0.2404 0.7093 0.6626
vn 0.2581 0.7082 0.6572
vn 0.2728 0.7091 0.6502
vn 0.2883 0.7068 0.6460
vn 0.2973 0.7073 0.6413
vn 0.2950 0.7071 0.6426
vn 0.1561 -0.7076 0.6892
vn 0.1341 -0.7115 0.6898
vn 0.1151 -0.7174 0.6871
vn 0.1029 -0.7102 0.6964
vn 0.0752 -0.7098 0.7004
vn 0.2269 -0.7069 0.6699
vn 0.2123 -0.7094 0.6721
vn 0.1935 -0.7143 0.6726
vn 0.1901 -0.7120 0.6759
vn 0.1712 -0.7092 0.6839
vn 0.2465 -0.7079 0.6619
vn 0.2600 -0.7129 0.6513
vn 0.2585 -0.7135 0.6512
vn 0.2983 -0.7001 0.6488
vn 0.2817 -0.7070 0.6487
vn 0.2193 -0.7062 0.6732
vn 0.2418 -0.7075 0.6641
vn 0.2657 -0.6945 0.6687
vn 0.2772 -0.7101 0.6472
vn 0.2952 -0.7071 0.6425
vn 0.1913 -0.6933 0.6948
vn 0.1939 -0.6999 0.6875
vn 0.1550 -0.7071 0.6899
vn 0.1136 -0.6957 0.7093
vn 0.1041 -0.6755 0.7300
vn 0.1300 -0.7040 0.6982
vn 0.2954 -0.7071 0.6424
vn 0.2612 -0.7065 0.6577
vn 0.2617 -0.7085 0.6554
vn 0.1926 -0.7043 0.6832
vn 0.1944 -0.7112 0.6755
vn 0.1122 -0.7018 0.7035
vn 0.1158 -0.7145 0.6900
vn 0.2953 -0.7071 -0.6425
vn 0.2936 -0.7075 -0.6428
vn 0.2856 -0.7067 -0.6473
vn 0.2799 -0.7078 -0.6486
vn 0.2765 -0.7074 -0.6505
vn 0.2651 -0.7070 -0.6557
vn 0.2673 -0.7075 -0.6542
vn 0.2519 -0.7077 -0.6601
vn 0.2522 -0.7077 -0.6600
vn 0.2379 -0.7083 -0.6646
vn 0.2325 -0.7091 -0.6656
vn 0.2144 -0.7077 -0.6732
vn 0.2149 -0.7078 -0.6729
vn 0.1855 -0.7110 -0.6783
vn 0.1926 -0.7122 -0.6751
vn -0.6176 -0.7065 -0.3457
vn 0.2787 -0.7069 -0.6501
vn 0.2721 -0.7084 -0.6513
vn 0.2512 -0.7070 -0.6611
vn 0.2305 -0.7072 -0.6684
vn 0.2110 -0.7100 -0.6719
vn 0.2082 -0.7094 -0.6734
vn 0.1001 -0.7069 -0.7002
vn 0.1216 -0.7073 -0.6964
vn 0.1417 -0.7098 -0.6900
vn 0.1536 -0.7072 -0.6901
vn 0.1879 -0.7069 -0.6819
vn 0.0794 -0.7086 -0.7011
vn 0.0704 -0.7101 -0.7005
vn 0.0479 -0.7062 -0.7063
vn -0.0499 -0.7070 -0.7054
vn -0.0281 -0.7070 -0.7066
vn -0.0015 -0.7094 -0.7048
vn 0.0003 -0.7089 -0.7053
vn 0.0223 -0.7075 -0.7064
vn -0.0673 -0.7090 -0.7020
vn -0.0736 -0.7101 -0.7003
vn -0.0891 -0.7074 -0.7011
vn -0.1267 -0.7065 -0.6962
vn -0.1444 -0.7101 -0.6892
vn -0.1574 -0.7081 -0.6884
vn -0.1888 -0.7060 -0.6826
vn -0.2133 -0.7099 -0.6712
vn -0.2274 -0.7072 -0.6694
vn -0.3207 -0.7070 -0.6304
vn -0.3009 -0.7072 -0.6398
vn -0.2796 -0.7096 -0.6468
vn -0.2712 -0.7073 -0.6528
vn -0.2480 -0.7071 -0.6622
vn -0.3330 -0.7084 -0.6223
vn -0.3423 -0.7098 -0.6157
vn -0.3525 -0.7076 -0.6124
vn -0.3770 -0.7069 -0.5985
vn -0.3992 -0.7084 -0.5820
vn -0.3991 -0.7085 -0.5821
vn -0.4853 -0.7072 -0.5142
vn -0.4694 -0.7068 -0.5293
vn -0.4513 -0.7100 -0.5405
vn -0.4390 -0.7065 -0.5550
vn -0.4178 -0.7073 -0.5703
vn -0.5030 -0.7083 -0.4953
vn -0.5046 -0.7092 -0.4925
vn -0.5257 -0.7070 -0.4731
vn -0.5517 -0.7099 -0.4379
vn -0.5515 -0.7098 -0.4382
vn -0.5399 -0.7072 -0.4565
vn -0.6050 -0.7077 -0.3648
vn -0.5914 -0.7101 -0.3821
vn -0.5941 -0.7092 -0.3796
vn -0.5810 -0.7072 -0.4028
vn -0.5683 -0.7070 -0.4210
vn -0.6345 -0.7089 -0.3082
vn -0.6352 -0.7100 -0.3042
vn -0.6209 -0.7058 -0.3410
vn -0.6746 -0.7069 -0.2128
vn -0.6670 -0.7082 -0.2314
vn -0.6613 -0.7101 -0.2418
vn -0.6576 -0.7064 -0.2616
vn -0.6467 -0.7073 -0.2855
vn -0.6803 -0.7075 -0.1915
vn -0.6825 -0.7099 -0.1738
vn -0.6894 -0.7067 -0.1592
vn -0.6958 -0.7072 -0.1253
vn -0.6966 -0.7098 -0.1047
vn -0.6971 -0.7095 -0.1034
vn -0.7071 -0.7071 -0.0038
vn -0.7058 -0.7078 -0.0292
vn -0.7041 -0.7093 -0.0351
vn -0.7045 -0.7070 -0.0617
vn -0.7021 -0.7072 -0.0834
vn -0.0314 -0.7071 0.7064
vn -0.7069 -0.7069 0.0221
vn -0.7036 -0.7097 0.0351
vn -0.7049 -0.7069 0.0582
vn -0.6967 -0.7097 0.1047
vn -0.7002 -0.7081 0.0912
vn -0.7025 -0.7072 0.0801
vn -0.6785 -0.7069 0.1996
vn -0.6819 -0.7089 0.1804
vn -0.6825 -0.7100 0.1737
vn -0.6913 -0.7062 0.1527
vn -0.6972 -0.7079 0.1129
vn -0.6615 -0.7098 0.2418
vn -0.6700 -0.7075 0.2247
vn -0.6741 -0.7071 0.2133
vn -0.6096 -0.7072 0.3580
vn -0.6235 -0.7065 0.3349
vn -0.6197 -0.7040 0.3468
vn -0.6377 -0.7116 0.2948
vn -0.6361 -0.7070 0.3090
vn -0.6507 -0.7071 0.2766
vn -0.6597 -0.7071 0.2548
vn -0.5971 -0.7087 0.3759
vn -0.5936 -0.7097 0.3793
vn -0.5830 -0.7072 0.4000
vn -0.5515 -0.7101 0.4377
vn -0.5568 -0.7088 0.4331
vn -0.5705 -0.7070 0.4180
vn -0.4906 -0.7076 0.5085
vn -0.5068 -0.7094 0.4897
vn -0.5051 -0.7084 0.4930
vn -0.5280 -0.7070 0.4705
vn -0.5422 -0.7072 0.4537
vn -0.4212 -0.7071 0.5680
vn -0.4439 -0.7072 0.5503
vn -0.4515 -0.7098 0.5407
vn -0.4718 -0.7069 0.5270
vn -0.4855 -0.7072 0.5139
vn -0.4028 -0.7082 0.5799
vn -0.3989 -0.7090 0.5815
vn -0.3830 -0.7071 0.5944
vn -0.3561 -0.7068 0.6112
vn -0.3423 -0.7098 0.6157
vn -0.3237 -0.7069 0.6289
vn -0.3039 -0.7072 0.6384
vn -0.2798 -0.7091 0.6473
vn -0.2770 -0.7082 0.6494
vn -0.2133 -0.7100 0.6711
vn -0.2324 -0.7069 0.6680
vn -0.2528 -0.7071 0.6604
vn -0.1562 -0.7085 0.6883
vn -0.1444 -0.7098 0.6894
vn -0.1658 -0.7074 0.6871
vn -0.1759 -0.7071 0.6848
vn -0.1971 -0.7068 0.6794
vn -0.0508 -0.7070 0.7053
vn -0.0657 -0.7089 0.7023
vn -0.0736 -0.7100 0.7003
vn -0.0901 -0.7067 0.7017
vn -0.1336 -0.7072 0.6943
vn -0.0030 -0.7086 0.7056
vn -0.0015 -0.7090 0.7052
vn 0.0259 -0.7072 0.7066
vn 0.0478 -0.7070 0.7056
vn 0.0704 -0.7100 0.7007
vn 0.0720 -0.7096 0.7009
vn 0.1418 -0.7093 0.6905
vn 0.1149 -0.7069 0.6979
vn 0.0931 -0.7072 0.7009
vn 0.2110 -0.7100 0.6718
vn 0.1898 -0.7062 0.6821
vn 0.1468 -0.7081 0.6907
vn 0.2728 -0.7065 0.6530
vn 0.2312 -0.7072 0.6682
vn 0.2136 -0.7096 0.6714
vn 0.2954 -0.7071 0.6425
vn 0.2718 -0.7068 0.6531
vn 0.2376 -0.7356 0.6344
vn 0.2707 -0.7107 0.6494
vn -0.7069 0.7069 -0.0221
vn -0.7034 0.7099 -0.0357
vn -0.6970 0.7091 -0.1067
vn -0.7026 0.7071 -0.0797
vn -0.7048 0.7071 -0.0579
vn -0.6755 0.7070 -0.2094
vn -0.6808 0.7079 -0.1881
vn -0.6817 0.7100 -0.1765
vn -0.6915 0.7061 -0.1526
vn -0.6973 0.7084 -0.1093
vn -0.6702 0.7073 -0.2249
vn -0.6607 0.7097 -0.2448
vn -0.6593 0.7074 -0.2547
vn -0.6153 0.7071 -0.3485
vn -0.6259 0.7070 -0.3293
vn -0.6322 0.7100 -0.3101
vn -0.6383 0.7081 -0.3018
vn -0.6484 0.7070 -0.2823
vn -0.6064 0.7080 -0.3620
vn -0.5975 0.7100 -0.3726
vn -0.5945 0.7085 -0.3802
vn -0.5495 0.7082 -0.4433
vn -0.5563 0.7096 -0.4325
vn -0.5569 0.7099 -0.4312
vn -0.5724 0.7071 -0.4153
vn -0.5848 0.7071 -0.3974
vn -0.4893 0.7071 -0.5105
vn -0.5079 0.7079 -0.4908
vn -0.5108 0.7094 -0.4857
vn -0.5301 0.7071 -0.4680
vn -0.5426 0.7071 -0.4534
vn -0.4733 0.7072 -0.5253
vn -0.4585 0.7100 -0.5345
vn -0.4445 0.7063 -0.5509
vn -0.4025 0.7094 -0.5785
vn -0.4015 0.7097 -0.5789
vn -0.4206 0.7075 -0.5680
vn -0.3416 0.7099 -0.6159
vn -0.3560 0.7068 -0.6113
vn -0.3830 0.7071 -0.5943
vn -0.2549 0.7074 -0.6593
vn -0.2769 0.7086 -0.6490
vn -0.2780 0.7090 -0.6481
vn -0.3044 0.7071 -0.6383
vn -0.3240 0.7071 -0.6286
vn -0.2347 0.7065 -0.6677
vn -0.2106 0.7100 -0.6720
vn -0.1953 0.7067 -0.6801
vn -0.1416 0.7096 -0.6903
vn -0.1596 0.7078 -0.6882
vn -0.1691 0.7072 -0.6865
vn -0.0519 0.7070 -0.7053
vn -0.0706 0.7100 -0.7006
vn -0.0710 0.7101 -0.7006
vn -0.0928 0.7066 -0.7015
vn -0.1335 0.7075 -0.6940
vn 0.0494 0.7071 -0.7054
vn 0.0276 0.7071 -0.7066
vn 0.0005 0.7092 -0.7050
vn -0.0028 0.7083 -0.7059
vn -0.0300 0.7071 -0.7065
vn 0.0719 0.7099 -0.7007
vn 0.0716 0.7098 -0.7007
vn 0.0963 0.7069 -0.7008
vn 0.1181 0.7073 -0.6970
vn 0.1424 0.7093 -0.6904
vn 0.1469 0.7081 -0.6906
vn 0.2489 0.7071 -0.6619
vn 0.2284 0.7070 -0.6693
vn 0.2113 0.7100 -0.6717
vn 0.2052 0.7090 -0.6747
vn 0.1849 0.7065 -0.6831
vn 0.2719 0.7076 -0.6522
vn 0.2724 0.7078 -0.6518
vn 0.2955 0.7071 -0.6424
vn 0.2787 0.7069 0.6500
vn 0.2722 0.7083 0.6513
vn 0.2113 0.7100 0.6718
vn 0.2316 0.7070 0.6682
vn 0.2521 0.7071 0.6606
vn 0.1167 0.7071 0.6974
vn 0.1290 0.7082 0.6941
vn 0.1423 0.7098 0.6899
vn 0.1537 0.7073 0.6900
vn 0.1962 0.7067 0.6798
vn 0.0287 0.7072 0.7064
vn 0.0507 0.7066 0.7058
vn 0.0716 0.7101 0.7005
vn 0.0793 0.7087 0.7010
vn 0.0983 0.7071 0.7002
vn 0.0039 0.7083 0.7059
vn 0.0005 0.7092 0.7050
vn -0.0267 0.7071 0.7066
vn -0.0486 0.7071 0.7055
vn -0.0710 0.7098 0.7008
vn -0.0835 0.7071 0.7021
vn -0.1267 0.7068 0.6960
vn -0.1415 0.7100 0.6899
vn -0.1525 0.7085 0.6891
vn -0.2106 0.7101 0.6719
vn -0.1886 0.7062 0.6825
vn -0.1621 0.7076 0.6878
vn -0.2499 0.7072 0.6614
vn -0.2471 0.7071 0.6625
vn -0.2276 0.7070 0.6696
vn -0.2712 0.7076 0.6524
vn -0.2778 0.7095 0.6476
vn -0.3014 0.7071 0.6397
vn -0.3417 0.7098 0.6159
vn -0.3322 0.7085 0.6227
vn -0.3209 0.7071 0.6301
vn -0.4182 0.7078 0.5693
vn -0.3990 0.7098 0.5805
vn -0.4029 0.7087 0.5791
vn -0.3769 0.7069 0.5985
vn -0.3517 0.7076 0.6128
vn -0.4585 0.7099 0.5345
vn -0.4443 0.7070 0.5501
vn -0.4271 0.7071 0.5636
vn -0.5104 0.7098 0.4854
vn -0.5037 0.7071 0.4962
vn -0.4724 0.7068 0.5266
vn -0.5546 0.7093 0.4351
vn -0.5568 0.7101 0.4311
vn -0.5495 0.7081 0.4434
vn -0.5421 0.7071 0.4540
vn -0.5278 0.7071 0.4706
vn -0.6136 0.7071 0.3514
vn -0.6071 0.7081 0.3605
vn -0.5979 0.7096 0.3728
vn -0.5957 0.7080 0.3792
vn -0.5736 0.7062 0.4151
vn -0.6243 0.7071 0.3322
vn -0.6325 0.7098 0.3102
vn -0.6395 0.7073 0.3013
vn -0.6773 0.7064 0.2057
vn -0.6673 0.7079 0.2316
vn -0.6604 0.7100 0.2446
vn -0.6578 0.7071 0.2595
vn -0.6494 0.7071 0.2796
vn -0.6809 0.7090 0.1837
vn -0.6817 0.7100 0.1765
vn -0.6886 0.7070 0.1613
vn -0.6965 0.7096 0.1066
vn -0.6972 0.7075 0.1160
vn -0.6931 0.7071 0.1398
vn -0.7071 0.7071 0.0036
vn -0.7058 0.7078 0.0292
vn -0.7039 0.7094 0.0357
vn -0.7045 0.7071 0.0613
vn -0.7022 0.7071 0.0830
vn 0.4159 -0.0000 -0.9094
vn 0.4205 0.0003 -0.9073
vn 0.4136 0.0002 -0.9104
vn 0.3991 0.0007 -0.9169
vn 0.3976 0.0006 -0.9176
vn 0.3325 -0.0001 -0.9431
vn 0.3504 0.0010 -0.9366
vn 0.3818 0.0016 -0.9242
vn 0.3692 0.0013 -0.9293
vn 0.3823 0.0012 -0.9240
vn 0.3659 0.0025 -0.9306
vn 0.3387 0.0017 -0.9409
vn 0.4174 -0.0000 0.9087
vn 0.1862 0.0047 0.9825
vn 0.1881 0.0047 0.9821
vn 0.2267 0.0045 0.9740
vn 0.2196 0.0043 0.9756
vn 0.2464 0.0041 0.9692
vn 0.3908 0.0005 0.9205
vn 0.2633 0.0038 0.9647
vn 0.2938 0.0037 0.9558
vn 0.2819 0.0033 0.9594
vn 0.3299 0.0021 0.9440
vn 0.3187 0.0020 0.9479
vn 0.3570 0.0016 0.9341
vn 0.3469 0.0015 0.9379
vn 0.3945 0.0002 0.9189
vn -1.0000 -0.0000 0.0052
vn -0.9995 -0.0002 0.0312
vn -0.9991 0.0002 0.0413
vn -0.9962 -0.0002 0.0866
vn -0.9966 -0.0000 0.0824
vn -0.9936 -0.0000 0.1133
vn -0.9931 0.0001 0.1174
vn -0.9916 -0.0000 0.1292
vn -0.9864 -0.0000 0.1642
vn -0.9871 0.0002 0.1598
vn -0.9802 -0.0001 0.1979
vn -0.9765 -0.0003 0.2155
vn -0.9736 0.0002 0.2282
vn -0.9655 -0.0001 0.2605
vn -0.9667 -0.0000 0.2558
vn -0.9569 -0.0000 0.2905
vn -0.9593 0.0004 0.2823
vn -0.9534 0.0001 0.3018
vn -0.9447 -0.0002 0.3278
vn -0.9481 0.0002 0.3180
vn -0.9328 -0.0002 0.3603
vn -0.9302 0.0001 0.3670
vn -0.9203 -0.0000 0.3912
vn -0.9184 -0.0000 0.3955
vn -0.9046 -0.0002 0.4263
vn -0.9078 0.0003 0.4195
vn -0.8828 -0.0002 0.4698
vn -0.8810 -0.0003 0.4731
vn -0.8678 0.0001 0.4968
vn -0.7894 -0.0000 0.6139
vn -0.7867 -0.0001 0.6173
vn -0.8067 0.0002 0.5910
vn -0.8101 0.0004 0.5862
vn -0.8599 -0.0001 0.5105
vn -0.8623 -0.0000 0.5065
vn -0.8436 -0.0000 0.5369
vn -0.8462 0.0002 0.5328
vn -0.8245 -0.0001 0.5658
vn -0.7191 0.0003 0.6949
vn -0.7125 -0.0003 0.7017
vn -0.7466 0.0001 0.6653
vn -0.7464 0.0001 0.6655
vn -0.7670 -0.0001 0.6416
vn -0.7666 -0.0001 0.6422
vn -0.7781 -0.0000 0.6281
vn -0.5958 -0.0000 0.8031
vn -0.6039 -0.0000 0.7971
vn -0.6279 -0.0002 0.7783
vn -0.6283 -0.0002 0.7780
vn -0.6670 0.0002 0.7451
vn -0.6678 0.0002 0.7443
vn -0.6866 -0.0000 0.7270
vn -0.6942 -0.0000 0.7198
vn -0.5033 0.0001 0.8641
vn -0.4978 -0.0003 0.8673
vn -0.5417 0.0002 0.8406
vn -0.5329 -0.0002 0.8462
vn -0.5707 0.0002 0.8212
vn -0.5664 -0.0000 0.8241
vn -0.5919 -0.0000 0.8060
vn -0.2664 -0.0003 0.9639
vn -0.3218 0.0002 0.9468
vn -0.3287 -0.0001 0.9444
vn -0.3493 -0.0000 0.9370
vn -0.3577 -0.0000 0.9338
vn -0.3533 -0.0000 0.9355
vn -0.3924 0.0003 0.9198
vn -0.3838 -0.0003 0.9234
vn -0.4298 0.0001 0.9029
vn -0.4262 -0.0000 0.9046
vn -0.4576 -0.0000 0.8891
vn -0.4539 -0.0002 0.8910
vn -0.4708 -0.0000 0.8822
vn -0.2785 0.0005 0.9604
vn -0.2487 0.0001 0.9686
vn -0.2295 -0.0001 0.9733
vn -0.2345 -0.0000 0.9721
vn -0.2161 -0.0000 0.9764
vn -0.2213 0.0001 0.9752
vn -0.1791 -0.0003 0.9838
vn -0.1889 0.0003 0.9820
vn -0.1180 -0.0003 0.9930
vn -0.1274 0.0003 0.9918
vn -0.0933 -0.0000 0.9956
vn -0.0687 -0.0000 0.9976
vn -0.0719 0.0001 0.9974
vn -0.0378 -0.0000 0.9993
vn -0.0443 0.0001 0.9990
vn 0.0054 -0.0003 1.0000
vn -0.0041 0.0003 1.0000
vn 0.0405 -0.0001 0.9992
vn 0.0368 -0.0000 0.9993
vn 0.0717 -0.0000 0.9974
vn 0.0676 0.0002 0.9977
vn 0.1125 -0.0002 0.9937
vn 0.1021 0.0002 0.9948
vn 0.1391 -0.0002 0.9903
vn 0.1315 0.0001 0.9913
vn 0.1651 -0.0001 0.9863
vn 0.1624 -0.0000 0.9867
vn 0.1827 -0.0000 0.9832
vn 0.2080 -0.0002 0.9781
vn 0.2174 0.0002 0.9761
vn 0.2681 -0.0002 0.9634
vn 0.2772 0.0002 0.9608
vn 0.3032 -0.0000 0.9529
vn 0.3270 -0.0000 0.9450
vn 0.3275 0.0001 0.9449
vn 0.3506 -0.0000 0.9365
vn 0.3566 -0.0000 0.9343
vn 0.3848 -0.0002 0.9230
vn 0.3941 0.0002 0.9191
vn 0.4179 -0.0000 0.9085
vn -0.7783 -0.0000 -0.6279
vn 0.4178 -0.0000 -0.9085
vn 0.3941 -0.0002 -0.9191
vn 0.3848 0.0002 -0.9230
vn 0.3521 -0.0001 -0.9360
vn 0.3552 -0.0000 -0.9348
vn 0.3230 0.0001 -0.9464
vn 0.3260 0.0002 -0.9454
vn 0.2909 -0.0001 -0.9568
vn 0.2954 -0.0000 -0.9554
vn 0.2612 -0.0000 -0.9653
vn 0.2658 0.0002 -0.9640
vn 0.2080 -0.0003 -0.9781
vn 0.2174 0.0003 -0.9761
vn 0.1671 -0.0001 -0.9859
vn 0.1720 -0.0000 -0.9851
vn 0.1363 -0.0000 -0.9907
vn 0.1414 0.0002 -0.9899
vn 0.1021 -0.0002 -0.9948
vn 0.1125 0.0002 -0.9937
vn 0.0698 -0.0002 -0.9976
vn 0.0677 -0.0003 -0.9977
vn 0.0390 0.0001 -0.9992
vn 0.0316 -0.0000 -0.9995
vn -0.0041 -0.0000 -1.0000
vn 0.0006 0.0002 -1.0000
vn -0.0425 -0.0001 -0.9991
vn -0.0397 -0.0000 -0.9992
vn -0.0734 0.0001 -0.9973
vn -0.0705 0.0002 -0.9975
vn -0.1002 -0.0001 -0.9950
vn -0.0955 -0.0000 -0.9954
vn -0.1310 -0.0000 -0.9914
vn -0.1262 0.0002 -0.9920
vn -0.1889 -0.0003 -0.9820
vn -0.1791 0.0003 -0.9838
vn -0.2260 -0.0001 -0.9741
vn -0.2228 -0.0000 -0.9749
vn -0.2393 -0.0000 -0.9709
vn -0.2664 -0.0002 -0.9639
vn -0.2761 0.0002 -0.9611
vn -0.3315 -0.0003 -0.9434
vn -0.3216 0.0003 -0.9469
vn -0.3509 -0.0000 -0.9364
vn -0.4304 -0.0001 -0.9026
vn -0.3838 0.0003 -0.9234
vn -0.3924 -0.0003 -0.9198
vn -0.3605 -0.0000 -0.9328
vn -0.4256 -0.0000 -0.9049
vn -0.4533 -0.0000 -0.8914
vn -0.4582 0.0001 -0.8888
vn -0.4717 -0.0000 -0.8818
vn -0.5033 -0.0000 -0.8641
vn -0.4987 0.0003 -0.8668
vn -0.5417 -0.0002 -0.8406
vn -0.5329 0.0002 -0.8462
vn -0.5699 -0.0002 -0.8217
vn -0.5656 -0.0000 -0.8247
vn -0.5950 -0.0000 -0.8037
vn -0.5911 0.0001 -0.8066
vn -0.6279 -0.0003 -0.7783
vn -0.6204 0.0003 -0.7843
vn -0.6635 -0.0002 -0.7482
vn -0.6694 0.0001 -0.7429
vn -0.6863 -0.0000 -0.7274
vn -0.6921 -0.0000 -0.7218
vn -0.7125 -0.0002 -0.7017
vn -0.7637 -0.0000 -0.6456
vn -0.7673 -0.0001 -0.6413
vn -0.7434 0.0001 -0.6689
vn -0.7496 -0.0001 -0.6619
vn -0.7191 0.0002 -0.6949
vn -0.7894 -0.0002 -0.6139
vn -0.7830 0.0002 -0.6221
vn -0.8094 -0.0002 -0.5873
vn -0.8036 0.0002 -0.5952
vn -0.8271 -0.0001 -0.5620
vn -0.8218 0.0001 -0.5698
vn -0.8425 -0.0002 -0.5387
vn -0.8399 -0.0000 -0.5428
vn -0.8587 -0.0000 -0.5124
vn -0.8563 0.0001 -0.5164
vn -0.8702 -0.0001 -0.4928
vn -0.8765 -0.0004 -0.4813
vn -0.8850 0.0001 -0.4656
vn -0.9040 -0.0002 -0.4276
vn -0.9020 -0.0000 -0.4318
vn -0.9168 -0.0000 -0.3993
vn -0.9149 0.0001 -0.4037
vn -0.9328 -0.0003 -0.3603
vn -0.9292 0.0003 -0.3697
vn -0.9481 -0.0002 -0.3180
vn -0.9447 0.0002 -0.3278
vn -0.9552 -0.0001 -0.2959
vn -0.9537 -0.0000 -0.3009
vn -0.9639 -0.0000 -0.2663
vn -0.9626 0.0002 -0.2710
vn -0.9765 -0.0003 -0.2155
vn -0.9744 0.0003 -0.2249
vn -0.9842 -0.0001 -0.1771
vn -0.9879 0.0004 -0.1548
vn -0.9892 0.0001 -0.1467
vn -0.9936 -0.0001 -0.1127
vn -0.9930 -0.0000 -0.1180
vn -0.9967 -0.0000 -0.0818
vn -0.9962 0.0002 -0.0873
vn -0.9995 -0.0003 -0.0312
vn -0.9991 0.0003 -0.0413
vn -1.0000 -0.0000 -0.0052
vn -0.0000 -1.0000 -0.0000
vn -0.0140 -0.9999 -0.0024
vn -0.0248 -0.9997 -0.0018
vn -0.0583 -0.9983 -0.0019
vn -0.0352 -0.9994 -0.0020
vn -0.0436 -0.9990 -0.0004
vn -0.0290 -0.9996 -0.0006
vn -0.0093 -1.0000 -0.0006
vn -0.0209 -0.9998 -0.0003
vn -0.0157 -0.9999 -0.0003
vn -0.0043 -1.0000 -0.0003
vn -0.0102 -0.9999 -0.0001
vn -0.0019 -1.0000 -0.0001
vn -0.0052 -1.0000 -0.0000
vn -0.0005 -1.0000 -0.0001
vn -0.0028 -1.0000 0.0001
vn -0.0007 -1.0000 -0.0000
vn -0.0258 0.9997 0.0001
vn -0.1590 0.9873 -0.0003
vn -0.1415 0.9899 0.0001
vn -0.1101 0.9939 0.0004
vn -0.1197 0.9928 0.0007
vn -0.0705 0.9975 0.0001
vn -0.0984 0.9951 0.0015
vn -0.0809 0.9967 0.0009
vn -0.0581 0.9983 0.0004
vn -0.0490 0.9988 0.0005
vn -0.0360 0.9994 0.0004
vn -0.0005 1.0000 -0.0000
vn -0.0035 1.0000 -0.0000
vn -0.0102 0.9999 0.0003
vn -0.0103 0.9999 0.0003
vn -0.0289 0.9996 0.0002
vn -0.0000 1.0000 -0.0000
vn 1.0000 -0.0000 -0.0000
vt 0.000000 0.000000
vt 0.577000 0.195565
vt 0.577459 0.195239
vt 0.580325 0.193188
vt 0.591881 0.184947
vt 0.593684 0.183661
vt 0.593686 0.173321
vt 0.593623 0.155851
vt 0.593416 0.071592
vt 0.591393 0.070151
vt 0.588799 0.068261
vt 0.587971 0.067650
vt 0.581502 0.063081
vt 0.578907 0.061177
vt 0.576702 0.059622
vt 0.543121 0.059625
vt 0.419578 0.059596
vt 0.412313 0.065047
vt 0.407000 0.069020
vt 0.405373 0.070218
vt 0.403473 0.071627
vt 0.402902 0.161447
vt 0.402757 0.183924
vt 0.402993 0.184115
vt 0.406758 0.186993
vt 0.407401 0.187477
vt 0.410721 0.189882
vt 0.411390 0.190363
vt 0.415665 0.193506
vt 0.418756 0.195794
vt 0.532745 0.195632
s 0
f 1/1/1 375/1/1 374/1/1
f 376/1/2 375/1/2 1/1/2 2/1/2
f 2/1/3 377/1/3 376/1/3
f 2/1/4 378/1/4 377/1/4
f 3/1/5 4/1/5 5/1/5
f 5/1/6 4/1/6 1/1/6
f 380/1/7 379/1/7 5/1/7 1/1/7
f 1/1/8 374/1/8 380/1/8
f 6/1/9 7/1/9 8/1/9
f 8/1/10 7/1/10 9/1/10
f 8/1/11 9/1/11 10/1/11
f 10/1/12 9/1/12 11/1/12
f 10/1/13 11/1/13 12/1/13
f 12/1/14 11/1/14 13/1/14
f 12/1/15 13/1/15 3/1/15
f 3/1/16 13/1/16 14/1/16
f 3/1/17 14/1/17 4/1/17
f 15/1/18 16/1/18 17/1/18
f 17/1/19 16/1/19 18/1/19
f 17/1/20 18/1/20 19/1/20
f 20/1/21 381/1/21 382/1/21
f 20/1/22 383/1/22 381/1/22
f 20/1/23 21/1/23 384/1/23 383/1/23
f 21/1/24 15/1/24 385/1/24 384/1/24
f 15/1/25 21/1/25 22/1/25
f 15/1/26 22/1/26 16/1/26
f 23/1/27 24/1/27 25/1/27
f 19/1/28 18/1/28 26/1/28
f 26/1/29 18/1/29 27/1/29
f 26/1/30 27/1/30 28/1/30
f 28/1/31 27/1/31 29/1/31
f 28/1/32 29/1/32 25/1/32
f 25/1/33 29/1/33 30/1/33
f 25/1/34 30/1/34 23/1/34
f 23/1/35 31/1/35 24/1/35
f 24/1/36 31/1/36 32/1/36
f 24/1/37 32/1/37 33/1/37
f 34/1/38 35/1/38 36/1/38
f 36/1/39 35/1/39 37/1/39
f 37/1/40 386/1/40 387/1/40 36/1/40
f 386/1/41 37/1/41 38/1/41 388/1/41
f 38/1/42 389/1/42 388/1/42
f 39/1/43 40/1/43 41/1/43
f 41/1/44 40/1/44 42/1/44
f 41/1/45 42/1/45 36/1/45
f 36/1/46 42/1/46 43/1/46
f 36/1/47 43/1/47 34/1/47
f 39/1/48 41/1/48 44/1/48
f 44/1/49 41/1/49 45/1/49
f 44/1/50 45/1/50 46/1/50
f 46/1/51 45/1/51 47/1/51
f 46/1/52 47/1/52 48/1/52
f 49/1/53 50/1/53 51/1/53
f 51/1/54 50/1/54 52/1/54
f 51/1/55 52/1/55 53/1/55
f 53/1/56 52/1/56 54/1/56
f 53/1/57 54/1/57 55/1/57
f 49/1/58 51/1/58 56/1/58
f 56/1/59 51/1/59 57/1/59
f 56/1/60 57/1/60 58/1/60
f 57/1/61 390/1/61 391/1/61
f 392/1/62 59/1/62 57/1/62 391/1/62
f 57/1/63 59/1/63 58/1/63
f 55/1/57 47/1/57 53/1/57
f 53/1/64 47/1/64 45/1/64
f 53/1/65 45/1/65 51/1/65
f 51/1/66 45/1/66 41/1/66
f 51/1/67 41/1/67 57/1/67
f 57/1/68 41/1/68 36/1/68
f 390/1/69 57/1/69 36/1/69 393/1/69
f 36/1/70 387/1/70 393/1/70
f 60/1/71 61/1/71 62/1/71
f 62/1/72 61/1/72 63/1/72
f 62/1/73 63/1/73 64/1/73
f 64/1/74 63/1/74 65/1/74
f 64/1/75 65/1/75 66/1/75
f 66/1/76 65/1/76 67/1/76
f 66/1/77 67/1/77 68/1/77
f 68/1/78 67/1/78 69/1/78
f 69/1/79 67/1/79 70/1/79
f 69/1/80 70/1/80 71/1/80
f 70/1/81 72/1/81 71/1/81
f 72/1/82 394/1/82 395/1/82 71/1/82
f 71/1/83 395/1/83 396/1/83 73/1/83
f 73/1/84 396/1/84 397/1/84
f 73/1/85 397/1/85 398/1/85
f 74/1/86 75/1/86 76/1/86
f 61/1/87 60/1/87 77/1/87
f 77/1/88 60/1/88 78/1/88
f 77/1/89 78/1/89 79/1/89
f 79/1/90 78/1/90 80/1/90
f 80/1/91 78/1/91 81/1/91
f 80/1/92 81/1/92 82/1/92
f 83/1/93 84/1/93 85/1/93
f 85/1/94 84/1/94 86/1/94
f 85/1/95 86/1/95 81/1/95
f 81/1/96 86/1/96 87/1/96
f 81/1/97 87/1/97 82/1/97
f 83/1/98 85/1/98 88/1/98
f 88/1/99 85/1/99 89/1/99
f 88/1/100 89/1/100 90/1/100
f 91/1/101 92/1/101 93/1/101
f 93/1/102 92/1/102 94/1/102
f 93/1/103 94/1/103 89/1/103
f 89/1/104 94/1/104 95/1/104
f 89/1/105 95/1/105 90/1/105
f 91/1/106 93/1/106 96/1/106
f 96/1/107 93/1/107 97/1/107
f 96/1/108 97/1/108 98/1/108
f 98/1/109 97/1/109 99/1/109
f 99/1/110 97/1/110 100/1/110
f 99/1/111 100/1/111 101/1/111
f 101/1/112 100/1/112 102/1/112
f 102/1/113 100/1/113 103/1/113
f 102/1/114 103/1/114 104/1/114
f 105/1/115 106/1/115 107/1/115
f 107/1/116 106/1/116 108/1/116
f 107/1/117 108/1/117 103/1/117
f 103/1/118 108/1/118 109/1/118
f 103/1/119 109/1/119 104/1/119
f 105/1/120 107/1/120 110/1/120
f 110/1/121 107/1/121 111/1/121
f 110/1/122 111/1/122 112/1/122
f 112/1/123 111/1/123 113/1/123
f 113/1/124 111/1/124 114/1/124
f 113/1/125 114/1/125 115/1/125
f 116/1/126 117/1/126 118/1/126
f 118/1/127 117/1/127 119/1/127
f 118/1/128 119/1/128 114/1/128
f 114/1/129 119/1/129 120/1/129
f 114/1/130 120/1/130 115/1/130
f 116/1/131 118/1/131 121/1/131
f 121/1/132 118/1/132 122/1/132
f 121/1/133 122/1/133 123/1/133
f 124/1/134 125/1/134 122/1/134
f 122/1/135 125/1/135 126/1/135
f 122/1/136 126/1/136 123/1/136
f 74/1/137 127/1/137 75/1/137
f 75/1/138 127/1/138 128/1/138
f 75/1/139 128/1/139 124/1/139
f 124/1/140 128/1/140 129/1/140
f 124/1/141 129/1/141 125/1/141
f 130/1/142 131/1/142 76/1/142
f 76/1/143 131/1/143 132/1/143
f 76/1/144 132/1/144 74/1/144
f 133/1/145 134/1/145 135/1/145
f 135/1/146 134/1/146 136/1/146
f 135/1/147 136/1/147 130/1/147
f 130/1/148 136/1/148 137/1/148
f 130/1/149 137/1/149 131/1/149
f 133/1/150 135/1/150 138/1/150
f 138/1/151 135/1/151 139/1/151
f 138/1/152 139/1/152 140/1/152
f 140/1/153 139/1/153 141/1/153
f 141/1/154 139/1/154 142/1/154
f 141/1/155 142/1/155 143/1/155
f 144/1/156 145/1/156 146/1/156
f 146/1/157 145/1/157 147/1/157
f 146/1/158 147/1/158 142/1/158
f 142/1/159 147/1/159 148/1/159
f 142/1/160 148/1/160 143/1/160
f 149/1/161 150/1/161 151/1/161
f 144/1/162 146/1/162 152/1/162
f 152/1/163 146/1/163 153/1/163
f 152/1/164 153/1/164 154/1/164
f 155/1/165 156/1/165 153/1/165
f 153/1/166 156/1/166 157/1/166
f 153/1/167 157/1/167 154/1/167
f 158/1/168 159/1/168 160/1/168
f 160/1/169 159/1/169 161/1/169
f 160/1/170 161/1/170 155/1/170
f 155/1/171 161/1/171 162/1/171
f 155/1/172 162/1/172 156/1/172
f 163/1/173 164/1/173 160/1/173
f 160/1/174 164/1/174 165/1/174
f 160/1/175 165/1/175 158/1/175
f 166/1/176 167/1/176 168/1/176
f 168/1/177 167/1/177 169/1/177
f 168/1/178 169/1/178 170/1/178
f 170/1/179 169/1/179 171/1/179
f 170/1/180 171/1/180 163/1/180
f 163/1/181 171/1/181 172/1/181
f 163/1/182 172/1/182 164/1/182
f 166/1/183 168/1/183 173/1/183
f 173/1/184 168/1/184 174/1/184
f 173/1/185 174/1/185 175/1/185
f 176/1/186 177/1/186 174/1/186
f 174/1/187 177/1/187 178/1/187
f 174/1/188 178/1/188 175/1/188
f 179/1/189 180/1/189 181/1/189
f 181/1/190 180/1/190 182/1/190
f 181/1/191 182/1/191 176/1/191
f 176/1/192 182/1/192 183/1/192
f 176/1/193 183/1/193 177/1/193
f 184/1/194 185/1/194 186/1/194
f 186/1/195 185/1/195 187/1/195
f 186/1/196 187/1/196 181/1/196
f 181/1/197 187/1/197 188/1/197
f 181/1/198 188/1/198 179/1/198
f 184/1/199 186/1/199 189/1/199
f 189/1/200 186/1/200 190/1/200
f 189/1/201 190/1/201 191/1/201
f 191/1/202 190/1/202 192/1/202
f 192/1/203 190/1/203 193/1/203
f 192/1/204 193/1/204 194/1/204
f 194/1/205 193/1/205 195/1/205
f 195/1/206 193/1/206 196/1/206
f 195/1/207 196/1/207 197/1/207
f 198/1/208 199/1/208 196/1/208
f 196/1/209 199/1/209 200/1/209
f 196/1/210 200/1/210 197/1/210
f 201/1/211 198/1/211 202/1/211
f 202/1/212 198/1/212 203/1/212
f 201/1/213 204/1/213 198/1/213
f 198/1/214 204/1/214 205/1/214
f 198/1/215 205/1/215 199/1/215
f 150/1/216 206/1/216 151/1/216
f 151/1/217 206/1/217 207/1/217
f 151/1/218 207/1/218 203/1/218
f 203/1/219 207/1/219 208/1/219
f 203/1/220 208/1/220 202/1/220
f 149/1/221 151/1/221 209/1/221
f 209/1/222 151/1/222 210/1/222
f 209/1/223 210/1/223 211/1/223
f 211/1/224 210/1/224 212/1/224
f 212/1/225 210/1/225 213/1/225
f 212/1/226 213/1/226 214/1/226
f 215/1/227 216/1/227 213/1/227
f 213/1/228 216/1/228 217/1/228
f 213/1/229 217/1/229 214/1/229
f 218/1/230 219/1/230 215/1/230
f 215/1/231 219/1/231 220/1/231
f 215/1/232 220/1/232 216/1/232
f 48/1/233 221/1/233 218/1/233
f 218/1/234 221/1/234 222/1/234
f 218/1/235 222/1/235 219/1/235
f 55/1/236 54/1/236 223/1/236
f 48/1/237 47/1/237 221/1/237
f 221/1/237 47/1/237 55/1/237
f 221/1/238 55/1/238 224/1/238
f 224/1/239 55/1/239 223/1/239
f 225/1/240 226/1/240 227/1/240
f 227/1/241 226/1/241 228/1/241
f 229/1/242 230/1/242 228/1/242
f 228/1/243 230/1/243 231/1/243
f 228/1/244 231/1/244 227/1/244
f 232/1/245 233/1/245 234/1/245
f 234/1/246 233/1/246 235/1/246
f 234/1/247 235/1/247 229/1/247
f 229/1/248 235/1/248 236/1/248
f 229/1/249 236/1/249 230/1/249
f 232/1/250 234/1/250 237/1/250
f 237/1/251 234/1/251 238/1/251
f 237/1/252 238/1/252 239/1/252
f 240/1/253 241/1/253 242/1/253
f 242/1/254 241/1/254 243/1/254
f 242/1/255 243/1/255 238/1/255
f 238/1/256 243/1/256 244/1/256
f 238/1/257 244/1/257 239/1/257
f 240/1/258 242/1/258 245/1/258
f 245/1/259 242/1/259 246/1/259
f 245/1/260 246/1/260 247/1/260
f 248/1/261 249/1/261 250/1/261
f 250/1/262 249/1/262 251/1/262
f 250/1/263 251/1/263 246/1/263
f 246/1/264 251/1/264 252/1/264
f 246/1/265 252/1/265 247/1/265
f 253/1/266 254/1/266 255/1/266
f 255/1/267 254/1/267 256/1/267
f 255/1/268 256/1/268 250/1/268
f 250/1/269 256/1/269 257/1/269
f 250/1/270 257/1/270 248/1/270
f 253/1/271 255/1/271 258/1/271
f 258/1/272 255/1/272 259/1/272
f 258/1/273 259/1/273 260/1/273
f 261/1/274 262/1/274 259/1/274
f 259/1/275 262/1/275 263/1/275
f 259/1/276 263/1/276 260/1/276
f 264/1/277 265/1/277 261/1/277
f 261/1/278 265/1/278 266/1/278
f 261/1/279 266/1/279 262/1/279
f 267/1/280 268/1/280 269/1/280
f 269/1/281 268/1/281 270/1/281
f 269/1/282 270/1/282 264/1/282
f 264/1/283 270/1/283 271/1/283
f 264/1/284 271/1/284 265/1/284
f 267/1/285 269/1/285 272/1/285
f 272/1/286 269/1/286 273/1/286
f 272/1/287 273/1/287 274/1/287
f 275/1/288 276/1/288 273/1/288
f 273/1/289 276/1/289 277/1/289
f 273/1/290 277/1/290 274/1/290
f 278/1/291 279/1/291 280/1/291
f 280/1/292 279/1/292 281/1/292
f 280/1/293 281/1/293 275/1/293
f 275/1/294 281/1/294 282/1/294
f 275/1/295 282/1/295 276/1/295
f 283/1/296 284/1/296 285/1/296
f 285/1/297 284/1/297 286/1/297
f 285/1/298 286/1/298 280/1/298
f 280/1/299 286/1/299 287/1/299
f 280/1/300 287/1/300 278/1/300
f 283/1/301 285/1/301 288/1/301
f 288/1/302 285/1/302 289/1/302
f 288/1/303 289/1/303 290/1/303
f 290/1/304 289/1/304 291/1/304
f 291/1/305 289/1/305 292/1/305
f 291/1/306 292/1/306 293/1/306
f 294/1/307 295/1/307 296/1/307
f 296/1/308 295/1/308 297/1/308
f 296/1/309 297/1/309 292/1/309
f 292/1/310 297/1/310 298/1/310
f 292/1/311 298/1/311 293/1/311
f 294/1/312 296/1/312 299/1/312
f 299/1/313 296/1/313 7/1/313
f 299/1/314 7/1/314 6/1/314
f 33/1/315 32/1/315 300/1/315
f 300/1/316 32/1/316 301/1/316
f 302/1/317 303/1/317 301/1/317
f 301/1/318 303/1/318 304/1/318
f 301/1/319 304/1/319 300/1/319
f 305/1/320 306/1/320 307/1/320
f 307/1/321 306/1/321 308/1/321
f 307/1/322 308/1/322 302/1/322
f 302/1/323 308/1/323 309/1/323
f 302/1/324 309/1/324 303/1/324
f 310/1/325 311/1/325 312/1/325
f 312/1/326 311/1/326 313/1/326
f 312/1/327 313/1/327 307/1/327
f 307/1/328 313/1/328 314/1/328
f 307/1/329 314/1/329 305/1/329
f 310/1/330 312/1/330 315/1/330
f 315/1/331 312/1/331 316/1/331
f 315/1/332 316/1/332 317/1/332
f 317/1/333 316/1/333 318/1/333
f 318/1/334 316/1/334 319/1/334
f 318/1/335 319/1/335 320/1/335
f 320/1/336 319/1/336 321/1/336
f 321/1/337 319/1/337 322/1/337
f 321/1/338 322/1/338 323/1/338
f 324/1/339 325/1/339 322/1/339
f 322/1/340 325/1/340 326/1/340
f 322/1/341 326/1/341 323/1/341
f 327/1/342 328/1/342 324/1/342
f 324/1/343 328/1/343 329/1/343
f 324/1/344 329/1/344 325/1/344
f 327/1/345 324/1/345 330/1/345
f 330/1/346 324/1/346 331/1/346
f 330/1/347 331/1/347 332/1/347
f 333/1/348 334/1/348 331/1/348
f 331/1/349 334/1/349 335/1/349
f 331/1/350 335/1/350 332/1/350
f 336/1/351 337/1/351 338/1/351
f 338/1/352 337/1/352 339/1/352
f 338/1/353 339/1/353 333/1/353
f 333/1/354 339/1/354 340/1/354
f 333/1/355 340/1/355 334/1/355
f 341/1/356 342/1/356 338/1/356
f 338/1/357 342/1/357 343/1/357
f 338/1/358 343/1/358 336/1/358
f 344/1/359 345/1/359 341/1/359
f 341/1/360 345/1/360 346/1/360
f 341/1/361 346/1/361 342/1/361
f 347/1/362 344/1/362 348/1/362
f 348/1/363 344/1/363 349/1/363
f 347/1/364 350/1/364 344/1/364
f 344/1/365 350/1/365 351/1/365
f 344/1/366 351/1/366 345/1/366
f 352/1/367 353/1/367 354/1/367
f 354/1/368 353/1/368 355/1/368
f 354/1/369 355/1/369 349/1/369
f 349/1/370 355/1/370 356/1/370
f 349/1/371 356/1/371 348/1/371
f 352/1/372 354/1/372 357/1/372
f 357/1/373 354/1/373 358/1/373
f 357/1/374 358/1/374 359/1/374
f 360/1/375 361/1/375 362/1/375
f 362/1/376 361/1/376 363/1/376
f 362/1/377 363/1/377 358/1/377
f 358/1/378 363/1/378 364/1/378
f 358/1/379 364/1/379 359/1/379
f 360/1/380 362/1/380 365/1/380
f 365/1/381 362/1/381 366/1/381
f 365/1/382 366/1/382 367/1/382
f 368/1/383 369/1/383 366/1/383
f 366/1/384 369/1/384 370/1/384
f 366/1/385 370/1/385 367/1/385
f 225/1/386 371/1/386 226/1/386
f 226/1/387 371/1/387 372/1/387
f 226/1/388 372/1/388 368/1/388
f 368/1/389 372/1/389 373/1/389
f 368/1/390 373/1/390 369/1/390
f 63/1/391 61/1/391 6/1/391
f 6/1/392 8/1/392 63/1/392
f 63/1/393 8/1/393 10/1/393
f 63/1/394 10/1/394 65/1/394
f 65/1/395 10/1/395 12/1/395
f 399/1/396 394/1/396 72/1/396 3/1/396
f 3/1/397 72/1/397 70/1/397
f 3/1/398 70/1/398 12/1/398
f 12/1/399 70/1/399 67/1/399
f 12/1/400 67/1/400 65/1/400
f 400/1/401 399/1/401 3/1/401 5/1/401
f 5/1/402 379/1/402 400/1/402
f 24/1/403 33/1/403 54/1/403
f 15/1/404 401/1/404 385/1/404
f 59/1/405 392/1/405 401/1/405 15/1/405
f 59/1/406 15/1/406 17/1/406
f 59/1/407 17/1/407 58/1/407
f 58/1/408 17/1/408 56/1/408
f 24/1/409 54/1/409 25/1/409
f 17/1/410 19/1/410 56/1/410
f 56/1/411 19/1/411 26/1/411
f 56/1/412 26/1/412 49/1/412
f 49/1/413 26/1/413 28/1/413
f 49/1/414 28/1/414 50/1/414
f 50/1/415 28/1/415 25/1/415
f 50/1/416 25/1/416 52/1/416
f 52/1/417 25/1/417 54/1/417
f 225/1/418 144/1/418 371/1/418
f 371/1/419 144/1/419 152/1/419
f 371/1/420 152/1/420 372/1/420
f 372/1/421 152/1/421 373/1/421
f 152/1/422 154/1/422 373/1/422
f 373/1/423 154/1/423 157/1/423
f 373/1/424 157/1/424 369/1/424
f 369/1/425 157/1/425 156/1/425
f 369/1/426 156/1/426 370/1/426
f 370/1/427 156/1/427 162/1/427
f 370/1/428 162/1/428 367/1/428
f 367/1/429 162/1/429 161/1/429
f 367/1/430 161/1/430 365/1/430
f 365/1/431 161/1/431 360/1/431
f 360/1/432 161/1/432 159/1/432
f 360/1/433 159/1/433 361/1/433
f 159/1/434 158/1/434 361/1/434
f 361/1/435 158/1/435 165/1/435
f 361/1/436 165/1/436 363/1/436
f 165/1/437 164/1/437 363/1/437
f 363/1/438 164/1/438 172/1/438
f 363/1/439 172/1/439 364/1/439
f 364/1/440 172/1/440 171/1/440
f 364/1/441 171/1/441 359/1/441
f 359/1/442 171/1/442 357/1/442
f 357/1/443 171/1/443 169/1/443
f 357/1/444 169/1/444 352/1/444
f 352/1/445 169/1/445 167/1/445
f 352/1/446 167/1/446 353/1/446
f 177/1/447 347/1/447 178/1/447
f 178/1/448 347/1/448 348/1/448
f 178/1/449 348/1/449 175/1/449
f 175/1/450 348/1/450 356/1/450
f 353/1/451 167/1/451 355/1/451
f 355/1/452 167/1/452 166/1/452
f 355/1/453 166/1/453 356/1/453
f 356/1/454 166/1/454 173/1/454
f 356/1/455 173/1/455 175/1/455
f 180/1/456 346/1/456 182/1/456
f 182/1/457 346/1/457 345/1/457
f 182/1/458 345/1/458 183/1/458
f 183/1/459 345/1/459 351/1/459
f 183/1/460 351/1/460 177/1/460
f 177/1/461 351/1/461 350/1/461
f 177/1/462 350/1/462 347/1/462
f 184/1/463 336/1/463 185/1/463
f 185/1/464 336/1/464 343/1/464
f 185/1/465 343/1/465 187/1/465
f 187/1/466 343/1/466 342/1/466
f 187/1/467 342/1/467 188/1/467
f 188/1/468 342/1/468 346/1/468
f 188/1/469 346/1/469 179/1/469
f 179/1/470 346/1/470 180/1/470
f 192/1/471 334/1/471 191/1/471
f 191/1/472 334/1/472 340/1/472
f 191/1/473 340/1/473 189/1/473
f 189/1/474 340/1/474 339/1/474
f 189/1/475 339/1/475 184/1/475
f 184/1/476 339/1/476 337/1/476
f 184/1/477 337/1/477 336/1/477
f 326/1/478 325/1/478 199/1/478
f 199/1/479 325/1/479 329/1/479
f 199/1/480 329/1/480 200/1/480
f 200/1/481 329/1/481 328/1/481
f 200/1/482 328/1/482 197/1/482
f 197/1/483 328/1/483 327/1/483
f 197/1/484 327/1/484 195/1/484
f 195/1/485 327/1/485 330/1/485
f 195/1/486 330/1/486 194/1/486
f 194/1/487 330/1/487 332/1/487
f 194/1/488 332/1/488 192/1/488
f 192/1/489 332/1/489 335/1/489
f 192/1/490 335/1/490 334/1/490
f 199/1/491 205/1/491 326/1/491
f 326/1/492 205/1/492 204/1/492
f 326/1/493 204/1/493 323/1/493
f 323/1/494 204/1/494 201/1/494
f 323/1/495 201/1/495 321/1/495
f 321/1/496 201/1/496 202/1/496
f 321/1/497 202/1/497 320/1/497
f 320/1/498 202/1/498 208/1/498
f 320/1/499 208/1/499 318/1/499
f 208/1/500 207/1/500 318/1/500
f 318/1/501 207/1/501 206/1/501
f 318/1/502 206/1/502 317/1/502
f 317/1/503 206/1/503 150/1/503
f 317/1/504 150/1/504 315/1/504
f 315/1/505 150/1/505 149/1/505
f 315/1/506 149/1/506 310/1/506
f 310/1/507 149/1/507 209/1/507
f 310/1/508 209/1/508 311/1/508
f 311/1/509 209/1/509 211/1/509
f 311/1/510 211/1/510 313/1/510
f 313/1/511 211/1/511 212/1/511
f 313/1/512 212/1/512 314/1/512
f 314/1/513 212/1/513 214/1/513
f 314/1/514 214/1/514 305/1/514
f 305/1/515 214/1/515 217/1/515
f 305/1/516 217/1/516 306/1/516
f 306/1/517 217/1/517 216/1/517
f 306/1/518 216/1/518 308/1/518
f 308/1/519 216/1/519 220/1/519
f 308/1/520 220/1/520 309/1/520
f 309/1/521 220/1/521 219/1/521
f 309/1/522 219/1/522 303/1/522
f 219/1/523 222/1/523 303/1/523
f 303/1/524 222/1/524 221/1/524
f 303/1/525 221/1/525 304/1/525
f 304/1/526 221/1/526 224/1/526
f 304/1/527 224/1/527 300/1/527
f 300/1/528 224/1/528 223/1/528
f 300/1/529 223/1/529 33/1/529
f 33/1/530 223/1/530 54/1/530
f 249/1/531 248/1/531 126/1/531
f 6/1/532 61/1/532 299/1/532
f 299/1/533 61/1/533 77/1/533
f 299/1/534 77/1/534 294/1/534
f 294/1/535 77/1/535 295/1/535
f 295/1/536 77/1/536 79/1/536
f 295/1/537 79/1/537 297/1/537
f 297/1/538 79/1/538 80/1/538
f 297/1/539 80/1/539 298/1/539
f 298/1/540 80/1/540 82/1/540
f 298/1/541 82/1/541 293/1/541
f 293/1/542 82/1/542 87/1/542
f 293/1/543 87/1/543 291/1/543
f 291/1/544 87/1/544 86/1/544
f 291/1/545 86/1/545 290/1/545
f 290/1/546 86/1/546 84/1/546
f 290/1/547 84/1/547 288/1/547
f 288/1/548 84/1/548 83/1/548
f 288/1/549 83/1/549 283/1/549
f 283/1/550 83/1/550 88/1/550
f 283/1/551 88/1/551 284/1/551
f 284/1/552 88/1/552 90/1/552
f 284/1/553 90/1/553 286/1/553
f 286/1/554 90/1/554 95/1/554
f 286/1/555 95/1/555 287/1/555
f 287/1/556 95/1/556 94/1/556
f 287/1/557 94/1/557 278/1/557
f 278/1/558 94/1/558 92/1/558
f 278/1/559 92/1/559 279/1/559
f 279/1/560 92/1/560 91/1/560
f 279/1/561 91/1/561 281/1/561
f 281/1/562 91/1/562 96/1/562
f 281/1/563 96/1/563 282/1/563
f 282/1/564 96/1/564 98/1/564
f 282/1/565 98/1/565 276/1/565
f 276/1/566 98/1/566 99/1/566
f 276/1/567 99/1/567 277/1/567
f 277/1/568 99/1/568 101/1/568
f 277/1/569 101/1/569 274/1/569
f 274/1/570 101/1/570 102/1/570
f 274/1/571 102/1/571 272/1/571
f 272/1/572 102/1/572 267/1/572
f 267/1/573 102/1/573 104/1/573
f 267/1/574 104/1/574 109/1/574
f 271/1/575 270/1/575 108/1/575
f 108/1/576 270/1/576 109/1/576
f 109/1/577 270/1/577 268/1/577
f 109/1/578 268/1/578 267/1/578
f 108/1/579 106/1/579 271/1/579
f 271/1/580 106/1/580 105/1/580
f 271/1/581 105/1/581 265/1/581
f 265/1/582 105/1/582 110/1/582
f 265/1/583 110/1/583 266/1/583
f 266/1/584 110/1/584 112/1/584
f 266/1/585 112/1/585 262/1/585
f 262/1/586 112/1/586 113/1/586
f 262/1/587 113/1/587 263/1/587
f 263/1/588 113/1/588 115/1/588
f 263/1/589 115/1/589 260/1/589
f 260/1/590 115/1/590 120/1/590
f 260/1/591 120/1/591 258/1/591
f 120/1/592 119/1/592 258/1/592
f 258/1/593 119/1/593 117/1/593
f 258/1/594 117/1/594 253/1/594
f 253/1/595 117/1/595 116/1/595
f 253/1/596 116/1/596 254/1/596
f 254/1/597 116/1/597 121/1/597
f 126/1/598 248/1/598 123/1/598
f 123/1/599 248/1/599 257/1/599
f 123/1/600 257/1/600 121/1/600
f 121/1/601 257/1/601 256/1/601
f 121/1/602 256/1/602 254/1/602
f 249/1/603 126/1/603 251/1/603
f 251/1/604 126/1/604 125/1/604
f 251/1/605 125/1/605 252/1/605
f 252/1/606 125/1/606 129/1/606
f 252/1/607 129/1/607 247/1/607
f 247/1/608 129/1/608 128/1/608
f 247/1/609 128/1/609 245/1/609
f 245/1/610 128/1/610 127/1/610
f 245/1/611 127/1/611 240/1/611
f 240/1/612 127/1/612 74/1/612
f 240/1/613 74/1/613 241/1/613
f 241/1/614 74/1/614 132/1/614
f 241/1/615 132/1/615 243/1/615
f 243/1/616 132/1/616 244/1/616
f 244/1/617 132/1/617 131/1/617
f 244/1/618 131/1/618 239/1/618
f 239/1/619 131/1/619 137/1/619
f 239/1/620 137/1/620 237/1/620
f 237/1/621 137/1/621 136/1/621
f 237/1/622 136/1/622 232/1/622
f 232/1/623 136/1/623 134/1/623
f 232/1/624 134/1/624 233/1/624
f 233/1/625 134/1/625 133/1/625
f 233/1/626 133/1/626 235/1/626
f 235/1/627 133/1/627 138/1/627
f 235/1/628 138/1/628 236/1/628
f 138/1/629 140/1/629 236/1/629
f 236/1/630 140/1/630 141/1/630
f 236/1/631 141/1/631 230/1/631
f 230/1/632 141/1/632 143/1/632
f 230/1/633 143/1/633 231/1/633
f 231/1/634 143/1/634 148/1/634
f 231/1/635 148/1/635 227/1/635
f 227/1/636 148/1/636 147/1/636
f 227/1/637 147/1/637 225/1/637
f 225/1/638 147/1/638 145/1/638
f 225/1/639 145/1/639 144/1/639
f 44/1/640 46/1/640 62/1/640
f 69/1/641 71/1/641 38/1/641
f 38/1/642 71/1/642 73/1/642
f 389/1/643 38/1/643 73/1/643 402/1/643
f 73/1/644 398/1/644 402/1/644
f 38/1/645 37/1/645 69/1/645
f 69/1/646 37/1/646 35/1/646
f 69/1/647 35/1/647 68/1/647
f 35/1/648 34/1/648 68/1/648
f 68/1/649 34/1/649 43/1/649
f 68/1/650 43/1/650 66/1/650
f 66/1/651 43/1/651 42/1/651
f 66/1/652 42/1/652 64/1/652
f 64/1/653 42/1/653 40/1/653
f 64/1/654 40/1/654 62/1/654
f 62/1/655 40/1/655 39/1/655
f 62/1/656 39/1/656 44/1/656
f 13/1/657 11/1/657 18/1/657
f 20/1/658 382/1/658 403/1/658
f 403/1/659 378/1/659 2/1/659 20/1/659
f 20/1/660 2/1/660 1/1/660
f 20/1/661 1/1/661 21/1/661
f 21/1/662 1/1/662 4/1/662
f 21/1/663 4/1/663 22/1/663
f 22/1/664 4/1/664 16/1/664
f 16/1/665 4/1/665 18/1/665
f 18/1/666 4/1/666 14/1/666
f 18/1/667 14/1/667 13/1/667
f 23/1/668 30/1/668 9/1/668
f 9/1/669 30/1/669 29/1/669
f 9/1/670 29/1/670 11/1/670
f 11/1/671 29/1/671 27/1/671
f 11/1/672 27/1/672 18/1/672
f 62/1/640 46/1/640 60/1/640
f 60/1/640 46/1/640 48/1/640
f 60/1/640 48/1/640 78/1/640
f 114/1/640 111/1/640 48/1/640
f 170/1/640 48/1/640 168/1/640
f 168/1/640 48/1/640 218/1/640
f 111/1/640 107/1/640 48/1/640
f 48/1/640 107/1/640 103/1/640
f 48/1/640 103/1/640 100/1/640
f 155/1/640 153/1/640 48/1/640
f 48/1/640 153/1/640 146/1/640
f 196/1/640 193/1/640 218/1/640
f 170/1/640 163/1/640 48/1/640
f 48/1/640 163/1/640 160/1/640
f 48/1/640 160/1/640 155/1/640
f 146/1/640 142/1/640 48/1/640
f 48/1/640 142/1/640 139/1/640
f 48/1/640 139/1/640 135/1/640
f 48/1/640 75/1/640 124/1/640
f 100/1/640 97/1/640 48/1/640
f 48/1/640 97/1/640 93/1/640
f 48/1/640 93/1/640 89/1/640
f 89/1/640 85/1/640 48/1/640
f 48/1/640 85/1/640 81/1/640
f 48/1/640 81/1/640 78/1/640
f 193/1/640 190/1/640 218/1/640
f 218/1/640 190/1/640 186/1/640
f 218/1/640 186/1/640 181/1/640
f 135/1/640 130/1/640 48/1/640
f 48/1/640 130/1/640 76/1/640
f 48/1/640 76/1/640 75/1/640
f 124/1/640 122/1/640 48/1/640
f 48/1/640 122/1/640 118/1/640
f 48/1/640 118/1/640 114/1/640
f 181/1/640 176/1/640 218/1/640
f 218/1/640 176/1/640 174/1/640
f 218/1/640 174/1/640 168/1/640
f 210/1/640 151/1/640 203/1/640
f 196/1/640 218/1/640 198/1/640
f 198/1/640 218/1/640 215/1/640
f 198/1/640 215/1/640 203/1/640
f 203/1/640 215/1/640 213/1/640
f 203/1/640 213/1/640 210/1/640
f 23/1/673 9/1/673 31/1/673
f 31/1/673 9/1/673 7/1/673
f 31/1/673 7/1/673 296/1/673
f 368/1/673 301/1/673 226/1/673
f 226/1/673 301/1/673 228/1/673
f 296/1/673 292/1/673 31/1/673
f 31/1/673 292/1/673 289/1/673
f 31/1/673 289/1/673 285/1/673
f 285/1/673 280/1/673 31/1/673
f 31/1/673 280/1/673 275/1/673
f 31/1/673 275/1/673 273/1/673
f 259/1/673 301/1/673 261/1/673
f 261/1/673 301/1/673 264/1/673
f 301/1/673 32/1/673 264/1/673
f 264/1/673 32/1/673 31/1/673
f 264/1/673 31/1/673 269/1/673
f 269/1/673 31/1/673 273/1/673
f 368/1/673 366/1/673 301/1/673
f 301/1/673 366/1/673 362/1/673
f 301/1/673 362/1/673 358/1/673
f 358/1/673 354/1/673 301/1/673
f 301/1/673 354/1/673 349/1/673
f 301/1/673 349/1/673 344/1/673
f 338/1/673 312/1/673 307/1/673
f 238/1/673 301/1/673 242/1/673
f 242/1/673 301/1/673 246/1/673
f 238/1/673 234/1/673 301/1/673
f 301/1/673 234/1/673 229/1/673
f 301/1/673 229/1/673 228/1/673
f 307/1/673 302/1/673 338/1/673
f 338/1/673 302/1/673 301/1/673
f 338/1/673 301/1/673 341/1/673
f 341/1/673 301/1/673 344/1/673
f 319/1/673 331/1/673 322/1/673
f 322/1/673 331/1/673 324/1/673
f 338/1/673 333/1/673 312/1/673
f 312/1/673 333/1/673 331/1/673
f 312/1/673 331/1/673 316/1/673
f 316/1/673 331/1/673 319/1/673
f 259/1/673 255/1/673 301/1/673
f 301/1/673 255/1/673 250/1/673
f 301/1/673 250/1/673 246/1/673
f 398/2/674 397/3/674 396/4/674 395/5/674 394/6/674 399/7/674 400/8/674 379/9/674 380/10/674 374/11/674 375/12/674 376/13/674 377/14/674 378/15/674 403/16/674 382/17/674 381/18/674 383/19/674 384/20/674 385/21/674 401/22/674 392/23/674 391/24/674 390/25/674 393/26/674 387/27/674 386/28/674 388/29/674 389/30/674 402/31/674
