# Blender 4.2.3 LTS
# www.blender.org
mtllib right_elbow_link.mtl
o right_elbow_link
v 0.068943 -0.011762 -0.042931
v 0.070941 -0.010871 -0.040048
v 0.068943 -0.014062 -0.042488
v 0.070940 -0.013941 -0.038918
v 0.070940 -0.016855 -0.037482
v 0.068943 -0.017871 -0.041269
v 0.068943 -0.016935 -0.041630
v 0.070936 -0.029756 -0.023631
v 0.068937 -0.031929 -0.026796
v 0.070937 -0.028221 -0.026496
v 0.068938 -0.030584 -0.029653
v 0.070938 -0.026378 -0.029205
v 0.068939 -0.029029 -0.032204
v 0.070938 -0.025921 -0.029791
v 0.068940 -0.028520 -0.032920
v 0.070938 -0.024386 -0.031569
v 0.068940 -0.027234 -0.034530
v 0.070939 -0.023385 -0.032595
v 0.068941 -0.025201 -0.036625
v 0.070939 -0.022051 -0.033826
v 0.068941 -0.024587 -0.037169
v 0.070939 -0.020525 -0.035070
v 0.068942 -0.023176 -0.038293
v 0.070940 -0.019472 -0.035840
v 0.068942 -0.022262 -0.038935
v 0.068942 -0.019764 -0.040401
v 0.070935 -0.031245 -0.019832
v 0.068935 -0.033745 -0.020627
v 0.070935 -0.030983 -0.020620
v 0.068936 -0.032981 -0.023783
v 0.068937 -0.032647 -0.024848
v 0.062593 -0.011762 0.021584
v 0.068923 -0.011762 0.021379
v 0.068801 -0.010677 0.021770
v 0.056415 -0.011762 0.021785
v 0.068719 -0.010368 0.021931
v 0.068241 -0.009267 0.022700
v 0.067983 -0.008854 0.023072
v 0.050022 -0.008594 0.023320
v 0.067191 -0.007889 0.024139
v 0.050753 -0.007864 0.024104
v 0.066897 -0.007102 0.024519
v 0.051155 -0.007057 0.024515
v 0.066900 -0.007192 0.024515
v 0.051123 -0.007307 0.024483
v 0.066948 -0.007456 0.024454
v 0.066977 -0.007541 0.024418
v 0.051037 -0.007529 0.024396
v 0.067071 -0.007733 0.024296
v 0.066897 0.003569 0.024519
v 0.051155 0.003480 0.024515
v 0.066897 -0.001720 0.024519
v 0.051155 -0.001720 0.024515
v 0.066897 -0.004411 0.024519
v 0.051155 -0.004389 0.024515
v 0.068929 -0.033745 -0.000278
v 0.070930 -0.031245 -0.001072
v 0.068929 -0.033517 0.000831
v 0.070929 -0.029907 0.002399
v 0.068929 -0.032609 0.004226
v 0.068930 -0.031446 0.007264
v 0.070928 -0.028698 0.004775
v 0.070928 -0.028163 0.005686
v 0.068931 -0.030316 0.009465
v 0.070927 -0.026038 0.008740
v 0.068933 -0.028794 0.011745
v 0.070926 -0.025009 0.009976
v 0.068933 -0.027004 0.013794
v 0.070926 -0.023561 0.011517
v 0.068933 -0.026502 0.014282
v 0.068933 -0.025245 0.015373
v 0.070925 -0.020332 0.014312
v 0.068933 -0.023023 0.016950
v 0.070925 -0.017704 0.016084
v 0.068931 -0.020579 0.018312
v 0.068929 -0.018470 0.019260
v 0.070924 -0.014867 0.017598
v 0.068926 -0.015232 0.020422
v 0.070924 -0.011910 0.018802
v 0.070924 -0.010928 0.019126
v 0.068934 -0.034187 -0.017972
v 0.068934 -0.034471 -0.015563
v 0.070934 -0.032333 -0.015198
v 0.068933 -0.034616 -0.013700
v 0.070932 -0.032699 -0.010452
v 0.068933 -0.034710 -0.011126
v 0.068931 -0.034592 -0.006834
v 0.070931 -0.032333 -0.005706
v 0.068931 -0.034387 -0.004523
v 0.061959 -0.033745 -0.000280
v 0.062040 -0.032661 0.004109
v 0.062520 -0.016438 0.020342
v 0.062444 -0.020487 0.018722
v 0.062366 -0.023949 0.016699
v 0.062204 -0.029256 0.011351
v 0.062285 -0.026859 0.014250
v 0.062122 -0.031178 0.007979
v 0.068956 -0.006623 0.022231
v 0.070923 -0.004805 0.020373
v 0.070923 -0.001720 0.020526
v 0.068006 -0.001720 0.023420
v 0.070924 -0.007829 0.019918
v 0.070924 -0.009059 0.018442
v 0.070924 -0.002326 0.019331
v 0.070941 -0.001971 -0.039166
v 0.070940 -0.004854 -0.039016
v 0.070941 -0.004728 -0.041284
v 0.070924 0.004714 0.019851
v 0.070923 0.003028 0.020160
v 0.070924 0.004431 0.018643
v 0.070923 0.001502 0.020358
v 0.070941 -0.001720 -0.041431
v 0.070941 0.001495 -0.041263
v 0.070940 0.001936 -0.038915
v 0.070939 -0.017599 -0.034590
v 0.070925 -0.015405 0.016025
v 0.070924 0.007890 0.018998
v 0.070925 0.010847 0.016415
v 0.070924 0.009500 0.018424
v 0.070939 0.014544 -0.034113
v 0.070940 0.008521 -0.037250
v 0.070941 0.008613 -0.039657
v 0.070940 -0.011485 -0.037548
v 0.070941 0.003024 -0.041065
v 0.070941 0.004750 -0.040748
v 0.070941 0.007967 -0.039877
v 0.070941 -0.007680 -0.040852
v 0.070926 -0.021023 0.012209
v 0.070940 0.013244 -0.037577
v 0.070939 0.017460 -0.034779
v 0.070938 0.019681 -0.029670
v 0.070938 0.021161 -0.031337
v 0.070936 0.023655 -0.024163
v 0.070938 -0.022866 -0.030303
v 0.070927 0.021309 0.007898
v 0.070926 0.021319 0.010259
v 0.070926 0.016576 0.012768
v 0.070925 0.018191 0.013281
v 0.070925 0.014069 0.016201
v 0.070927 -0.025610 0.007200
v 0.070936 -0.027002 -0.024916
v 0.070935 -0.029784 -0.018721
v 0.070929 -0.028918 0.001269
v 0.070937 0.024251 -0.027339
v 0.070936 0.026660 -0.022874
v 0.070934 0.026252 -0.017888
v 0.070934 0.028304 -0.018081
v 0.070932 0.027332 -0.011183
v 0.070931 -0.030769 -0.005266
v 0.070933 -0.031063 -0.012051
v 0.070933 0.029146 -0.013097
v 0.070932 0.029166 -0.008049
v 0.070931 0.026836 -0.004409
v 0.070930 0.028363 -0.003058
v 0.070929 0.024792 0.002067
v 0.070929 0.026752 0.001759
v 0.070927 0.024384 0.006228
v 0.054234 -0.015500 0.021049
v 0.054297 -0.019576 0.019695
v 0.054320 -0.023340 0.017679
v 0.054270 -0.026634 0.014909
v 0.054148 -0.029341 0.011482
v 0.053966 -0.031407 0.007574
v 0.050099 -0.019798 0.020029
v 0.050139 -0.023469 0.018046
v 0.050078 -0.026639 0.015224
v 0.059171 -0.011762 -0.042934
v 0.058514 -0.032855 -0.024394
v 0.058235 -0.031307 -0.028865
v 0.057926 -0.029194 -0.033038
v 0.057554 -0.026462 -0.036660
v 0.057335 -0.024857 -0.038174
v 0.056832 -0.021214 -0.040469
v 0.056557 -0.019215 -0.041272
v 0.055988 -0.014992 -0.042379
v 0.061521 -0.011762 -0.042933
v 0.050615 -0.025614 -0.038368
v 0.050823 -0.027127 -0.036813
v 0.050381 -0.023933 -0.039636
v 0.057094 -0.023102 -0.039444
v 0.051009 -0.028472 -0.035018
v 0.051175 -0.029655 -0.033031
v 0.051472 -0.031578 -0.028660
v 0.051076 -0.007493 -0.045331
v 0.050773 -0.007864 -0.045020
v 0.051151 -0.007276 -0.045406
v 0.051175 -0.007058 -0.045430
v 0.050077 -0.008594 -0.044268
v 0.050852 -0.001720 -0.045110
v 0.051175 -0.004389 -0.045430
v 0.051175 -0.001720 -0.045430
v 0.066917 -0.004411 -0.045426
v 0.066917 -0.001720 -0.045426
v 0.066996 -0.007539 -0.045325
v 0.068975 -0.006577 -0.043136
v 0.067055 -0.007671 -0.045249
v 0.067211 -0.007889 -0.045045
v 0.066949 -0.007380 -0.045386
v 0.066917 -0.007102 -0.045426
v 0.068798 -0.010668 -0.043196
v 0.068723 -0.010408 -0.043288
v 0.069081 -0.009167 -0.042833
v 0.068213 -0.009244 -0.043863
v 0.067969 -0.008844 -0.044134
v 0.066917 0.003569 -0.045426
v 0.051175 0.003480 -0.045430
v 0.051172 0.003561 -0.045427
v 0.050058 0.004965 -0.043959
v 0.050719 0.004376 -0.044866
v 0.050895 0.004228 -0.045091
v 0.051009 0.004075 -0.045233
v 0.051124 0.003816 -0.045372
v 0.067282 0.004426 -0.044943
v 0.068082 0.005303 -0.043789
v 0.068378 0.005813 -0.043302
v 0.068769 0.006932 -0.042511
v 0.068832 0.007246 -0.042339
v 0.068941 0.008593 -0.041777
v 0.066986 0.003978 -0.045338
v 0.067115 0.004240 -0.045168
v 0.068927 0.026627 0.006400
v 0.068927 0.026302 0.006936
v 0.068924 0.009313 0.020626
v 0.068923 0.008593 0.020872
v 0.068925 0.012414 0.019343
v 0.068924 0.016252 0.017199
v 0.068924 0.015377 0.017748
v 0.068925 0.018967 0.015231
v 0.068924 0.017046 0.016666
v 0.068927 0.023747 0.010499
v 0.068927 0.022389 0.012049
v 0.068927 0.021468 0.012997
v 0.068926 0.019533 0.014764
v 0.068927 0.024391 0.009691
v 0.068929 0.027923 0.004000
v 0.068930 0.028612 0.002491
v 0.068930 0.029587 -0.000087
v 0.068930 0.029247 0.000888
v 0.068934 0.031255 -0.010001
v 0.068932 0.031163 -0.007945
v 0.068931 0.031036 -0.006627
v 0.068930 0.030478 -0.003320
v 0.068934 0.031253 -0.011035
v 0.068934 0.031069 -0.013984
v 0.068934 0.031024 -0.014380
v 0.068934 0.030456 -0.017685
v 0.068938 0.028477 -0.023709
v 0.068937 0.029202 -0.021916
v 0.068936 0.029546 -0.020942
v 0.068937 0.027878 -0.024997
v 0.068937 0.026627 -0.027305
v 0.068940 0.022620 -0.032704
v 0.068939 0.023664 -0.031505
v 0.068938 0.024311 -0.030700
v 0.068937 0.026248 -0.027928
v 0.068941 0.021395 -0.033974
v 0.068940 0.018887 -0.036200
v 0.068941 0.014723 -0.039040
v 0.068940 0.016142 -0.038175
v 0.068940 0.017046 -0.037571
v 0.068942 0.011733 -0.040562
v 0.068941 0.014197 -0.039336
v 0.068884 0.007770 0.021185
v 0.068752 0.006942 0.021600
v 0.068362 0.005819 0.022391
v 0.067997 0.005209 0.022985
v 0.050038 0.004966 0.023041
v 0.050699 0.004376 0.023950
v 0.067262 0.004426 0.024037
v 0.067123 0.004279 0.024224
v 0.051135 0.003691 0.024492
v 0.066922 0.003819 0.024487
v 0.051055 0.003949 0.024397
v 0.066997 0.004057 0.024392
v 0.051025 0.004011 0.024361
v 0.050882 0.004221 0.024183
v 0.068901 0.006035 0.021710
v 0.068953 0.003359 0.022187
v 0.068974 0.003353 -0.043090
v 0.068926 0.006033 -0.042611
v 0.097917 -0.008213 -0.038475
v 0.097917 -0.011485 -0.037548
v 0.097917 -0.014628 -0.036247
v 0.097917 -0.017599 -0.034590
v 0.097917 -0.020357 -0.032600
v 0.097917 -0.022866 -0.030303
v 0.097917 -0.025091 -0.027730
v 0.097917 -0.027002 -0.024916
v 0.097917 -0.028574 -0.021899
v 0.097917 -0.029784 -0.018721
v 0.097917 -0.030618 -0.015423
v 0.097917 -0.031063 -0.012051
v 0.097917 -0.031113 -0.008650
v 0.097917 -0.030769 -0.005266
v 0.097917 -0.030034 -0.001945
v 0.097917 -0.028918 0.001269
v 0.097917 -0.027437 0.004331
v 0.097917 -0.025610 0.007200
v 0.097917 -0.023463 0.009838
v 0.097917 -0.021023 0.012209
v 0.097917 -0.018325 0.014280
v 0.097917 -0.015405 0.016025
v 0.097917 -0.012302 0.017418
v 0.097917 -0.009059 0.018442
v 0.097917 -0.005718 0.019082
v 0.097917 -0.002326 0.019331
v 0.097917 0.001073 0.019183
v 0.097917 0.004431 0.018643
v 0.097917 0.007704 0.017716
v 0.097917 0.010847 0.016415
v 0.097917 0.013817 0.014758
v 0.097917 0.016576 0.012768
v 0.097917 0.019084 0.010470
v 0.097917 0.021309 0.007898
v 0.097917 0.023220 0.005084
v 0.097917 0.024792 0.002067
v 0.097917 0.026003 -0.001112
v 0.097917 0.026836 -0.004409
v 0.097917 0.027281 -0.007782
v 0.097917 0.027332 -0.011183
v 0.097917 0.026987 -0.014567
v 0.097917 0.026252 -0.017888
v 0.097917 0.025136 -0.021101
v 0.097917 0.023655 -0.024163
v 0.097917 0.021828 -0.027032
v 0.097917 0.019681 -0.029670
v 0.097917 0.017242 -0.032041
v 0.097917 0.014544 -0.034113
v 0.097917 0.011624 -0.035857
v 0.097917 0.008521 -0.037250
v 0.097917 0.005277 -0.038274
v 0.097917 0.001936 -0.038915
v 0.097917 -0.001456 -0.039163
v 0.097917 -0.004854 -0.039016
v 0.100000 -0.002185 0.010082
v 0.100000 -0.007807 0.009188
v 0.100000 -0.001888 -0.009916
v 0.100000 0.013031 0.003404
v 0.100000 0.008674 0.007068
v 0.100000 0.003461 0.009355
v 0.100000 0.017949 -0.012468
v 0.100000 0.017864 -0.006776
v 0.100000 0.016179 -0.001338
v 0.100000 0.009174 -0.026579
v 0.100000 0.013420 -0.022787
v 0.100000 0.016426 -0.017953
v 0.100000 -0.007237 -0.029188
v 0.100000 -0.001591 -0.029914
v 0.100000 0.004031 -0.029020
v 0.100000 -0.019955 -0.018494
v 0.100000 -0.016807 -0.023237
v 0.100000 -0.012449 -0.026900
v 0.100000 -0.020202 -0.001879
v 0.100000 -0.021724 -0.007364
v 0.100000 -0.021640 -0.013056
v 0.100000 -0.012950 0.006746
v 0.100000 -0.017196 0.002955
v 0.098917 -0.001591 -0.029914
v 0.098917 -0.007237 -0.029188
v 0.098917 -0.012449 -0.026900
v 0.098917 -0.016807 -0.023237
v 0.098917 -0.019955 -0.018494
v 0.098917 -0.021640 -0.013056
v 0.098917 -0.021724 -0.007364
v 0.098917 -0.020202 -0.001879
v 0.098917 -0.017196 0.002955
v 0.098917 -0.012950 0.006746
v 0.098917 -0.007807 0.009188
v 0.098917 -0.002185 0.010082
v 0.098917 0.003461 0.009355
v 0.098917 0.008674 0.007068
v 0.098917 0.013031 0.003404
v 0.098917 0.016179 -0.001338
v 0.098917 0.017864 -0.006776
v 0.098917 0.017949 -0.012468
v 0.098917 0.016426 -0.017953
v 0.098917 0.013420 -0.022787
v 0.098917 0.009174 -0.026579
v 0.098917 0.004031 -0.029020
v 0.098917 0.000971 0.018188
v 0.098917 -0.019726 -0.031824
v 0.098917 -0.014193 -0.035347
v 0.098917 -0.007997 -0.037498
v 0.098917 -0.001471 -0.038163
v 0.098917 0.005032 -0.037305
v 0.098917 -0.002311 0.018331
v 0.098917 -0.005587 0.018091
v 0.098917 -0.011946 0.016484
v 0.098917 -0.017764 0.013453
v 0.098917 -0.022725 0.009163
v 0.098917 0.025049 -0.001413
v 0.098917 0.022362 0.004571
v 0.098917 0.018367 0.009773
v 0.098917 0.013280 0.013915
v 0.098917 0.007376 0.016771
v 0.098917 0.011161 -0.034970
v 0.098917 0.016587 -0.031285
v 0.098917 0.021017 -0.026447
v 0.098917 0.024212 -0.020719
v 0.098917 0.026000 -0.014408
v 0.098917 0.026284 -0.007855
v 0.098917 -0.026563 0.003844
v 0.098917 -0.029072 -0.002217
v 0.098917 -0.030114 -0.008693
v 0.098917 -0.029636 -0.015235
v 0.098917 -0.027661 -0.021490
v 0.098917 -0.024298 -0.027121
v 0.050000 -0.011554 0.022026
v 0.050000 -0.011762 0.021992
v 0.050000 -0.010675 0.022238
v 0.050000 -0.010549 0.022272
v 0.050000 -0.010259 0.022370
v 0.050000 -0.010248 0.022375
v 0.050000 -0.009861 0.022532
v 0.050000 -0.009826 0.022556
v 0.050000 -0.008852 0.023117
v 0.050000 -0.008848 0.023120
v 0.050000 -0.008627 0.023294
v 0.050000 -0.034566 -0.014426
v 0.050000 -0.034585 -0.014181
v 0.050000 -0.033745 -0.000284
v 0.050000 -0.034419 -0.005431
v 0.050000 -0.034555 -0.006383
v 0.050000 -0.034701 -0.010884
v 0.050000 -0.034713 -0.010546
v 0.050000 -0.034597 -0.007250
v 0.050000 -0.034582 -0.006686
v 0.050000 -0.034528 -0.014742
v 0.050000 -0.033803 -0.020284
v 0.050000 -0.033745 -0.020632
v 0.050000 -0.008573 0.023298
v 0.050000 -0.007435 0.023352
v 0.050000 -0.007070 0.023358
v 0.050000 -0.006883 0.023358
v 0.050000 -0.006696 0.023359
v 0.050000 -0.003577 0.023368
v 0.050000 -0.002649 0.023368
v 0.050000 -0.001720 0.023368
v 0.050000 -0.033537 0.000560
v 0.050000 -0.032736 0.003917
v 0.050000 -0.019710 0.020074
v 0.050000 -0.019795 0.020049
v 0.050000 -0.023385 0.018128
v 0.050000 -0.023430 0.018104
v 0.050000 -0.023337 0.018148
v 0.050000 -0.019815 0.020043
v 0.050000 -0.019814 0.020043
v 0.050000 -0.015978 0.021171
v 0.050000 -0.019555 0.020114
v 0.050000 -0.019685 0.020080
v 0.050000 -0.026687 0.015167
v 0.050000 -0.028056 0.013354
v 0.050000 -0.026643 0.015231
v 0.050000 -0.026587 0.015289
v 0.050000 -0.012399 0.021855
v 0.050000 -0.015727 0.021246
v 0.050000 -0.015734 0.021244
v 0.050000 -0.023485 0.018064
v 0.050000 -0.029230 0.011799
v 0.050000 -0.029271 0.011746
v 0.050000 -0.030276 0.009847
v 0.050000 -0.031354 0.007805
v 0.050000 -0.032022 0.005883
v 0.050000 -0.032316 0.005013
v 0.050000 -0.011762 -0.042937
v 0.050000 -0.013673 -0.042650
v 0.050000 -0.015655 -0.042330
v 0.050000 -0.025824 -0.038212
v 0.050000 -0.025692 -0.038365
v 0.050000 -0.027215 -0.036800
v 0.050000 -0.023893 -0.039694
v 0.050000 -0.023989 -0.039638
v 0.050000 -0.022225 -0.040590
v 0.050000 -0.024081 -0.039560
v 0.050000 -0.021292 -0.040966
v 0.050000 -0.020160 -0.041321
v 0.050000 -0.020116 -0.041338
v 0.050000 -0.016284 -0.042182
v 0.050000 -0.015857 -0.042293
v 0.050000 -0.028724 -0.034675
v 0.050000 -0.028560 -0.034990
v 0.050000 -0.029736 -0.032986
v 0.050000 -0.030052 -0.032168
v 0.050000 -0.031636 -0.028575
v 0.050000 -0.031930 -0.027497
v 0.050000 -0.033027 -0.023854
v 0.050000 -0.033521 -0.021578
v 0.050000 -0.027369 -0.036566
v 0.050000 -0.007194 -0.044253
v 0.050000 -0.006541 -0.044261
v 0.050000 -0.006376 -0.044261
v 0.050000 -0.008492 -0.044193
v 0.050000 -0.008713 -0.044179
v 0.050000 -0.001720 -0.044265
v 0.050000 -0.002411 -0.044262
v 0.050000 -0.004486 -0.044261
v 0.050000 -0.008859 -0.044069
v 0.050000 -0.008854 -0.044074
v 0.050000 -0.009964 -0.043455
v 0.050000 -0.009956 -0.043458
v 0.050000 -0.008867 -0.044065
v 0.050000 -0.008861 -0.044068
v 0.050000 -0.011431 -0.042996
v 0.050000 -0.010661 -0.043200
v 0.050000 -0.010577 -0.043221
v 0.050000 -0.010186 -0.043363
v 0.050000 0.002959 -0.044216
v 0.050000 0.002901 -0.044216
v 0.050000 -0.000980 -0.044227
v 0.050000 0.005046 -0.043869
v 0.050000 0.004866 -0.043906
v 0.050000 0.003915 -0.044079
v 0.050000 0.003785 -0.044095
v 0.050000 0.003686 -0.044102
v 0.050000 0.003552 -0.044106
v 0.050000 0.003437 -0.044107
v 0.050000 0.005184 -0.043718
v 0.050000 0.005187 -0.043715
v 0.050000 0.006107 -0.042955
v 0.050000 0.006138 -0.042934
v 0.050000 0.007177 -0.042346
v 0.050000 0.007189 -0.042339
v 0.050000 0.008534 -0.041807
v 0.050000 0.008593 -0.041783
v 0.050000 0.008593 0.020866
v 0.050000 0.008556 0.020880
v 0.050000 0.007210 0.021413
v 0.050000 0.007177 0.021430
v 0.050000 0.006141 0.022016
v 0.050000 0.006108 0.022038
v 0.050000 0.005189 0.022797
v 0.050000 0.005185 0.022801
v 0.050000 0.005020 0.022982
v 0.050000 0.000089 0.023368
v 0.050000 0.002942 0.023317
v 0.050000 0.003100 0.023315
v 0.050000 0.003507 0.023215
v 0.050000 0.003633 0.023213
v 0.050000 0.003666 0.023212
v 0.050000 0.003798 0.023203
v 0.050000 0.003935 0.023186
v 0.050000 0.004902 0.023007
v 0.050000 0.026613 0.006418
v 0.050000 0.026627 0.006394
v 0.050000 0.029604 -0.020751
v 0.050000 0.029564 -0.020892
v 0.050000 0.008624 0.020856
v 0.050000 0.010745 -0.040986
v 0.050000 0.017007 -0.037603
v 0.050000 0.017046 -0.037577
v 0.050000 0.016946 -0.037640
v 0.050000 0.016923 -0.037653
v 0.050000 0.010986 -0.040881
v 0.050000 0.010880 -0.040934
v 0.050000 0.022444 -0.032897
v 0.050000 0.022399 -0.032949
v 0.050000 0.022346 -0.033004
v 0.050000 0.017233 -0.037422
v 0.050000 0.017125 -0.037518
v 0.050000 0.026611 -0.027338
v 0.050000 0.026627 -0.027311
v 0.050000 0.022556 -0.032743
v 0.050000 0.022472 -0.032863
v 0.050000 0.029550 -0.020934
v 0.050000 0.029518 -0.021012
v 0.050000 0.026707 -0.027155
v 0.050000 0.026681 -0.027211
v 0.050000 0.029628 -0.020607
v 0.050000 0.031067 -0.014006
v 0.050000 0.031069 -0.013989
v 0.050000 0.031073 -0.006972
v 0.050000 0.031067 -0.006914
v 0.050000 0.031077 -0.007061
v 0.050000 0.031077 -0.013816
v 0.050000 0.031077 -0.013861
v 0.050000 0.031043 -0.006770
v 0.050000 0.029605 -0.000171
v 0.050000 0.029566 -0.000030
v 0.050000 0.026684 0.006290
v 0.050000 0.026714 0.006224
v 0.050000 0.029524 0.000082
v 0.050000 0.029551 0.000012
v 0.050000 0.026529 0.006538
v 0.050000 0.022477 0.011940
v 0.050000 0.022449 0.011976
v 0.050000 0.017011 0.016684
v 0.050000 0.017046 0.016661
v 0.050000 0.017130 0.016598
v 0.050000 0.017155 0.016577
v 0.050000 0.017240 0.016500
v 0.050000 0.022349 0.012085
v 0.050000 0.022389 0.012043
v 0.050000 0.010775 0.020060
v 0.050000 0.010911 0.020004
v 0.050000 0.016843 0.016778
v 0.050000 0.016973 0.016708
vn 0.8323 -0.1049 -0.5444
vn 0.8617 -0.1755 -0.4761
vn 0.8875 -0.2037 -0.4134
vn 0.8749 -0.1743 -0.4518
vn 0.8657 -0.1431 -0.4797
vn 0.8626 -0.4460 -0.2386
vn 0.8672 -0.4506 -0.2118
vn 0.8813 -0.3908 -0.2655
vn 0.8862 -0.3957 -0.2409
vn 0.8916 -0.3574 -0.2781
vn 0.8914 -0.3695 -0.2624
vn 0.8914 -0.3695 -0.2625
vn 0.8951 -0.3374 -0.2913
vn 0.8978 -0.3441 -0.2748
vn 0.8992 -0.3136 -0.3051
vn 0.8994 -0.3136 -0.3045
vn 0.9028 -0.2917 -0.3161
vn 0.9024 -0.2862 -0.3221
vn 0.9028 -0.2718 -0.3334
vn 0.9020 -0.2692 -0.3376
vn 0.9017 -0.2554 -0.3488
vn 0.9005 -0.2500 -0.3559
vn 0.8991 -0.2326 -0.3707
vn 0.8942 -0.2266 -0.3862
vn 0.8884 -0.1917 -0.4171
vn 0.7952 -0.5753 -0.1913
vn 0.8021 -0.5805 -0.1403
vn 0.8358 -0.5086 -0.2070
vn 0.8422 -0.5147 -0.1606
vn 0.8431 -0.5046 -0.1860
vn 0.0305 -0.3358 0.9414
vn 0.0307 -0.3371 0.9410
vn 0.0318 -0.1612 0.9864
vn 0.0289 -0.2344 0.9717
vn 0.0240 -0.2601 0.9653
vn 0.0231 -0.3197 0.9472
vn 0.0181 -0.4581 0.8887
vn 0.0196 -0.3741 0.9272
vn 0.0110 -0.5693 0.8221
vn 0.0085 -0.4991 0.8665
vn 0.0018 -0.6690 0.7433
vn 0.0019 -0.6193 0.7852
vn -0.0015 -0.7422 0.6702
vn -0.0026 -0.7307 0.6827
vn -0.0004 -0.0453 0.9990
vn -0.0011 -0.1268 0.9919
vn -0.0004 -0.2235 0.9747
vn -0.0021 -0.3964 0.9181
vn -0.0015 -0.3635 0.9316
vn -0.0016 -0.5368 0.8437
vn -0.0036 -0.6553 0.7553
vn -0.0026 -0.7107 0.7035
vn -0.0003 -0.0000 1.0000
vn 0.7935 -0.5962 0.1226
vn 0.8142 -0.5418 0.2088
vn 0.8389 -0.5258 0.1406
vn 0.8462 -0.4977 0.1903
vn 0.8731 -0.4343 0.2214
vn 0.8761 -0.4158 0.2442
vn 0.8767 -0.4281 0.2194
vn 0.8913 -0.3720 0.2591
vn 0.8931 -0.3745 0.2492
vn 0.8967 -0.3401 0.2833
vn 0.8957 -0.3349 0.2926
vn 0.8980 -0.3206 0.3013
vn 0.8965 -0.3085 0.3180
vn 0.8958 -0.2916 0.3355
vn 0.8959 -0.2906 0.3361
vn 0.8810 -0.2739 0.3859
vn 0.8801 -0.2655 0.3937
vn 0.8589 -0.2488 0.4477
vn 0.8493 -0.2157 0.4817
vn 0.8457 -0.2510 0.4709
vn 0.8122 -0.1964 0.5493
vn 0.8159 -0.1531 0.5575
vn 0.7588 -0.2456 0.6033
vn 0.7682 -0.2003 0.6080
vn 0.7922 -0.6020 -0.0999
vn 0.8038 -0.5908 -0.0696
vn 0.7345 -0.6607 -0.1550
vn 0.7337 -0.6774 -0.0523
vn 0.7340 -0.6772 -0.0522
vn 0.7131 -0.7006 -0.0254
vn 0.7058 -0.7082 0.0198
vn 0.7346 -0.6765 0.0523
vn 0.7323 -0.6783 0.0606
vn 0.7502 -0.6436 0.1515
vn 0.7914 -0.6043 0.0918
vn -0.0001 -0.9795 0.2014
vn -0.0065 -0.9708 0.2399
vn 0.0312 -0.2657 0.9635
vn 0.0363 -0.2571 0.9657
vn 0.0518 -0.3370 0.9401
vn 0.0387 -0.3718 0.9275
vn 0.0518 -0.4094 0.9109
vn 0.0473 -0.5048 0.8620
vn 0.0352 -0.4865 0.8730
vn 0.0269 -0.7708 0.6365
vn 0.0340 -0.6963 0.7170
vn 0.0309 -0.6441 0.7643
vn 0.0231 -0.6553 0.7550
vn 0.0504 -0.5780 0.8145
vn 0.0029 -0.9660 0.2584
vn 0.0010 -0.9339 0.3575
vn 0.0008 -0.9338 0.3578
vn 0.0129 -0.8895 0.4567
vn 0.0019 -0.8688 0.4952
vn 0.0246 -0.8315 0.5550
vn 0.0132 -0.7530 0.6578
vn 0.0003 -0.9970 -0.0776
vn -0.0000 -0.9915 0.1298
vn -0.0051 -0.9899 0.1414
vn -0.0000 -0.9888 0.1495
vn -0.0007 -0.9994 -0.0352
vn -0.0009 -0.9993 -0.0364
vn 0.0012 -0.9994 0.0352
vn -0.0003 -0.9996 0.0274
vn 0.0002 -0.9961 0.0884
vn -0.0021 -0.9931 -0.1169
vn -0.0043 -0.9915 -0.1297
vn -0.0000 -0.9864 -0.1642
vn 0.8490 -0.0917 0.5204
vn 0.7033 -0.0352 0.7101
vn 0.7039 -0.0357 0.7094
vn 0.7631 -0.1105 0.6368
vn 0.7025 -0.1762 0.6896
vn 0.7310 -0.1013 0.6748
vn 0.7656 -0.0941 0.6364
vn 0.7756 -0.0991 0.6234
vn 0.7979 -0.0981 0.5947
vn 0.7481 -0.0344 0.6627
vn 0.7039 -0.0000 0.7103
vn 0.7450 -0.0174 0.6668
vn 0.7436 -0.0032 0.6686
vn 0.7453 -0.0175 0.6665
vn 0.7508 -0.0503 0.6586
vn 0.7556 -0.0722 0.6511
vn 0.7598 -0.0886 0.6441
vn 1.0000 -0.0000 0.0003
vn 1.0000 -0.0000 0.0004
vn 1.0000 -0.0003 0.0004
vn 1.0000 -0.0006 0.0001
vn 1.0000 0.0001 0.0007
vn 1.0000 -0.0000 -0.0000
vn 1.0000 0.0002 0.0004
vn 1.0000 0.0003 0.0004
vn 1.0000 -0.0000 0.0002
vn 1.0000 0.0001 0.0001
vn 1.0000 -0.0001 0.0004
vn 1.0000 -0.0002 0.0004
vn 1.0000 0.0001 0.0004
vn 1.0000 -0.0000 0.0006
vn 1.0000 0.0001 0.0003
vn 1.0000 -0.0001 0.0003
vn 1.0000 0.0002 0.0005
vn 1.0000 -0.0000 0.0005
vn 1.0000 -0.0001 0.0005
vn 1.0000 -0.0001 0.0001
vn 1.0000 0.0001 0.0005
vn 1.0000 0.0003 0.0003
vn 1.0000 0.0002 0.0002
vn 1.0000 -0.0001 0.0002
vn 1.0000 -0.0003 0.0002
vn 1.0000 -0.0002 0.0001
vn -0.7215 -0.0458 0.6909
vn -0.7158 -0.0328 0.6976
vn -0.7100 -0.0117 0.7041
vn -0.7079 -0.0025 0.7063
vn -0.7076 -0.0005 0.7066
vn -0.7077 -0.0020 0.7065
vn -0.7046 -0.0000 0.7096
vn 0.0318 -0.2112 0.9769
vn 0.0532 -0.2571 0.9649
vn 0.0453 -0.3143 0.9482
vn 0.0690 -0.3717 0.9258
vn 0.0525 -0.4712 0.8804
vn 0.0667 -0.5045 0.8608
vn 0.0444 -0.6434 0.7643
vn 0.0447 -0.6440 0.7637
vn 0.0289 -0.7849 0.6190
vn 0.0185 -0.7708 0.6368
vn 0.0169 -0.8843 0.4667
vn -0.0002 -0.8688 0.4952
vn -0.0000 -0.9708 0.2397
vn 0.0024 -0.9727 0.2321
vn 0.1799 -0.2724 0.9452
vn 0.2341 -0.4504 0.8616
vn 0.2856 -0.3816 0.8791
vn 0.1964 -0.4645 0.8635
vn 0.1790 -0.3010 0.9367
vn 0.1780 -0.2947 0.9389
vn 0.1189 -0.2816 0.9521
vn 0.2109 -0.2423 0.9470
vn 0.1948 -0.2567 0.9467
vn 0.0534 -0.7970 0.6016
vn 0.0988 -0.8220 0.5608
vn 0.1048 -0.7122 0.6941
vn 0.0315 -0.2112 0.9769
vn 0.0553 -0.1797 0.9822
vn 0.0610 -0.3137 0.9475
vn 0.0908 -0.2832 0.9547
vn 0.0949 -0.4693 0.8779
vn 0.0915 -0.4725 0.8766
vn 0.0867 -0.6420 0.7618
vn 0.1732 -0.5755 0.7993
vn 0.1745 -0.6566 0.7338
vn 0.0568 -0.6645 0.7452
vn 0.0458 -0.7971 0.6021
vn 0.0263 -0.7850 0.6189
vn 0.0149 -0.8838 0.4677
vn 0.0154 -0.8844 0.4665
vn 0.0065 -0.9446 0.3283
vn 0.0107 -0.9474 0.3197
vn 0.0001 -0.9338 0.3578
vn 0.0003 -0.1485 -0.9889
vn 0.0020 -0.9719 -0.2353
vn 0.0060 -0.9543 -0.2988
vn 0.0297 -0.9044 -0.4257
vn 0.0194 -0.8537 -0.5204
vn 0.0477 -0.8897 -0.4540
vn 0.0560 -0.8138 -0.5784
vn 0.0545 -0.7805 -0.6228
vn 0.0593 -0.7940 -0.6050
vn 0.0813 -0.7153 -0.6941
vn 0.0819 -0.6210 -0.7795
vn 0.0653 -0.5051 -0.8606
vn 0.0491 -0.3665 -0.9291
vn 0.0454 -0.4164 -0.9081
vn 0.0392 -0.3596 -0.9323
vn 0.0183 -0.2512 -0.9678
vn 0.0125 -0.2861 -0.9581
vn 0.0044 -0.1767 -0.9843
vn 0.0003 -0.1891 -0.9820
vn 0.0026 -0.1594 -0.9872
vn 0.0925 -0.7544 -0.6499
vn 0.0650 -0.7109 -0.7003
vn 0.0998 -0.7064 -0.7007
vn 0.0836 -0.6777 -0.7306
vn 0.0790 -0.6783 -0.7305
vn 0.0756 -0.6617 -0.7460
vn 0.0787 -0.5068 -0.8584
vn 0.0852 -0.4713 -0.8778
vn 0.0829 -0.4666 -0.8806
vn 0.0710 -0.4683 -0.8807
vn 0.0757 -0.5735 -0.8157
vn 0.0753 -0.5778 -0.8127
vn 0.0883 -0.5760 -0.8127
vn 0.0961 -0.5909 -0.8010
vn 0.0713 -0.5943 -0.8011
vn 0.0977 -0.6411 -0.7612
vn 0.0716 -0.3728 -0.9251
vn 0.0726 -0.2984 -0.9517
vn 0.0595 -0.3652 -0.9290
vn 0.0394 -0.2149 -0.9758
vn 0.0223 -0.2508 -0.9678
vn 0.0120 -0.1807 -0.9835
vn 0.0001 -0.1696 -0.9855
vn 0.0649 -0.8851 -0.4609
vn 0.0400 -0.8570 -0.5138
vn 0.0511 -0.9318 -0.3593
vn 0.0128 -0.9149 -0.4034
vn 0.0228 -0.9645 -0.2630
vn 0.0011 -0.9575 -0.2884
vn 0.0063 -0.9772 -0.2121
vn -0.0000 -0.9732 -0.2301
vn 0.0804 -0.8326 -0.5480
vn 0.0534 -0.7966 -0.6021
vn 0.0920 -0.7923 -0.6032
vn 0.1309 -0.8470 -0.5152
vn 0.0536 -0.7946 -0.6048
vn 0.0619 -0.9120 -0.4054
vn 0.0220 -0.8913 -0.4529
vn 0.0277 -0.9442 -0.3283
vn 0.0084 -0.9448 -0.3276
vn 0.0037 -0.9383 -0.3458
vn -0.7210 0.0079 -0.6929
vn -0.7082 -0.0090 -0.7060
vn -0.7055 -0.0007 -0.7087
vn -0.7179 -0.0320 -0.6954
vn -0.7253 -0.0440 -0.6870
vn -0.7042 -0.0031 -0.7100
vn -0.7053 -0.0000 -0.7089
vn -0.7053 -0.0003 -0.7089
vn -0.7038 -0.0000 -0.7104
vn 0.7045 -0.0000 -0.7097
vn 0.7510 -0.0470 -0.6586
vn 0.7553 -0.0672 -0.6520
vn 0.7482 -0.0318 -0.6627
vn 0.7446 -0.0103 -0.6674
vn 0.7438 -0.0000 -0.6684
vn 0.8255 -0.0271 -0.5637
vn 0.8271 0.0378 -0.5607
vn 0.8229 -0.0293 -0.5675
vn 0.7636 0.0164 -0.6455
vn 0.7653 -0.0439 -0.6422
vn 0.7280 -0.0216 -0.6852
vn 0.7473 -0.0396 -0.6633
vn 0.7198 -0.0483 -0.6925
vn 0.7024 -0.0347 -0.7109
vn 0.7107 -0.0530 -0.7015
vn 0.7601 -0.0941 -0.6430
vn 0.7754 -0.1543 -0.6123
vn 0.0003 -0.0000 -1.0000
vn -0.0022 -0.6828 -0.7306
vn -0.0061 -0.5045 -0.8634
vn -0.0000 -0.1101 -0.9939
vn -0.0016 -0.6404 -0.7681
vn -0.0007 -0.3287 -0.9444
vn -0.0012 -0.3582 -0.9336
vn 0.0003 -0.1406 -0.9901
vn -0.0020 -0.6912 -0.7227
vn -0.0119 -0.5963 -0.8027
vn -0.0022 -0.7165 -0.6976
vn 0.0005 -0.3345 -0.9424
vn 0.0005 -0.3346 -0.9424
vn -0.0038 -0.4864 -0.8737
vn 0.0008 -0.4422 -0.8969
vn -0.0025 -0.5634 -0.8262
vn 0.0003 -0.2351 -0.9720
vn 0.0003 -0.2348 -0.9720
vn 0.0003 -0.1744 -0.9847
vn -0.0028 -0.2569 -0.9664
vn 0.0002 -0.2339 -0.9723
vn -0.0004 -0.3418 -0.9398
vn -0.0017 -0.3854 -0.9227
vn -0.7191 0.0025 -0.6949
vn -0.7037 0.0364 -0.7095
vn -0.7189 0.0019 -0.6951
vn -0.7749 0.1271 -0.6191
vn -0.7662 0.1146 -0.6323
vn -0.7586 0.0785 -0.6468
vn -0.7535 0.0486 -0.6556
vn -0.7498 0.0213 -0.6614
vn -0.7480 0.0034 -0.6636
vn -0.7464 0.1483 -0.6488
vn -0.0051 0.8370 -0.5472
vn -0.0093 0.7992 -0.6009
vn -0.0075 0.7392 -0.6735
vn -0.0074 0.6929 -0.7210
vn -0.0044 0.6369 -0.7710
vn -0.0061 0.5782 -0.8159
vn -0.0012 0.4919 -0.8706
vn -0.0014 0.4801 -0.8772
vn -0.0011 0.3678 -0.9299
vn 0.0003 0.3851 -0.9229
vn -0.0009 0.2094 -0.9778
vn 0.0045 0.0421 -0.9991
vn -0.0001 0.2108 -0.9775
vn -0.0029 0.4722 -0.8815
vn -0.0007 0.6796 -0.7335
vn -0.0044 0.5471 -0.8370
vn -0.0032 0.8343 -0.5513
vn -0.0053 0.7722 -0.6354
vn 0.7081 0.6033 0.3668
vn 0.7070 0.2283 0.6693
vn 0.7153 0.2668 0.6459
vn 0.7079 0.3754 0.5983
vn 0.7038 0.3369 0.6254
vn 0.7244 0.3015 0.6199
vn 0.6781 0.2468 0.6923
vn 0.7140 0.4047 0.5713
vn 0.7325 0.4072 0.5456
vn 0.7147 0.3895 0.5810
vn 0.7045 0.5338 0.4677
vn 0.7099 0.5052 0.4908
vn 0.7199 0.4822 0.4993
vn 0.7073 0.4765 0.5222
vn 0.7069 0.4494 0.5462
vn 0.6991 0.5691 0.4329
vn 0.7402 0.5525 0.3832
vn 0.7157 0.5462 0.4353
vn 0.7166 0.6135 0.3319
vn 0.7216 0.6116 0.3244
vn 0.7066 0.6435 0.2943
vn 0.7247 0.6534 0.2187
vn 0.7194 0.6559 0.2285
vn 0.7071 0.6574 0.2604
vn 0.7073 0.7062 0.0321
vn 0.7067 0.7042 0.0684
vn 0.7194 0.6857 0.1106
vn 0.7144 0.6900 0.1166
vn 0.7016 0.6869 0.1893
vn 0.7233 0.6905 -0.0013
vn 0.7242 0.6896 -0.0026
vn 0.7027 0.7101 -0.0446
vn 0.7092 0.7005 -0.0796
vn 0.7185 0.6858 -0.1157
vn 0.7164 0.6876 -0.1182
vn 0.7070 0.6558 -0.2648
vn 0.7234 0.6532 -0.2237
vn 0.7280 0.6467 -0.2276
vn 0.7011 0.6868 -0.1915
vn 0.7073 0.6409 -0.2982
vn 0.7210 0.6099 -0.3289
vn 0.7196 0.6105 -0.3309
vn 0.7071 0.5336 -0.4640
vn 0.7173 0.5436 -0.4360
vn 0.7247 0.5453 -0.4213
vn 0.7026 0.5836 -0.4071
vn 0.7092 0.6021 -0.3669
vn 0.7072 0.5089 -0.4908
vn 0.7230 0.4706 -0.5058
vn 0.7090 0.4679 -0.5275
vn 0.7104 0.3664 -0.6009
vn 0.7243 0.3814 -0.5744
vn 0.7229 0.3838 -0.5745
vn 0.7059 0.4231 -0.5681
vn 0.7073 0.2283 -0.6690
vn 0.7018 0.2569 -0.6645
vn 0.7250 0.2823 -0.6282
vn 0.7072 0.3152 -0.6329
vn 0.7073 0.3467 -0.6160
vn -0.0003 0.3554 0.9347
vn 0.0003 0.3682 0.9298
vn -0.0025 0.4488 0.8936
vn -0.0017 0.4919 0.8706
vn -0.0066 0.5774 0.8164
vn -0.0048 0.6368 0.7710
vn -0.0082 0.7002 0.7139
vn -0.0079 0.7388 0.6739
vn -0.0096 0.8356 0.5493
vn -0.0056 0.8040 0.5946
vn -0.0056 0.7886 0.6149
vn -0.0009 0.1069 0.9943
vn -0.0007 0.1263 0.9920
vn -0.0025 0.3445 0.9388
vn -0.0022 0.3722 0.9281
vn -0.0031 0.5020 0.8649
vn -0.0033 0.6046 0.7965
vn -0.0042 0.6449 0.7642
vn -0.0044 0.8313 0.5558
vn -0.7226 0.0124 0.6911
vn -0.7217 0.0078 0.6922
vn -0.7492 0.1580 0.6432
vn -0.7482 0.0106 0.6634
vn -0.7498 0.0242 0.6612
vn -0.7522 0.0442 0.6574
vn -0.7581 0.0793 0.6473
vn -0.7654 0.1172 0.6328
vn -0.7741 0.1291 0.6197
vn 0.7069 0.2219 0.6716
vn 0.7065 0.2238 0.6713
vn 0.7221 0.1794 0.6681
vn 0.7038 0.0370 0.7094
vn 0.7147 0.1263 0.6879
vn 0.7215 0.1351 0.6791
vn 0.7215 0.0891 0.6867
vn 0.7477 0.1579 0.6450
vn 0.7204 0.0069 0.6936
vn 0.7304 0.1992 0.6533
vn 0.7366 0.1994 0.6463
vn 0.7573 0.1288 0.6402
vn 0.7763 0.1358 0.6156
vn 0.7669 0.1250 0.6295
vn 0.7616 0.0965 0.6408
vn 0.7562 0.0623 0.6514
vn 0.7522 0.0291 0.6583
vn 0.7503 0.0077 0.6610
vn -0.0001 0.8547 0.5192
vn 0.0002 0.9631 -0.2693
vn -0.0003 0.3235 0.9462
vn 0.0003 0.3469 -0.9379
vn 0.0003 0.5555 -0.8315
vn -0.0020 0.5204 -0.8539
vn -0.0068 0.4905 -0.8714
vn -0.0093 0.4776 -0.8785
vn -0.0025 0.4455 -0.8953
vn 0.0021 0.3608 -0.9326
vn -0.0003 0.7543 -0.6566
vn 0.0006 0.7198 -0.6942
vn -0.0059 0.6538 -0.7566
vn -0.0097 0.6638 -0.7478
vn 0.0002 0.5973 -0.8020
vn 0.0001 0.8539 -0.5205
vn -0.0034 0.7999 -0.6001
vn -0.0142 0.8196 -0.5728
vn -0.0042 0.7797 -0.6261
vn -0.0000 0.9431 -0.3326
vn -0.0000 0.9430 -0.3327
vn -0.0024 0.9270 -0.3751
vn -0.0093 0.9093 -0.4161
vn -0.0080 0.9067 -0.4217
vn 0.0001 0.8792 -0.4765
vn -0.0170 0.9854 -0.1691
vn -0.0020 0.9771 -0.2130
vn -0.0000 0.9936 -0.1131
vn 0.0002 0.9954 0.0959
vn -0.0024 0.9990 0.0450
vn -0.0094 1.0000 -0.0000
vn -0.0090 1.0000 -0.0022
vn -0.0000 0.9980 -0.0626
vn -0.0009 0.9861 0.1663
vn -0.0096 0.9770 0.2129
vn -0.0004 0.9641 0.2654
vn -0.0001 0.8800 0.4750
vn -0.0093 0.9097 0.4153
vn -0.0091 0.9093 0.4160
vn -0.0021 0.9297 0.3682
vn -0.0000 0.9443 0.3291
vn -0.0021 0.8218 0.5697
vn -0.0096 0.7999 0.6000
vn -0.0051 0.7823 0.6229
vn -0.0002 0.5570 0.8305
vn -0.0002 0.5985 0.8011
vn -0.0060 0.6360 0.7717
vn -0.0139 0.6741 0.7385
vn -0.0060 0.6538 0.7566
vn -0.0002 0.7172 0.6969
vn -0.0002 0.7519 0.6593
vn -0.0012 0.3471 0.9378
vn 0.0019 0.3822 0.9241
vn -0.0073 0.4777 0.8785
vn -0.0084 0.4740 0.8805
vn -0.0017 0.5316 0.8470
vn 0.7072 0.2227 -0.6710
vn 0.7200 0.1814 -0.6699
vn 0.7614 0.0925 -0.6416
vn 0.7676 0.1261 -0.6284
vn 0.7678 0.1264 -0.6282
vn 0.7386 0.1900 -0.6468
vn 0.7352 0.2008 -0.6474
vn 0.7410 0.2012 -0.6406
vn 0.7312 0.2027 -0.6513
vn 0.7178 0.1351 -0.6830
vn 0.7218 0.1250 -0.6808
vn 0.7216 0.0889 -0.6865
vn 0.7041 0.0371 -0.7092
vn 0.7190 -0.0000 -0.6950
vn 0.7481 0.1584 -0.6444
vn 0.7509 0.0142 -0.6602
vn 0.7553 0.0531 -0.6532
vn -0.0073 -0.2161 -0.9763
vn -0.0000 -0.2726 -0.9621
vn -0.0000 -0.3825 -0.9240
vn -0.0073 -0.4355 -0.9002
vn -0.0000 -0.4871 -0.8734
vn -0.0000 -0.5851 -0.8109
vn -0.0073 -0.6312 -0.7755
vn -0.0000 -0.6753 -0.7376
vn -0.0000 -0.7564 -0.6541
vn -0.0073 -0.7932 -0.6090
vn -0.0000 -0.8273 -0.5618
vn -0.0000 -0.8868 -0.4621
vn -0.0073 -0.9122 -0.4097
vn -0.0000 -0.9346 -0.3558
vn -0.0000 -0.9695 -0.2452
vn -0.0073 -0.9821 -0.1883
vn -0.0000 -0.9914 -0.1308
vn -0.0000 -0.9999 -0.0147
vn -0.0073 -0.9990 0.0433
vn -0.0000 -0.9949 0.1011
vn -0.0000 -0.9764 0.2161
vn -0.0073 -0.9621 0.2725
vn -0.0000 -0.9447 0.3280
vn -0.0000 -0.9002 0.4354
vn -0.0073 -0.8733 0.4871
vn -0.0000 -0.8435 0.5371
vn -0.0000 -0.7756 0.6312
vn -0.0073 -0.7375 0.6753
vn -0.0000 -0.6969 0.7172
vn -0.0000 -0.6089 0.7932
vn -0.0073 -0.5619 0.8272
vn -0.0000 -0.5130 0.8584
vn -0.0000 -0.4099 0.9122
vn -0.0073 -0.3559 0.9345
vn -0.0000 -0.3011 0.9536
vn -0.0000 -0.1881 0.9821
vn -0.0073 -0.1309 0.9914
vn -0.0000 -0.0732 0.9973
vn -0.0000 0.0432 0.9991
vn -0.0073 0.1013 0.9948
vn -0.0000 0.1588 0.9873
vn -0.0000 0.2725 0.9622
vn -0.0073 0.3280 0.9446
vn -0.0000 0.3825 0.9240
vn -0.0000 0.4868 0.8735
vn -0.0073 0.5370 0.8436
vn -0.0000 0.5850 0.8110
vn -0.0000 0.6751 0.7377
vn -0.0073 0.7171 0.6969
vn -0.0000 0.7563 0.6542
vn -0.0000 0.8273 0.5618
vn -0.0073 0.8585 0.5128
vn -0.0000 0.8868 0.4621
vn -0.0000 0.9345 0.3560
vn -0.0073 0.9536 0.3010
vn -0.0000 0.9695 0.2450
vn -0.0000 0.9914 0.1308
vn -0.0073 0.9973 0.0730
vn -0.0000 0.9999 0.0150
vn -0.0000 0.9948 -0.1014
vn -0.0073 0.9872 -0.1590
vn -0.0000 0.9764 -0.2161
vn -0.0000 0.9446 -0.3281
vn -0.0073 0.9240 -0.3824
vn -0.0000 0.9002 -0.4354
vn -0.0000 0.8435 -0.5371
vn -0.0073 0.8109 -0.5852
vn -0.0000 0.7756 -0.6312
vn -0.0000 0.6970 -0.7170
vn -0.0073 0.6541 -0.7563
vn -0.0000 0.6091 -0.7931
vn -0.0000 0.5128 -0.8585
vn -0.0073 0.4619 -0.8869
vn -0.0000 0.4095 -0.9123
vn -0.0000 0.3010 -0.9536
vn -0.0072 0.2447 -0.9696
vn -0.0000 0.1881 -0.9822
vn -0.0000 0.0641 -0.9979
vn -0.0013 0.0729 -0.9973
vn 0.0011 -0.0520 -0.9986
vn -0.0000 -0.0432 -0.9991
vn -0.0000 -0.1590 -0.9873
vn -0.0000 -0.1275 -0.9918
vn -0.0000 -0.4017 -0.9158
vn -0.0000 -0.4020 -0.9157
vn -0.0000 -0.6434 -0.7655
vn -0.0000 -0.8332 -0.5530
vn -0.0000 -0.9552 -0.2960
vn -0.0000 -0.9999 -0.0148
vn -0.0000 -0.9636 0.2674
vn -0.0000 -0.8492 0.5281
vn -0.0000 -0.6660 0.7459
vn -0.0000 -0.4289 0.9033
vn -0.0000 -0.1570 0.9876
vn -0.0000 0.1274 0.9919
vn -0.0000 0.1277 0.9918
vn -0.0000 0.4017 0.9157
vn -0.0000 0.6436 0.7654
vn -0.0000 0.6436 0.7653
vn -0.0000 0.8331 0.5531
vn -0.0000 0.9552 0.2960
vn -0.0000 0.9999 0.0149
vn -0.0000 0.9635 -0.2675
vn -0.0000 0.9636 -0.2672
vn -0.0000 0.8492 -0.5281
vn -0.0000 0.6661 -0.7459
vn -0.0000 0.4288 -0.9034
vn -0.0000 0.1570 -0.9876
vn 0.7066 0.0516 -0.7058
vn 0.7659 0.0841 -0.6374
vn 0.7063 0.1334 -0.6952
vn 0.7063 0.2131 -0.6751
vn 0.7658 0.2290 -0.6010
vn 0.7064 0.2900 -0.6457
vn 0.7067 0.3628 -0.6074
vn 0.7660 0.3611 -0.5318
vn 0.7066 0.4310 -0.5612
vn 0.7066 0.4932 -0.5074
vn 0.7659 0.4742 -0.4342
vn 0.7065 0.5489 -0.4467
vn 0.7047 0.6196 -0.3456
vn 0.8098 0.4949 -0.3152
vn 0.7064 0.6371 -0.3082
vn 0.7065 0.6686 -0.2322
vn 0.7659 0.6187 -0.1753
vn 0.7064 0.6911 -0.1529
vn 0.7049 0.7086 -0.0307
vn 0.8098 0.5837 -0.0595
vn 0.7064 0.7077 0.0106
vn 0.7064 0.7017 0.0926
vn 0.7658 0.6315 0.1211
vn 0.7066 0.6860 0.1733
vn 0.7048 0.6471 0.2906
vn 0.8096 0.5485 0.2089
vn 0.7064 0.6277 0.3271
vn 0.7046 0.5628 0.4322
vn 0.8096 0.4856 0.3298
vn 0.7065 0.5352 0.4630
vn 0.7065 0.4781 0.5218
vn 0.7660 0.4059 0.4985
vn 0.7066 0.4141 0.5738
vn 0.7049 0.3090 0.6385
vn 0.8096 0.2857 0.5128
vn 0.7066 0.2706 0.6538
vn 0.7066 0.1928 0.6808
vn 0.7660 0.1389 0.6276
vn 0.7066 0.1123 0.6986
vn 0.7066 0.0308 0.7070
vn 0.7065 0.0308 0.7070
vn 0.7065 -0.0517 0.7058
vn 0.7064 -0.0518 0.7059
vn 0.7064 -0.1332 0.6952
vn 0.7658 -0.1575 0.6234
vn 0.7066 -0.2129 0.6749
vn 0.7046 -0.3279 0.6294
vn 0.8098 -0.2403 0.5352
vn 0.7063 -0.3632 0.6077
vn 0.7065 -0.4310 0.5613
vn 0.7658 -0.4207 0.4865
vn 0.7065 -0.4932 0.5075
vn 0.7066 -0.5488 0.4467
vn 0.7658 -0.5215 0.3763
vn 0.7067 -0.5968 0.3800
vn 0.7067 -0.6369 0.3081
vn 0.7659 -0.5941 0.2459
vn 0.7064 -0.6687 0.2322
vn 0.7064 -0.6911 0.1529
vn 0.7659 -0.6348 0.1021
vn 0.7065 -0.7041 0.0716
vn 0.7065 -0.7076 -0.0104
vn 0.7659 -0.6413 -0.0469
vn 0.7065 -0.7017 -0.0926
vn 0.7046 -0.6766 -0.2136
vn 0.8096 -0.5690 -0.1439
vn 0.7067 -0.6612 -0.2518
vn 0.7066 -0.6275 -0.3270
vn 0.7658 -0.5521 -0.3297
vn 0.7065 -0.5855 -0.3976
vn 0.7047 -0.5088 -0.4946
vn 0.8098 -0.4438 -0.3838
vn 0.7066 -0.4779 -0.5220
vn 0.7066 -0.4141 -0.5739
vn 0.7658 -0.3454 -0.5425
vn 0.7064 -0.3448 -0.6182
vn 0.7066 -0.2705 -0.6539
vn 0.7659 -0.2109 -0.6074
vn 0.7067 -0.1929 -0.6807
vn 0.7049 -0.0719 -0.7056
vn 0.8095 -0.0933 -0.5797
vn 0.7065 -0.0306 -0.7070
vn -1.0000 -0.0000 -0.0000
vt 0.000000 0.000000
vt 0.519272 0.686918
vt 0.519278 0.686860
vt 0.519301 0.686593
vt 0.519308 0.686517
vt 0.519340 0.686108
vt 0.520357 0.674931
vt 0.520427 0.674167
vt 0.520429 0.674148
vt 0.521014 0.663746
vt 0.521146 0.661756
vt 0.521179 0.661105
vt 0.521383 0.658358
vt 0.521415 0.657965
vt 0.521509 0.657060
vt 0.521515 0.657025
vt 0.521665 0.655815
vt 0.521688 0.655706
vt 0.522228 0.652661
vt 0.522230 0.652650
vt 0.522398 0.651959
vt 0.522402 0.651790
vt 0.522454 0.648234
vt 0.522459 0.647093
vt 0.522460 0.646510
vt 0.522460 0.645926
vt 0.522469 0.636179
vt 0.522469 0.633277
vt 0.522469 0.630375
vt 0.522470 0.624721
vt 0.522420 0.615808
vt 0.522418 0.615314
vt 0.522322 0.614039
vt 0.522320 0.613646
vt 0.522319 0.613542
vt 0.522310 0.613131
vt 0.522294 0.612702
vt 0.522122 0.609681
vt 0.522098 0.609314
vt 0.521924 0.608797
vt 0.521920 0.608784
vt 0.521191 0.605911
vt 0.521169 0.605811
vt 0.520606 0.602571
vt 0.520590 0.602468
vt 0.520077 0.598261
vt 0.520064 0.598148
vt 0.520053 0.598049
vt 0.519288 0.591329
vt 0.519234 0.590903
vt 0.516133 0.572367
vt 0.516065 0.571961
vt 0.516042 0.571841
vt 0.516020 0.571732
vt 0.515959 0.571469
vt 0.515940 0.571391
vt 0.515865 0.571126
vt 0.511620 0.555160
vt 0.511580 0.555034
vt 0.511515 0.554848
vt 0.511481 0.554760
vt 0.506287 0.542095
vt 0.506171 0.541834
vt 0.506149 0.541790
vt 0.506048 0.541613
vt 0.505984 0.541519
vt 0.500079 0.532738
vt 0.500012 0.532652
vt 0.499971 0.532605
vt 0.499836 0.532484
vt 0.493490 0.527990
vt 0.493352 0.527914
vt 0.493296 0.527897
vt 0.493210 0.527885
vt 0.486715 0.527885
vt 0.486672 0.527885
vt 0.486549 0.527910
vt 0.486532 0.527916
vt 0.480185 0.532411
vt 0.480048 0.532488
vt 0.479912 0.532611
vt 0.479871 0.532658
vt 0.479797 0.532756
vt 0.473889 0.541540
vt 0.473835 0.541621
vt 0.473740 0.541790
vt 0.473714 0.541841
vt 0.468516 0.554514
vt 0.468401 0.554775
vt 0.468368 0.554862
vt 0.468318 0.555003
vt 0.468266 0.555168
vt 0.464017 0.571147
vt 0.463925 0.571484
vt 0.463868 0.571732
vt 0.463843 0.571854
vt 0.463808 0.572045
vt 0.463795 0.572116
vt 0.460691 0.590669
vt 0.460640 0.591000
vt 0.460590 0.591422
vt 0.459824 0.598148
vt 0.459801 0.598330
vt 0.459289 0.602533
vt 0.459283 0.602571
vt 0.458718 0.605820
vt 0.458697 0.605917
vt 0.457966 0.608791
vt 0.457963 0.608800
vt 0.457818 0.609231
vt 0.457782 0.609795
vt 0.457616 0.612767
vt 0.457601 0.613173
vt 0.457594 0.613480
vt 0.457590 0.613900
vt 0.457589 0.614260
vt 0.457484 0.615752
vt 0.457484 0.615935
vt 0.457474 0.628063
vt 0.457437 0.630375
vt 0.457440 0.632534
vt 0.457441 0.639020
vt 0.457441 0.644926
vt 0.457441 0.645442
vt 0.457449 0.647482
vt 0.457507 0.651538
vt 0.457520 0.652227
vt 0.457621 0.652668
vt 0.457626 0.652684
vt 0.457627 0.652691
vt 0.457630 0.652709
vt 0.458213 0.656113
vt 0.458216 0.656137
vt 0.458305 0.656832
vt 0.458442 0.658052
vt 0.458461 0.658316
vt 0.458658 0.660721
vt 0.458714 0.661757
vt 0.458991 0.667727
vt 0.459298 0.673923
vt 0.459334 0.674554
vt 0.459440 0.675888
vt 0.460252 0.687863
vt 0.460268 0.688001
vt 0.460609 0.691537
vt 0.460972 0.694454
vt 0.461833 0.699667
vt 0.461887 0.699965
vt 0.461962 0.700254
vt 0.463111 0.705288
vt 0.463258 0.705700
vt 0.464616 0.710047
vt 0.464841 0.710529
vt 0.466356 0.714249
vt 0.466659 0.714762
vt 0.468282 0.717926
vt 0.469069 0.718912
vt 0.472524 0.723863
vt 0.473561 0.724781
vt 0.477063 0.728210
vt 0.479252 0.729754
vt 0.480161 0.730452
vt 0.480496 0.730634
vt 0.485825 0.732901
vt 0.486129 0.733018
vt 0.486364 0.733077
vt 0.489534 0.733441
vt 0.489859 0.733479
vt 0.493029 0.733116
vt 0.493571 0.733068
vt 0.493863 0.732983
vt 0.494778 0.732559
vt 0.499727 0.730452
vt 0.500538 0.729802
vt 0.503766 0.727299
vt 0.504820 0.725986
vt 0.505657 0.725068
vt 0.507505 0.722980
vt 0.509468 0.719614
vt 0.511295 0.716473
vt 0.511346 0.716343
vt 0.512840 0.712674
vt 0.514584 0.708397
vt 0.514645 0.708259
vt 0.514701 0.708084
vt 0.517370 0.698392
vt 0.517408 0.698218
vt 0.517430 0.698079
vt 0.517450 0.697930
vt 0.519272 0.686921
s 0
f 1/1/1 2/1/1 3/1/1
f 3/1/2 2/1/2 4/1/2
f 5/1/3 6/1/3 4/1/3
f 4/1/4 6/1/4 7/1/4
f 4/1/5 7/1/5 3/1/5
f 8/1/6 9/1/6 10/1/6
f 10/1/7 9/1/7 11/1/7
f 10/1/8 11/1/8 12/1/8
f 12/1/9 11/1/9 13/1/9
f 12/1/10 13/1/10 14/1/10
f 14/1/11 13/1/12 15/1/11
f 14/1/13 15/1/13 16/1/13
f 16/1/14 15/1/14 17/1/14
f 16/1/15 17/1/15 18/1/15
f 18/1/16 17/1/16 19/1/16
f 18/1/17 19/1/17 20/1/17
f 20/1/18 19/1/18 21/1/18
f 20/1/19 21/1/19 22/1/19
f 22/1/20 21/1/20 23/1/20
f 22/1/21 23/1/21 24/1/21
f 24/1/22 23/1/22 25/1/22
f 24/1/23 25/1/23 5/1/23
f 5/1/24 25/1/24 26/1/24
f 5/1/25 26/1/25 6/1/25
f 27/1/26 28/1/26 29/1/26
f 29/1/27 28/1/27 30/1/27
f 29/1/28 30/1/28 8/1/28
f 8/1/29 30/1/29 31/1/29
f 8/1/30 31/1/30 9/1/30
f 32/1/31 33/1/31 34/1/31
f 32/1/32 34/1/32 35/1/32
f 408/1/33 409/1/33 35/1/33
f 410/1/34 408/1/34 35/1/34
f 35/1/35 34/1/35 411/1/35 410/1/35
f 412/1/36 411/1/36 34/1/36
f 34/1/37 36/1/37 413/1/37 412/1/37
f 414/1/38 413/1/38 36/1/38
f 36/1/39 37/1/39 415/1/39 414/1/39
f 416/1/40 415/1/40 37/1/40
f 37/1/41 38/1/41 417/1/41 416/1/41
f 38/1/42 39/1/42 418/1/42 417/1/42
f 39/1/43 38/1/43 40/1/43
f 39/1/44 40/1/44 41/1/44
f 42/1/45 43/1/45 44/1/45
f 44/1/46 43/1/46 45/1/46
f 44/1/47 45/1/47 46/1/47
f 46/1/48 45/1/48 47/1/48
f 47/1/49 45/1/49 48/1/49
f 47/1/50 48/1/50 49/1/50
f 49/1/51 48/1/51 41/1/51
f 49/1/52 41/1/52 40/1/52
f 50/1/53 51/1/53 52/1/53
f 52/1/53 51/1/53 53/1/53
f 52/1/53 53/1/53 54/1/53
f 54/1/53 53/1/53 55/1/53
f 54/1/53 55/1/53 42/1/53
f 42/1/53 55/1/53 43/1/53
f 56/1/54 57/1/54 58/1/54
f 58/1/55 57/1/55 59/1/55
f 58/1/56 59/1/56 60/1/56
f 60/1/57 59/1/57 61/1/57
f 59/1/58 62/1/58 61/1/58
f 61/1/59 62/1/59 63/1/59
f 61/1/60 63/1/60 64/1/60
f 64/1/61 63/1/61 65/1/61
f 64/1/62 65/1/62 66/1/62
f 66/1/63 65/1/63 67/1/63
f 66/1/64 67/1/64 68/1/64
f 68/1/65 67/1/65 69/1/65
f 68/1/66 69/1/66 70/1/66
f 70/1/67 69/1/67 71/1/67
f 71/1/68 69/1/68 72/1/68
f 71/1/69 72/1/69 73/1/69
f 73/1/70 72/1/70 74/1/70
f 73/1/71 74/1/71 75/1/71
f 75/1/72 74/1/72 76/1/72
f 76/1/73 74/1/73 77/1/73
f 76/1/74 77/1/74 78/1/74
f 78/1/75 77/1/75 33/1/75
f 33/1/76 77/1/76 79/1/76
f 33/1/77 79/1/77 80/1/77
f 81/1/78 28/1/78 27/1/78
f 81/1/79 27/1/79 82/1/79
f 82/1/80 27/1/80 83/1/80
f 82/1/81 83/1/81 84/1/81
f 84/1/82 83/1/82 85/1/82
f 84/1/83 85/1/83 86/1/83
f 86/1/84 85/1/84 87/1/84
f 87/1/85 85/1/85 88/1/85
f 87/1/86 88/1/86 89/1/86
f 89/1/87 88/1/87 57/1/87
f 89/1/88 57/1/88 56/1/88
f 90/1/89 56/1/89 58/1/89
f 90/1/90 58/1/90 91/1/90
f 33/1/91 32/1/91 78/1/91
f 78/1/92 32/1/92 92/1/92
f 78/1/93 92/1/93 76/1/93
f 76/1/94 92/1/94 93/1/94
f 76/1/95 93/1/95 75/1/95
f 75/1/96 93/1/96 94/1/96
f 75/1/97 94/1/97 73/1/97
f 95/1/98 68/1/98 96/1/98
f 96/1/99 68/1/99 70/1/99
f 96/1/100 70/1/100 94/1/100
f 94/1/101 70/1/101 71/1/101
f 94/1/102 71/1/102 73/1/102
f 58/1/103 60/1/103 91/1/103
f 91/1/104 60/1/104 61/1/104
f 91/1/105 61/1/105 97/1/105
f 97/1/106 61/1/106 64/1/106
f 97/1/107 64/1/107 95/1/107
f 95/1/108 64/1/108 66/1/108
f 95/1/109 66/1/109 68/1/109
f 82/1/110 84/1/110 420/1/110 419/1/110
f 421/1/111 422/1/111 90/1/111
f 89/1/112 90/1/112 422/1/112 423/1/112
f 90/1/113 89/1/113 56/1/113
f 424/1/114 420/1/114 84/1/114
f 84/1/115 86/1/115 425/1/115 424/1/115
f 426/1/116 425/1/116 86/1/116
f 86/1/117 87/1/117 427/1/117 426/1/117
f 87/1/118 89/1/118 423/1/118 427/1/118
f 81/1/119 82/1/119 419/1/119 428/1/119
f 428/1/120 429/1/120 81/1/120
f 28/1/121 81/1/121 429/1/121 430/1/121
f 34/1/122 33/1/122 98/1/122
f 99/1/123 100/1/123 98/1/123
f 98/1/124 100/1/124 101/1/124
f 33/1/125 80/1/125 98/1/125
f 98/1/126 80/1/126 102/1/126
f 98/1/127 102/1/127 99/1/127
f 38/1/128 37/1/128 98/1/128
f 98/1/129 37/1/129 36/1/129
f 98/1/130 36/1/130 34/1/130
f 46/1/131 47/1/131 98/1/131
f 52/1/132 54/1/132 101/1/132
f 101/1/132 54/1/132 42/1/132
f 101/1/133 42/1/133 98/1/133
f 98/1/134 42/1/134 44/1/134
f 98/1/135 44/1/135 46/1/135
f 47/1/136 49/1/136 98/1/136
f 98/1/137 49/1/137 40/1/137
f 98/1/138 40/1/138 38/1/138
f 102/1/139 103/1/139 99/1/139
f 99/1/140 103/1/140 104/1/140
f 105/1/141 106/1/141 107/1/141
f 108/1/142 109/1/142 110/1/142
f 110/1/143 109/1/143 111/1/143
f 110/1/140 111/1/140 104/1/140
f 104/1/139 111/1/139 100/1/139
f 104/1/139 100/1/139 99/1/139
f 107/1/144 112/1/144 105/1/144
f 105/1/144 112/1/144 113/1/144
f 105/1/145 113/1/145 114/1/145
f 115/1/146 24/1/146 5/1/146
f 102/1/144 80/1/144 103/1/144
f 103/1/144 80/1/144 79/1/144
f 103/1/139 79/1/139 116/1/139
f 108/1/144 110/1/144 117/1/144
f 117/1/139 110/1/139 118/1/139
f 117/1/147 118/1/147 119/1/147
f 120/1/148 121/1/148 122/1/148
f 115/1/139 5/1/139 123/1/139
f 113/1/149 124/1/149 114/1/149
f 114/1/149 124/1/149 125/1/149
f 114/1/149 125/1/149 121/1/149
f 121/1/149 125/1/149 126/1/149
f 121/1/149 126/1/149 122/1/149
f 5/1/144 4/1/144 123/1/144
f 123/1/150 4/1/150 2/1/150
f 123/1/151 2/1/151 106/1/151
f 106/1/151 2/1/151 127/1/151
f 106/1/151 127/1/151 107/1/151
f 79/1/139 77/1/139 116/1/139
f 116/1/152 77/1/152 74/1/152
f 116/1/139 74/1/139 128/1/139
f 122/1/153 129/1/153 120/1/153
f 120/1/153 129/1/153 130/1/153
f 120/1/147 130/1/147 131/1/147
f 131/1/148 130/1/148 132/1/148
f 131/1/154 132/1/154 133/1/154
f 14/1/139 16/1/139 134/1/139
f 135/1/145 136/1/145 137/1/145
f 137/1/155 136/1/155 138/1/155
f 137/1/140 138/1/140 118/1/140
f 118/1/144 138/1/144 139/1/144
f 118/1/156 139/1/156 119/1/156
f 16/1/150 18/1/150 134/1/150
f 134/1/139 18/1/139 20/1/139
f 134/1/153 20/1/153 115/1/153
f 115/1/144 20/1/144 22/1/144
f 115/1/139 22/1/139 24/1/139
f 67/1/154 140/1/154 69/1/154
f 69/1/154 140/1/154 128/1/154
f 69/1/157 128/1/157 72/1/157
f 72/1/139 128/1/139 74/1/139
f 141/1/158 142/1/158 29/1/158
f 62/1/154 143/1/154 63/1/154
f 63/1/139 143/1/139 140/1/139
f 63/1/154 140/1/154 65/1/154
f 65/1/153 140/1/153 67/1/153
f 132/1/154 144/1/154 133/1/154
f 133/1/154 144/1/154 145/1/154
f 133/1/150 145/1/150 146/1/150
f 146/1/140 145/1/140 147/1/140
f 146/1/139 147/1/139 148/1/139
f 29/1/145 8/1/145 141/1/145
f 141/1/155 8/1/155 10/1/155
f 141/1/155 10/1/155 134/1/155
f 134/1/159 10/1/159 12/1/159
f 134/1/139 12/1/139 14/1/139
f 62/1/160 59/1/160 143/1/160
f 143/1/161 59/1/161 57/1/161
f 143/1/153 57/1/153 149/1/153
f 149/1/162 57/1/162 88/1/162
f 149/1/154 88/1/154 150/1/154
f 88/1/139 85/1/139 150/1/139
f 150/1/150 85/1/150 83/1/150
f 150/1/139 83/1/139 142/1/139
f 142/1/162 83/1/162 27/1/162
f 142/1/144 27/1/144 29/1/144
f 147/1/139 151/1/139 148/1/139
f 148/1/163 151/1/163 152/1/163
f 148/1/164 152/1/164 153/1/164
f 153/1/146 152/1/146 154/1/146
f 153/1/146 154/1/146 155/1/146
f 155/1/147 154/1/147 156/1/147
f 155/1/151 156/1/151 135/1/151
f 135/1/151 156/1/151 157/1/151
f 135/1/154 157/1/154 136/1/154
f 431/1/165 418/1/165 39/1/165
f 39/1/166 41/1/166 432/1/166 431/1/166
f 48/1/167 433/1/167 432/1/167 41/1/167
f 45/1/168 434/1/168 433/1/168 48/1/168
f 43/1/169 435/1/169 434/1/169 45/1/169
f 43/1/170 436/1/170 435/1/170
f 43/1/171 55/1/171 437/1/171 436/1/171
f 55/1/171 53/1/171 438/1/171 437/1/171
f 32/1/172 35/1/172 158/1/172
f 32/1/173 158/1/173 92/1/173
f 92/1/174 158/1/174 159/1/174
f 92/1/175 159/1/175 93/1/175
f 93/1/176 159/1/176 160/1/176
f 93/1/177 160/1/177 94/1/177
f 94/1/178 160/1/178 161/1/178
f 94/1/179 161/1/179 96/1/179
f 96/1/180 161/1/180 162/1/180
f 96/1/181 162/1/181 95/1/181
f 95/1/182 162/1/182 163/1/182
f 95/1/183 163/1/183 97/1/183
f 90/1/184 91/1/184 439/1/184 421/1/184
f 440/1/185 439/1/185 91/1/185
f 441/1/186 442/1/186 164/1/186
f 443/1/187 444/1/187 165/1/187
f 445/1/188 443/1/188 165/1/188
f 165/1/189 164/1/189 446/1/189 445/1/189
f 447/1/190 446/1/190 164/1/190
f 442/1/191 447/1/191 164/1/191
f 448/1/192 449/1/192 164/1/192
f 449/1/193 450/1/193 164/1/193
f 450/1/194 441/1/194 164/1/194
f 451/1/195 452/1/195 166/1/195
f 453/1/196 451/1/196 166/1/196
f 454/1/197 453/1/197 166/1/197
f 158/1/198 35/1/198 409/1/198 455/1/198
f 455/1/199 456/1/199 158/1/199
f 159/1/200 158/1/200 456/1/200 457/1/200
f 164/1/201 159/1/201 457/1/201 448/1/201
f 159/1/202 164/1/202 160/1/202
f 160/1/203 164/1/203 165/1/203
f 160/1/204 165/1/204 161/1/204
f 444/1/205 458/1/205 165/1/205
f 166/1/206 165/1/206 458/1/206 454/1/206
f 165/1/207 166/1/207 161/1/207
f 161/1/208 166/1/208 452/1/208 459/1/208
f 162/1/209 161/1/209 459/1/209 460/1/209
f 460/1/210 461/1/210 162/1/210
f 163/1/211 162/1/211 461/1/211 462/1/211
f 462/1/212 463/1/212 163/1/212
f 97/1/213 163/1/213 463/1/213 464/1/213
f 91/1/214 97/1/214 464/1/214 440/1/214
f 465/1/215 167/1/215 466/1/215
f 28/1/216 168/1/216 30/1/216
f 30/1/217 168/1/217 31/1/217
f 169/1/218 11/1/218 9/1/218
f 11/1/219 169/1/219 13/1/219
f 13/1/220 169/1/220 170/1/220
f 13/1/221 170/1/221 15/1/221
f 15/1/222 170/1/222 17/1/222
f 17/1/223 170/1/223 171/1/223
f 17/1/224 171/1/224 19/1/224
f 23/1/225 21/1/225 172/1/225
f 25/1/226 173/1/226 26/1/226
f 26/1/227 173/1/227 174/1/227
f 26/1/228 174/1/228 6/1/228
f 6/1/229 174/1/229 7/1/229
f 7/1/230 174/1/230 175/1/230
f 7/1/231 175/1/231 3/1/231
f 3/1/232 175/1/232 176/1/232
f 3/1/233 176/1/233 1/1/233
f 466/1/234 167/1/234 467/1/234
f 468/1/235 469/1/235 177/1/235
f 177/1/236 178/1/236 470/1/236 468/1/236
f 178/1/237 177/1/237 172/1/237
f 178/1/238 172/1/238 171/1/238
f 171/1/239 172/1/239 21/1/239
f 171/1/240 21/1/240 19/1/240
f 471/1/241 179/1/241 472/1/241
f 473/1/242 173/1/242 179/1/242 471/1/242
f 179/1/243 173/1/243 180/1/243
f 180/1/244 173/1/244 25/1/244
f 180/1/245 25/1/245 23/1/245
f 23/1/246 172/1/246 180/1/246
f 180/1/247 172/1/247 177/1/247
f 180/1/248 177/1/248 179/1/248
f 179/1/249 177/1/249 469/1/249 474/1/249
f 472/1/250 179/1/250 474/1/250
f 475/1/251 173/1/251 473/1/251
f 476/1/252 173/1/252 475/1/252
f 174/1/253 173/1/253 476/1/253 477/1/253
f 478/1/254 174/1/254 477/1/254
f 175/1/255 174/1/255 478/1/255 479/1/255
f 467/1/256 167/1/256 175/1/256 479/1/256
f 175/1/257 167/1/257 176/1/257
f 480/1/258 481/1/258 181/1/258
f 181/1/259 182/1/259 482/1/259 480/1/259
f 483/1/260 482/1/260 182/1/260
f 182/1/261 183/1/261 484/1/261 483/1/261
f 485/1/262 484/1/262 183/1/262
f 183/1/263 168/1/263 486/1/263 485/1/263
f 487/1/264 486/1/264 168/1/264
f 168/1/265 28/1/265 430/1/265 487/1/265
f 488/1/266 470/1/266 178/1/266
f 178/1/267 181/1/267 481/1/267 488/1/267
f 181/1/268 178/1/268 171/1/268
f 181/1/269 171/1/269 182/1/269
f 182/1/270 171/1/270 170/1/270
f 182/1/271 170/1/271 183/1/271
f 183/1/272 170/1/272 169/1/272
f 183/1/273 169/1/273 168/1/273
f 168/1/274 169/1/274 9/1/274
f 168/1/275 9/1/275 31/1/275
f 184/1/276 185/1/276 186/1/276
f 490/1/277 186/1/277 185/1/277 489/1/277
f 187/1/278 186/1/278 490/1/278 491/1/278
f 185/1/279 188/1/279 492/1/279 489/1/279
f 188/1/280 493/1/280 492/1/280
f 494/1/281 189/1/281 495/1/281
f 190/1/282 187/1/282 491/1/282 496/1/282
f 189/1/283 190/1/283 496/1/283 495/1/283
f 190/1/284 189/1/284 191/1/284
f 192/1/285 193/1/285 112/1/285
f 194/1/286 195/1/286 196/1/286
f 196/1/287 195/1/287 197/1/287
f 194/1/288 198/1/288 195/1/288
f 195/1/289 198/1/289 199/1/289
f 195/1/290 199/1/290 192/1/290
f 1/1/291 200/1/291 2/1/291
f 2/1/292 200/1/292 201/1/292
f 2/1/293 201/1/293 202/1/293
f 202/1/294 201/1/294 203/1/294
f 202/1/295 203/1/295 195/1/295
f 195/1/296 203/1/296 204/1/296
f 195/1/297 204/1/297 197/1/297
f 192/1/298 112/1/298 195/1/298
f 195/1/299 112/1/299 107/1/299
f 195/1/300 107/1/300 202/1/300
f 202/1/301 107/1/301 127/1/301
f 202/1/302 127/1/302 2/1/302
f 199/1/303 187/1/303 192/1/303
f 192/1/303 187/1/303 190/1/303
f 192/1/303 190/1/303 193/1/303
f 193/1/303 190/1/303 191/1/303
f 193/1/303 191/1/303 205/1/303
f 205/1/303 191/1/303 206/1/303
f 196/1/304 197/1/304 185/1/304
f 196/1/305 185/1/305 194/1/305
f 186/1/306 187/1/306 199/1/306
f 185/1/307 184/1/307 194/1/307
f 194/1/308 184/1/308 186/1/308
f 194/1/309 186/1/309 198/1/309
f 198/1/310 186/1/310 199/1/310
f 197/1/311 204/1/311 497/1/311 498/1/311
f 188/1/312 197/1/312 498/1/312 493/1/312
f 197/1/313 188/1/313 185/1/313
f 201/1/314 200/1/314 499/1/315 500/1/314
f 501/1/316 201/1/316 500/1/316
f 203/1/317 201/1/317 501/1/317 502/1/317
f 204/1/318 203/1/318 502/1/318 497/1/318
f 1/1/319 176/1/319 200/1/319
f 200/1/320 176/1/320 167/1/320
f 503/1/321 167/1/321 465/1/321
f 504/1/322 167/1/322 503/1/322
f 505/1/323 200/1/323 167/1/323 504/1/323
f 506/1/324 200/1/324 505/1/324
f 499/1/325 200/1/325 506/1/325
f 507/1/326 207/1/326 206/1/326 508/1/326
f 509/1/327 189/1/327 494/1/327
f 206/1/328 189/1/328 509/1/328 508/1/328
f 189/1/284 206/1/284 191/1/284
f 208/1/329 511/1/329 510/1/329
f 511/1/330 208/1/330 209/1/330 512/1/330
f 209/1/331 210/1/331 513/1/331 512/1/331
f 210/1/332 211/1/332 514/1/332 513/1/332
f 514/1/333 211/1/333 212/1/333 515/1/333
f 515/1/334 212/1/334 207/1/334 516/1/334
f 207/1/335 507/1/335 516/1/335
f 213/1/336 209/1/336 208/1/336
f 213/1/337 208/1/337 214/1/337
f 517/1/338 214/1/338 208/1/338 510/1/338
f 518/1/339 215/1/339 214/1/339 517/1/339
f 519/1/340 215/1/340 518/1/340
f 520/1/341 216/1/341 215/1/341 519/1/341
f 521/1/342 216/1/342 520/1/342
f 522/1/343 217/1/343 216/1/343 521/1/343
f 523/1/344 217/1/344 522/1/344
f 524/1/345 218/1/345 217/1/345 523/1/345
f 205/1/346 206/1/346 219/1/346
f 219/1/347 206/1/347 207/1/347
f 219/1/348 207/1/348 212/1/348
f 212/1/349 211/1/349 219/1/349
f 219/1/350 211/1/350 210/1/350
f 219/1/351 210/1/351 220/1/351
f 220/1/352 210/1/352 209/1/352
f 220/1/353 209/1/353 213/1/353
f 221/1/354 222/1/354 157/1/354
f 223/1/355 224/1/355 117/1/355
f 223/1/356 117/1/356 225/1/356
f 226/1/357 227/1/357 139/1/357
f 139/1/358 227/1/358 225/1/358
f 139/1/359 225/1/359 119/1/359
f 119/1/360 225/1/360 117/1/360
f 138/1/361 228/1/361 139/1/361
f 139/1/362 228/1/362 229/1/362
f 139/1/363 229/1/363 226/1/363
f 230/1/364 231/1/364 136/1/364
f 136/1/365 231/1/365 232/1/365
f 136/1/366 232/1/366 138/1/366
f 138/1/367 232/1/367 233/1/367
f 138/1/368 233/1/368 228/1/368
f 157/1/369 222/1/369 136/1/369
f 136/1/370 222/1/370 234/1/370
f 136/1/371 234/1/371 230/1/371
f 221/1/372 157/1/372 235/1/372
f 235/1/373 157/1/373 156/1/373
f 235/1/374 156/1/374 236/1/374
f 154/1/375 237/1/375 156/1/375
f 156/1/376 237/1/376 238/1/376
f 156/1/377 238/1/377 236/1/377
f 239/1/378 240/1/378 152/1/378
f 152/1/379 240/1/379 241/1/379
f 152/1/380 241/1/380 154/1/380
f 154/1/381 241/1/381 242/1/381
f 154/1/382 242/1/382 237/1/382
f 239/1/383 152/1/383 243/1/383
f 243/1/384 152/1/384 151/1/384
f 243/1/385 151/1/385 244/1/385
f 244/1/386 151/1/386 245/1/386
f 245/1/387 151/1/387 147/1/387
f 245/1/388 147/1/388 246/1/388
f 145/1/389 247/1/389 248/1/389
f 145/1/390 248/1/390 147/1/390
f 147/1/391 248/1/391 249/1/391
f 147/1/392 249/1/392 246/1/392
f 247/1/393 145/1/393 250/1/393
f 250/1/394 145/1/394 144/1/394
f 250/1/395 144/1/395 251/1/395
f 252/1/396 253/1/396 132/1/396
f 132/1/397 253/1/397 254/1/397
f 132/1/398 254/1/398 144/1/398
f 144/1/399 254/1/399 255/1/399
f 144/1/400 255/1/400 251/1/400
f 252/1/401 132/1/401 256/1/401
f 256/1/402 132/1/402 130/1/402
f 256/1/403 130/1/403 257/1/403
f 129/1/404 258/1/404 259/1/404
f 129/1/405 259/1/405 130/1/405
f 130/1/406 259/1/406 260/1/406
f 130/1/407 260/1/407 257/1/407
f 126/1/408 218/1/408 122/1/408
f 122/1/409 218/1/409 261/1/409
f 122/1/410 261/1/410 129/1/410
f 129/1/411 261/1/411 262/1/411
f 129/1/412 262/1/412 258/1/412
f 263/1/413 224/1/413 525/1/413 526/1/413
f 526/1/414 527/1/414 263/1/414
f 264/1/415 263/1/415 527/1/415 528/1/415
f 528/1/416 529/1/416 264/1/416
f 265/1/417 264/1/417 529/1/417 530/1/417
f 530/1/418 531/1/418 265/1/418
f 266/1/419 265/1/419 531/1/419 532/1/419
f 267/1/420 266/1/420 532/1/420 533/1/420
f 266/1/421 267/1/421 268/1/421
f 266/1/422 268/1/422 269/1/422
f 270/1/423 269/1/423 268/1/423
f 51/1/424 50/1/424 271/1/424
f 271/1/425 50/1/425 272/1/425
f 271/1/426 272/1/426 273/1/426
f 273/1/427 272/1/427 274/1/427
f 273/1/428 274/1/428 275/1/428
f 275/1/429 274/1/429 270/1/429
f 275/1/430 270/1/430 276/1/430
f 276/1/431 270/1/431 268/1/431
f 53/1/171 51/1/171 534/1/171 438/1/171
f 535/1/432 534/1/432 51/1/432
f 536/1/433 535/1/433 51/1/433 271/1/433
f 537/1/434 536/1/434 271/1/434
f 538/1/435 537/1/435 271/1/435 273/1/435
f 275/1/436 539/1/436 538/1/436 273/1/436
f 276/1/437 540/1/437 539/1/437 275/1/437
f 268/1/438 541/1/438 540/1/438 276/1/438
f 542/1/439 541/1/439 268/1/439 267/1/439
f 533/1/440 542/1/440 267/1/440
f 224/1/441 263/1/441 117/1/441
f 117/1/442 263/1/442 264/1/442
f 117/1/443 264/1/443 108/1/443
f 101/1/444 100/1/444 111/1/444
f 108/1/445 277/1/445 109/1/445
f 109/1/446 277/1/446 278/1/446
f 109/1/447 278/1/447 111/1/447
f 111/1/448 278/1/448 50/1/448
f 111/1/449 50/1/449 101/1/449
f 101/1/132 50/1/132 52/1/132
f 108/1/450 264/1/450 277/1/450
f 277/1/451 264/1/451 265/1/451
f 277/1/452 265/1/452 278/1/452
f 265/1/453 266/1/453 278/1/453
f 278/1/454 266/1/454 269/1/454
f 278/1/455 269/1/455 270/1/455
f 270/1/456 274/1/456 278/1/456
f 278/1/457 274/1/457 272/1/457
f 278/1/458 272/1/458 50/1/458
f 222/1/459 221/1/459 544/1/459 543/1/459
f 246/1/460 249/1/460 546/1/460 545/1/460
f 224/1/461 223/1/461 547/1/461 525/1/461
f 548/1/462 218/1/462 524/1/462
f 260/1/463 259/1/463 549/1/463 550/1/463
f 259/1/464 258/1/464 551/1/464 549/1/464
f 258/1/465 262/1/465 552/1/465 551/1/465
f 552/1/466 262/1/466 553/1/466
f 262/1/467 261/1/467 554/1/467 553/1/467
f 261/1/468 218/1/468 548/1/468 554/1/468
f 253/1/469 252/1/469 556/1/469 555/1/469
f 252/1/470 256/1/470 557/1/470 556/1/470
f 557/1/471 256/1/471 558/1/471
f 558/1/472 256/1/472 257/1/472 559/1/472
f 559/1/473 257/1/473 260/1/473 550/1/473
f 251/1/474 255/1/474 560/1/474 561/1/474
f 560/1/475 255/1/475 562/1/475
f 255/1/476 254/1/476 563/1/476 562/1/476
f 254/1/477 253/1/477 555/1/477 563/1/477
f 249/1/478 248/1/478 564/1/479 546/1/478
f 248/1/480 247/1/480 565/1/480 564/1/480
f 565/1/481 247/1/481 566/1/481
f 566/1/482 247/1/482 250/1/482 567/1/482
f 567/1/483 250/1/483 251/1/483 561/1/483
f 245/1/484 246/1/484 545/1/484 568/1/484
f 569/1/485 245/1/485 568/1/485
f 244/1/486 245/1/486 569/1/486 570/1/486
f 241/1/487 240/1/487 571/1/487 572/1/487
f 240/1/488 239/1/488 573/1/488 571/1/488
f 573/1/489 239/1/489 574/1/489
f 239/1/490 243/1/490 575/1/490 574/1/490
f 575/1/491 243/1/491 244/1/491 570/1/491
f 242/1/492 241/1/492 572/1/492 576/1/492
f 577/1/493 242/1/493 576/1/493
f 237/1/494 242/1/494 577/1/494 578/1/494
f 221/1/495 235/1/495 579/1/495 544/1/495
f 235/1/496 236/1/496 580/1/496 579/1/496
f 580/1/497 236/1/497 581/1/497
f 236/1/498 238/1/498 582/1/498 581/1/498
f 582/1/499 238/1/499 237/1/499 578/1/499
f 234/1/500 222/1/500 543/1/500 583/1/500
f 584/1/501 234/1/501 583/1/501
f 230/1/502 234/1/502 584/1/502 585/1/502
f 226/1/503 229/1/503 587/1/503 586/1/503
f 229/1/504 228/1/504 588/1/504 587/1/504
f 228/1/505 233/1/505 589/1/505 588/1/505
f 233/1/506 232/1/506 590/1/506 589/1/506
f 591/1/507 590/1/507 232/1/507
f 232/1/508 231/1/508 592/1/508 591/1/508
f 231/1/509 230/1/509 585/1/509 592/1/509
f 593/1/510 547/1/510 223/1/510
f 223/1/511 225/1/511 594/1/511 593/1/511
f 595/1/512 594/1/512 225/1/512
f 225/1/513 227/1/513 596/1/513 595/1/513
f 227/1/514 226/1/514 586/1/514 596/1/514
f 218/1/515 126/1/515 217/1/515
f 217/1/516 126/1/516 125/1/516
f 220/1/517 213/1/517 279/1/517
f 279/1/518 213/1/518 214/1/518
f 279/1/519 214/1/519 280/1/519
f 280/1/520 214/1/520 215/1/520
f 280/1/521 215/1/521 216/1/521
f 216/1/522 217/1/522 280/1/522
f 280/1/523 217/1/523 125/1/523
f 280/1/524 125/1/524 279/1/524
f 279/1/525 125/1/525 124/1/525
f 279/1/526 124/1/526 113/1/526
f 112/1/527 193/1/527 113/1/527
f 113/1/528 193/1/528 205/1/528
f 113/1/529 205/1/529 279/1/529
f 279/1/530 205/1/530 219/1/530
f 279/1/531 219/1/531 220/1/531
f 281/1/532 123/1/532 106/1/532
f 281/1/533 282/1/533 123/1/533
f 123/1/534 282/1/534 283/1/534
f 123/1/535 283/1/535 115/1/535
f 283/1/536 284/1/536 115/1/536
f 115/1/537 284/1/537 285/1/537
f 115/1/538 285/1/538 134/1/538
f 285/1/539 286/1/539 134/1/539
f 134/1/540 286/1/540 287/1/540
f 134/1/541 287/1/541 141/1/541
f 287/1/542 288/1/542 141/1/542
f 141/1/543 288/1/543 289/1/543
f 141/1/544 289/1/544 142/1/544
f 289/1/545 290/1/545 142/1/545
f 142/1/546 290/1/546 291/1/546
f 142/1/547 291/1/547 150/1/547
f 291/1/548 292/1/548 150/1/548
f 150/1/549 292/1/549 293/1/549
f 150/1/550 293/1/550 149/1/550
f 293/1/551 294/1/551 149/1/551
f 149/1/552 294/1/552 295/1/552
f 149/1/553 295/1/553 143/1/553
f 295/1/554 296/1/554 143/1/554
f 143/1/555 296/1/555 297/1/555
f 143/1/556 297/1/556 140/1/556
f 297/1/557 298/1/557 140/1/557
f 140/1/558 298/1/558 299/1/558
f 140/1/559 299/1/559 128/1/559
f 299/1/560 300/1/560 128/1/560
f 128/1/561 300/1/561 301/1/561
f 128/1/562 301/1/562 116/1/562
f 301/1/563 302/1/563 116/1/563
f 116/1/564 302/1/564 303/1/564
f 116/1/565 303/1/565 103/1/565
f 303/1/566 304/1/566 103/1/566
f 103/1/567 304/1/567 305/1/567
f 103/1/568 305/1/568 104/1/568
f 305/1/569 306/1/569 104/1/569
f 104/1/570 306/1/570 307/1/570
f 104/1/571 307/1/571 110/1/571
f 307/1/572 308/1/572 110/1/572
f 110/1/573 308/1/573 309/1/573
f 110/1/574 309/1/574 118/1/574
f 309/1/575 310/1/575 118/1/575
f 118/1/576 310/1/576 311/1/576
f 118/1/577 311/1/577 137/1/577
f 311/1/578 312/1/578 137/1/578
f 137/1/579 312/1/579 313/1/579
f 137/1/580 313/1/580 135/1/580
f 313/1/581 314/1/581 135/1/581
f 135/1/582 314/1/582 315/1/582
f 135/1/583 315/1/583 155/1/583
f 315/1/584 316/1/584 155/1/584
f 155/1/585 316/1/585 317/1/585
f 155/1/586 317/1/586 153/1/586
f 317/1/587 318/1/587 153/1/587
f 153/1/588 318/1/588 319/1/588
f 153/1/589 319/1/589 148/1/589
f 319/1/590 320/1/590 148/1/590
f 148/1/591 320/1/591 321/1/591
f 148/1/592 321/1/592 146/1/592
f 321/1/593 322/1/593 146/1/593
f 146/1/594 322/1/594 323/1/594
f 146/1/595 323/1/595 133/1/595
f 323/1/596 324/1/596 133/1/596
f 133/1/597 324/1/597 325/1/597
f 133/1/598 325/1/598 131/1/598
f 325/1/599 326/1/599 131/1/599
f 131/1/600 326/1/600 327/1/600
f 131/1/601 327/1/601 120/1/601
f 327/1/602 328/1/602 120/1/602
f 120/1/603 328/1/603 329/1/603
f 120/1/604 329/1/604 121/1/604
f 329/1/605 330/1/605 121/1/605
f 121/1/606 330/1/606 331/1/606
f 121/1/607 331/1/607 114/1/607
f 114/1/608 331/1/608 332/1/608
f 114/1/609 332/1/609 105/1/609
f 105/1/610 332/1/610 333/1/610
f 105/1/611 333/1/611 106/1/611
f 106/1/612 333/1/612 334/1/612
f 106/1/613 334/1/613 281/1/613
f 335/1/144 336/1/144 337/1/144
f 338/1/144 339/1/144 337/1/144
f 337/1/144 339/1/144 340/1/144
f 337/1/144 340/1/144 335/1/144
f 341/1/144 342/1/144 337/1/144
f 337/1/144 342/1/144 343/1/144
f 337/1/144 343/1/144 338/1/144
f 344/1/144 345/1/144 337/1/144
f 337/1/144 345/1/144 346/1/144
f 337/1/144 346/1/144 341/1/144
f 347/1/144 348/1/144 337/1/144
f 337/1/144 348/1/144 349/1/144
f 337/1/144 349/1/144 344/1/144
f 350/1/144 351/1/144 337/1/144
f 337/1/144 351/1/144 352/1/144
f 337/1/144 352/1/144 347/1/144
f 353/1/144 354/1/144 337/1/144
f 337/1/144 354/1/144 355/1/144
f 337/1/144 355/1/144 350/1/144
f 336/1/144 356/1/144 337/1/144
f 337/1/144 356/1/144 357/1/144
f 337/1/144 357/1/144 353/1/144
f 358/1/614 347/1/614 359/1/614
f 359/1/615 347/1/615 352/1/615
f 359/1/616 352/1/616 360/1/616
f 360/1/617 352/1/617 351/1/617
f 360/1/617 351/1/617 361/1/617
f 361/1/618 351/1/618 350/1/618
f 361/1/618 350/1/618 362/1/618
f 362/1/619 350/1/619 355/1/619
f 362/1/619 355/1/619 363/1/619
f 363/1/620 355/1/620 354/1/620
f 363/1/620 354/1/620 364/1/620
f 364/1/621 354/1/621 353/1/621
f 364/1/621 353/1/621 365/1/621
f 365/1/622 353/1/622 357/1/622
f 365/1/622 357/1/622 366/1/622
f 366/1/623 357/1/623 356/1/623
f 366/1/623 356/1/623 367/1/623
f 367/1/624 356/1/624 336/1/624
f 367/1/624 336/1/624 368/1/624
f 368/1/625 336/1/625 335/1/625
f 368/1/625 335/1/625 369/1/625
f 369/1/626 335/1/626 340/1/626
f 369/1/627 340/1/627 370/1/627
f 370/1/628 340/1/628 339/1/628
f 370/1/628 339/1/628 371/1/628
f 371/1/629 339/1/629 338/1/629
f 371/1/630 338/1/630 372/1/630
f 372/1/631 338/1/631 343/1/631
f 372/1/631 343/1/631 373/1/631
f 373/1/632 343/1/632 342/1/632
f 373/1/632 342/1/632 374/1/632
f 374/1/633 342/1/633 341/1/633
f 374/1/633 341/1/633 375/1/633
f 375/1/634 341/1/634 346/1/634
f 375/1/635 346/1/635 376/1/635
f 376/1/636 346/1/636 345/1/636
f 376/1/636 345/1/636 377/1/636
f 377/1/637 345/1/637 344/1/637
f 377/1/637 344/1/637 378/1/637
f 378/1/638 344/1/638 349/1/638
f 378/1/638 349/1/638 379/1/638
f 379/1/639 349/1/639 348/1/639
f 379/1/639 348/1/639 358/1/639
f 358/1/614 348/1/614 347/1/614
f 380/1/144 369/1/144 370/1/144
f 361/1/144 381/1/144 360/1/144
f 360/1/144 381/1/144 382/1/144
f 360/1/144 382/1/144 359/1/144
f 359/1/144 382/1/144 383/1/144
f 359/1/144 383/1/144 358/1/144
f 358/1/144 383/1/144 384/1/144
f 358/1/144 384/1/144 379/1/144
f 379/1/144 384/1/144 385/1/144
f 379/1/144 385/1/144 378/1/144
f 380/1/144 386/1/144 369/1/144
f 369/1/144 386/1/144 387/1/144
f 369/1/144 387/1/144 368/1/144
f 368/1/144 387/1/144 388/1/144
f 368/1/144 388/1/144 367/1/144
f 367/1/144 388/1/144 389/1/144
f 367/1/144 389/1/144 366/1/144
f 366/1/144 389/1/144 390/1/144
f 366/1/144 390/1/144 365/1/144
f 374/1/144 391/1/144 373/1/144
f 373/1/144 391/1/144 392/1/144
f 373/1/144 392/1/144 372/1/144
f 372/1/144 392/1/144 393/1/144
f 372/1/144 393/1/144 371/1/144
f 371/1/144 393/1/144 394/1/144
f 371/1/144 394/1/144 370/1/144
f 370/1/144 394/1/144 395/1/144
f 370/1/144 395/1/144 380/1/144
f 385/1/144 396/1/144 378/1/144
f 378/1/144 396/1/144 397/1/144
f 378/1/144 397/1/144 377/1/144
f 377/1/144 397/1/144 398/1/144
f 377/1/144 398/1/144 376/1/144
f 376/1/144 398/1/144 399/1/144
f 376/1/144 399/1/144 375/1/144
f 375/1/144 399/1/144 400/1/144
f 375/1/144 400/1/144 374/1/144
f 374/1/144 400/1/144 401/1/144
f 374/1/144 401/1/144 391/1/144
f 390/1/144 402/1/144 365/1/144
f 365/1/144 402/1/144 403/1/144
f 365/1/144 403/1/144 364/1/144
f 364/1/144 403/1/144 404/1/144
f 364/1/144 404/1/144 363/1/144
f 363/1/144 404/1/144 405/1/144
f 363/1/144 405/1/144 362/1/144
f 362/1/144 405/1/144 406/1/144
f 362/1/144 406/1/144 361/1/144
f 361/1/144 406/1/144 407/1/144
f 361/1/144 407/1/144 381/1/144
f 384/1/640 333/1/640 332/1/640
f 384/1/641 332/1/641 385/1/641
f 332/1/642 331/1/642 385/1/642
f 385/1/643 331/1/643 330/1/643
f 385/1/644 330/1/644 396/1/644
f 330/1/645 329/1/645 396/1/645
f 396/1/646 329/1/646 328/1/646
f 396/1/647 328/1/647 397/1/647
f 328/1/648 327/1/648 397/1/648
f 397/1/649 327/1/649 326/1/649
f 397/1/650 326/1/650 398/1/650
f 398/1/651 326/1/651 325/1/651
f 398/1/652 325/1/652 399/1/652
f 399/1/653 325/1/653 324/1/653
f 324/1/654 323/1/654 399/1/654
f 399/1/655 323/1/655 322/1/655
f 399/1/656 322/1/656 400/1/656
f 400/1/657 322/1/657 321/1/657
f 400/1/658 321/1/658 401/1/658
f 401/1/659 321/1/659 320/1/659
f 320/1/660 319/1/660 401/1/660
f 401/1/661 319/1/661 318/1/661
f 401/1/662 318/1/662 391/1/662
f 391/1/663 318/1/663 317/1/663
f 391/1/664 317/1/664 392/1/664
f 317/1/665 316/1/665 392/1/665
f 392/1/666 316/1/666 315/1/666
f 392/1/667 315/1/667 393/1/667
f 393/1/668 315/1/668 314/1/668
f 314/1/669 313/1/669 393/1/669
f 393/1/670 313/1/670 312/1/670
f 393/1/671 312/1/671 394/1/671
f 394/1/672 312/1/672 311/1/672
f 394/1/673 311/1/673 395/1/673
f 395/1/674 311/1/674 310/1/674
f 310/1/675 309/1/675 395/1/675
f 395/1/676 309/1/676 308/1/676
f 395/1/677 308/1/677 380/1/677
f 380/1/678 308/1/678 307/1/678
f 380/1/679 307/1/679 386/1/679
f 386/1/680 307/1/680 306/1/680
f 386/1/681 306/1/681 387/1/681
f 306/1/682 305/1/682 387/1/682
f 387/1/683 305/1/683 304/1/683
f 387/1/684 304/1/684 388/1/684
f 388/1/685 304/1/685 303/1/685
f 388/1/686 303/1/686 389/1/686
f 389/1/687 303/1/687 302/1/687
f 302/1/688 301/1/688 389/1/688
f 389/1/689 301/1/689 300/1/689
f 389/1/690 300/1/690 390/1/690
f 300/1/691 299/1/691 390/1/691
f 390/1/692 299/1/692 298/1/692
f 390/1/693 298/1/693 402/1/693
f 298/1/694 297/1/694 402/1/694
f 402/1/695 297/1/695 296/1/695
f 402/1/696 296/1/696 403/1/696
f 296/1/697 295/1/697 403/1/697
f 403/1/698 295/1/698 294/1/698
f 403/1/699 294/1/699 404/1/699
f 294/1/700 293/1/700 404/1/700
f 404/1/701 293/1/701 292/1/701
f 404/1/702 292/1/702 405/1/702
f 405/1/703 292/1/703 291/1/703
f 405/1/704 291/1/704 406/1/704
f 406/1/705 291/1/705 290/1/705
f 290/1/706 289/1/706 406/1/706
f 406/1/707 289/1/707 288/1/707
f 406/1/708 288/1/708 407/1/708
f 407/1/709 288/1/709 287/1/709
f 407/1/710 287/1/710 381/1/710
f 381/1/711 287/1/711 286/1/711
f 286/1/712 285/1/712 381/1/712
f 381/1/713 285/1/713 284/1/713
f 381/1/714 284/1/714 382/1/714
f 284/1/715 283/1/715 382/1/715
f 382/1/716 283/1/716 282/1/716
f 382/1/717 282/1/717 383/1/717
f 383/1/718 282/1/718 281/1/718
f 383/1/719 281/1/719 384/1/719
f 384/1/720 281/1/720 334/1/720
f 384/1/721 334/1/721 333/1/721
f 447/2/722 442/3/722 441/4/722 450/5/722 449/6/722 448/7/722 457/8/722 456/9/722 455/10/722 409/11/722 408/12/722 410/13/722 411/14/722 412/15/722 413/16/722 414/17/722 415/18/722 416/19/722 417/20/722 418/21/722 431/22/722 432/23/722 433/24/722 434/25/722 435/26/722 436/27/722 437/28/722 438/29/722 534/30/722 535/31/722 536/32/722 537/33/722 538/34/722 539/35/722 540/36/722 541/37/722 542/38/722 533/39/722 532/40/722 531/41/722 530/42/722 529/43/722 528/44/722 527/45/722 526/46/722 525/47/722 547/48/722 593/49/722 594/50/722 595/51/722 596/52/722 586/53/722 587/54/722 588/55/722 589/56/722 590/57/722 591/58/722 592/59/722 585/60/722 584/61/722 583/62/722 543/63/722 544/64/722 579/65/722 580/66/722 581/67/722 582/68/722 578/69/722 577/70/722 576/71/722 572/72/722 571/73/722 573/74/722 574/75/722 575/76/722 570/77/722 569/78/722 568/79/722 545/80/722 546/81/722 564/82/722 565/83/722 566/84/722 567/85/722 561/86/722 560/87/722 562/88/722 563/89/722 555/90/722 556/91/722 557/92/722 558/93/722 559/94/722 550/95/722 549/96/722 551/97/722 552/98/722 553/99/722 554/100/722 548/101/722 524/102/722 523/103/722 522/104/722 521/105/722 520/106/722 519/107/722 518/108/722 517/109/722 510/110/722 511/111/722 512/112/722 513/113/722 514/114/722 515/115/722 516/116/722 507/117/722 508/118/722 509/119/722 494/120/722 495/121/722 496/122/722 491/123/722 490/124/722 489/125/722 492/126/722 493/127/722 498/128/722 497/129/722 502/130/722 501/131/722 500/132/722 499/133/722 506/134/722 505/135/722 504/136/722 503/137/722 465/138/722 466/139/722 467/140/722 479/141/722 478/142/722 477/143/722 476/144/722 475/145/722 473/146/722 471/147/722 472/148/722 474/149/722 469/150/722 468/151/722 470/152/722 488/153/722 481/154/722 480/155/722 482/156/722 483/157/722 484/158/722 485/159/722 486/160/722 487/161/722 430/162/722 429/163/722 428/164/722 419/165/722 420/166/722 424/167/722 425/168/722 426/169/722 427/170/722 423/171/722 422/172/722 421/173/722 439/174/722 440/175/722 464/176/722 463/177/722 462/178/722 461/179/722 460/180/722 459/181/722 452/182/722 451/183/722 453/184/722 454/185/722 458/186/722 444/187/722 443/188/722 445/189/722 446/190/722
