o convex_0
v 0.01 -0.00155374 -0.0057551
v 0.010002 -0.0106399 -0.00162858
v 0.01 -0.00155374 -0.00984622
v -0.00999789 -0.00155374 -0.0057559
v 0.00988257 -0.00577249 -0.00162858
v 0.01 -0.00577249 -0.00162858
v 0.01 -0.0101603 -0.00321032
v 0.01 -0.00914411 -0.00511227
v 0.01 -0.00777553 -0.00677768
v 0.01 -0.00610885 -0.00814621
v 0.01 -0.00420815 -0.00916235
v 0.01 -0.0021446 -0.00978829
v -0.00999789 -0.0106444 -0.00162858
v -0.00999985 -0.00155374 -0.00984702
v -0.00999789 -0.00577605 -0.00162858
v -0.00999789 -0.0101639 -0.00321032
v -0.00999789 -0.00914767 -0.00511146
v -0.00999789 -0.00777909 -0.00677768
v -0.00999789 -0.00611241 -0.00814541
v -0.00999789 -0.00421171 -0.00916235
v -0.00999789 -0.00214816 -0.00978829
f 1 2 3
f 1 3 14
f 1 14 4
f 1 4 5
f 1 5 6
f 1 6 2
f 2 7 8
f 2 8 9
f 2 9 10
f 2 10 11
f 2 11 12
f 2 12 3
f 2 6 5
f 2 5 15
f 2 15 13
f 2 13 7
f 3 12 14
f 4 14 15
f 4 15 5
f 7 13 16
f 7 16 8
f 8 16 17
f 8 17 18
f 8 18 9
f 9 18 10
f 10 18 19
f 10 19 20
f 10 20 11
f 11 20 21
f 11 21 12
f 12 21 14
f 13 15 14
f 13 14 16
f 14 21 20
f 14 20 19
f 14 19 18
f 14 18 17
f 14 17 16
o convex_1
v 0.0100002 -0.00571408 0.00176143
v 0.0100021 -0.0109978 0.00176143
v 0.0100002 -0.00577206 -0.00162778
v 0.00988269 -0.00577206 -0.00162778
v -0.00809397 -0.00571718 0.00176143
v 0.0100002 -0.0106406 -0.00162778
v 0.00858075 -0.0109983 0.00176143
v 0.0100002 -0.0109978 0.000999388
v 0.0100002 -0.0107866 -0.00114607
v -0.00999892 -0.00577568 -0.00162778
v -0.00999697 -0.0057177 0.00176143
v -0.00999697 -0.0106442 -0.00162778
v -0.00999697 -0.0110019 0.00176143
v -0.00999697 -0.0110014 0.00099972
v -0.00999697 -0.0107902 -0.00114574
f 22 23 24
f 22 24 25
f 22 25 26
f 22 26 32
f 22 32 34
f 22 34 28
f 22 28 23
f 23 27 24
f 23 28 29
f 23 29 30
f 23 30 27
f 24 27 33
f 24 33 31
f 24 31 25
f 25 31 26
f 26 31 32
f 27 30 33
f 28 34 29
f 29 34 35
f 29 35 36
f 29 36 30
f 30 36 33
f 31 33 36
f 31 36 35
f 31 35 34
f 31 34 32
o convex_2
v 0.00999731 0.00345525 -0.00939225
v 0.00999731 0.00421163 -0.0091621
v 0.00999927 0.00345525 -0.00490566
v -0.00999921 0.00345525 -0.0093902
v -0.00999921 0.00420783 -0.0091621
v -0.00356407 0.00549874 -0.00847301
v 0.00999731 0.00549874 -0.00847439
v 0.00999731 0.00549874 -0.00240139
v -0.00993657 0.00549874 -0.00239523
v -0.00995614 0.00345525 -0.00490361
v -0.0100012 0.00549874 -0.00847233
v -0.00999921 0.00345525 -0.00490361
v -0.00999921 0.00549874 -0.00239523
f 37 38 39
f 37 39 46
f 37 46 48
f 37 48 40
f 37 40 41
f 37 41 38
f 38 42 43
f 38 43 39
f 38 41 42
f 39 44 45
f 39 45 46
f 39 43 44
f 40 47 41
f 40 48 47
f 41 47 42
f 42 47 49
f 42 49 45
f 42 45 44
f 42 44 43
f 45 49 48
f 45 48 46
f 47 48 49
o convex_3
v -0.00999905 0.00549874 0.00239489
v -0.00999905 0.00345525 0.00490373
v -0.00999905 0.00549874 0.00850025
v 0.00999751 0.00549874 0.00240087
v 0.00999751 0.00345525 0.00490552
v -0.00999905 0.00345525 0.00849965
v 0.00999751 0.00345525 0.00849965
v 0.00999751 0.00549874 0.00849965
f 50 51 55
f 50 55 52
f 50 52 57
f 50 57 53
f 50 53 54
f 50 54 51
f 51 54 56
f 51 56 55
f 52 55 56
f 52 56 57
f 53 57 56
f 53 56 54
o convex_4
v 0.00999846 0.00345505 0.00849986
v 0.0100004 -0.00155374 0.00849951
v 0.00999846 0.00345505 0.00490536
v -0.00999863 0.00345505 0.00849986
v -0.00250412 -0.00155374 0.00849986
v 0.00999846 -0.00155374 0.00575558
v -0.0100006 0.00345505 0.0049036
v -0.00999863 -0.00155374 0.00849986
v -0.00999863 -0.00155374 0.00575699
f 58 59 60
f 58 60 64
f 58 64 61
f 58 61 65
f 58 65 62
f 58 62 59
f 59 63 60
f 59 62 65
f 59 65 66
f 59 66 63
f 60 63 64
f 61 64 65
f 63 66 64
f 64 66 65
o convex_5
v -0.00999884 -1.48778e-06 -0.00999965
v -0.00999884 -0.00155374 -0.00984698
v -0.0100008 0.00345505 -0.00939048
v -0.00999884 0.00214402 -0.00978811
v 0.00999826 0.00214794 -0.00978861
v 0.00999826 2.43448e-06 -0.00999965
v -0.00999884 -0.00155374 -0.00575691
v 0.00999826 -0.00155374 -0.00984648
v -0.00999884 0.00345505 -0.00490328
v 0.00999826 0.00345505 -0.00939197
v 0.0100002 -0.00155374 -0.00575592
v 0.00999826 0.00345505 -0.00490577
f 67 68 69
f 67 69 70
f 67 70 71
f 67 71 72
f 67 72 68
f 68 73 69
f 68 72 74
f 68 74 77
f 68 77 73
f 69 73 75
f 69 75 78
f 69 78 76
f 69 76 71
f 69 71 70
f 71 76 77
f 71 77 72
f 72 77 74
f 73 77 75
f 75 77 78
f 76 78 77
o convex_6
v 0.0100003 -0.00155374 0.00849951
v 0.0100003 -0.00619837 0.00851471
v 0.0100022 -0.0109974 0.00851471
v 0.0100003 -0.00155374 0.00575483
v -0.00999766 -0.00155374 0.00849951
v 0.00997285 -0.00619837 0.00851471
v 0.0100003 -0.0109974 0.00176143
v 0.0100003 -0.00571374 0.00176143
v 0.00762729 -0.0109984 0.00851471
v 0.00858079 -0.0109984 0.00176143
v -0.00999962 -0.00155374 0.00575681
v -0.00999766 -0.00620207 0.00851471
v -0.00809459 -0.00571744 0.00176143
v 0.0044418 -0.0109993 0.00851471
v -0.00999766 -0.0110021 0.00851471
v -0.00939072 -0.0110011 0.00176143
v -0.00999766 -0.00571837 0.00176143
v -0.00999766 -0.0110011 0.00176143
f 79 80 81
f 79 81 82
f 79 82 89
f 79 89 83
f 79 83 84
f 79 84 80
f 80 84 90
f 80 90 93
f 80 93 92
f 80 92 87
f 80 87 81
f 81 85 86
f 81 86 82
f 81 87 88
f 81 88 85
f 82 86 89
f 83 89 90
f 83 90 84
f 85 88 94
f 85 94 96
f 85 96 95
f 85 95 91
f 85 91 86
f 86 91 89
f 87 92 88
f 88 92 93
f 88 93 94
f 89 91 95
f 89 95 96
f 89 96 93
f 89 93 90
f 93 96 94
o convex_7
v 0.00999712 0.00549874 -0.00847472
v -0.00356475 0.00549874 -0.00847305
v -0.0100001 0.0061096 -0.00814537
v 0.00999712 0.00611337 -0.00814537
v 0.00999908 0.00549874 0.00849848
v -0.0100001 0.00549874 -0.00847139
v -0.0100021 0.0109976 0.000999934
v -0.0100001 0.00777681 -0.0067764
v 0.00999712 0.00778059 -0.00677806
v 0.00999712 0.00914775 -0.00510969
v 0.00999712 0.0101642 -0.00320843
v 0.00999712 0.0107902 -0.00114584
v 0.00999712 0.0110013 0.000999934
v 0.00999712 0.0110013 0.00851678
v 0.00999712 0.00620226 0.00851678
v -0.00932467 0.00549874 0.00850015
v -0.0100001 0.00549874 0.00850015
v -0.0100001 0.0107864 -0.00114417
v -0.0100001 0.0101605 -0.00320843
v -0.0100001 0.00914398 -0.00510969
v -0.0100001 0.00619795 0.00851678
v -0.0100001 0.0109976 0.00851678
v -0.00587694 0.0109987 0.00851678
v 0.00539231 0.0110008 0.00851678
v 0.00903387 0.0110013 0.00851678
v -0.00996684 0.00619795 0.00851678
f 97 98 99
f 97 99 100
f 97 100 101
f 97 101 112
f 97 112 113
f 97 113 102
f 97 102 98
f 98 102 99
f 99 102 103
f 99 103 104
f 99 104 105
f 99 105 100
f 100 105 101
f 101 105 106
f 101 106 107
f 101 107 108
f 101 108 109
f 101 109 110
f 101 110 111
f 101 111 112
f 102 113 103
f 103 114 115
f 103 115 116
f 103 116 104
f 103 113 117
f 103 117 118
f 103 118 119
f 103 119 120
f 103 120 109
f 103 109 108
f 103 108 114
f 104 116 105
f 105 116 106
f 106 116 115
f 106 115 107
f 107 115 108
f 108 115 114
f 109 120 121
f 109 121 110
f 110 121 120
f 110 120 119
f 110 119 118
f 110 118 117
f 110 117 122
f 110 122 111
f 111 122 112
f 112 122 117
f 112 117 113
o convex_8
v -0.00290335 -0.0110011 0.0285492
v 0.00144686 -0.0110002 0.0288597
v -0.0010425 -0.0110006 0.0289445
v -0.00290335 -0.00663581 0.0285498
v -0.00290335 -0.0110006 0.0230069
v -0.00110978 -0.0110006 0.0238749
v 0.00144686 -0.0110002 0.0237417
v 0.00144686 -0.00620064 0.0288597
v 0.00104743 -0.0110002 0.0289445
v -0.00104335 -0.00620111 0.0289445
v -0.00290335 -0.00620111 0.0285498
v -0.00290335 -0.00933045 0.0230069
v 0.00144686 -0.00620017 0.0237417
v 0.00104658 -0.00620064 0.0289445
v -0.00290335 -0.00620111 0.0230075
f 123 124 125
f 123 125 126
f 123 126 133
f 123 133 137
f 123 137 134
f 123 134 127
f 123 127 128
f 123 128 129
f 123 129 124
f 124 130 131
f 124 131 125
f 124 129 135
f 124 135 130
f 125 131 136
f 125 136 132
f 125 132 126
f 126 132 133
f 127 134 135
f 127 135 129
f 127 129 128
f 130 136 131
f 130 135 136
f 132 136 133
f 133 136 135
f 133 135 137
f 134 137 135
o convex_9
v 0.010001 -0.0109984 0.0190125
v 0.00500082 -0.0109993 0.0190125
v 0.00999984 -0.00619846 0.0190125
v 0.00978365 -0.0109984 0.0210791
v 0.00809204 -0.0109988 0.0248769
v 0.00395008 -0.0109998 0.0281277
v 0.00395008 -0.0109993 0.0220143
v 0.00499964 -0.00619987 0.0190125
v 0.00395008 -0.00619987 0.0220134
v 0.00395008 -0.00619987 0.0281277
v 0.00669303 -0.0061994 0.0264304
v 0.00913686 -0.00619893 0.0230673
v 0.00978246 -0.00619893 0.0210791
v 0.00913745 -0.0109984 0.0230673
v 0.00809145 -0.0061994 0.0248769
v 0.00669421 -0.0109988 0.0264304
v 0.0050026 -0.0109993 0.0276592
v 0.00500201 -0.00619987 0.0276592
f 138 139 145
f 138 145 140
f 138 140 141
f 138 141 142
f 138 142 143
f 138 143 139
f 139 144 145
f 139 143 144
f 140 145 146
f 140 146 147
f 140 147 148
f 140 148 149
f 140 149 150
f 140 150 141
f 141 150 149
f 141 149 151
f 141 151 142
f 142 151 149
f 142 149 152
f 142 152 153
f 142 153 154
f 142 154 143
f 143 154 147
f 143 147 146
f 143 146 144
f 144 146 145
f 147 154 155
f 147 155 148
f 148 155 153
f 148 153 152
f 148 152 149
f 153 155 154
o convex_10
v -0.00366649 -0.0110009 0.015604
v -0.00366649 -0.00620133 0.015602
v -0.00494272 -0.00620133 0.0190125
v -0.00499727 -0.0110009 0.0190125
v -0.00999622 -0.0110018 0.0190125
v -0.00673714 -0.0110013 0.00851471
v -0.00366649 -0.0110009 0.00851471
v -0.00366649 -0.00620086 0.00851471
v -0.00999684 -0.00620227 0.0190125
v -0.00999684 -0.00623141 0.0190125
v -0.00999745 -0.0110018 0.0189991
v -0.00999745 -0.0110018 0.00851471
v -0.00999869 -0.00620227 0.00851471
v -0.00999807 -0.00620227 0.0189991
v -0.00999807 -0.00899776 0.00851471
f 156 157 158
f 156 158 159
f 156 159 160
f 156 160 161
f 156 161 162
f 156 162 163
f 156 163 157
f 157 163 158
f 158 164 165
f 158 165 160
f 158 160 159
f 158 163 164
f 160 165 166
f 160 166 167
f 160 167 161
f 161 167 170
f 161 170 168
f 161 168 163
f 161 163 162
f 163 168 169
f 163 169 164
f 164 169 165
f 165 169 166
f 166 169 168
f 166 168 170
f 166 170 167
o convex_11
v 0.010001 -0.00619838 0.0150965
v 0.00999968 -0.00619885 0.0190121
v 0.010001 -0.00619885 0.0189995
v 0.0100024 -0.0109983 0.0189995
v 0.0100017 -0.00921377 0.0150965
v 0.00312426 -0.00619979 0.0150965
v 0.00499999 -0.00619979 0.0190121
v 0.0100004 -0.0109687 0.0190121
v 0.0100004 -0.0109983 0.0190121
v 0.00500268 -0.0109992 0.0189995
v 0.00312561 -0.0109997 0.0150965
v 0.00554803 -0.0109992 0.0150965
v 0.0100017 -0.0109983 0.0150965
v 0.00500066 -0.0109992 0.0190121
f 171 172 173
f 171 173 174
f 171 174 175
f 171 175 183
f 171 183 182
f 171 182 181
f 171 181 176
f 171 176 177
f 171 177 172
f 172 178 174
f 172 174 173
f 172 177 184
f 172 184 179
f 172 179 178
f 174 178 179
f 174 179 184
f 174 184 180
f 174 180 181
f 174 181 182
f 174 182 183
f 174 183 175
f 176 181 184
f 176 184 177
f 180 184 181
o convex_12
v 0.00144686 -0.0110003 0.0288595
v 0.00309248 -0.0109998 0.0285096
v 0.00309174 -0.00620013 0.0285103
v 0.00144686 -0.00620061 0.0288595
v 0.00144686 -0.0109998 0.0237417
v 0.00311968 -0.0109998 0.0229093
v 0.00395008 -0.0109993 0.0281283
v 0.00395008 -0.00619966 0.0220139
v 0.00182837 -0.00620013 0.0236546
v 0.00395008 -0.00835608 0.0281283
v 0.00395008 -0.00620013 0.0281276
v 0.00144686 -0.00620061 0.0237417
v 0.00395008 -0.0109993 0.0220146
f 185 186 187
f 185 187 188
f 185 188 196
f 185 196 189
f 185 189 190
f 185 190 186
f 186 191 187
f 186 190 191
f 187 192 193
f 187 193 188
f 187 191 194
f 187 194 195
f 187 195 192
f 188 193 196
f 189 196 192
f 189 192 197
f 189 197 190
f 190 197 191
f 191 197 192
f 191 192 195
f 191 195 194
f 192 196 193
o convex_13
v -0.00385284 0.0061992 0.0221272
v -0.00385284 0.0109986 0.0221292
v 2.30049e-06 0.0109995 0.0239585
v 2.30049e-06 0.00619967 0.0240006
v -0.00250075 0.0061992 0.0233305
v -0.00385284 0.0061992 0.0281712
v -0.0025015 0.0109991 0.0233305
v -0.00385284 0.0109986 0.0281719
v -0.00104715 0.0109991 0.0289448
v 2.30049e-06 0.0109991 0.0289448
v 2.30049e-06 0.00619967 0.0289448
v -0.00309057 0.0061992 0.0285103
v -0.0030917 0.0109986 0.0285103
v -0.00104639 0.00619967 0.0289448
f 198 199 200
f 198 200 201
f 198 201 202
f 198 202 209
f 198 209 203
f 198 203 205
f 198 205 199
f 199 204 200
f 199 205 204
f 200 204 205
f 200 205 206
f 200 206 207
f 200 207 208
f 200 208 201
f 201 208 202
f 202 208 209
f 203 209 205
f 205 209 210
f 205 210 206
f 206 210 211
f 206 211 208
f 206 208 207
f 208 211 209
f 209 211 210
o convex_14
v 0.00999908 0.00620189 0.0179575
v 0.00999741 0.0110013 0.0179575
v 0.00630426 0.00620095 0.0179575
v 0.00999824 0.00620189 0.00851937
v 0.00999824 0.00899663 0.00851937
v 0.00630343 0.0110008 0.0179575
v 0.00999741 0.0110017 0.00851937
v 0.00484208 0.00620095 0.0179575
v 0.00144456 0.00620001 0.014258
v 0.00144456 0.00620048 0.00851937
v 0.00484124 0.0110003 0.0179575
v 0.00539396 0.0110008 0.00851937
v 0.00144456 0.0109999 0.014258
v 0.00144456 0.0109999 0.00851937
f 212 213 217
f 212 217 222
f 212 222 219
f 212 219 214
f 212 214 215
f 212 215 216
f 212 216 213
f 213 216 218
f 213 218 217
f 214 219 220
f 214 220 215
f 215 221 225
f 215 225 223
f 215 223 218
f 215 218 216
f 215 220 221
f 217 218 223
f 217 223 224
f 217 224 222
f 219 222 220
f 220 222 224
f 220 224 225
f 220 225 221
f 223 225 224
o convex_15
v -0.00366649 -0.011001 0.0155903
v -0.00366649 -0.011001 0.0156035
v -0.00366649 -0.0110005 0.00851541
v -0.00111188 -0.0110001 0.00851541
v -0.00366649 -0.00620131 0.0156028
v -0.00111188 -0.0110001 0.0141254
v -0.00111188 -0.00620084 0.0141254
v -0.00366649 -0.00620131 0.00851541
v -0.00111188 -0.00620084 0.00851541
v -0.00249846 -0.00620084 0.0146694
f 226 227 230
f 226 230 233
f 226 233 228
f 226 228 229
f 226 229 231
f 226 231 227
f 227 231 232
f 227 232 230
f 228 233 234
f 228 234 229
f 229 234 232
f 229 232 231
f 230 232 235
f 230 235 233
f 232 234 235
f 233 235 234
o convex_16
v -0.00290404 -0.00620146 0.0285489
v -0.00308875 -0.00620146 0.0285097
v -0.00290404 -0.0110009 0.0285489
v -0.00290404 -0.00620099 0.0230072
v -0.00668916 -0.00620193 0.0264307
v -0.00499901 -0.00620193 0.0276602
v -0.00308805 -0.0110009 0.0285097
v -0.00499762 -0.0110013 0.0276592
v -0.00290404 -0.0110009 0.0230072
v -0.00494277 -0.00620146 0.0190125
v -0.00999723 -0.0062024 0.0190125
v -0.00977989 -0.0062024 0.0210794
v -0.00808835 -0.0062024 0.0248772
v -0.00668846 -0.0110013 0.0264307
v -0.00913341 -0.0062024 0.0230679
v -0.00808766 -0.0110018 0.0248772
v -0.00999584 -0.0110023 0.0190125
v -0.00499693 -0.0110009 0.0190125
v -0.0097785 -0.0110018 0.0210794
v -0.00913272 -0.0110018 0.0230679
f 236 237 238
f 236 238 244
f 236 244 239
f 236 239 237
f 237 240 241
f 237 241 242
f 237 242 238
f 237 239 240
f 238 242 243
f 238 243 244
f 239 244 245
f 239 245 246
f 239 246 247
f 239 247 240
f 240 248 251
f 240 251 249
f 240 249 241
f 240 247 250
f 240 250 248
f 241 243 242
f 241 249 243
f 243 249 251
f 243 251 252
f 243 252 244
f 244 252 253
f 244 253 245
f 245 253 252
f 245 252 246
f 246 252 247
f 247 254 255
f 247 255 250
f 247 252 254
f 248 250 255
f 248 255 251
f 251 255 252
f 252 255 254
o convex_17
v 0.00381806 0.011 0.0221531
v 2.30078e-06 0.0109995 0.0239591
v 0.00456386 0.0110004 0.0221531
v 0.00381898 0.00620039 0.0221531
v 2.30078e-06 0.00619992 0.0240003
v 2.30078e-06 0.0109995 0.0252783
v 0.00808795 0.0110009 0.024878
v 0.00759598 0.0110009 0.0221531
v 0.00308888 0.011 0.0285106
v 0.0075969 0.00620133 0.0221531
v 0.00913373 0.00620133 0.0230674
v 0.00182619 0.00619992 0.0236545
v 2.30078e-06 0.00619945 0.0289448
v 2.30078e-06 0.010999 0.0289454
v 0.00104439 0.0109995 0.0289448
v 0.00668957 0.0110004 0.0264313
v 0.00808887 0.00620133 0.024878
v 0.0091328 0.0110009 0.0230681
v 0.00943094 0.0110009 0.0221531
v 0.0030898 0.00620039 0.0285106
v 0.0049986 0.00620086 0.0276601
v 0.00499768 0.011 0.0276601
v 0.00943186 0.0062018 0.0221531
v 0.0066905 0.00620086 0.0264313
v 0.00104531 0.00619992 0.0289448
f 256 257 258
f 256 258 263
f 256 263 274
f 256 274 278
f 256 278 265
f 256 265 259
f 256 259 257
f 257 259 260
f 257 260 268
f 257 268 269
f 257 269 261
f 257 261 258
f 258 262 263
f 258 261 264
f 258 264 262
f 259 265 266
f 259 266 267
f 259 267 260
f 260 267 268
f 261 269 270
f 261 270 264
f 262 271 279
f 262 279 272
f 262 272 273
f 262 273 274
f 262 274 263
f 262 264 271
f 264 270 280
f 264 280 275
f 264 275 276
f 264 276 277
f 264 277 271
f 265 278 266
f 266 272 279
f 266 279 268
f 266 268 267
f 266 278 273
f 266 273 272
f 268 279 275
f 268 275 280
f 268 280 269
f 269 280 270
f 271 277 276
f 271 276 279
f 273 278 274
f 275 279 276
o convex_18
v -0.00385284 0.0109984 0.028172
v -0.00500186 0.0109984 0.0276601
v -0.00500126 0.00619868 0.0276601
v -0.00385284 0.00619914 0.028171
v -0.00385284 0.0109988 0.0221289
v -0.00809141 0.0109979 0.0248775
v -0.0066932 0.0109979 0.0264313
v -0.0066926 0.00619868 0.0264313
v -0.00809081 0.00619821 0.0248775
v -0.0100006 0.00619774 0.0190004
v -0.00385284 0.00619914 0.0221279
v -0.00385284 0.00726548 0.0221279
v -0.0048538 0.00720157 0.0179575
v -0.0048544 0.0109984 0.0179575
v -0.00503376 0.0109984 0.0179575
v -0.0100018 0.0109974 0.0179575
v -0.0091369 0.0109974 0.0230668
v -0.0100012 0.0109974 0.0190004
v -0.00978274 0.0109974 0.0210801
v -0.0091357 0.00619821 0.0230668
v -0.00978214 0.00619821 0.0210801
v -0.0100006 0.00619821 0.0179575
v -0.0073595 0.00619868 0.0179575
v -0.0048538 0.00619914 0.0179575
f 281 282 283
f 281 283 284
f 281 284 291
f 281 291 292
f 281 292 285
f 281 285 282
f 282 286 287
f 282 287 283
f 282 285 286
f 283 287 288
f 283 288 289
f 283 289 290
f 283 290 291
f 283 291 284
f 285 292 293
f 285 293 294
f 285 294 295
f 285 295 296
f 285 296 286
f 286 297 289
f 286 289 287
f 286 296 298
f 286 298 299
f 286 299 297
f 287 289 288
f 289 297 300
f 289 300 290
f 290 300 301
f 290 301 299
f 290 299 298
f 290 298 296
f 290 296 302
f 290 302 303
f 290 303 304
f 290 304 291
f 291 304 293
f 291 293 292
f 293 304 303
f 293 303 302
f 293 302 296
f 293 296 295
f 293 295 294
f 297 299 301
f 297 301 300
o convex_19
v -0.00111079 -0.011 0.00851471
v 0.000376395 -0.011 0.0140135
v -0.00111079 -0.011 0.0141256
v -0.00111079 -0.00620061 0.00851471
v 0.00539932 -0.0109991 0.00851471
v 0.00312557 -0.0109995 0.0150965
v 0.00312448 -0.00620014 0.0150965
v -0.00111079 -0.00620061 0.014125
v 0.0100012 -0.00619826 0.00851471
v 0.0100012 -0.0109981 0.00851471
v 0.00554728 -0.0109991 0.0150965
v 0.00496198 -0.00619967 0.0150965
v 0.0100012 -0.00619873 0.0150965
v 0.0100023 -0.0109981 0.0150965
f 305 306 307
f 305 307 312
f 305 312 308
f 305 308 313
f 305 313 314
f 305 314 309
f 305 309 306
f 306 310 307
f 306 309 310
f 307 310 311
f 307 311 312
f 308 312 313
f 309 314 315
f 309 315 310
f 310 315 318
f 310 318 317
f 310 317 316
f 310 316 311
f 311 316 312
f 312 316 317
f 312 317 313
f 313 317 318
f 313 318 314
f 314 318 315
o convex_20
v 0.00999789 0.0110016 0.0179575
v 0.00977946 0.0110011 0.0210791
v 0.00999789 0.0110011 0.0190001
v 0.0099991 0.00620172 0.0190001
v 0.00999849 0.00647994 0.0179575
v 0.00782577 0.0110011 0.0179575
v 0.00381793 0.0110002 0.022152
v 0.00943096 0.0110011 0.022152
v 0.00978007 0.00620172 0.0210791
v 0.00759706 0.00620125 0.022152
v 0.00547395 0.00620078 0.022152
v 0.00999849 0.00620172 0.0179575
v 0.00630407 0.0110006 0.0179575
v 0.00484107 0.0110002 0.0179575
v 0.00484167 0.00760506 0.0179575
v 0.00381854 0.00767556 0.022152
v 0.00943156 0.00620172 0.022152
v 0.00381914 0.00620078 0.022152
v 0.00499959 0.00620078 0.0190001
v 0.00484228 0.00620078 0.0179575
f 319 320 321
f 319 321 322
f 319 322 323
f 319 323 330
f 319 330 338
f 319 338 333
f 319 333 332
f 319 332 331
f 319 331 324
f 319 324 325
f 319 325 326
f 319 326 320
f 320 327 322
f 320 322 321
f 320 326 335
f 320 335 327
f 322 327 328
f 322 328 329
f 322 329 330
f 322 330 323
f 324 331 325
f 325 332 333
f 325 333 334
f 325 334 336
f 325 336 329
f 325 329 328
f 325 328 335
f 325 335 326
f 325 331 332
f 327 335 328
f 329 336 338
f 329 338 337
f 329 337 330
f 330 337 338
f 333 338 336
f 333 336 334
o convex_21
v -0.00236206 0.00619927 0.0146149
v 0.00144372 0.00620021 0.014258
v 0.00144372 0.00974022 0.0142586
v -0.00236206 0.0109992 0.0146149
v -0.00236206 0.00619974 0.00851904
v 0.00144372 0.00620021 0.00851904
v 0.00144372 0.0109996 0.0142586
v 0.000371573 0.0109996 0.0140139
v 0.00144372 0.0110001 0.00851904
v -0.00236206 0.0109992 0.00851904
f 339 340 341
f 339 341 345
f 339 345 342
f 339 342 348
f 339 348 343
f 339 343 344
f 339 344 340
f 340 344 347
f 340 347 345
f 340 345 341
f 342 345 346
f 342 346 347
f 342 347 348
f 343 348 347
f 343 347 344
f 345 347 346
o convex_22
v -0.00236206 0.0109989 0.0146147
v -0.00366778 0.0109989 0.0155987
v -0.0048546 0.0109984 0.0179575
v -0.00485386 0.0072017 0.0179575
v -0.00236206 0.00619964 0.0146147
v -0.00236206 0.0109994 0.00851937
v -0.0100012 0.0109975 0.0179575
v -0.00503334 0.0109984 0.0179575
v -0.00485386 0.00619917 0.0179575
v -0.00366629 0.00619917 0.0155987
v -0.00236206 0.00619964 0.00851937
v -0.00673915 0.0109984 0.00851937
v -0.0100012 0.0105209 0.0179575
v -0.0100012 0.0109975 0.00851937
v -0.0100005 0.00619775 0.0179575
v -0.00996682 0.00619823 0.00851937
v -0.0100005 0.00619823 0.00851937
f 349 350 351
f 349 351 352
f 349 352 357
f 349 357 353
f 349 353 359
f 349 359 354
f 349 354 350
f 350 355 356
f 350 356 351
f 350 354 355
f 351 356 355
f 351 355 361
f 351 361 363
f 351 363 357
f 351 357 352
f 353 357 358
f 353 358 359
f 354 359 364
f 354 364 365
f 354 365 362
f 354 362 360
f 354 360 355
f 355 360 362
f 355 362 361
f 357 363 358
f 358 363 359
f 359 363 364
f 361 362 365
f 361 365 363
f 363 365 364
