o convex_0
v 0.0100154 0.000713209 0.00494897
v 0.0159997 0.000714188 0.00494801
v 0.015999 0.00207985 0.00454785
v 0.0100154 0.00207887 0.00454785
v 0.0100154 -0.000709232 0.00494801
v 0.0159997 -0.000708253 0.00494801
v 0.0170001 -0.000565324 0.00395875
v 0.0169994 0.000572237 0.00395875
v 0.0169994 0.00166477 0.00363805
v 0.015999 0.00327713 0.00377854
v 0.0100154 0.00327517 0.00377854
v 0.0100154 -0.00207489 0.00454785
v 0.0160004 -0.00207391 0.00454785
v 0.0170001 -0.00165785 0.00363805
v 0.0170008 -0.00399661 -1.89645e-07
v 0.0169994 0.0026222 -0.00302317
v 0.0169994 0.0026222 0.00302279
v 0.015999 0.0042091 0.00270209
v 0.0100154 0.00420715 0.00270305
v 0.0100154 0.00327811 0.00377563
v 0.0100154 -0.00327217 0.00377854
v 0.0160004 -0.00327119 0.00377757
v 0.0170001 -0.00261528 0.00302182
v 0.0170001 -0.0038341 -0.00112703
v 0.0170001 -0.00336126 -0.00216278
v 0.0170001 -0.00261528 -0.00302317
v 0.0170001 -0.00165785 -0.00363843
v 0.0170001 -0.00336126 0.00216144
v 0.0170001 -0.0038341 0.00112568
v 0.0160004 -0.00479349 0.00140763
v 0.0160004 -0.00499613 -1.89645e-07
v 0.0160004 -0.00479349 -0.00140898
v 0.015999 0.00327713 -0.00377892
v 0.015999 0.0042091 -0.00270246
v 0.0169987 0.00336817 -0.00216182
v 0.0169987 0.00384101 -0.00112703
v 0.0169987 0.00400254 -1.89645e-07
v 0.0169994 0.00166477 -0.00363843
v 0.0169987 0.00384101 0.00112665
v 0.0169987 0.00336817 0.00216144
v 0.015999 0.0048004 0.00140763
v 0.0100154 0.0042091 0.00269918
v 0.0100154 -0.00420415 0.00270209
v 0.0160004 -0.00420317 0.00270209
v 0.0160004 -0.00420219 -0.00270343
v 0.0160004 -0.00327021 -0.00377892
v 0.0159997 -0.00207391 -0.00454823
v 0.0159997 -0.000708253 -0.00494935
v 0.0169994 -0.000565324 -0.00395913
v 0.0169994 0.000572237 -0.00395913
v 0.0100154 -0.00479544 0.00140763
v 0.0100154 -0.00499809 -1.89645e-07
v 0.0100154 -0.00479544 -0.00140801
v 0.015999 0.00207985 -0.00454823
v 0.0100154 0.00207887 -0.00454823
v 0.0100154 0.00327223 -0.00378086
v 0.0100154 0.00327615 -0.00377795
v 0.0100154 0.00420813 -0.00270246
v 0.015999 0.0048004 -0.00140801
v 0.015999 0.00500305 -1.89645e-07
v 0.0100154 0.00479942 0.00140472
v 0.0100154 0.00479844 0.0014086
v 0.0100154 -0.00327217 -0.00377892
v 0.0100154 -0.00420415 -0.00270246
v 0.0100154 -0.00207489 -0.00454823
v 0.0100154 -0.000709232 -0.00494839
v 0.0100154 0.000713209 -0.00494839
v 0.0159997 0.000714188 -0.00494839
v 0.0100154 0.00479746 -0.00141188
v 0.0100154 0.00479844 -0.00140801
v 0.0100154 0.00500109 -3.09636e-06
v 0.0100154 0.00500109 -1.89645e-07
f 1 2 3
f 1 3 4
f 1 4 11
f 1 11 20
f 1 20 19
f 1 19 42
f 1 42 62
f 1 62 61
f 1 61 72
f 1 72 71
f 1 71 70
f 1 70 69
f 1 69 58
f 1 58 57
f 1 57 56
f 1 56 55
f 1 55 67
f 1 67 66
f 1 66 65
f 1 65 63
f 1 63 64
f 1 64 53
f 1 53 52
f 1 52 51
f 1 51 43
f 1 43 21
f 1 21 12
f 1 12 5
f 1 5 6
f 1 6 2
f 2 6 7
f 2 7 8
f 2 8 3
f 3 8 9
f 3 9 10
f 3 10 4
f 4 10 11
f 5 12 13
f 5 13 6
f 6 13 7
f 7 13 14
f 7 14 15
f 7 15 16
f 7 16 17
f 7 17 9
f 7 9 8
f 9 17 10
f 10 18 19
f 10 19 20
f 10 20 11
f 10 17 18
f 12 21 13
f 13 22 14
f 13 21 22
f 14 22 23
f 14 23 15
f 15 24 25
f 15 25 26
f 15 26 27
f 15 27 16
f 15 23 28
f 15 28 29
f 15 29 30
f 15 30 31
f 15 31 32
f 15 32 24
f 16 33 34
f 16 34 35
f 16 35 36
f 16 36 37
f 16 37 17
f 16 27 38
f 16 38 33
f 17 37 39
f 17 39 40
f 17 40 18
f 18 41 42
f 18 42 19
f 18 40 39
f 18 39 41
f 21 43 44
f 21 44 22
f 22 44 28
f 22 28 23
f 24 32 25
f 25 32 45
f 25 45 46
f 25 46 26
f 26 46 27
f 27 46 47
f 27 47 48
f 27 48 49
f 27 49 50
f 27 50 38
f 28 44 29
f 29 44 30
f 30 51 52
f 30 52 31
f 30 44 51
f 31 52 32
f 32 52 53
f 32 53 64
f 32 64 45
f 33 38 54
f 33 54 55
f 33 55 56
f 33 56 57
f 33 57 58
f 33 58 34
f 34 58 59
f 34 59 36
f 34 36 35
f 36 59 60
f 36 60 37
f 37 60 39
f 38 50 54
f 39 60 41
f 41 60 61
f 41 61 62
f 41 62 42
f 43 51 44
f 45 63 46
f 45 64 63
f 46 63 47
f 47 63 65
f 47 65 48
f 48 66 67
f 48 67 68
f 48 68 50
f 48 50 49
f 48 65 66
f 50 68 54
f 54 68 67
f 54 67 55
f 58 69 59
f 59 69 70
f 59 70 71
f 59 71 60
f 60 72 61
f 60 71 72
o convex_1
v -0.0100526 0.000709228 0.00494839
v -0.0100526 0.00207489 0.00454823
v -0.0160003 0.00207391 0.00454823
v -0.0159996 0.000708249 0.00494839
v -0.0100526 -0.000713212 0.00494839
v -0.0100526 0.00327217 0.00377892
v -0.0160003 0.00327021 0.00377892
v -0.0170001 0.00261528 0.00302317
v -0.0170001 0.00165785 0.00363843
v -0.0169994 0.00056532 0.00395913
v -0.0159996 -0.000714191 0.00494839
v -0.0100526 -0.000724959 0.00494548
v -0.0100526 0.00420414 0.00270246
v -0.0160003 0.00420316 0.00270343
v -0.0170001 0.00336125 0.00216279
v -0.0170001 0.00056532 -0.00395875
v -0.0169994 -0.0026222 0.00302317
v -0.0169994 -0.00166477 0.00363843
v -0.0169994 -0.000572241 0.00395913
v -0.0159989 -0.00207985 0.00454823
v -0.0100526 -0.00207887 0.00454823
v -0.0100526 0.00479544 0.00140801
v -0.0170001 0.00383409 0.00112703
v -0.0160003 0.00479348 0.00140898
v -0.0170001 0.00165785 -0.00363805
v -0.0160003 0.00207391 -0.00454785
v -0.0159996 0.000708249 -0.00494801
v -0.0159996 -0.000714191 -0.00494801
v -0.0169994 -0.000572241 -0.00395875
v -0.0169994 -0.00166477 -0.00363805
v -0.0169994 -0.0026222 -0.00302279
v -0.0169987 -0.00400254 1.90098e-07
v -0.0169987 -0.00384101 0.00112703
v -0.0169987 -0.00336817 0.00216182
v -0.0159989 -0.00420911 0.00270246
v -0.0159989 -0.00327713 0.00377892
v -0.0100526 -0.00208964 0.00454145
v -0.0100526 0.00499809 1.90098e-07
v -0.0170001 0.0039966 1.90098e-07
v -0.0160003 0.00499613 1.90098e-07
v -0.0170001 0.00261626 -0.00302182
v -0.0160003 0.00327119 -0.00377757
v -0.0100526 0.00327217 -0.00377854
v -0.0100526 0.00207489 -0.00454785
v -0.0100526 0.000720976 -0.0049451
v -0.0100526 0.000709228 -0.00494801
v -0.0100526 -0.000713212 -0.00494801
v -0.0159996 -0.00207985 -0.00454785
v -0.0159989 -0.00327713 -0.00377854
v -0.0159989 -0.00420911 -0.00270208
v -0.0169987 -0.00336817 -0.00216144
v -0.0169987 -0.00384101 -0.00112665
v -0.0159989 -0.00500305 1.90098e-07
v -0.0159989 -0.0048004 0.00140801
v -0.0100526 -0.00420813 0.00270246
v -0.0100526 -0.00328398 0.00376923
v -0.0100526 -0.00327615 0.00377795
v -0.0100526 0.00479544 -0.00140763
v -0.0170001 0.00383409 -0.00112568
v -0.0160003 0.00479348 -0.00140763
v -0.0170001 0.00336125 -0.00216144
v -0.0160003 0.00420316 -0.00270208
v -0.0100526 0.00420414 -0.00270208
v -0.0100526 -0.00207887 -0.00454785
v -0.0100526 -0.00326538 -0.00378532
v -0.0100526 -0.00327517 -0.00377854
v -0.0100526 -0.00420813 -0.00270305
v -0.0159989 -0.0048004 -0.00140763
v -0.0100526 -0.00479844 -0.0014086
v -0.0100526 -0.00500109 1.90098e-07
v -0.0100526 -0.0048004 0.00139541
v -0.0100526 -0.00479844 0.00140801
v -0.0100526 0.00420904 -0.00269143
f 73 74 75
f 73 75 76
f 73 76 83
f 73 83 77
f 73 77 84
f 73 84 93
f 73 93 109
f 73 109 129
f 73 129 128
f 73 128 127
f 73 127 144
f 73 144 143
f 73 143 142
f 73 142 141
f 73 141 139
f 73 139 138
f 73 138 137
f 73 137 136
f 73 136 119
f 73 119 118
f 73 118 117
f 73 117 116
f 73 116 115
f 73 115 135
f 73 135 145
f 73 145 130
f 73 130 110
f 73 110 94
f 73 94 85
f 73 85 78
f 73 78 74
f 74 78 75
f 75 78 79
f 75 79 80
f 75 80 81
f 75 81 82
f 75 82 76
f 76 82 91
f 76 91 83
f 77 83 84
f 78 85 86
f 78 86 79
f 79 86 80
f 80 86 87
f 80 87 95
f 80 95 111
f 80 111 131
f 80 131 133
f 80 133 113
f 80 113 97
f 80 97 88
f 80 88 81
f 81 88 89
f 81 89 90
f 81 90 91
f 81 91 82
f 83 91 92
f 83 92 84
f 84 92 93
f 85 94 86
f 86 95 87
f 86 94 96
f 86 96 95
f 88 97 98
f 88 98 99
f 88 99 100
f 88 100 101
f 88 101 102
f 88 102 103
f 88 103 89
f 89 103 104
f 89 104 105
f 89 105 106
f 89 106 107
f 89 107 108
f 89 108 90
f 90 108 92
f 90 92 91
f 92 109 93
f 92 108 109
f 94 110 96
f 95 96 111
f 96 110 112
f 96 112 111
f 97 113 98
f 98 113 114
f 98 114 115
f 98 115 116
f 98 116 117
f 98 117 99
f 99 117 118
f 99 118 119
f 99 119 100
f 100 119 136
f 100 136 120
f 100 120 101
f 101 120 102
f 102 120 103
f 103 120 121
f 103 121 122
f 103 122 123
f 103 123 124
f 103 124 104
f 104 124 125
f 104 125 105
f 105 125 126
f 105 126 107
f 105 107 106
f 107 126 127
f 107 127 108
f 108 127 128
f 108 128 129
f 108 129 109
f 110 130 132
f 110 132 112
f 111 112 132
f 111 132 131
f 113 133 134
f 113 134 114
f 114 134 115
f 115 134 135
f 120 136 121
f 121 136 137
f 121 137 138
f 121 138 139
f 121 139 122
f 122 139 140
f 122 140 124
f 122 124 123
f 124 140 125
f 125 140 141
f 125 141 142
f 125 142 143
f 125 143 126
f 126 143 144
f 126 144 127
f 130 145 134
f 130 134 132
f 131 132 134
f 131 134 133
f 134 145 135
f 139 141 140
o convex_2
v 0.0042335 0.0099999 0.00424801
v 0.00934018 0.0099999 0.00424801
v 0.00981503 0.0100019 0.000591219
v 0.00592063 0.0099999 0.000591219
v 0.00423689 -0.00999927 0.00424801
v 0.00939169 0.0099999 0.00410087
v 0.009596 0.00959267 0.00424801
v 0.00989539 0.00973755 0.000591219
v 0.00945621 0.0099999 0.003861
v 0.00963562 0.0099999 0.00296094
v 0.00976013 0.0099999 0.00185073
v 0.00989539 0.00969056 0.00130332
v 0.0059229 -0.00238725 0.000591219
v 0.00592459 -0.00999732 0.000591219
v 0.00981446 -0.00999732 0.000591219
v 0.00980767 -0.00999732 0.00111357
v 0.00979861 -0.00999732 0.00130367
v 0.00972787 -0.00999732 0.00225743
v 0.00960845 -0.00999732 0.00315069
v 0.00942791 -0.00999732 0.00398308
v 0.00937641 -0.00999732 0.00416567
v 0.00934698 -0.00999732 0.00424801
v 0.009596 0.00966707 0.00409908
v 0.00989596 0.00900141 0.0038166
v 0.00989596 0.00878409 0.00424801
v 0.00999783 0.00896225 0.000591219
v 0.00989596 0.00943017 0.00258287
v 0.00999783 0.00892114 0.00119985
v 0.00989483 -0.00976629 0.000591219
v 0.00989936 -0.00975259 0.000652798
v 0.00989936 -0.00957834 0.00194703
v 0.00989936 -0.00923181 0.00320654
v 0.00959996 -0.00991705 0.00344391
v 0.00948847 -0.00977608 0.00424801
v 0.00940867 -0.00990726 0.00424801
v 0.0099984 0.0082868 0.00351336
v 0.0099984 0.00791482 0.00424801
v 0.0100154 0.00491543 0.000591219
v 0.00999783 0.00868033 0.00237809
v 0.0100154 0.00479796 0.00140893
v 0.00989936 -0.00975259 0.000591219
v 0.0100007 -0.00898316 0.000591219
v 0.0100012 -0.00881675 0.00179237
v 0.0100012 -0.00849958 0.00295163
v 0.00989936 -0.0087913 0.00424801
v 0.00984955 -0.00892247 0.00424801
v 0.00959996 -0.00957443 0.00424801
v 0.0100154 0.00420866 0.00269959
v 0.0100154 0.0042067 0.00270281
v 0.0100154 0.00254451 0.00424801
v 0.0100154 0.00327477 0.00377865
v 0.0100154 -0.00491285 0.000591219
v 0.0100012 -0.00897729 0.000591219
v 0.0100012 -0.00897729 0.000600886
v 0.0100154 -0.00479538 0.00140857
v 0.0100012 -0.0080297 0.00405862
v 0.00994577 -0.00840561 0.00424801
v 0.0100154 -0.00253996 0.00424801
v 0.0100154 -0.00420411 0.00270281
v 0.0100012 -0.00791811 0.00424801
v 0.0100154 -0.00327219 0.00377829
f 146 147 148
f 146 148 149
f 146 149 150
f 146 150 167
f 146 167 180
f 146 180 179
f 146 179 192
f 146 192 191
f 146 191 190
f 146 190 202
f 146 202 205
f 146 205 203
f 146 203 195
f 146 195 182
f 146 182 170
f 146 170 152
f 146 152 147
f 147 151 148
f 147 152 151
f 148 153 171
f 148 171 183
f 148 183 197
f 148 197 198
f 148 198 187
f 148 187 186
f 148 186 174
f 148 174 160
f 148 160 159
f 148 159 158
f 148 158 149
f 148 151 154
f 148 154 155
f 148 155 156
f 148 156 157
f 148 157 153
f 149 158 150
f 150 159 160
f 150 160 161
f 150 161 162
f 150 162 163
f 150 163 164
f 150 164 165
f 150 165 166
f 150 166 167
f 150 158 159
f 151 152 168
f 151 168 154
f 152 169 168
f 152 170 169
f 153 157 171
f 154 168 155
f 155 168 169
f 155 169 172
f 155 172 156
f 156 172 157
f 157 172 173
f 157 173 171
f 160 174 175
f 160 175 161
f 161 175 176
f 161 176 162
f 162 176 163
f 163 176 177
f 163 177 164
f 164 177 178
f 164 178 165
f 165 178 179
f 165 179 180
f 165 180 166
f 166 180 167
f 169 170 181
f 169 181 172
f 170 182 181
f 171 173 183
f 172 181 184
f 172 184 173
f 173 184 185
f 173 185 183
f 174 186 175
f 175 186 187
f 175 187 176
f 176 187 188
f 176 188 189
f 176 189 177
f 177 189 190
f 177 190 191
f 177 191 178
f 178 191 192
f 178 192 179
f 181 182 193
f 181 193 185
f 181 185 184
f 182 194 193
f 182 195 196
f 182 196 194
f 183 185 193
f 183 193 194
f 183 194 196
f 183 196 195
f 183 195 203
f 183 203 206
f 183 206 204
f 183 204 200
f 183 200 197
f 187 198 199
f 187 199 188
f 188 199 197
f 188 197 200
f 188 200 189
f 189 201 190
f 189 200 201
f 190 201 202
f 197 199 198
f 200 204 201
f 201 205 202
f 201 204 205
f 203 205 206
f 204 206 205
o convex_3
v -0.0100526 -0.00409302 -0.00283571
v -0.0100526 -0.00327464 -0.00377879
v -0.00999811 -0.00734304 -0.00519227
v -0.00999811 -0.00742135 -0.0050933
v -0.00999811 -0.00750162 -0.00497472
v -0.00999811 -0.00803415 -0.00405909
v -0.00999811 -0.00850208 -0.00295244
v -0.00999811 -0.00853536 -0.00283571
v -0.0100526 0.0040888 -0.00283571
v -0.0100526 -0.00326485 -0.00378548
v -0.0100526 -0.0020784 -0.00454794
v -0.0100526 -0.00206665 -0.0045514
v -0.0100526 -0.000711825 -0.00494889
v -0.0099988 -0.0060724 -0.00519227
v -0.00997534 -0.00756427 -0.00519227
v -0.00995809 -0.00771894 -0.00519227
v -0.00989599 -0.00826322 -0.00519227
v -0.00989599 -0.00872723 -0.00440929
v -0.00989599 -0.00923627 -0.00320713
v -0.00989599 -0.00933808 -0.00283571
v -0.0100016 0.00851744 -0.00283571
v -0.0100016 0.0082825 -0.00351326
v -0.0100009 0.00774018 -0.00458623
v -0.0100009 0.00732511 -0.00519227
v -0.0100526 0.00327238 -0.00377856
v -0.0100526 0.000709568 -0.00494889
v -0.0100009 0.00483866 -0.00519227
v -0.0100002 0.000646917 -0.00519227
v -0.00959582 -0.00910118 -0.00519227
v -0.00959582 -0.00937136 -0.00473549
v -0.00959582 -0.00991955 -0.00344452
v -0.00960479 -0.00999983 -0.0031513
v -0.00964688 -0.0100018 -0.00283571
v -0.00996913 0.00877979 -0.00283571
v -0.00989944 0.00899711 -0.0038164
v -0.00989944 0.00840976 -0.00498188
v -0.00989875 0.00826488 -0.00519227
v -0.0100526 0.00207418 -0.00454794
v -0.00921008 -0.00968461 -0.00519227
v -0.009119 -0.00992739 -0.00501579
v -0.0091466 -0.00999983 -0.00480239
v -0.00937224 -0.00999983 -0.00416613
v -0.009424 -0.00999983 -0.00398365
v -0.00526302 -0.00999983 -0.00283571
v -0.00896167 -0.00999983 -0.00519227
v -0.00300312 -0.00999983 -0.00519227
v -0.00989944 0.00933778 -0.00283571
v -0.00963929 0.00999757 -0.00296098
v -0.00959996 0.00966474 -0.00409854
v -0.00985803 0.00838431 -0.00519227
v -0.00963032 0.00902844 -0.00519227
v -0.00972831 0.00876413 -0.00519227
v -0.009119 -0.00982166 -0.00519227
v -0.00526578 0.00773039 -0.00283571
v -0.00300657 0.00999953 -0.00519227
v -0.00972555 0.00980766 -0.00283571
v -0.00965309 0.00999757 -0.00283571
v -0.00945988 0.00999757 -0.00386092
v -0.00959927 0.00911067 -0.00519227
v -0.0093957 0.00999757 -0.00410062
v -0.00526647 0.00999757 -0.00283571
v -0.0089527 0.00999757 -0.00519227
v -0.00915281 0.00999757 -0.0047957
v -0.0094723 0.00930645 -0.00519227
v -0.0091397 0.00980178 -0.00519227
f 207 208 209
f 207 209 210
f 207 210 211
f 207 211 212
f 207 212 213
f 207 213 214
f 207 214 226
f 207 226 239
f 207 239 250
f 207 250 260
f 207 260 267
f 207 267 263
f 207 263 262
f 207 262 253
f 207 253 240
f 207 240 227
f 207 227 215
f 207 215 231
f 207 231 244
f 207 244 232
f 207 232 219
f 207 219 218
f 207 218 217
f 207 217 216
f 207 216 208
f 208 216 209
f 209 216 217
f 209 217 218
f 209 218 219
f 209 219 220
f 209 220 234
f 209 234 233
f 209 233 230
f 209 230 243
f 209 243 256
f 209 256 258
f 209 258 257
f 209 257 265
f 209 265 270
f 209 270 271
f 209 271 268
f 209 268 261
f 209 261 252
f 209 252 251
f 209 251 259
f 209 259 245
f 209 245 235
f 209 235 223
f 209 223 222
f 209 222 221
f 209 221 210
f 210 221 211
f 211 221 222
f 211 222 223
f 211 223 224
f 211 224 212
f 212 224 225
f 212 225 213
f 213 225 214
f 214 225 226
f 215 227 228
f 215 228 229
f 215 229 230
f 215 230 231
f 219 232 230
f 219 230 233
f 219 233 234
f 219 234 220
f 223 235 224
f 224 235 236
f 224 236 237
f 224 237 225
f 225 237 238
f 225 238 239
f 225 239 226
f 227 240 228
f 228 240 241
f 228 241 242
f 228 242 229
f 229 242 230
f 230 242 243
f 230 232 244
f 230 244 231
f 235 245 246
f 235 246 236
f 236 246 247
f 236 247 248
f 236 248 249
f 236 249 237
f 237 249 238
f 238 249 239
f 239 249 248
f 239 248 247
f 239 247 251
f 239 251 252
f 239 252 250
f 240 253 241
f 241 253 254
f 241 254 255
f 241 255 242
f 242 256 243
f 242 255 257
f 242 257 258
f 242 258 256
f 245 259 246
f 246 259 251
f 246 251 247
f 250 252 260
f 252 261 260
f 253 262 254
f 254 262 263
f 254 263 261
f 254 261 264
f 254 264 255
f 255 265 257
f 255 264 266
f 255 266 265
f 260 261 267
f 261 268 269
f 261 269 266
f 261 266 264
f 261 263 267
f 265 266 270
f 266 269 270
f 268 271 269
f 269 271 270
o convex_4
v 0.00445547 0.00999994 -0.00396259
v 0.00592273 -0.00238712 0.000590861
v 0.00592055 0.00999994 0.000590861
v 0.00972421 0.0100019 -0.00225727
v 0.00942869 0.00999994 -0.00396259
v 0.00445874 -0.00548828 -0.00396259
v 0.00592436 -0.00999712 0.000590861
v 0.0098151 0.00999994 0.000590861
v 0.00982326 0.00999994 0.000393854
v 0.00980367 0.00999994 -0.00111401
v 0.00979496 0.00999994 -0.00130388
v 0.00989565 0.00943021 -0.00258265
v 0.00989565 0.00900145 -0.00381639
v 0.00960448 0.00999994 -0.00315094
v 0.00959741 0.00971605 -0.00396259
v 0.00445983 -0.00999908 -0.00396259
v 0.00981456 -0.00999712 0.000590861
v 0.00989565 0.00973759 0.000590861
v 0.00989565 0.00977675 -1.60259e-07
v 0.00989565 0.0096906 -0.00130344
v 0.00999796 0.00892118 -0.00119959
v 0.00999796 0.00868037 -0.00237762
v 0.00999796 0.00828685 -0.00351331
v 0.00989565 0.00892706 -0.00396259
v 0.00974054 0.00934603 -0.00396259
v 0.00991524 0.0087626 -0.00396259
v 0.0094325 -0.00999712 -0.00396259
v 0.00945972 -0.00999712 -0.00386141
v 0.00963931 -0.00999712 -0.00296151
v 0.00976394 -0.00999712 -0.00185078
v 0.00982707 -0.00999712 -0.00039462
v 0.0098951 -0.0097661 0.000590861
v 0.00999796 0.0089623 0.000590861
v 0.00999796 0.00900145 -1.60259e-07
v 0.0100148 0.00500165 -1.60259e-07
v 0.0100148 0.00479804 -0.00140907
v 0.00999796 0.00805975 -0.00396259
v 0.0100148 0.00420678 -0.00270299
v 0.00947604 -0.00992468 -0.00396259
v 0.00959958 -0.00991685 -0.00344422
v 0.00989946 -0.00923357 -0.0032071
v 0.00989946 -0.00975239 -0.000653582
v 0.00989946 -0.00957815 -0.0019475
v 0.00989946 -0.00975239 0.000590861
v 0.0100148 0.00491551 0.000590861
v 0.0100148 0.00420482 -0.00270611
v 0.0100148 0.00327486 -0.00377851
v 0.0100148 0.00327291 -0.00378074
v 0.0100148 0.00298902 -0.00396259
v 0.00959958 -0.00969562 -0.00396259
v 0.00975088 -0.00930014 -0.00396259
v 0.00989891 -0.00891249 -0.00396259
v 0.00993048 -0.00865406 -0.00396259
v 0.0100012 -0.00807063 -0.00396259
v 0.0100012 -0.00849939 -0.00295215
v 0.0100012 -0.00881656 -0.00179284
v 0.0100012 -0.0089771 -0.000601879
v 0.0100007 -0.00898297 0.000590861
v 0.0100148 -0.00491269 0.000590861
v 0.0100148 -0.00298621 -0.00396259
v 0.0100148 -0.00327205 -0.00377895
v 0.0100148 -0.00420396 -0.00270299
v 0.0100148 -0.00479522 -0.00140907
v 0.0100148 -0.00499688 -6.05995e-07
v 0.0100012 -0.0089771 0.000590861
v 0.0100148 -0.00499688 2.95977e-06
f 272 273 274
f 272 274 275
f 272 275 276
f 272 276 286
f 272 286 296
f 272 296 295
f 272 295 297
f 272 297 308
f 272 308 320
f 272 320 331
f 272 331 325
f 272 325 324
f 272 324 323
f 272 323 322
f 272 322 321
f 272 321 310
f 272 310 298
f 272 298 287
f 272 287 277
f 272 277 273
f 273 277 278
f 273 278 288
f 273 288 303
f 273 303 315
f 273 315 329
f 273 329 336
f 273 336 330
f 273 330 316
f 273 316 304
f 273 304 289
f 273 289 279
f 273 279 274
f 274 279 275
f 275 279 280
f 275 280 281
f 275 281 282
f 275 282 283
f 275 283 284
f 275 284 285
f 275 285 276
f 276 285 286
f 277 287 278
f 278 287 288
f 279 289 280
f 280 289 290
f 280 290 281
f 281 290 291
f 281 291 282
f 282 291 283
f 283 291 292
f 283 292 293
f 283 293 294
f 283 294 284
f 284 295 296
f 284 296 286
f 284 286 285
f 284 294 297
f 284 297 295
f 287 298 299
f 287 299 300
f 287 300 301
f 287 301 302
f 287 302 288
f 288 302 303
f 289 304 305
f 289 305 290
f 290 305 291
f 291 305 292
f 292 306 307
f 292 307 293
f 292 305 306
f 293 307 294
f 294 308 297
f 294 307 309
f 294 309 308
f 298 310 299
f 299 310 311
f 299 311 300
f 300 311 312
f 300 312 301
f 301 313 302
f 301 312 314
f 301 314 313
f 302 313 315
f 302 315 303
f 304 316 306
f 304 306 305
f 306 316 330
f 306 330 337
f 306 337 335
f 306 335 334
f 306 334 333
f 306 333 332
f 306 332 331
f 306 331 320
f 306 320 319
f 306 319 318
f 306 318 317
f 306 317 309
f 306 309 307
f 308 309 317
f 308 317 318
f 308 318 319
f 308 319 320
f 310 321 311
f 311 321 322
f 311 322 312
f 312 322 323
f 312 323 324
f 312 324 325
f 312 325 326
f 312 326 327
f 312 327 314
f 313 314 328
f 313 328 329
f 313 329 315
f 314 327 328
f 325 331 332
f 325 332 333
f 325 333 334
f 325 334 326
f 326 334 327
f 327 334 335
f 327 335 328
f 328 336 329
f 328 335 337
f 328 337 336
f 330 336 337
o convex_5
v 3.70775e-06 -0.0100001 0.00663341
v 0.00736128 -0.00999817 0.00659398
v 0.00707117 -0.00999817 0.00663189
v 0.00700159 -0.00999817 0.00663341
v 3.70775e-06 -0.00989244 0.00679185
v 3.70775e-06 -0.00999817 0.00600038
v 0.00423772 -0.00999817 0.00424913
v 0.00934695 -0.00999817 0.00424913
v 0.00914995 -0.00999817 0.00480255
v 0.00896374 -0.00999817 0.00519602
v 0.00868833 -0.00999817 0.00564027
v 0.00836392 -0.00999817 0.00602085
v 0.00829237 -0.00999817 0.00608908
v 0.00794836 -0.00999817 0.00635215
v 0.00773274 -0.00999817 0.00646814
v 0.00777782 -0.00980629 0.00673348
v 0.00777782 -0.00882147 0.00798058
v 0.00700159 -0.00889783 0.00804957
v 0.00700159 -0.00989048 0.00679109
v 3.70775e-06 -0.00889979 0.00804957
v 3.70775e-06 0.00994101 0.00599962
v 0.0042338 0.00999974 0.00424913
v 0.0094087 -0.00990615 0.00424913
v 0.00959982 -0.00936968 0.00473584
v 0.00912251 -0.00992377 0.00501559
v 0.00912251 -0.00916606 0.00629453
v 0.00850113 -0.0095596 0.00656366
v 0.00850113 -0.00860023 0.00777968
v 0.00777782 -0.00768002 0.00908516
v 0.00700159 -0.00865701 0.00830809
v 3.70775e-06 -0.00865701 0.00830809
v 3.70775e-06 0.00999974 0.00599962
v 0.00934009 0.0100017 0.00424913
v 0.00948809 -0.00977497 0.00424913
v 0.00959982 -0.00957526 0.00424913
v 0.00989875 -0.00872358 0.00440909
v 0.00989875 -0.0080579 0.00553338
v 0.00959884 -0.0086531 0.00594276
v 0.00959884 -0.00778379 0.00704355
v 0.00912251 -0.00824585 0.00745975
v 0.00850113 -0.00748619 0.0088562
v 0.00850113 -0.00623901 0.00977504
v 0.00777782 -0.00639956 0.0100283
v 0.00700061 -0.00703783 0.00971743
v 0.00700159 -0.00774463 0.00916324
v 3.70775e-06 -0.00820278 0.00873566
v 3.70775e-06 0.00999974 0.00663416
v 0.0095959 0.0095925 0.00424913
v 0.00699767 0.00999974 0.00663341
v 0.0073848 0.00999974 0.00658792
v 0.00765825 0.00999974 0.00649922
v 0.00777782 0.00999974 0.00644539
v 0.00803167 0.00999974 0.00629453
v 0.0082267 0.00999974 0.00614518
v 0.00857758 0.00999974 0.00577977
v 0.00884809 0.00999974 0.00539237
v 0.00914897 0.00999974 0.00479649
v 0.0095959 0.0090345 0.00535143
v 0.00989875 -0.00879015 0.00424913
v 0.00994579 -0.00840444 0.00424913
v 0.0100007 -0.00741767 0.00509367
v 0.0100007 -0.00667171 0.00603753
v 0.00989875 -0.00724733 0.00655835
v 0.00989875 -0.0063095 0.00746582
v 0.00959884 -0.00677548 0.00801849
v 0.00912251 -0.00717684 0.00849231
v 0.00912251 -0.00598253 0.00937324
v 0.00850015 -0.00488024 0.0105203
v 0.00777684 -0.00500554 0.0107917
v 0.00700061 -0.0051935 0.0108167
v 0.00700061 -0.00645438 0.0101139
v 3.70775e-06 -0.00674807 0.00991605
v 3.70775e-06 -0.00703783 0.00971743
v 3.70775e-06 -0.00739221 0.00944071
v 3.70775e-06 -0.00774659 0.00916324
v 3.70775e-06 0.00941629 0.00743777
v 0.00699767 0.00941825 0.00743777
v 0.00989581 0.00878389 0.00424913
v 0.0077739 0.00933797 0.00737409
v 0.00849819 0.00910303 0.00718835
v 0.00849721 0.00998016 0.00591092
v 0.00911957 0.00872907 0.00689268
v 0.00911957 0.00956901 0.00566832
v 0.0095959 0.00824155 0.00650756
v 0.00989581 0.00767377 0.00605951
v 0.00989581 0.00841189 0.00498299
v 0.0100007 -0.00791693 0.00424913
v 0.0100154 -0.00254056 0.00424913
v 0.0100007 -0.00580828 0.00687297
v 0.00989875 -0.00525811 0.00823986
v 0.00959884 -0.00564773 0.00884938
v 0.00959884 -0.00441622 0.00952411
v 0.00912153 -0.00467857 0.0100874
v 0.00912153 -0.00329239 0.0106211
v 0.00850015 -0.00343336 0.0110767
v 0.00777684 -0.00352342 0.0113633
v 0.00700061 -0.00504862 0.0108842
v 3.70775e-06 -0.00505057 0.0108849
v 3.70775e-06 -0.00519546 0.0108167
v 3.70775e-06 -0.00645634 0.0101139
v 3.70775e-06 0.00903646 0.00787369
v 0.00699767 0.00865859 0.00830809
v 0.00999774 0.00774425 0.00458725
v 0.00999774 0.00791459 0.00424913
v 0.00777488 0.00827092 0.0085522
v 0.00849819 0.00806339 0.00833689
v 0.00911957 0.0077325 0.00799498
v 0.0095959 0.00729981 0.0075477
v 0.00989581 0.00679663 0.00702763
v 0.00999872 0.00625821 0.00646965
v 0.00999872 0.00706486 0.00557811
v 0.0100154 -0.00207458 0.00454859
v 0.0100007 -0.00483912 0.00758636
v 0.0100154 0.00254409 0.00424913
v 0.0100007 -0.00378578 0.00816329
v 0.00989777 -0.00411274 0.00886758
v 0.00989777 -0.00289298 0.00933685
v 0.00959786 -0.00310835 0.0100283
v 0.00912153 -0.00184746 0.010966
v 0.00850015 -0.00192578 0.0114361
v 0.00700061 -0.00355279 0.0114603
v 0.00777684 -0.00197668 0.0117317
v 0.00700061 -0.00318274 0.0115687
v 3.70775e-06 -0.00355474 0.0114611
v 3.70775e-06 0.00865663 0.00830884
v 3.70775e-06 0.0085 0.00846729
v 0.00699767 0.00834337 0.00862574
v 0.00777488 0.00705703 0.00957793
v 0.00849819 0.00688082 0.00933685
v 0.00911957 0.00659693 0.00895324
v 0.00959688 0.00622884 0.00845289
v 0.00989679 0.00580006 0.00787141
v 0.00999872 0.00533996 0.00724596
v 0.0100154 -0.00070797 0.00494963
v 0.0100154 0.00208203 0.00454631
v 0.0099997 -0.00149504 0.0088744
v 0.0099997 -0.0026639 0.00859541
v 0.00989777 -0.00162426 0.0096401
v 0.00959786 -0.00174369 0.0103535
v 0.00912153 -0.000369254 0.0111146
v 0.00850015 -0.000384917 0.0115907
v 0.00777586 -0.000394707 0.0118909
v 0.00699963 -0.00107018 0.0119516
v 0.00699963 -0.0019943 0.0118326
v 3.70775e-06 -0.0031847 0.0115687
v 3.70775e-06 0.00834141 0.00862574
v 3.70775e-06 0.00711772 0.00966057
v 0.00699865 0.00711772 0.00966057
v 0.00699865 0.00703941 0.00971818
v 0.00777488 0.00571783 0.0104331
v 0.00849819 0.00557491 0.0101708
v 0.00911957 0.00534583 0.0097523
v 0.00959688 0.00504628 0.00920721
v 0.00989679 0.00469973 0.00857267
v 0.00999872 0.00432577 0.00789264
v 0.0100154 0.000711502 0.00494963
v 0.0099997 -0.00029877 0.00899418
v 0.0100154 0.00207811 0.00454859
v 0.00989777 -0.000324223 0.00977049
v 0.00959786 -0.000347717 0.0104937
v 0.00959786 0.00105218 0.0104467
v 0.00912055 0.00111287 0.0110646
v 0.00849917 0.00116182 0.0115392
v 0.00777586 0.00119119 0.0118379
v 0.00699963 -0.000398623 0.0119925
v 0.00699963 0.00107371 0.0119516
v 3.70775e-06 -0.000400581 0.0119933
v 3.70775e-06 -0.00107214 0.0119516
v 3.70775e-06 -0.0019943 0.0118326
v 3.70775e-06 0.00707857 0.00968937
v 3.70775e-06 0.00703745 0.00971818
v 3.70775e-06 0.00576678 0.0105233
v 0.00699865 0.00576678 0.0105233
v 0.00699865 0.00519507 0.0108167
v 0.00777488 0.00427682 0.0111025
v 0.00849917 0.00416914 0.0108228
v 0.00912055 0.00399684 0.0103777
v 0.00959688 0.00377365 0.00979778
v 0.00989679 0.0035152 0.00912306
v 0.00999872 0.00323522 0.0083983
v 0.0099997 0.0020879 0.00875462
v 0.0099997 0.000901418 0.008954
v 0.00989679 0.000979733 0.00972652
v 0.00989679 0.00226803 0.0095097
v 0.00959688 0.00243445 0.0102132
v 0.00912055 0.00257933 0.0108182
v 0.00849917 0.00268897 0.0112814
v 0.00777586 0.0027575 0.0115733
v 0.00699963 0.00278295 0.0116726
v 0.00699963 0.00120098 0.0119395
v 3.70775e-06 0.00113636 0.0119455
v 3.70775e-06 0.00107175 0.0119516
v 3.70775e-06 0.00519507 0.0108167
v 0.00699865 0.00431207 0.011198
v 0.00699865 0.00318628 0.0115687
v 3.70775e-06 0.00318432 0.0115695
v 3.70775e-06 0.00278099 0.0116726
v 3.70775e-06 0.00119902 0.0119395
v 3.70775e-06 0.00431207 0.011198
f 338 339 340
f 338 340 341
f 338 341 342
f 338 342 357
f 338 357 368
f 338 368 383
f 338 383 412
f 338 412 411
f 338 411 410
f 338 410 409
f 338 409 437
f 338 437 436
f 338 436 435
f 338 435 461
f 338 461 482
f 338 482 506
f 338 506 505
f 338 505 504
f 338 504 529
f 338 529 528
f 338 528 535
f 338 535 534
f 338 534 533
f 338 533 536
f 338 536 530
f 338 530 509
f 338 509 508
f 338 508 507
f 338 507 484
f 338 484 483
f 338 483 463
f 338 463 462
f 338 462 438
f 338 438 413
f 338 413 384
f 338 384 369
f 338 369 358
f 338 358 343
f 338 343 344
f 338 344 345
f 338 345 346
f 338 346 347
f 338 347 348
f 338 348 349
f 338 349 350
f 338 350 351
f 338 351 352
f 338 352 339
f 339 352 353
f 339 353 354
f 339 354 355
f 339 355 356
f 339 356 340
f 340 356 341
f 341 356 342
f 342 356 355
f 342 355 357
f 343 358 359
f 343 359 344
f 344 359 370
f 344 370 385
f 344 385 415
f 344 415 441
f 344 441 451
f 344 451 425
f 344 425 424
f 344 424 397
f 344 397 396
f 344 396 372
f 344 372 371
f 344 371 360
f 344 360 345
f 345 360 361
f 345 361 346
f 346 362 347
f 346 361 362
f 347 362 363
f 347 363 348
f 348 363 364
f 348 364 349
f 349 364 350
f 350 364 351
f 351 364 353
f 351 353 352
f 353 364 365
f 353 365 354
f 354 365 366
f 354 366 367
f 354 367 355
f 355 367 357
f 357 367 368
f 358 369 359
f 359 369 370
f 360 371 361
f 361 363 362
f 361 371 372
f 361 372 373
f 361 373 374
f 361 374 375
f 361 375 363
f 363 375 376
f 363 376 377
f 363 377 365
f 363 365 364
f 365 377 378
f 365 378 366
f 366 378 379
f 366 379 380
f 366 380 381
f 366 381 382
f 366 382 367
f 367 382 412
f 367 412 383
f 367 383 368
f 369 384 370
f 370 384 386
f 370 386 387
f 370 387 388
f 370 388 389
f 370 389 390
f 370 390 391
f 370 391 392
f 370 392 393
f 370 393 394
f 370 394 395
f 370 395 385
f 372 396 373
f 373 396 397
f 373 397 374
f 374 398 399
f 374 399 400
f 374 400 376
f 374 376 375
f 374 397 398
f 376 400 401
f 376 401 402
f 376 402 377
f 377 402 403
f 377 403 378
f 378 403 404
f 378 404 379
f 379 404 405
f 379 405 380
f 380 405 406
f 380 406 407
f 380 407 408
f 380 408 381
f 381 409 410
f 381 410 411
f 381 411 412
f 381 412 382
f 381 408 409
f 384 413 414
f 384 414 386
f 385 395 415
f 386 414 387
f 387 414 416
f 387 416 388
f 388 416 389
f 389 416 390
f 390 416 417
f 390 417 391
f 391 417 418
f 391 418 392
f 392 418 417
f 392 417 419
f 392 419 420
f 392 420 393
f 393 420 394
f 394 420 395
f 395 421 422
f 395 422 423
f 395 423 415
f 395 420 421
f 397 424 398
f 398 424 425
f 398 425 399
f 399 425 426
f 399 426 401
f 399 401 400
f 401 426 427
f 401 427 428
f 401 428 402
f 402 428 404
f 402 404 403
f 404 428 429
f 404 429 430
f 404 430 405
f 405 430 431
f 405 431 432
f 405 432 433
f 405 433 406
f 406 433 434
f 406 434 407
f 407 435 436
f 407 436 437
f 407 437 408
f 407 434 435
f 408 437 409
f 413 438 414
f 414 438 462
f 414 462 439
f 414 439 416
f 415 423 440
f 415 440 441
f 416 439 442
f 416 442 443
f 416 443 417
f 417 443 444
f 417 444 419
f 419 444 421
f 419 421 420
f 421 444 445
f 421 445 422
f 422 445 446
f 422 446 447
f 422 447 448
f 422 448 423
f 423 448 440
f 425 449 450
f 425 450 426
f 425 451 472
f 425 472 495
f 425 495 493
f 425 493 471
f 425 471 449
f 426 450 427
f 427 450 452
f 427 452 453
f 427 453 429
f 427 429 428
f 429 453 454
f 429 454 455
f 429 455 431
f 429 431 430
f 431 455 456
f 431 456 432
f 432 456 457
f 432 457 433
f 433 458 434
f 433 457 459
f 433 459 460
f 433 460 458
f 434 458 461
f 434 461 435
f 439 462 463
f 439 463 464
f 439 464 442
f 440 448 441
f 441 448 451
f 442 464 465
f 442 465 466
f 442 466 443
f 443 466 444
f 444 466 467
f 444 467 468
f 444 468 445
f 445 468 469
f 445 469 446
f 446 469 447
f 447 469 470
f 447 470 451
f 447 451 448
f 449 471 452
f 449 452 450
f 451 470 472
f 452 471 473
f 452 473 474
f 452 474 454
f 452 454 453
f 454 474 475
f 454 475 455
f 455 475 476
f 455 476 456
f 456 476 477
f 456 477 457
f 457 477 478
f 457 478 479
f 457 479 459
f 458 460 461
f 459 479 480
f 459 480 481
f 459 481 460
f 460 481 482
f 460 482 461
f 463 483 464
f 464 483 484
f 464 484 485
f 464 485 465
f 465 485 486
f 465 486 487
f 465 487 488
f 465 488 466
f 466 488 489
f 466 489 467
f 467 489 468
f 468 489 490
f 468 490 469
f 469 490 491
f 469 491 492
f 469 492 470
f 470 492 472
f 471 493 494
f 471 494 473
f 472 492 495
f 473 475 474
f 473 494 496
f 473 496 475
f 475 496 497
f 475 497 476
f 476 497 477
f 477 497 498
f 477 498 499
f 477 499 500
f 477 500 478
f 478 500 501
f 478 501 479
f 479 502 480
f 479 501 503
f 479 503 502
f 480 502 504
f 480 504 505
f 480 505 481
f 481 505 506
f 481 506 482
f 484 507 486
f 484 486 485
f 486 507 508
f 486 508 509
f 486 509 510
f 486 510 487
f 487 510 511
f 487 511 512
f 487 512 488
f 488 512 513
f 488 513 489
f 489 513 514
f 489 514 490
f 490 514 515
f 490 515 516
f 490 516 491
f 491 516 492
f 492 516 517
f 492 517 518
f 492 518 495
f 493 495 518
f 493 518 519
f 493 519 494
f 494 519 496
f 496 519 520
f 496 520 498
f 496 498 497
f 498 520 521
f 498 521 522
f 498 522 523
f 498 523 499
f 499 523 500
f 500 523 524
f 500 524 501
f 501 524 525
f 501 525 526
f 501 526 527
f 501 527 503
f 502 503 504
f 503 527 528
f 503 528 529
f 503 529 504
f 509 530 511
f 509 511 510
f 511 530 536
f 511 536 531
f 511 531 512
f 512 531 532
f 512 532 525
f 512 525 513
f 513 525 524
f 513 524 523
f 513 523 514
f 514 523 515
f 515 523 522
f 515 522 516
f 516 522 521
f 516 521 518
f 516 518 517
f 518 521 520
f 518 520 519
f 525 532 526
f 526 532 533
f 526 533 534
f 526 534 535
f 526 535 527
f 527 535 528
f 531 536 533
f 531 533 532
o convex_6
v -0.0100005 0.0020844 -0.008754
v -0.00989767 0.00226453 -0.00950957
v -0.00989767 0.000976242 -0.00972659
v -0.00999951 0.000897927 -0.00895438
v -0.00999951 -0.000302255 -0.00899432
v -0.00999951 -0.00149852 -0.0088745
v -0.00999951 -0.00266738 -0.00859557
v -0.00999951 -0.00266542 -0.00519317
v -0.0100005 0.00226845 -0.00519317
v -0.0100005 0.00323172 -0.00839852
v -0.00959801 0.00243095 -0.0102132
v -0.00959801 0.00104868 -0.0104469
v -0.00989767 0.0035117 -0.0091228
v -0.00959801 0.0037721 -0.00979782
v -0.00989767 -0.000327708 -0.00977053
v -0.00989669 -0.00162774 -0.00964005
v -0.00989669 -0.00289645 -0.00933716
v -0.00989669 -0.00411621 -0.00886784
v -0.00999853 -0.00378924 -0.00816419
v -0.00999853 -0.00484259 -0.00758636
v -0.00999853 -0.00581174 -0.0068734
v -0.00999853 -0.00667516 -0.00603728
v -0.00999853 -0.0073428 -0.00519317
v -0.0100005 0.0073237 -0.00519317
v -0.0100005 0.00432226 -0.00789259
v -0.00989865 0.00469622 -0.0085736
v -0.00912111 0.00257583 -0.0108177
v -0.00912209 0.0039953 -0.0103776
v -0.00912111 0.00111134 -0.0110647
v -0.00912111 -0.000372739 -0.0111146
v -0.00959801 -0.000351202 -0.0104935
v -0.00959899 0.00504277 -0.00920735
v -0.00959703 -0.00174717 -0.010353
v -0.00959703 -0.00311182 -0.0100282
v -0.00959703 -0.00441968 -0.00952422
v -0.00989669 -0.00526157 -0.00824075
v -0.00989571 -0.00631296 -0.00746587
v -0.00989571 -0.00725078 -0.00655852
v -0.00989571 -0.00806135 -0.00553334
v -0.00997503 -0.00756404 -0.00519317
v -0.00995936 0.00771136 -0.00519317
v -0.0100005 0.00706134 -0.00557794
v -0.0100005 0.00533645 -0.00724552
v -0.00989865 0.00579655 -0.00787062
v -0.00959899 0.00622533 -0.00845311
v -0.00850025 0.00268547 -0.0112817
v -0.00850025 0.00115833 -0.0115393
v -0.00912209 0.00534232 -0.00975256
v -0.00850025 0.00557139 -0.0101706
v -0.00850025 0.00416563 -0.0108223
v -0.00849927 -0.000388402 -0.0115912
v -0.00912111 -0.00185094 -0.0109661
v -0.00912013 -0.00329586 -0.0106213
v -0.00912013 -0.00468204 -0.0100874
v -0.00959703 -0.00565119 -0.00884986
v -0.00959605 -0.00677893 -0.0080184
v -0.00959605 -0.00778724 -0.00704382
v -0.00995838 -0.00771872 -0.00519317
v -0.00959605 -0.00865654 -0.00594275
v -0.00959605 -0.00910098 -0.00519317
v -0.00989571 -0.00826301 -0.00519317
v -0.00989865 0.00767024 -0.00605924
v -0.00989865 0.00826348 -0.00519317
v -0.0100005 0.0062547 -0.00646932
v -0.00989865 0.00679311 -0.00702784
v -0.00959899 0.00729629 -0.00754775
v -0.00912209 0.00659537 -0.00895305
v -0.00777657 0.00275596 -0.0115732
v -0.00777657 0.00118965 -0.0118375
v -0.00850123 0.0068773 -0.00933649
v -0.00777755 0.00571628 -0.0104329
v -0.00777755 0.00705547 -0.00957814
v -0.00777657 0.00427332 -0.0111019
v -0.0077756 -0.000398192 -0.0118908
v -0.0077756 -0.00198016 -0.0117317
v -0.00849927 -0.00192926 -0.0114361
v -0.00849927 -0.00343683 -0.0110766
v -0.0084983 -0.00488174 -0.0105201
v -0.0084983 -0.00624051 -0.00977585
v -0.00912013 -0.00598403 -0.00937377
v -0.00911915 -0.0071803 -0.00849305
v -0.00911915 -0.0082493 -0.00746055
v -0.00911915 -0.00916951 -0.00629424
v -0.00921022 -0.00968443 -0.00519317
v -0.00985752 0.00838487 -0.00519317
v -0.00972826 0.0087647 -0.00519317
v -0.00959899 0.00823803 -0.00650726
v -0.00912307 0.00872554 -0.0068927
v -0.00912209 0.00772898 -0.00799444
v -0.00850123 0.00805986 -0.00833727
v -0.00700002 0.00277945 -0.0116724
v -0.00700002 0.00119944 -0.0119394
v -0.00700002 0.00318278 -0.0115693
v -0.00700002 0.00107022 -0.0119514
v -0.007001 0.00576522 -0.0105228
v -0.007001 0.00519352 -0.0108163
v -0.007001 0.00703785 -0.00971794
v -0.007001 0.00711616 -0.00966002
v -0.00777755 0.00826936 -0.0085523
v -0.00700002 0.00431052 -0.0111978
v -0.00700002 -0.000400149 -0.0119926
v -0.00699904 -0.00107366 -0.0119514
v -0.00699904 -0.00199582 -0.0118322
v -0.00699904 -0.00318622 -0.0115693
v -0.0077756 -0.00352493 -0.0113629
v -0.0077756 -0.00500901 -0.0107917
v -0.00777462 -0.00640302 -0.0100282
v -0.0084983 -0.00748769 -0.00885652
v -0.0084983 -0.00860172 -0.00778008
v -0.00849732 -0.00956304 -0.00656451
v -0.00868436 -0.00999965 -0.00564052
v -0.00896149 -0.0100016 -0.00519317
v -0.00911915 -0.00982148 -0.00519317
v -0.00963033 0.00902902 -0.00519317
v -0.00959899 0.00903097 -0.00535094
v -0.00850123 0.0090995 -0.00718827
v -0.00912307 0.00956548 -0.00566781
v -0.00858153 0.00999817 -0.00577965
v 2.72787e-06 0.00298307 -0.0116212
v 2.72787e-06 0.00278141 -0.0116724
v 2.72787e-06 0.00199043 -0.0118062
v 2.72787e-06 0.00119944 -0.0119394
v 2.72787e-06 0.00113679 -0.0119454
v 2.72787e-06 0.00318473 -0.0115693
v 2.72787e-06 0.00107218 -0.0119514
v 2.72787e-06 -0.000400149 -0.0119933
v 2.72787e-06 0.00640349 -0.01012
v 2.72787e-06 0.00576522 -0.0105228
v 2.72787e-06 0.00548133 -0.0106699
v 2.72787e-06 0.00519548 -0.0108163
v 2.72787e-06 0.00431248 -0.0111978
v 2.72787e-06 0.00711812 -0.00966069
v 2.72787e-06 0.00707896 -0.00968931
v 2.72787e-06 0.00703785 -0.00971794
v -0.007001 0.00833984 -0.00862552
v -0.00777755 0.00933445 -0.007374
v -0.007001 0.00865702 -0.00830865
v 2.72787e-06 -0.0010717 -0.0119514
v 2.72787e-06 -0.00153376 -0.0118921
v 2.72787e-06 -0.00199387 -0.0118329
v 2.72787e-06 -0.00318426 -0.0115693
v 2.72787e-06 -0.0033683 -0.0115153
v -0.00699904 -0.00355626 -0.0114607
v -0.00699904 -0.00505208 -0.0108849
v -0.00699904 -0.005195 -0.0108163
v -0.00699806 -0.00645784 -0.0101147
v -0.00699806 -0.00703933 -0.00971794
v -0.00777462 -0.00768152 -0.00908552
v -0.00777462 -0.00882492 -0.00798112
v -0.00777462 -0.00980974 -0.0067336
v -0.00794403 -0.00999965 -0.00635215
v -0.00828873 -0.00999965 -0.0060892
v -0.00836022 -0.00999965 -0.0060213
v -0.00895953 -0.0100016 -0.00519583
v 2.72787e-06 -0.00999965 -0.00600066
v -0.00300362 -0.00999965 -0.00519317
v -0.00959899 0.00911125 -0.00519317
v -0.00947169 0.00930703 -0.00519317
v -0.00850123 0.00997663 -0.00591079
v -0.00822998 0.00999817 -0.00614445
v -0.00803608 0.00999817 -0.00629424
v -0.00913874 0.00980042 -0.00519317
v -0.00895268 0.00999817 -0.00519317
v -0.00885181 0.00999817 -0.00539221
v 2.72787e-06 0.0100001 -0.00663308
v 2.72787e-06 0.0083418 -0.00862552
v -0.00778147 0.00999817 -0.00644469
v -0.007662 0.00999817 -0.00649927
v -0.00738879 0.00999817 -0.00658781
v -0.007001 0.00941472 -0.00743725
v 2.72787e-06 0.00865702 -0.00830865
v 2.72787e-06 0.00850039 -0.00846709
v 2.72787e-06 0.00941668 -0.00743725
v 2.72787e-06 -0.0035543 -0.0114607
v 2.72787e-06 -0.00430221 -0.0111732
v 2.72787e-06 -0.00505012 -0.0108849
v 2.72787e-06 -0.005195 -0.010817
v 2.72787e-06 -0.00645588 -0.0101147
v 2.72787e-06 -0.00703933 -0.00971794
v -0.00699806 -0.00774808 -0.00916341
v -0.00699806 -0.0086585 -0.00830931
v -0.00699806 -0.00889932 -0.00804969
v -0.00735745 -0.00999965 -0.00659447
v -0.00772859 -0.00999965 -0.00646865
v -0.00706759 -0.00999965 -0.00663241
v -0.00699806 -0.00999965 -0.00663374
v 2.72787e-06 -0.00999965 -0.00663374
v 2.72787e-06 0.00999817 -0.00600066
v -0.00300656 0.00999817 -0.00519317
v -0.00700197 0.00999817 -0.00663308
v 2.72787e-06 -0.00774613 -0.00916341
v 2.72787e-06 -0.00820231 -0.00873603
v 2.72787e-06 -0.00865654 -0.00830931
v 2.72787e-06 -0.00889932 -0.00804969
v -0.00699806 -0.00989392 -0.00679152
v 2.72787e-06 -0.00989197 -0.00679218
f 537 538 539
f 537 539 540
f 537 540 541
f 537 541 542
f 537 542 543
f 537 543 544
f 537 544 545
f 537 545 560
f 537 560 578
f 537 578 600
f 537 600 579
f 537 579 561
f 537 561 546
f 537 546 538
f 538 547 548
f 538 548 539
f 538 546 549
f 538 549 550
f 538 550 547
f 539 548 551
f 539 551 540
f 540 551 541
f 541 551 542
f 542 552 543
f 542 551 552
f 543 553 554
f 543 554 555
f 543 555 556
f 543 556 557
f 543 557 558
f 543 558 559
f 543 559 544
f 543 552 553
f 544 559 576
f 544 576 594
f 544 594 597
f 544 597 596
f 544 596 620
f 544 620 649
f 544 649 648
f 544 648 692
f 544 692 725
f 544 725 699
f 544 699 698
f 544 698 694
f 544 694 693
f 544 693 650
f 544 650 622
f 544 622 621
f 544 621 599
f 544 599 577
f 544 577 560
f 544 560 545
f 546 561 562
f 546 562 549
f 547 563 548
f 547 550 564
f 547 564 563
f 548 565 566
f 548 566 567
f 548 567 551
f 548 563 565
f 549 562 550
f 550 562 568
f 550 568 564
f 551 567 552
f 552 569 570
f 552 570 553
f 552 567 569
f 553 570 554
f 554 571 572
f 554 572 555
f 554 570 571
f 555 572 556
f 556 572 557
f 557 572 573
f 557 573 574
f 557 574 558
f 558 574 559
f 559 574 575
f 559 575 576
f 560 577 578
f 561 579 562
f 562 579 580
f 562 580 581
f 562 581 568
f 563 582 583
f 563 583 565
f 563 564 582
f 564 568 584
f 564 584 585
f 564 585 586
f 564 586 582
f 565 583 566
f 566 587 588
f 566 588 567
f 566 583 587
f 567 588 569
f 568 581 584
f 569 588 570
f 570 588 589
f 570 589 590
f 570 590 571
f 571 590 591
f 571 591 572
f 572 591 573
f 573 591 592
f 573 592 593
f 573 593 574
f 574 593 575
f 575 594 576
f 575 593 595
f 575 595 596
f 575 596 597
f 575 597 594
f 577 598 578
f 577 599 598
f 578 598 600
f 579 600 580
f 580 600 601
f 580 601 602
f 580 602 581
f 581 603 584
f 581 602 603
f 582 604 605
f 582 605 583
f 582 586 604
f 583 605 587
f 584 603 606
f 584 606 585
f 585 607 586
f 585 606 608
f 585 608 607
f 586 607 609
f 586 609 604
f 587 610 611
f 587 611 612
f 587 612 588
f 587 605 610
f 588 612 613
f 588 613 589
f 589 613 590
f 590 614 615
f 590 615 616
f 590 616 591
f 590 613 614
f 591 616 617
f 591 617 592
f 592 617 618
f 592 618 593
f 593 618 595
f 595 618 619
f 595 619 596
f 596 619 620
f 598 602 601
f 598 601 600
f 598 599 621
f 598 621 622
f 598 622 623
f 598 623 602
f 602 623 624
f 602 624 625
f 602 625 603
f 603 625 626
f 603 626 606
f 604 627 628
f 604 628 605
f 604 609 629
f 604 629 627
f 605 628 630
f 605 630 610
f 606 626 608
f 607 631 632
f 607 632 609
f 607 608 633
f 607 633 631
f 608 634 633
f 608 626 635
f 608 635 634
f 609 636 629
f 609 632 636
f 610 630 637
f 610 637 638
f 610 638 611
f 611 639 640
f 611 640 641
f 611 641 613
f 611 613 612
f 611 638 639
f 613 641 642
f 613 642 614
f 614 642 615
f 615 642 643
f 615 643 644
f 615 644 617
f 615 617 616
f 617 644 618
f 618 645 646
f 618 646 619
f 618 644 645
f 619 646 647
f 619 647 648
f 619 648 649
f 619 649 620
f 622 650 651
f 622 651 623
f 623 651 624
f 624 652 626
f 624 626 625
f 624 651 653
f 624 653 654
f 624 654 652
f 626 652 635
f 627 655 656
f 627 656 657
f 627 657 628
f 627 629 655
f 628 657 658
f 628 658 659
f 628 659 661
f 628 661 630
f 629 636 667
f 629 667 660
f 629 660 655
f 630 661 662
f 630 662 637
f 631 663 664
f 631 664 665
f 631 665 632
f 631 633 663
f 632 665 666
f 632 666 667
f 632 667 636
f 633 634 668
f 633 668 669
f 633 669 670
f 633 670 663
f 634 635 671
f 634 671 668
f 635 652 672
f 635 672 673
f 635 673 671
f 637 662 638
f 638 662 674
f 638 674 675
f 638 675 676
f 638 676 639
f 639 676 640
f 640 677 678
f 640 678 679
f 640 679 641
f 640 676 677
f 641 679 642
f 642 679 680
f 642 680 681
f 642 681 643
f 643 681 682
f 643 682 683
f 643 683 684
f 643 684 644
f 644 684 685
f 644 685 645
f 645 685 646
f 646 685 686
f 646 686 687
f 646 687 688
f 646 688 689
f 646 689 647
f 647 689 690
f 647 690 648
f 648 690 691
f 648 691 692
f 650 693 651
f 651 693 694
f 651 694 653
f 652 654 695
f 652 695 696
f 652 696 697
f 652 697 672
f 653 694 698
f 653 698 699
f 653 699 700
f 653 700 654
f 654 700 701
f 654 701 696
f 654 696 695
f 655 660 667
f 655 667 666
f 655 666 665
f 655 665 664
f 655 664 663
f 655 663 670
f 655 670 669
f 655 669 668
f 655 668 702
f 655 702 708
f 655 708 707
f 655 707 709
f 655 709 701
f 655 701 724
f 655 724 691
f 655 691 723
f 655 723 732
f 655 732 730
f 655 730 729
f 655 729 728
f 655 728 727
f 655 727 715
f 655 715 714
f 655 714 713
f 655 713 712
f 655 712 711
f 655 711 710
f 655 710 678
f 655 678 677
f 655 677 676
f 655 676 675
f 655 675 674
f 655 674 662
f 655 662 661
f 655 661 659
f 655 659 658
f 655 658 657
f 655 657 656
f 668 671 702
f 671 673 708
f 671 708 702
f 672 697 703
f 672 703 704
f 672 704 705
f 672 705 706
f 672 706 673
f 673 707 708
f 673 706 709
f 673 709 707
f 678 710 679
f 679 710 711
f 679 711 680
f 680 711 712
f 680 712 713
f 680 713 681
f 681 713 682
f 682 713 714
f 682 714 715
f 682 715 683
f 683 715 716
f 683 716 684
f 684 716 717
f 684 717 685
f 685 718 719
f 685 719 686
f 685 717 718
f 686 719 720
f 686 720 687
f 687 690 688
f 687 720 690
f 688 690 689
f 690 720 719
f 690 719 721
f 690 721 722
f 690 722 723
f 690 723 691
f 691 724 692
f 692 724 725
f 696 701 697
f 697 701 703
f 699 725 701
f 699 701 700
f 701 725 724
f 701 709 726
f 701 726 705
f 701 705 704
f 701 704 703
f 705 726 706
f 706 726 709
f 715 727 716
f 716 727 728
f 716 728 717
f 717 729 730
f 717 730 718
f 717 728 729
f 718 730 731
f 718 731 719
f 719 731 721
f 721 731 722
f 722 731 723
f 723 731 732
f 730 732 731
o convex_7
v 3.70775e-06 -0.00999989 -0.00600017
v 0.0044602 -0.00999793 -0.00396259
v 0.00445922 -0.00548892 -0.00396259
v 0.00445628 0.00999991 -0.00396259
v 3.70775e-06 -0.00998618 -0.00600017
v 3.70775e-06 -0.00999793 -0.00663376
v 0.00700159 -0.00999793 -0.00663376
v 0.00738872 -0.00999793 -0.00658817
v 0.00766217 -0.00999793 -0.00650013
v 0.00803559 -0.00999793 -0.00629495
v 0.00822965 -0.00999793 -0.00614481
v 0.0085815 -0.00999793 -0.00578006
v 0.00885201 -0.00999793 -0.00539251
v 0.0091529 -0.00999793 -0.00479664
v 0.00939498 -0.00999793 -0.00410173
v 0.00943222 -0.00999793 -0.00396259
v 0.0094283 0.0100019 -0.00396259
v 3.70775e-06 0.00999991 -0.00600095
v 3.70775e-06 -0.00994507 -0.00671316
v 3.70775e-06 -0.0098922 -0.00679177
v 0.00700159 -0.00989024 -0.00679177
v 0.00700061 -0.0088976 -0.00804953
v 0.00777782 -0.00882124 -0.00798036
v 0.00777782 -0.00980606 -0.00673438
v 0.00850113 -0.00955936 -0.00656459
v 0.00912251 -0.00916583 -0.00629495
v 0.00912251 -0.00992353 -0.00501675
v 0.00959884 -0.00936945 -0.00473611
v 0.00947535 -0.00992549 -0.00396259
v 0.00959688 0.00971602 -0.00396259
v 0.00942438 0.0100019 -0.00398381
v 3.70775e-06 0.00999991 -0.00663376
v 3.70775e-06 -0.00889955 -0.00804953
v 0.00700061 -0.00865678 -0.00830895
v 0.00777684 -0.00767979 -0.00908562
v 0.00850113 -0.00859804 -0.00778069
v 0.00912251 -0.00824562 -0.00746074
v 0.00959884 -0.00778356 -0.00704411
v 0.00959884 -0.00865286 -0.00594278
v 0.00989875 -0.00805766 -0.00553401
v 0.00989875 -0.00872334 -0.00440988
v 0.00959982 -0.00969641 -0.00396259
v 0.00974095 0.00934598 -0.00396259
v 0.0095959 0.00966707 -0.00409937
v 0.00937244 0.00999991 -0.00416698
v 0.00914603 0.00999991 -0.00480293
v 0.00895982 0.00999991 -0.00519598
v 0.00868441 0.00999991 -0.00564013
v 0.00836 0.00999991 -0.00602139
v 0.00828845 0.00999991 -0.00608978
v 0.00794444 0.00999991 -0.00635234
v 0.00772882 0.00999991 -0.00646868
v 0.00735736 0.00999991 -0.00659446
v 0.00706725 0.00999991 -0.00663219
v 0.00699767 0.00999991 -0.00663376
v 0.00699767 0.00941842 -0.00743716
v 3.70775e-06 0.00941646 -0.00743716
v 3.70775e-06 -0.00865678 -0.00830816
v 3.70775e-06 -0.00820255 -0.0087358
v 3.70775e-06 -0.00774636 -0.00916344
v 0.00700061 -0.0077444 -0.00916344
v 0.00700061 -0.00703761 -0.00971843
v 0.00777684 -0.00639933 -0.0100282
v 0.00850015 -0.00623879 -0.00977581
v 0.00850113 -0.00748596 -0.00885686
v 0.00912251 -0.00717662 -0.0084929
v 0.00959884 -0.00677525 -0.00801809
v 0.00989875 -0.00630927 -0.00746625
v 0.00989875 -0.0072471 -0.0065583
v 0.0100007 -0.00667148 -0.0060379
v 0.0100007 -0.00741744 -0.00509458
v 0.0100007 -0.00749771 -0.00497587
v 0.0100007 -0.00803025 -0.00406007
v 0.00993011 -0.00865482 -0.00396259
v 0.00989875 -0.0089113 -0.00396259
v 0.00989581 0.00892699 -0.00396259
v 0.00989581 0.00841207 -0.00498295
v 0.0095959 0.00903468 -0.00535163
v 0.00911859 0.00956918 -0.00566764
v 0.00911859 0.00872925 -0.00689318
v 0.00849721 0.0091032 -0.00718797
v 0.00849721 0.00998033 -0.00591055
v 0.0077739 0.00933815 -0.00737427
v 0.00699767 0.00865876 -0.00830816
v 3.70775e-06 0.0086568 -0.00830816
v 3.70775e-06 -0.00739198 -0.00944093
v 3.70775e-06 -0.00703761 -0.00971764
v 3.70775e-06 -0.00674784 -0.00991653
v 0.00700061 -0.00645416 -0.0101146
v 0.00700061 -0.00519328 -0.0108166
v 0.00777684 -0.00500532 -0.0107922
v 0.00850015 -0.00488002 -0.0105203
v 0.00912153 -0.00467835 -0.0100879
v 0.00912153 -0.00598035 -0.00937412
v 0.00959884 -0.00564751 -0.00885057
v 0.00989777 -0.00525789 -0.00824056
v 0.0100007 -0.0048389 -0.00758652
v 0.0100007 -0.00580805 -0.00687352
v 0.0100154 -0.00298478 -0.00396259
v 0.0100007 -0.00807137 -0.00396259
v 0.00991541 0.00876253 -0.00396259
v 0.0095959 0.00824173 -0.00650799
v 0.00999774 0.00774443 -0.00458675
v 0.00999774 0.00706504 -0.00557803
v 0.00989581 0.00767395 -0.00605912
v 0.00911957 0.00773268 -0.00799372
v 0.00849819 0.00806356 -0.00833646
v 0.0077739 0.0082711 -0.00855185
v 0.00699767 0.00834354 -0.00862575
v 3.70775e-06 0.00850017 -0.00846695
v 3.70775e-06 -0.00645611 -0.0101146
v 3.70775e-06 -0.00582567 -0.010466
v 3.70775e-06 -0.00519524 -0.0108166
v 0.00700061 -0.00504839 -0.010885
v 0.00777684 -0.0035232 -0.0113637
v 0.00850015 -0.00343314 -0.0110768
v 0.00912153 -0.00329217 -0.0106217
v 0.00959786 -0.004416 -0.00952426
v 0.00959786 -0.00310813 -0.0100282
v 0.00989777 -0.00411252 -0.00886787
v 0.0099997 -0.00378556 -0.00816352
v 0.0099997 -0.00266369 -0.00859587
v 0.0100154 -0.00207437 -0.00454902
v 0.0100154 0.00298873 -0.00396259
v 0.00999774 0.00805965 -0.00396259
v 0.0095959 0.00729999 -0.007548
v 0.00999872 0.00534015 -0.00724614
v 0.00999774 0.00625839 -0.00646947
v 0.00989581 0.00679681 -0.0070276
v 0.0095959 0.00622903 -0.0084528
v 0.00911957 0.00659711 -0.00895277
v 0.00849819 0.006881 -0.00933717
v 0.00777488 0.00705917 -0.0095785
v 0.00699767 0.00711791 -0.00966026
v 3.70775e-06 0.00711791 -0.00966026
v 3.70775e-06 0.00773072 -0.00914222
v 3.70775e-06 0.00834158 -0.00862496
v 3.70775e-06 -0.00505035 -0.010885
v 3.70775e-06 -0.00355453 -0.0114612
v 0.00699963 -0.00355257 -0.0114612
v 0.00699963 -0.00318253 -0.0115689
v 0.00777586 -0.00197647 -0.0117316
v 0.00850015 -0.00192557 -0.0114361
v 0.00912055 -0.00184725 -0.010966
v 0.00959786 -0.00174348 -0.0103536
v 0.00989777 -0.00289276 -0.00933717
v 0.00989777 -0.00162209 -0.00963982
v 0.0099997 -0.00149483 -0.00887415
v 0.0100154 -0.000707762 -0.00494993
v 0.0100154 0.00207831 -0.00454902
v 0.00989581 0.00580025 -0.00787109
v 0.00999872 0.00432596 -0.0078931
v 0.00989581 0.00469992 -0.00857308
v 0.00959688 0.00504646 -0.00920746
v 0.00911957 0.00534602 -0.00975223
v 0.00849819 0.00557509 -0.0101704
v 0.00777488 0.00571802 -0.010433
v 0.00699767 0.00703959 -0.00971764
v 3.70775e-06 0.00707875 -0.00968934
v 3.70775e-06 -0.00318449 -0.0115689
v 3.70775e-06 -0.00258929 -0.011701
v 0.00699963 -0.00199409 -0.0118323
v 0.00699963 -0.00106997 -0.0119517
v 0.00777586 -0.0003945 -0.0118912
v 0.00849917 -0.000384711 -0.0115917
v 0.00912055 -0.000369048 -0.0111145
v 0.00959786 -0.000347511 -0.0104935
v 0.00989679 -0.000324016 -0.0097711
v 0.0099997 -0.000298564 -0.00899443
v 0.0100154 0.000711705 -0.00494993
v 0.0099997 0.00090162 -0.00895434
v 0.00999872 0.00323542 -0.00839856
v 0.00989679 0.0035154 -0.00912256
v 0.00959688 0.00377384 -0.00979782
v 0.00911957 0.00399899 -0.010378
v 0.00849819 0.00416933 -0.0108229
v 0.00777488 0.00427701 -0.0111028
v 0.00699865 0.00519526 -0.0108166
v 0.00699865 0.00576697 -0.0105226
v 3.70775e-06 0.00703959 -0.00971764
v 3.70775e-06 -0.00199409 -0.0118323
v 3.70775e-06 -0.00153399 -0.011892
v 3.70775e-06 -0.00107193 -0.0119517
v 0.00699963 -0.000398416 -0.0119934
v 0.00699865 0.00107391 -0.0119517
v 0.00777586 0.00119139 -0.0118378
v 0.00849917 0.00116202 -0.0115398
v 0.00912055 0.00111503 -0.011065
v 0.00959688 0.00105238 -0.0104471
v 0.00989679 0.000979935 -0.00972707
v 0.00989679 0.00226822 -0.00951011
v 0.00999872 0.0020881 -0.00875467
v 0.00959688 0.00243464 -0.0102137
v 0.00912055 0.00257953 -0.0108182
v 0.00849917 0.00268917 -0.011282
v 0.00777488 0.00275965 -0.0115736
v 0.00699865 0.00318647 -0.0115689
v 0.00699865 0.00431421 -0.0111979
v 3.70775e-06 0.00519526 -0.0108166
v 3.70775e-06 0.00576697 -0.0105226
v 3.70775e-06 -0.000400374 -0.0119926
v 3.70775e-06 0.00107196 -0.0119517
v 3.70775e-06 0.00120118 -0.0119392
v 0.00699865 0.00120118 -0.0119392
v 0.00699865 0.00278315 -0.0116727
v 3.70775e-06 0.00318451 -0.0115689
v 3.70775e-06 0.00431226 -0.0111979
v 3.70775e-06 0.0019902 -0.0118063
v 3.70775e-06 0.00278119 -0.0116727
f 733 734 735
f 733 735 736
f 733 736 737
f 733 737 750
f 733 750 764
f 733 764 789
f 733 789 817
f 733 817 842
f 733 842 869
f 733 869 868
f 733 868 867
f 733 867 891
f 733 891 912
f 733 912 932
f 733 932 931
f 733 931 939
f 733 939 938
f 733 938 941
f 733 941 940
f 733 940 935
f 733 935 934
f 733 934 933
f 733 933 915
f 733 915 914
f 733 914 913
f 733 913 893
f 733 893 892
f 733 892 871
f 733 871 870
f 733 870 845
f 733 845 844
f 733 844 843
f 733 843 820
f 733 820 819
f 733 819 818
f 733 818 792
f 733 792 791
f 733 791 790
f 733 790 765
f 733 765 752
f 733 752 751
f 733 751 738
f 733 738 739
f 733 739 740
f 733 740 741
f 733 741 742
f 733 742 743
f 733 743 744
f 733 744 745
f 733 745 746
f 733 746 747
f 733 747 748
f 733 748 734
f 734 748 761
f 734 761 774
f 734 774 807
f 734 807 806
f 734 806 832
f 734 832 831
f 734 831 856
f 734 856 857
f 734 857 833
f 734 833 808
f 734 808 775
f 734 775 762
f 734 762 749
f 734 749 736
f 734 736 735
f 736 749 750
f 736 750 737
f 738 751 739
f 739 751 752
f 739 752 753
f 739 753 740
f 740 753 754
f 740 754 755
f 740 755 756
f 740 756 741
f 741 756 742
f 742 756 757
f 742 757 743
f 743 757 744
f 744 757 758
f 744 758 745
f 745 759 746
f 745 758 759
f 746 759 760
f 746 760 747
f 747 761 748
f 747 760 761
f 749 762 763
f 749 763 750
f 750 763 764
f 752 765 753
f 753 765 754
f 754 765 766
f 754 766 755
f 755 766 767
f 755 767 768
f 755 768 757
f 755 757 756
f 757 768 769
f 757 769 758
f 758 769 770
f 758 770 771
f 758 771 760
f 758 760 759
f 760 771 772
f 760 772 773
f 760 773 774
f 760 774 761
f 762 775 776
f 762 776 763
f 763 776 777
f 763 777 778
f 763 778 779
f 763 779 780
f 763 780 781
f 763 781 782
f 763 782 783
f 763 783 784
f 763 784 785
f 763 785 786
f 763 786 787
f 763 787 764
f 764 787 788
f 764 788 789
f 765 790 766
f 766 790 791
f 766 791 792
f 766 792 793
f 766 793 767
f 767 793 794
f 767 794 795
f 767 795 796
f 767 796 797
f 767 797 768
f 768 797 769
f 769 797 798
f 769 798 799
f 769 799 770
f 770 799 800
f 770 800 801
f 770 801 772
f 770 772 771
f 772 801 802
f 772 802 803
f 772 803 804
f 772 804 773
f 773 804 805
f 773 805 806
f 773 806 807
f 773 807 774
f 775 808 809
f 775 809 810
f 775 810 776
f 776 810 777
f 777 810 778
f 778 810 811
f 778 811 779
f 779 811 780
f 780 811 812
f 780 812 813
f 780 813 814
f 780 814 781
f 781 814 813
f 781 813 782
f 782 813 783
f 783 813 815
f 783 815 784
f 784 815 785
f 785 815 788
f 785 788 786
f 786 788 787
f 788 815 816
f 788 816 817
f 788 817 789
f 792 818 794
f 792 794 793
f 794 818 819
f 794 819 820
f 794 820 843
f 794 843 821
f 794 821 795
f 795 821 822
f 795 822 823
f 795 823 796
f 796 823 824
f 796 824 825
f 796 825 826
f 796 826 798
f 796 798 797
f 798 826 827
f 798 827 799
f 799 827 800
f 800 827 828
f 800 828 829
f 800 829 830
f 800 830 802
f 800 802 801
f 802 830 831
f 802 831 803
f 803 831 804
f 804 831 805
f 805 832 806
f 805 831 832
f 808 833 809
f 809 834 810
f 809 833 835
f 809 835 836
f 809 836 837
f 809 837 834
f 810 834 812
f 810 812 811
f 812 834 838
f 812 838 839
f 812 839 813
f 813 839 815
f 815 839 840
f 815 840 816
f 816 840 841
f 816 841 842
f 816 842 817
f 821 843 844
f 821 844 822
f 822 844 845
f 822 845 870
f 822 870 846
f 822 846 823
f 823 846 847
f 823 847 824
f 824 847 848
f 824 848 849
f 824 849 825
f 825 850 827
f 825 827 826
f 825 849 851
f 825 851 850
f 827 850 852
f 827 852 828
f 828 852 829
f 829 852 853
f 829 853 854
f 829 854 855
f 829 855 831
f 829 831 830
f 831 855 881
f 831 881 902
f 831 902 882
f 831 882 856
f 833 857 835
f 834 837 858
f 834 858 838
f 835 857 856
f 835 856 836
f 836 856 859
f 836 859 860
f 836 860 837
f 837 860 861
f 837 861 858
f 838 858 862
f 838 862 863
f 838 863 864
f 838 864 839
f 839 864 865
f 839 865 840
f 840 865 841
f 841 865 866
f 841 866 867
f 841 867 868
f 841 868 869
f 841 869 842
f 846 870 871
f 846 871 872
f 846 872 847
f 847 872 873
f 847 873 874
f 847 874 875
f 847 875 848
f 848 875 849
f 849 875 876
f 849 876 877
f 849 877 851
f 850 851 852
f 851 877 878
f 851 878 852
f 852 878 854
f 852 854 853
f 854 878 879
f 854 879 880
f 854 880 881
f 854 881 855
f 856 882 859
f 858 861 883
f 858 883 862
f 859 884 885
f 859 885 883
f 859 883 861
f 859 861 860
f 859 882 884
f 862 883 886
f 862 886 863
f 863 886 887
f 863 887 864
f 864 887 888
f 864 888 865
f 865 888 889
f 865 889 890
f 865 890 866
f 866 890 891
f 866 891 867
f 871 892 873
f 871 873 872
f 873 892 893
f 873 893 894
f 873 894 874
f 874 894 895
f 874 895 896
f 874 896 875
f 875 896 897
f 875 897 876
f 876 897 898
f 876 898 877
f 877 898 899
f 877 899 879
f 877 879 878
f 879 899 900
f 879 900 901
f 879 901 880
f 880 901 881
f 881 901 902
f 882 902 903
f 882 903 904
f 882 904 884
f 883 885 886
f 884 904 905
f 884 905 885
f 885 905 886
f 886 905 906
f 886 906 907
f 886 907 887
f 887 907 888
f 888 907 908
f 888 908 909
f 888 909 889
f 889 909 910
f 889 910 911
f 889 911 890
f 890 912 891
f 890 911 932
f 890 932 912
f 893 913 894
f 894 913 914
f 894 914 915
f 894 915 895
f 895 915 916
f 895 916 896
f 896 916 917
f 896 917 918
f 896 918 919
f 896 919 897
f 897 919 920
f 897 920 898
f 898 920 899
f 899 920 921
f 899 921 922
f 899 922 900
f 900 922 903
f 900 903 901
f 901 903 902
f 903 922 923
f 903 923 924
f 903 924 904
f 904 924 923
f 904 923 905
f 905 923 906
f 906 923 925
f 906 925 926
f 906 926 907
f 907 926 927
f 907 927 908
f 908 927 909
f 909 927 928
f 909 928 929
f 909 929 930
f 909 930 910
f 910 931 932
f 910 932 911
f 910 930 931
f 915 933 916
f 916 933 934
f 916 934 917
f 917 934 935
f 917 935 936
f 917 936 918
f 918 936 937
f 918 937 928
f 918 928 919
f 919 928 927
f 919 927 926
f 919 926 920
f 920 926 921
f 921 926 925
f 921 925 923
f 921 923 922
f 928 937 929
f 929 938 939
f 929 939 930
f 929 937 941
f 929 941 938
f 930 939 931
f 935 940 936
f 936 940 937
f 937 940 941
o convex_8
v -0.0100526 -0.00348995 0.00353187
v -0.00999751 -0.0082574 0.00353187
v -0.00999751 -0.0080342 0.00405947
v -0.00999849 -0.00742139 0.00509397
v -0.00999849 -0.00667543 0.00603736
v -0.0100526 -0.00328437 0.00376958
v -0.0100526 0.003486 0.00353187
v -0.00995715 -0.0085922 0.00353187
v -0.00989514 -0.0087273 0.00440982
v -0.00989613 -0.00806162 0.00553378
v -0.00989613 -0.00631322 0.00746611
v -0.00999849 -0.005812 0.00687308
v -0.0100526 -0.00327458 0.00377952
v -0.00989613 -0.00725105 0.00655834
v -0.0100526 0.00327063 0.00377952
v -0.0100005 0.0070611 0.0055785
v -0.0100005 0.00774049 0.00458707
v -0.0100014 0.00827303 0.00353187
v -0.00989514 -0.0090993 0.00353187
v -0.00983215 -0.00926572 0.00353187
v -0.00959592 -0.00937144 0.00473616
v -0.00959592 -0.00778751 0.0070437
v -0.00959592 -0.00865681 0.00594294
v -0.00959592 -0.00565146 0.00885014
v -0.00989613 -0.00526184 0.00824054
v -0.00959592 -0.0067792 0.00801773
v -0.00999849 -0.00484285 0.00758621
v -0.0100526 -0.00207831 0.00454897
v -0.0100526 0.00326084 0.00378614
v -0.0100005 0.0053362 0.00724662
v -0.0100005 0.00625445 0.00646971
v -0.00989908 0.00767 0.00605972
v -0.00989908 0.00840813 0.00498298
v -0.00989908 0.00899745 0.00381762
v -0.00989908 0.0090973 0.00353187
v -0.00959592 -0.00988245 0.00353187
v -0.00956639 -0.00993727 0.00353187
v -0.00945616 -0.00999992 0.00386152
v -0.0093912 -0.00999992 0.00410171
v -0.00914906 -0.00999992 0.00479662
v -0.00911855 -0.00992748 0.00501611
v -0.00911953 -0.00824957 0.00746031
v -0.00911855 -0.00916978 0.00629412
v -0.00911953 -0.00718057 0.00849233
v -0.00911953 -0.0059843 0.0093736
v -0.00959691 -0.00441995 0.00952434
v -0.00989613 -0.00411647 0.00886753
v -0.00999849 -0.00378951 0.00816351
v -0.00999849 -0.00266764 0.00859586
v -0.00999948 -0.00149878 0.00887416
v -0.0100526 -0.000711709 0.00494985
v -0.0100526 0.00207436 0.00454897
v -0.0098981 0.0057963 0.0078703
v -0.0098981 0.00679287 0.00702796
v -0.0100005 0.00432202 0.00789267
v -0.0098981 0.00469597 0.0085735
v -0.00959888 0.00729605 0.00754811
v -0.00959888 0.00823779 0.00650781
v -0.00959888 0.00903073 0.00535156
v -0.00959888 0.00966313 0.00410005
v -0.00960478 0.00986284 0.00353187
v -0.00977408 0.00942623 0.00353187
v -0.00952112 -0.0100019 0.00353187
v -0.00884787 -0.00999992 0.00539214
v -0.00849747 -0.00748795 0.00885676
v -0.00849747 -0.00956331 0.00656413
v -0.00849747 -0.00860199 0.0077792
v -0.00857818 -0.00999992 0.00577977
v -0.00849846 -0.00624078 0.00977531
v -0.00911953 -0.0046823 0.0100876
v -0.00912052 -0.00329612 0.0106218
v -0.00959691 -0.00311208 0.0100279
v -0.00989613 -0.00289671 0.00933716
v -0.00989711 -0.001628 0.0096403
v -0.00999948 -0.000302511 0.00899508
v -0.0100526 0.000707758 0.00494985
v -0.0100005 0.00323147 0.00839874
v -0.00959888 0.00622508 0.0084534
v -0.0098981 0.00351145 0.00912264
v -0.00959888 0.00504252 0.00920795
v -0.00912249 0.00772874 0.00799454
v -0.00912249 0.0087253 0.00689295
v -0.00912249 0.00956524 0.00566795
v -0.00915005 0.00999793 0.00480325
v -0.00937643 0.00999793 0.00416714
v -0.00942761 0.00999793 0.0039841
v -0.00952604 0.00999793 0.00353187
v -0.00699744 -0.00999992 0.00663371
v -0.00738426 -0.00999992 0.00658815
v -0.00765789 -0.00999992 0.00649953
v -0.00803191 -0.00999992 0.00629495
v -0.00822581 -0.00999992 0.00614503
v -0.00478676 -0.00999992 0.00353187
v 2.72787e-06 -0.00999992 0.00600009
v 2.72787e-06 -0.00999992 0.00663371
v -0.00777403 -0.00882519 0.00798046
v -0.00777403 -0.00768179 0.00908536
v -0.00777501 -0.00640329 0.0100279
v -0.00777403 -0.00981001 0.00673393
v -0.00849846 -0.00488201 0.0105199
v -0.00912052 -0.0018512 0.0109663
v -0.00959691 -0.00174743 0.0103534
v -0.00849846 -0.00343709 0.0110773
v -0.00959691 -0.000351458 0.0104942
v -0.00989711 -0.000327964 0.00977034
v -0.00989711 0.000975989 0.00972727
v -0.00999948 0.000897673 0.0089545
v -0.00999948 0.00208415 0.00875489
v -0.00989711 0.00226428 0.00951026
v -0.0091215 0.00659317 0.00895367
v -0.0091215 0.00534208 0.00975294
v -0.00959789 0.00376989 0.0097985
v -0.00959789 0.0024307 0.0102135
v -0.0091215 0.00399505 0.0103783
v -0.00850141 0.00805962 0.00833662
v -0.00850141 0.00909926 0.00718864
v -0.00850043 0.00687706 0.00933716
v -0.00868842 0.00999793 0.00564062
v -0.00896402 0.00999793 0.00519667
v -2.19334e-06 0.00999989 0.00600092
v 2.72787e-06 0.00999989 0.00600009
v -0.00479069 0.00999793 0.00353187
v -0.00699744 -0.0098942 0.00679191
v -0.00699744 -0.00889959 0.00804921
v -0.00478872 0.00144001 0.00353187
v 2.72787e-06 -0.00989224 0.00679191
v -0.00699744 -0.00865877 0.00830845
v -0.00699744 -0.00774835 0.00916322
v -0.00699842 -0.0070396 0.00971816
v -0.00699842 -0.00645811 0.0101141
v -0.00699842 -0.00519527 0.0108164
v -0.00777501 -0.00500927 0.0107916
v -0.00849944 -0.00192951 0.011436
v -0.00849944 -0.000388658 0.0115917
v -0.00912052 -0.000372995 0.0111146
v -0.00777501 -0.00352519 0.0113631
v -0.00777501 -0.00198042 0.0117317
v -0.00959789 0.00104843 0.010447
v -0.00850043 0.00557115 0.0101704
v -0.00850043 0.00416539 0.0108231
v -0.0091215 0.00257558 0.0108181
v -0.00777698 0.00826912 0.00855196
v -0.00777797 0.00933421 0.00737417
v -0.00794825 0.00999793 0.0063521
v -0.00829274 0.00999793 0.00608954
v -0.00836361 0.00999793 0.00602162
v -0.00850141 0.00997639 0.00591146
v -0.00777698 0.00705523 0.00957818
v -0.00777698 0.00571603 0.0104338
v -0.00707126 0.00999793 0.00663288
v -0.00700137 0.00999793 0.00663371
v 2.72787e-06 0.00999793 0.00663371
v -0.00773269 0.00999793 0.00646888
v -0.00736162 0.00999793 0.00659478
v 2.72787e-06 -0.00889959 0.00804921
v 2.72787e-06 -0.00865681 0.00830845
v 2.72787e-06 -0.00820258 0.00873584
v 2.72787e-06 -0.0077464 0.00916322
v 2.72787e-06 -0.0070396 0.00971733
v 2.72787e-06 -0.00674787 0.00991611
v 2.72787e-06 -0.00645615 0.0101141
v 2.72787e-06 -0.00519527 0.0108164
v -0.00699842 -0.00505234 0.0108843
v -0.00699842 -0.00355652 0.0114608
v -0.007776 -0.000398448 0.0118907
v -0.007776 0.00118744 0.0118377
v -0.00849944 0.00115807 0.0115395
v -0.00912052 0.00111108 0.0110649
v -0.00699842 -0.00318648 0.0115693
v -0.00699941 -0.00199608 0.0118327
v -0.00699941 -0.00107392 0.011952
v -0.00777698 0.00427307 0.0111022
v -0.00849944 0.00268522 0.0112819
v -0.007776 0.00275571 0.0115735
v -0.00700039 0.00711592 0.00966101
v -0.00700137 0.0083396 0.00862568
v -0.00700137 0.00865678 0.00830845
v -0.00700137 0.00941448 0.00743795
v -0.00700039 0.00703761 0.00971816
v -0.00700039 0.00519328 0.0108164
v -0.00700039 0.00576498 0.0105232
v 2.72787e-06 0.00970816 0.00703624
v 2.72787e-06 -0.00505039 0.0108843
v 2.72787e-06 -0.00355456 0.0114608
v -0.00699941 -0.000402363 0.0119934
v -0.00699941 0.00106997 0.011952
v -0.00699941 0.00119919 0.0119396
v 2.72787e-06 -0.00318452 0.0115693
v 2.72787e-06 -0.00199608 0.0118327
v 2.72787e-06 -0.00107196 0.0119512
v 2.72787e-06 -0.000737162 0.0119719
v -0.00700039 0.00431027 0.0111983
v -0.00700039 0.00318253 0.0115693
v -0.00699941 0.0027792 0.0116729
v 2.72787e-06 0.00711788 0.00966018
v 2.72787e-06 0.00834156 0.00862568
v 2.72787e-06 0.00865678 0.00830845
v 2.72787e-06 0.00941644 0.00743795
v 2.72787e-06 0.00703761 0.00971816
v 2.72787e-06 0.00519523 0.0108164
v 2.72787e-06 0.00576498 0.0105232
v 2.72787e-06 -0.000400405 0.0119926
v 2.72787e-06 0.00107193 0.0119512
v 2.72787e-06 0.00113654 0.0119454
v 2.72787e-06 0.00119919 0.0119396
v 2.72787e-06 0.00278116 0.0116729
v 2.72787e-06 0.00374836 0.0113838
v 2.72787e-06 0.00431223 0.0111974
v 2.72787e-06 0.00318448 0.0115693
f 942 943 944
f 942 944 945
f 942 945 946
f 942 946 947
f 942 947 954
f 942 954 969
f 942 969 992
f 942 992 1017
f 942 1017 993
f 942 993 970
f 942 970 956
f 942 956 948
f 942 948 959
f 942 959 976
f 942 976 1003
f 942 1003 1002
f 942 1002 1028
f 942 1028 1063
f 942 1063 1066
f 942 1066 1034
f 942 1034 1004
f 942 1004 978
f 942 978 977
f 942 977 961
f 942 961 960
f 942 960 949
f 942 949 943
f 943 949 944
f 944 949 950
f 944 950 945
f 945 950 951
f 945 951 946
f 946 952 953
f 946 953 954
f 946 954 947
f 946 951 955
f 946 955 952
f 948 956 957
f 948 957 958
f 948 958 959
f 949 960 950
f 950 960 961
f 950 961 962
f 950 962 951
f 951 963 955
f 951 962 964
f 951 964 963
f 952 965 966
f 952 966 953
f 952 955 963
f 952 963 967
f 952 967 965
f 953 966 968
f 953 968 954
f 954 968 969
f 956 970 971
f 956 971 972
f 956 972 957
f 957 973 974
f 957 974 958
f 957 972 973
f 958 974 959
f 959 974 975
f 959 975 976
f 961 977 962
f 962 977 978
f 962 978 979
f 962 979 980
f 962 980 981
f 962 981 982
f 962 982 964
f 963 964 983
f 963 983 967
f 964 982 984
f 964 984 983
f 965 967 985
f 965 985 986
f 965 986 987
f 965 987 966
f 966 987 988
f 966 988 989
f 966 989 968
f 967 983 985
f 968 989 969
f 969 989 990
f 969 990 991
f 969 991 992
f 970 993 971
f 971 994 995
f 971 995 972
f 971 993 996
f 971 996 997
f 971 997 994
f 972 995 973
f 973 995 998
f 973 998 999
f 973 999 1000
f 973 1000 974
f 974 1000 975
f 975 1000 1001
f 975 1001 1002
f 975 1002 1003
f 975 1003 976
f 978 1004 979
f 979 1004 980
f 980 1004 981
f 981 1004 1005
f 981 1005 982
f 982 1005 984
f 983 1006 985
f 983 984 1007
f 983 1007 1008
f 983 1008 1006
f 984 1005 1009
f 984 1009 1007
f 985 1006 1010
f 985 1010 986
f 986 1010 1011
f 986 1011 987
f 987 1011 1012
f 987 1012 1013
f 987 1013 988
f 988 1013 1014
f 988 1014 990
f 988 990 989
f 990 1014 1015
f 990 1015 991
f 991 1015 1016
f 991 1016 992
f 992 1016 1017
f 993 1017 1018
f 993 1018 996
f 994 1019 995
f 994 997 1019
f 995 1019 998
f 996 1018 997
f 997 1018 1020
f 997 1020 1021
f 997 1021 1019
f 998 1022 999
f 998 1019 1022
f 999 1022 1023
f 999 1023 1000
f 1000 1023 1024
f 1000 1024 1025
f 1000 1025 1026
f 1000 1026 1001
f 1001 1026 1027
f 1001 1027 1028
f 1001 1028 1002
f 1004 1029 1030
f 1004 1030 1031
f 1004 1031 1032
f 1004 1032 1033
f 1004 1033 1009
f 1004 1009 1005
f 1004 1034 1035
f 1004 1035 1036
f 1004 1036 1029
f 1006 1008 1037
f 1006 1037 1038
f 1006 1038 1039
f 1006 1039 1010
f 1007 1040 1037
f 1007 1037 1008
f 1007 1009 1033
f 1007 1033 1032
f 1007 1032 1040
f 1010 1039 1041
f 1010 1041 1011
f 1011 1041 1012
f 1012 1042 1043
f 1012 1043 1013
f 1012 1041 1044
f 1012 1044 1042
f 1013 1043 1015
f 1013 1015 1014
f 1015 1043 1045
f 1015 1045 1046
f 1015 1046 1016
f 1016 1046 1047
f 1016 1047 1048
f 1016 1048 1017
f 1017 1048 1049
f 1017 1049 1018
f 1018 1049 1050
f 1018 1050 1020
f 1019 1051 1022
f 1019 1021 1052
f 1019 1052 1051
f 1020 1053 1021
f 1020 1050 1054
f 1020 1054 1053
f 1021 1053 1055
f 1021 1055 1052
f 1022 1056 1057
f 1022 1057 1023
f 1022 1051 1058
f 1022 1058 1056
f 1023 1057 1059
f 1023 1059 1024
f 1024 1059 1060
f 1024 1060 1025
f 1025 1060 1061
f 1025 1061 1026
f 1026 1061 1027
f 1027 1061 1028
f 1028 1061 1062
f 1028 1062 1063
f 1029 1036 1064
f 1029 1064 1030
f 1030 1064 1065
f 1030 1065 1037
f 1030 1037 1040
f 1030 1040 1031
f 1031 1040 1032
f 1034 1066 1062
f 1034 1062 1035
f 1035 1062 1093
f 1035 1093 1123
f 1035 1123 1139
f 1035 1139 1138
f 1035 1138 1137
f 1035 1137 1136
f 1035 1136 1140
f 1035 1140 1142
f 1035 1142 1141
f 1035 1141 1149
f 1035 1149 1148
f 1035 1148 1150
f 1035 1150 1147
f 1035 1147 1146
f 1035 1146 1145
f 1035 1145 1144
f 1035 1144 1143
f 1035 1143 1132
f 1035 1132 1131
f 1035 1131 1130
f 1035 1130 1129
f 1035 1129 1125
f 1035 1125 1124
f 1035 1124 1103
f 1035 1103 1102
f 1035 1102 1101
f 1035 1101 1100
f 1035 1100 1099
f 1035 1099 1098
f 1035 1098 1097
f 1035 1097 1096
f 1035 1096 1067
f 1035 1067 1036
f 1036 1067 1064
f 1037 1068 1038
f 1037 1065 1068
f 1038 1069 1070
f 1038 1070 1039
f 1038 1068 1069
f 1039 1071 1072
f 1039 1072 1073
f 1039 1073 1041
f 1039 1070 1071
f 1041 1073 1044
f 1042 1074 1075
f 1042 1075 1076
f 1042 1076 1045
f 1042 1045 1043
f 1042 1044 1074
f 1044 1073 1077
f 1044 1077 1078
f 1044 1078 1074
f 1045 1076 1079
f 1045 1079 1046
f 1046 1079 1047
f 1047 1079 1050
f 1047 1050 1049
f 1047 1049 1048
f 1050 1079 1054
f 1051 1052 1058
f 1052 1080 1058
f 1052 1055 1081
f 1052 1081 1080
f 1053 1054 1055
f 1054 1079 1082
f 1054 1082 1055
f 1055 1082 1081
f 1056 1058 1083
f 1056 1083 1057
f 1057 1083 1084
f 1057 1084 1085
f 1057 1085 1086
f 1057 1086 1087
f 1057 1087 1088
f 1057 1088 1059
f 1058 1089 1083
f 1058 1080 1090
f 1058 1090 1089
f 1059 1088 1087
f 1059 1087 1061
f 1059 1061 1060
f 1061 1091 1092
f 1061 1092 1093
f 1061 1093 1062
f 1061 1087 1086
f 1061 1086 1085
f 1061 1085 1094
f 1061 1094 1095
f 1061 1095 1091
f 1062 1066 1063
f 1064 1067 1096
f 1064 1096 1065
f 1065 1096 1068
f 1068 1096 1097
f 1068 1097 1098
f 1068 1098 1069
f 1069 1098 1099
f 1069 1099 1100
f 1069 1100 1070
f 1070 1100 1101
f 1070 1101 1071
f 1071 1101 1102
f 1071 1102 1103
f 1071 1103 1072
f 1072 1103 1104
f 1072 1104 1073
f 1073 1104 1105
f 1073 1105 1077
f 1074 1078 1075
f 1075 1078 1106
f 1075 1106 1107
f 1075 1107 1108
f 1075 1108 1109
f 1075 1109 1076
f 1076 1109 1079
f 1077 1105 1110
f 1077 1110 1078
f 1078 1110 1111
f 1078 1111 1112
f 1078 1112 1106
f 1079 1109 1082
f 1080 1081 1090
f 1081 1113 1090
f 1081 1082 1114
f 1081 1114 1115
f 1081 1115 1113
f 1082 1109 1108
f 1082 1108 1114
f 1083 1089 1116
f 1083 1116 1117
f 1083 1117 1118
f 1083 1118 1084
f 1084 1118 1119
f 1084 1119 1095
f 1084 1095 1094
f 1084 1094 1085
f 1089 1090 1120
f 1089 1120 1116
f 1090 1113 1121
f 1090 1121 1122
f 1090 1122 1120
f 1091 1095 1119
f 1091 1119 1092
f 1092 1119 1123
f 1092 1123 1093
f 1103 1124 1104
f 1104 1124 1125
f 1104 1125 1105
f 1105 1125 1129
f 1105 1129 1110
f 1106 1112 1126
f 1106 1126 1127
f 1106 1127 1107
f 1107 1127 1128
f 1107 1128 1115
f 1107 1115 1108
f 1108 1115 1114
f 1110 1129 1130
f 1110 1130 1111
f 1111 1130 1112
f 1112 1131 1132
f 1112 1132 1126
f 1112 1130 1131
f 1113 1133 1121
f 1113 1115 1134
f 1113 1134 1133
f 1115 1135 1134
f 1115 1128 1135
f 1116 1120 1136
f 1116 1136 1137
f 1116 1137 1117
f 1117 1137 1118
f 1118 1137 1138
f 1118 1138 1139
f 1118 1139 1119
f 1119 1139 1123
f 1120 1140 1136
f 1120 1122 1142
f 1120 1142 1140
f 1121 1141 1122
f 1121 1133 1141
f 1122 1141 1142
f 1126 1143 1144
f 1126 1144 1127
f 1126 1132 1143
f 1127 1144 1145
f 1127 1145 1146
f 1127 1146 1128
f 1128 1146 1147
f 1128 1147 1135
f 1133 1134 1150
f 1133 1150 1148
f 1133 1148 1149
f 1133 1149 1141
f 1134 1135 1147
f 1134 1147 1150
o convex_9
v -0.0100526 -0.00500164 -5.70655e-07
v -0.0100526 -0.00479803 -0.0014087
v -0.00999824 -0.00882132 -0.00179251
v -0.00999824 -0.0089799 -0.0006014
v -0.00999824 -0.0089799 -5.70655e-07
v -0.0100526 0.00499686 -5.70655e-07
v -0.0100526 -0.00420677 -0.00270305
v -0.00999824 -0.00853547 -0.00283571
v -0.00989602 -0.00933818 -0.00283571
v -0.00989555 -0.00958094 -0.00194737
v -0.00989555 -0.00975519 -0.000653296
v -0.009949 -0.00935188 -5.70655e-07
v -0.0100015 0.00899666 -5.70655e-07
v -0.0100015 0.00891639 -0.00119945
v -0.0100526 0.00479717 -0.00139649
v -0.0100526 -0.00419894 -0.00271249
v -0.0100526 -0.00409322 -0.00283571
v -0.00964703 -0.00999991 -0.00283571
v -0.0097244 -0.00999991 -0.00225736
v -0.00979473 -0.00999991 -0.00130408
v -0.00980364 -0.00999991 -0.00111398
v -0.00989555 -0.00975519 -5.70655e-07
v -0.00981818 -0.0100019 -5.70655e-07
v -0.00985053 -0.00990789 -5.70655e-07
v -0.0098993 0.0097739 -5.70655e-07
v -0.0100015 0.00867753 -0.00237725
v -0.0100526 0.00479521 -0.00140843
v -0.0098993 0.0096858 -0.00130297
v -0.0100526 0.00408844 -0.00283571
v -0.00526239 -0.00999991 -0.00283571
v -0.00599996 -0.00999991 -5.70655e-07
v -0.00982193 0.00999709 -5.70655e-07
v -0.00982756 0.00999709 -0.000393816
v -0.0100015 0.00851895 -0.00283571
v -0.0098993 0.00942542 -0.00258233
v -0.0098993 0.00933927 -0.00283571
v -0.0100526 0.00420395 -0.00270278
v -0.00976426 0.00999709 -0.00185024
v -0.00599809 -0.00999404 -5.70655e-07
v -0.00526567 0.00772996 -0.00283571
v -0.00600184 0.00999709 -5.70655e-07
v -0.00526614 0.00999905 -0.00283571
v -0.00972534 0.00980914 -0.00283571
v -0.0096536 0.00999709 -0.00283571
f 1151 1152 1153
f 1151 1153 1154
f 1151 1154 1155
f 1151 1155 1162
f 1151 1162 1172
f 1151 1172 1174
f 1151 1174 1173
f 1151 1173 1181
f 1151 1181 1189
f 1151 1189 1191
f 1151 1191 1182
f 1151 1182 1175
f 1151 1175 1163
f 1151 1163 1156
f 1151 1156 1165
f 1151 1165 1177
f 1151 1177 1187
f 1151 1187 1179
f 1151 1179 1167
f 1151 1167 1166
f 1151 1166 1157
f 1151 1157 1152
f 1152 1157 1158
f 1152 1158 1153
f 1153 1158 1159
f 1153 1159 1160
f 1153 1160 1161
f 1153 1161 1154
f 1154 1161 1162
f 1154 1162 1155
f 1156 1163 1164
f 1156 1164 1165
f 1157 1166 1158
f 1158 1166 1167
f 1158 1167 1179
f 1158 1179 1184
f 1158 1184 1186
f 1158 1186 1193
f 1158 1193 1194
f 1158 1194 1192
f 1158 1192 1190
f 1158 1190 1180
f 1158 1180 1168
f 1158 1168 1159
f 1159 1168 1169
f 1159 1169 1160
f 1160 1169 1170
f 1160 1170 1171
f 1160 1171 1161
f 1161 1172 1162
f 1161 1171 1173
f 1161 1173 1174
f 1161 1174 1172
f 1163 1175 1164
f 1164 1176 1177
f 1164 1177 1165
f 1164 1175 1178
f 1164 1178 1176
f 1168 1180 1173
f 1168 1173 1169
f 1169 1173 1170
f 1170 1173 1171
f 1173 1180 1181
f 1175 1182 1183
f 1175 1183 1178
f 1176 1184 1177
f 1176 1178 1185
f 1176 1185 1186
f 1176 1186 1184
f 1177 1184 1187
f 1178 1183 1188
f 1178 1188 1185
f 1179 1187 1184
f 1180 1189 1181
f 1180 1190 1189
f 1182 1191 1192
f 1182 1192 1183
f 1183 1192 1188
f 1185 1188 1193
f 1185 1193 1186
f 1188 1192 1194
f 1188 1194 1193
f 1189 1190 1191
f 1190 1192 1191
o convex_10
v -0.0100521 -0.00500167 -5.70782e-07
v -0.00999798 -0.00897992 -5.70782e-07
v -0.0100521 -0.00500167 1.20812e-07
v -0.0100521 0.00499683 -5.70782e-07
v -0.00999798 -0.00897992 0.000601424
v -0.00989591 -0.00975521 -5.70782e-07
v -0.00999798 -0.00882134 0.00179262
v -0.0100521 -0.00480001 0.00139636
v -0.0100521 0.00499683 4.66609e-07
v -0.0100016 0.00899663 -5.70782e-07
v -0.00989591 -0.00975521 0.00065329
v -0.00985054 -0.00990792 -5.70782e-07
v -0.00982373 -0.00999994 0.000393959
v -0.00989591 -0.00958097 0.00194718
v -0.00989591 -0.00923639 0.00320684
v -0.00999798 -0.00850222 0.002952
v -0.0100521 -0.00479805 0.00140881
v -0.0100016 0.00891636 0.00119996
v -0.0100016 0.00899663 4.66609e-07
v -0.0100521 0.00479518 0.00140915
v -0.00989952 0.00977387 -5.70782e-07
v -0.00976032 -0.0100019 0.00185036
v -0.00981806 -0.00999994 -5.70782e-07
v -0.00989591 -0.00909935 0.00353187
v -0.00963557 -0.00999994 0.00296099
v -0.00959587 -0.00991967 0.00344404
v -0.00999798 -0.00825749 0.00353187
v -0.0100521 -0.00421267 0.00269163
v -0.0100016 0.0086775 0.00237802
v -0.00989952 0.00968577 0.00130369
v -0.00989952 0.00977387 4.66609e-07
v -0.0100521 0.00420392 0.00270339
v -0.0100011 0.0082742 0.00353187
v -0.0100011 0.00828203 0.00351354
v -0.00982219 0.00999706 -5.70782e-07
v -0.00952163 -0.00999994 0.00353187
v -0.00600006 -0.00999994 -5.70782e-07
v -0.00599851 -0.00999994 1.20812e-07
v -0.00478599 -0.00999994 0.00353187
v -0.00959587 -0.00988247 0.00353187
v -0.00956648 -0.00993729 0.00353187
v -0.0100521 -0.00349024 0.00353187
v -0.0100521 -0.0042068 0.00270304
v -0.0099954 0.0083251 0.00353187
v -0.00989952 0.00942539 0.00258306
v -0.00979847 0.00999706 0.00130438
v -0.00980724 0.00999706 0.00111421
v -0.0100521 0.00419609 0.00271273
v -0.0100521 0.00348541 0.00353187
v -0.00479011 0.00999902 0.00353187
v -0.00600212 0.00999706 -5.70782e-07
v -0.00599851 -0.00999406 -5.70782e-07
v -0.009899 0.00909647 0.00353187
v -0.00972784 0.00999706 0.00225769
v -0.00960824 0.00999706 0.00315117
v -0.00952576 0.00999706 0.00353187
v -0.00977476 0.00942539 0.00353187
v -0.00960515 0.00986393 0.00353187
f 1195 1196 1199
f 1195 1199 1197
f 1195 1197 1202
f 1195 1202 1211
f 1195 1211 1222
f 1195 1222 1237
f 1195 1237 1236
f 1195 1236 1243
f 1195 1243 1242
f 1195 1242 1226
f 1195 1226 1214
f 1195 1214 1203
f 1195 1203 1198
f 1195 1198 1204
f 1195 1204 1215
f 1195 1215 1229
f 1195 1229 1245
f 1195 1245 1246
f 1195 1246 1231
f 1195 1231 1217
f 1195 1217 1206
f 1195 1206 1200
f 1195 1200 1196
f 1196 1200 1205
f 1196 1205 1199
f 1197 1199 1201
f 1197 1201 1202
f 1198 1203 1213
f 1198 1213 1204
f 1199 1205 1201
f 1200 1206 1207
f 1200 1207 1205
f 1201 1205 1208
f 1201 1208 1209
f 1201 1209 1210
f 1201 1210 1211
f 1201 1211 1202
f 1203 1212 1213
f 1203 1214 1212
f 1204 1213 1225
f 1204 1225 1215
f 1205 1207 1216
f 1205 1216 1208
f 1206 1217 1207
f 1207 1217 1216
f 1208 1216 1209
f 1209 1218 1210
f 1209 1216 1219
f 1209 1219 1220
f 1209 1220 1218
f 1210 1218 1221
f 1210 1221 1211
f 1211 1221 1222
f 1212 1214 1223
f 1212 1223 1224
f 1212 1224 1225
f 1212 1225 1213
f 1214 1226 1227
f 1214 1227 1228
f 1214 1228 1223
f 1215 1225 1229
f 1216 1230 1219
f 1216 1217 1231
f 1216 1231 1232
f 1216 1232 1233
f 1216 1233 1230
f 1218 1220 1234
f 1218 1234 1235
f 1218 1235 1230
f 1218 1230 1233
f 1218 1233 1244
f 1218 1244 1250
f 1218 1250 1252
f 1218 1252 1251
f 1218 1251 1247
f 1218 1247 1238
f 1218 1238 1227
f 1218 1227 1243
f 1218 1243 1236
f 1218 1236 1221
f 1219 1230 1235
f 1219 1235 1220
f 1220 1235 1234
f 1221 1236 1237
f 1221 1237 1222
f 1223 1228 1238
f 1223 1238 1239
f 1223 1239 1224
f 1224 1239 1240
f 1224 1240 1241
f 1224 1241 1225
f 1225 1241 1229
f 1226 1242 1227
f 1227 1238 1228
f 1227 1242 1243
f 1229 1241 1244
f 1229 1244 1245
f 1231 1246 1232
f 1232 1246 1233
f 1233 1246 1245
f 1233 1245 1244
f 1238 1247 1239
f 1239 1247 1248
f 1239 1248 1240
f 1240 1248 1244
f 1240 1244 1241
f 1244 1248 1249
f 1244 1249 1250
f 1247 1251 1248
f 1248 1251 1249
f 1249 1251 1252
f 1249 1252 1250
